<?xml version="1.0" encoding="UTF-8" standalone="no"?>
<!-- Created with Inkscape (http://www.inkscape.org/) -->

<svg
   width="127.5mm"
   height="127.5mm"
   viewBox="0 0 127.5 127.5"
   version="1.1"
   id="svg5"
   xml:space="preserve"
   inkscape:version="1.2.2 (732a01da63, 2022-12-09)"
   sodipodi:docname="TopPanel.svg"
   xmlns:inkscape="http://www.inkscape.org/namespaces/inkscape"
   xmlns:sodipodi="http://sodipodi.sourceforge.net/DTD/sodipodi-0.dtd"
   xmlns="http://www.w3.org/2000/svg"
   xmlns:svg="http://www.w3.org/2000/svg"><sodipodi:namedview
     id="namedview7"
     pagecolor="#ffffff"
     bordercolor="#000000"
     borderopacity="0.25"
     inkscape:showpageshadow="2"
     inkscape:pageopacity="0.0"
     inkscape:pagecheckerboard="0"
     inkscape:deskcolor="#d1d1d1"
     inkscape:document-units="mm"
     showgrid="false"
     inkscape:zoom="1.104894"
     inkscape:cx="23.531669"
     inkscape:cy="190.06348"
     inkscape:window-width="1920"
     inkscape:window-height="1057"
     inkscape:window-x="-8"
     inkscape:window-y="135"
     inkscape:window-maximized="1"
     inkscape:current-layer="layer1" /><defs
     id="defs2"><marker
       id="DistanceX"
       orient="auto"
       refX="0"
       refY="0"
       style="overflow:visible"><path
         d="M 3,-3 -3,3 M 0,-5 V 5"
         style="stroke:#000000;stroke-width:0.5"
         id="path1051" /></marker><pattern
       id="Hatch"
       patternUnits="userSpaceOnUse"
       width="8"
       height="8"
       x="0"
       y="0"><path
         d="M8 4 l-4,4"
         stroke="#000000"
         stroke-width="0.25"
         linecap="square"
         id="path1054" /><path
         d="M6 2 l-4,4"
         stroke="#000000"
         stroke-width="0.25"
         linecap="square"
         id="path1056" /><path
         d="M4 0 l-4,4"
         stroke="#000000"
         stroke-width="0.25"
         linecap="square"
         id="path1058" /></pattern><symbol
       id="*MODEL_SPACE" /><symbol
       id="*PAPER_SPACE" /></defs><g
     inkscape:label="Layer 1"
     inkscape:groupmode="layer"
     id="layer1"><g
       inkscape:label="0"
       id="g1215"
       transform="matrix(0.26458333,0,0,0.26458333,63.75,-233.25)"><path
         style="fill:none;stroke:#000000;stroke-width:0.377953;stroke-dasharray:none"
         d="m -58.5444,1084.02 97.0448,97.04"
         id="path1065" /><path
         style="fill:none;stroke:#000000;stroke-width:0.377953;stroke-dasharray:none"
         d="m -3.4183,1195.11 -0.07608,0.08"
         id="path1067" /><path
         style="fill:none;stroke:#000000;stroke-width:0.377953;stroke-dasharray:none"
         d="m -72.666,1126.01 0.076,-0.07"
         id="path1069" /><path
         d="m 58.798985,1085.1009 a 3.779528,3.779528 0 0 0 5.338383,0.01"
         style="fill:none;stroke:#000000;stroke-width:0.377953;stroke-dasharray:none"
         id="path1071" /><path
         d="m 64.137368,1085.1076 a 3.779516,3.779516 0 0 0 0,-5.345"
         style="fill:none;stroke:#000000;stroke-width:0.377953;stroke-dasharray:none"
         id="path1073" /><path
         style="fill:none;stroke:#000000;stroke-width:0.377953;stroke-dasharray:none"
         d="M 48.0422,1175.9 -53.3806,1074.48"
         id="path1075" /><path
         d="m 211.65354,910.86614 v -29.10236 h -423.30708 v 29.10236 h -29.10237 v 423.30706 h 29.10237 v 29.1024 h 423.30708 v -29.1024 h 29.10237 V 910.86614 Z"
         style="fill:none;stroke:#000000;stroke-width:0.377953;stroke-dasharray:none"
         id="path1077" /><path
         d="m -177.07087,896.31496 a 5.480315,5.480315 0 0 0 -10.96063,0 5.480315,5.480315 0 0 0 10.96063,0 z"
         style="fill:none;stroke:#000000;stroke-width:0.377953;stroke-dasharray:none"
         id="path1081" /><path
         d="m -220.72441,939.9685 a 5.480315,5.480315 0 0 0 -10.96063,0 5.480315,5.480315 0 0 0 10.96063,0 z"
         style="fill:none;stroke:#000000;stroke-width:0.377953;stroke-dasharray:none"
         id="path1083" /><path
         d="m 5.480319,895.74803 a 5.480315,5.480315 0 0 0 -10.96063,0 5.480315,5.480315 0 0 0 10.96063,0 z"
         style="fill:none;stroke:#000000;stroke-width:0.377953;stroke-dasharray:none"
         id="path1085" /><path
         d="m 188.0315,896.31496 a 5.480315,5.480315 0 0 0 -10.96063,0 5.480315,5.480315 0 0 0 10.96063,0 z"
         style="fill:none;stroke:#000000;stroke-width:0.377953;stroke-dasharray:none"
         id="path1087" /><path
         d="m 231.68504,939.9685 a 5.480315,5.480315 0 0 0 -10.96063,0 5.480315,5.480315 0 0 0 10.96063,0 z"
         style="fill:none;stroke:#000000;stroke-width:0.377953;stroke-dasharray:none"
         id="path1089" /><path
         d="m 232.25197,1122.5197 a 5.480315,5.480315 0 0 0 -10.96063,0 5.480315,5.480315 0 0 0 10.96063,0 z"
         style="fill:none;stroke:#000000;stroke-width:0.377953;stroke-dasharray:none"
         id="path1091" /><path
         d="m 231.68504,1305.0709 a 5.480315,5.480315 0 0 0 -10.96063,0 5.480315,5.480315 0 0 0 10.96063,0 z"
         style="fill:none;stroke:#000000;stroke-width:0.377953;stroke-dasharray:none"
         id="path1093" /><path
         d="m 188.0315,1348.7244 a 5.480315,5.480315 0 0 0 -10.96063,0 5.480315,5.480315 0 0 0 10.96063,0 z"
         style="fill:none;stroke:#000000;stroke-width:0.377953;stroke-dasharray:none"
         id="path1095" /><path
         d="m 5.480311,1349.2913 a 5.480315,5.480315 0 0 0 -10.96063,0 5.480315,5.480315 0 0 0 10.96063,0 z"
         style="fill:none;stroke:#000000;stroke-width:0.377953;stroke-dasharray:none"
         id="path1097" /><path
         d="m -177.07087,1348.7244 a 5.480315,5.480315 0 0 0 -10.96063,0 5.480315,5.480315 0 0 0 10.96063,0 z"
         style="fill:none;stroke:#000000;stroke-width:0.377953;stroke-dasharray:none"
         id="path1099" /><path
         d="m -220.72441,1305.0709 a 5.480315,5.480315 0 0 0 -10.96063,0 5.480315,5.480315 0 0 0 10.96063,0 z"
         style="fill:none;stroke:#000000;stroke-width:0.377953;stroke-dasharray:none"
         id="path1101" /><path
         d="m -221.29134,1122.5197 a 5.480315,5.480315 0 0 0 -10.96063,0 5.480315,5.480315 0 0 0 10.96063,0 z"
         style="fill:none;stroke:#000000;stroke-width:0.377953;stroke-dasharray:none"
         id="path1103" /><path
         d="m -73.322835,1043.1496 a 6.047244,6.047244 0 0 0 -12.094488,0 6.047244,6.047244 0 0 0 12.094488,0 z"
         style="fill:none;stroke:#000000;stroke-width:0.377953;stroke-dasharray:none"
         id="path1105" /><path
         d="m 85.417323,1043.1496 a 6.047244,6.047244 0 0 0 -12.094488,0 6.047244,6.047244 0 0 0 12.094488,0 z"
         style="fill:none;stroke:#000000;stroke-width:0.377953;stroke-dasharray:none"
         id="path1107" /><path
         d="m 85.417323,1201.8898 a 6.047244,6.047244 0 0 0 -12.094488,0 6.047244,6.047244 0 0 0 12.094488,0 z"
         style="fill:none;stroke:#000000;stroke-width:0.377953;stroke-dasharray:none"
         id="path1109" /><path
         d="m -73.322835,1201.8898 a 6.047244,6.047244 0 0 0 -12.094488,0 6.047244,6.047244 0 0 0 12.094488,0 z"
         style="fill:none;stroke:#000000;stroke-width:0.377953;stroke-dasharray:none"
         id="path1111" /><path
         style="fill:none;stroke:#000000;stroke-width:0.377953;stroke-dasharray:none"
         d="M 58.799,1085.1 37.4187,1063.72"
         id="path1113" /><path
         style="fill:none;stroke:#000000;stroke-width:0.377953;stroke-dasharray:none"
         d="m 42.6237,1058.25 21.5137,21.51"
         id="path1115" /><path
         d="m 42.62371,1058.2489 a 3.779528,3.779528 0 0 0 -5.20496,0.1267"
         style="fill:none;stroke:#000000;stroke-width:0.377953;stroke-dasharray:none"
         id="path1117" /><path
         d="m 37.418748,1058.3756 a 3.779528,3.779528 0 0 0 0,5.3451"
         style="fill:none;stroke:#000000;stroke-width:0.377953;stroke-dasharray:none"
         id="path1119" /><path
         d="m 58.798985,1085.1009 a 3.779528,3.779528 0 0 0 5.338383,0.01"
         style="fill:none;stroke:#000000;stroke-width:0.377953;stroke-dasharray:none"
         id="path1121" /><path
         style="fill:none;stroke:#000000;stroke-width:0.377953;stroke-dasharray:none"
         d="M 67.3237,1119.01 3.50498,1055.2"
         id="path1123" /><path
         style="fill:none;stroke:#000000;stroke-width:0.377953;stroke-dasharray:none"
         d="m -14.7578,1051.64 85.6387,85.64"
         id="path1125" /><path
         style="fill:none;stroke:#000000;stroke-width:0.377953;stroke-dasharray:none"
         d="m 65.5392,1142.62 -85.6388,-85.64"
         id="path1127" /><path
         style="fill:none;stroke:#000000;stroke-width:0.377953;stroke-dasharray:none"
         d="m 8.8467,1049.85 63.8187,63.82"
         id="path1129" /><path
         style="fill:none;stroke:#000000;stroke-width:0.377953;stroke-dasharray:none"
         d="m -33.1544,1058.63 97.0429,97.04"
         id="path1131" /><path
         style="fill:none;stroke:#000000;stroke-width:0.377953;stroke-dasharray:none"
         d="m 58.5467,1161.02 -97.0428,-97.05"
         id="path1133" /><path
         style="fill:none;stroke:#000000;stroke-width:0.377953;stroke-dasharray:none"
         d="M -48.0355,1069.13 53.3872,1170.56"
         id="path1135" /><path
         style="fill:none;stroke:#000000;stroke-width:0.377953;stroke-dasharray:none"
         d="M 48.0422,1175.9 -53.3806,1074.48"
         id="path1137" /><path
         style="fill:none;stroke:#000000;stroke-width:0.377953;stroke-dasharray:none"
         d="m -58.5444,1084.02 97.0448,97.04"
         id="path1139" /><path
         style="fill:none;stroke:#000000;stroke-width:0.377953;stroke-dasharray:none"
         d="m 33.1587,1186.41 -97.0448,-97.05"
         id="path1141" /><path
         style="fill:none;stroke:#000000;stroke-width:0.377953;stroke-dasharray:none"
         d="m -65.5379,1102.41 85.6428,85.65"
         id="path1143" /><path
         style="fill:none;stroke:#000000;stroke-width:0.377953;stroke-dasharray:none"
         d="m 14.7632,1193.4 -85.6429,-85.64"
         id="path1145" /><path
         style="fill:none;stroke:#000000;stroke-width:0.377953;stroke-dasharray:none"
         d="m -67.2449,1125.94 63.8266,63.82"
         id="path1147" /><path
         style="fill:none;stroke:#000000;stroke-width:0.377953;stroke-dasharray:none"
         d="M -8.83944,1195.19 -72.666,1131.36"
         id="path1149" /><path
         style="fill:none;stroke:#000000;stroke-width:0.377953;stroke-dasharray:none"
         d="m -58.7957,1159.94 21.3803,21.38"
         id="path1151" /><path
         style="fill:none;stroke:#000000;stroke-width:0.377953;stroke-dasharray:none"
         d="m -42.7605,1186.66 -21.3802,-21.38"
         id="path1153" /><path
         d="m -58.795652,1159.9351 a 3.779542,3.779542 0 0 0 -5.345059,5.3451"
         style="fill:none;stroke:#000000;stroke-width:0.377953;stroke-dasharray:none"
         id="path1155" /><path
         d="m -67.244903,1125.938 a 3.779528,3.779528 0 0 0 -5.345059,0"
         style="fill:none;stroke:#000000;stroke-width:0.377953;stroke-dasharray:none"
         id="path1157" /><path
         d="m -72.666044,1126.0141 a 3.779528,3.779528 0 0 0 0,5.345"
         style="fill:none;stroke:#000000;stroke-width:0.377953;stroke-dasharray:none"
         id="path1159" /><path
         d="m -65.537946,1102.4147 a 3.779528,3.779528 0 0 0 -5.345059,0"
         style="fill:none;stroke:#000000;stroke-width:0.377953;stroke-dasharray:none"
         id="path1161" /><path
         d="m -70.883003,1102.4147 a 3.779528,3.779528 0 0 0 0.0033,5.3418"
         style="fill:none;stroke:#000000;stroke-width:0.377953;stroke-dasharray:none"
         id="path1163" /><path
         d="m -58.544399,1084.0193 a 3.779528,3.779528 0 0 0 -5.345059,0"
         style="fill:none;stroke:#000000;stroke-width:0.377953;stroke-dasharray:none"
         id="path1165" /><path
         d="m -63.889456,1084.0193 a 3.779528,3.779528 0 0 0 0.0033,5.3417"
         style="fill:none;stroke:#000000;stroke-width:0.377953;stroke-dasharray:none"
         id="path1167" /><path
         d="m -48.035509,1069.1324 a 3.7795423,3.7795423 0 0 0 -5.34506,5.3451"
         style="fill:none;stroke:#000000;stroke-width:0.377953;stroke-dasharray:none"
         id="path1169" /><path
         d="m -33.154367,1058.6312 a 3.779528,3.779528 0 0 0 -5.341723,0"
         style="fill:none;stroke:#000000;stroke-width:0.377953;stroke-dasharray:none"
         id="path1171" /><path
         d="m -38.496092,1058.6279 a 3.779528,3.779528 0 0 0 0,5.3451"
         style="fill:none;stroke:#000000;stroke-width:0.377953;stroke-dasharray:none"
         id="path1173" /><path
         d="m -14.757827,1051.6387 a 3.779528,3.779528 0 0 0 -5.341723,0"
         style="fill:none;stroke:#000000;stroke-width:0.377953;stroke-dasharray:none"
         id="path1175" /><path
         d="m -20.099552,1051.6354 a 3.779528,3.779528 0 0 0 0,5.3451"
         style="fill:none;stroke:#000000;stroke-width:0.377953;stroke-dasharray:none"
         id="path1177" /><path
         d="m 8.846703,1049.8542 a 3.779528,3.779528 0 0 0 -5.341723,0"
         style="fill:none;stroke:#000000;stroke-width:0.377953;stroke-dasharray:none"
         id="path1179" /><path
         d="m 3.504978,1049.8509 a 3.779528,3.779528 0 0 0 0,5.3451"
         style="fill:none;stroke:#000000;stroke-width:0.377953;stroke-dasharray:none"
         id="path1181" /><path
         d="m 72.668781,1119.0147 a 3.779528,3.779528 0 0 0 -0.0033,-5.3417"
         style="fill:none;stroke:#000000;stroke-width:0.377953;stroke-dasharray:none"
         id="path1183" /><path
         d="m 67.323724,1119.0147 a 3.779528,3.779528 0 0 0 5.345059,0"
         style="fill:none;stroke:#000000;stroke-width:0.377953;stroke-dasharray:none"
         id="path1185" /><path
         d="m 70.88428,1142.6192 a 3.779528,3.779528 0 0 0 -0.0033,-5.3417"
         style="fill:none;stroke:#000000;stroke-width:0.377953;stroke-dasharray:none"
         id="path1187" /><path
         d="m 65.539223,1142.6192 a 3.779528,3.779528 0 0 0 5.34506,0"
         style="fill:none;stroke:#000000;stroke-width:0.377953;stroke-dasharray:none"
         id="path1189" /><path
         d="m 63.888457,1161.0191 a 3.779528,3.779528 0 0 0 0,-5.345"
         style="fill:none;stroke:#000000;stroke-width:0.377953;stroke-dasharray:none"
         id="path1191" /><path
         d="m 58.546732,1161.0158 a 3.779528,3.779528 0 0 0 5.341723,0"
         style="fill:none;stroke:#000000;stroke-width:0.377953;stroke-dasharray:none"
         id="path1193" /><path
         d="m 48.042178,1175.9003 a 3.7795423,3.7795423 0 0 0 5.34506,-5.3451"
         style="fill:none;stroke:#000000;stroke-width:0.377953;stroke-dasharray:none"
         id="path1195" /><path
         d="m 38.500427,1186.4091 a 3.779528,3.779528 0 0 0 0,-5.345"
         style="fill:none;stroke:#000000;stroke-width:0.377953;stroke-dasharray:none"
         id="path1197" /><path
         d="m 33.158702,1186.4058 a 3.779528,3.779528 0 0 0 5.341723,0"
         style="fill:none;stroke:#000000;stroke-width:0.377953;stroke-dasharray:none"
         id="path1199" /><path
         d="m 20.104943,1193.4027 a 3.779528,3.779528 0 0 0 0,-5.3451"
         style="fill:none;stroke:#000000;stroke-width:0.377953;stroke-dasharray:none"
         id="path1201" /><path
         d="m 14.763218,1193.3994 a 3.779528,3.779528 0 0 0 5.341723,0"
         style="fill:none;stroke:#000000;stroke-width:0.377953;stroke-dasharray:none"
         id="path1203" /><path
         d="m -3.418298,1195.1096 a 3.779528,3.779528 0 0 0 0,-5.345"
         style="fill:none;stroke:#000000;stroke-width:0.377953;stroke-dasharray:none"
         id="path1205" /><path
         d="m -8.839439,1195.1857 a 3.779528,3.779528 0 0 0 5.345059,0"
         style="fill:none;stroke:#000000;stroke-width:0.377953;stroke-dasharray:none"
         id="path1207" /><path
         d="m -58.795652,1159.9351 a 3.779542,3.779542 0 0 0 -5.345059,5.3451"
         style="fill:none;stroke:#000000;stroke-width:0.377953;stroke-dasharray:none"
         id="path1209" /><path
         d="m -42.760475,1186.6604 a 3.779528,3.779528 0 0 0 5.34506,0"
         style="fill:none;stroke:#000000;stroke-width:0.377953;stroke-dasharray:none"
         id="path1211" /><path
         d="m -37.415414,1186.6604 a 3.779528,3.779528 0 0 0 0,-5.3451"
         style="fill:none;stroke:#000000;stroke-width:0.377953;stroke-dasharray:none"
         id="path1213" /></g></g></svg>
