%TF.GenerationSoftware,KiCad,Pcbnew,7.0.6*%
%TF.CreationDate,2024-08-08T10:20:05+01:00*%
%TF.ProjectId,DMI_LightBox,444d495f-4c69-4676-9874-426f782e6b69,rev?*%
%TF.SameCoordinates,Original*%
%TF.FileFunction,Legend,Bot*%
%TF.FilePolarity,Positive*%
%FSLAX46Y46*%
G04 Gerber Fmt 4.6, Leading zero omitted, Abs format (unit mm)*
G04 Created by KiCad (PCBNEW 7.0.6) date 2024-08-08 10:20:05*
%MOMM*%
%LPD*%
G01*
G04 APERTURE LIST*
%ADD10C,0.125000*%
%ADD11C,0.150000*%
%ADD12C,0.120000*%
G04 APERTURE END LIST*
D10*
X127699534Y-94246439D02*
X128699534Y-94413105D01*
X128699534Y-94413105D02*
X127699534Y-94579772D01*
X128699534Y-94746438D02*
X127699534Y-94746438D01*
X128699534Y-94984533D02*
X127699534Y-94984533D01*
X127699534Y-94984533D02*
X128699534Y-95270247D01*
X128699534Y-95270247D02*
X127699534Y-95270247D01*
D11*
X182035220Y-56765819D02*
X182035220Y-55765819D01*
X182035220Y-55765819D02*
X181797125Y-55765819D01*
X181797125Y-55765819D02*
X181654268Y-55813438D01*
X181654268Y-55813438D02*
X181559030Y-55908676D01*
X181559030Y-55908676D02*
X181511411Y-56003914D01*
X181511411Y-56003914D02*
X181463792Y-56194390D01*
X181463792Y-56194390D02*
X181463792Y-56337247D01*
X181463792Y-56337247D02*
X181511411Y-56527723D01*
X181511411Y-56527723D02*
X181559030Y-56622961D01*
X181559030Y-56622961D02*
X181654268Y-56718200D01*
X181654268Y-56718200D02*
X181797125Y-56765819D01*
X181797125Y-56765819D02*
X182035220Y-56765819D01*
X181035220Y-56765819D02*
X181035220Y-55765819D01*
X181035220Y-55765819D02*
X180701887Y-56480104D01*
X180701887Y-56480104D02*
X180368554Y-55765819D01*
X180368554Y-55765819D02*
X180368554Y-56765819D01*
X179892363Y-56765819D02*
X179892363Y-55765819D01*
X178178078Y-56765819D02*
X178654268Y-56765819D01*
X178654268Y-56765819D02*
X178654268Y-55765819D01*
X177844744Y-56242009D02*
X177511411Y-56242009D01*
X177368554Y-56765819D02*
X177844744Y-56765819D01*
X177844744Y-56765819D02*
X177844744Y-55765819D01*
X177844744Y-55765819D02*
X177368554Y-55765819D01*
X176939982Y-56765819D02*
X176939982Y-55765819D01*
X176939982Y-55765819D02*
X176701887Y-55765819D01*
X176701887Y-55765819D02*
X176559030Y-55813438D01*
X176559030Y-55813438D02*
X176463792Y-55908676D01*
X176463792Y-55908676D02*
X176416173Y-56003914D01*
X176416173Y-56003914D02*
X176368554Y-56194390D01*
X176368554Y-56194390D02*
X176368554Y-56337247D01*
X176368554Y-56337247D02*
X176416173Y-56527723D01*
X176416173Y-56527723D02*
X176463792Y-56622961D01*
X176463792Y-56622961D02*
X176559030Y-56718200D01*
X176559030Y-56718200D02*
X176701887Y-56765819D01*
X176701887Y-56765819D02*
X176939982Y-56765819D01*
X175178077Y-56765819D02*
X175178077Y-55765819D01*
X175178077Y-55765819D02*
X174844744Y-56480104D01*
X174844744Y-56480104D02*
X174511411Y-55765819D01*
X174511411Y-55765819D02*
X174511411Y-56765819D01*
X173844744Y-55765819D02*
X173654268Y-55765819D01*
X173654268Y-55765819D02*
X173559030Y-55813438D01*
X173559030Y-55813438D02*
X173463792Y-55908676D01*
X173463792Y-55908676D02*
X173416173Y-56099152D01*
X173416173Y-56099152D02*
X173416173Y-56432485D01*
X173416173Y-56432485D02*
X173463792Y-56622961D01*
X173463792Y-56622961D02*
X173559030Y-56718200D01*
X173559030Y-56718200D02*
X173654268Y-56765819D01*
X173654268Y-56765819D02*
X173844744Y-56765819D01*
X173844744Y-56765819D02*
X173939982Y-56718200D01*
X173939982Y-56718200D02*
X174035220Y-56622961D01*
X174035220Y-56622961D02*
X174082839Y-56432485D01*
X174082839Y-56432485D02*
X174082839Y-56099152D01*
X174082839Y-56099152D02*
X174035220Y-55908676D01*
X174035220Y-55908676D02*
X173939982Y-55813438D01*
X173939982Y-55813438D02*
X173844744Y-55765819D01*
X172987601Y-55765819D02*
X172987601Y-56575342D01*
X172987601Y-56575342D02*
X172939982Y-56670580D01*
X172939982Y-56670580D02*
X172892363Y-56718200D01*
X172892363Y-56718200D02*
X172797125Y-56765819D01*
X172797125Y-56765819D02*
X172606649Y-56765819D01*
X172606649Y-56765819D02*
X172511411Y-56718200D01*
X172511411Y-56718200D02*
X172463792Y-56670580D01*
X172463792Y-56670580D02*
X172416173Y-56575342D01*
X172416173Y-56575342D02*
X172416173Y-55765819D01*
X171939982Y-56765819D02*
X171939982Y-55765819D01*
X171939982Y-55765819D02*
X171368554Y-56765819D01*
X171368554Y-56765819D02*
X171368554Y-55765819D01*
X171035220Y-55765819D02*
X170463792Y-55765819D01*
X170749506Y-56765819D02*
X170749506Y-55765819D01*
X169511410Y-55765819D02*
X169178077Y-56765819D01*
X169178077Y-56765819D02*
X168844744Y-55765819D01*
X167987601Y-56765819D02*
X168559029Y-56765819D01*
X168273315Y-56765819D02*
X168273315Y-55765819D01*
X168273315Y-55765819D02*
X168368553Y-55908676D01*
X168368553Y-55908676D02*
X168463791Y-56003914D01*
X168463791Y-56003914D02*
X168559029Y-56051533D01*
D10*
X128601500Y-96062474D02*
X128649119Y-96133902D01*
X128649119Y-96133902D02*
X128649119Y-96252950D01*
X128649119Y-96252950D02*
X128601500Y-96300569D01*
X128601500Y-96300569D02*
X128553880Y-96324378D01*
X128553880Y-96324378D02*
X128458642Y-96348188D01*
X128458642Y-96348188D02*
X128363404Y-96348188D01*
X128363404Y-96348188D02*
X128268166Y-96324378D01*
X128268166Y-96324378D02*
X128220547Y-96300569D01*
X128220547Y-96300569D02*
X128172928Y-96252950D01*
X128172928Y-96252950D02*
X128125309Y-96157712D01*
X128125309Y-96157712D02*
X128077690Y-96110093D01*
X128077690Y-96110093D02*
X128030071Y-96086283D01*
X128030071Y-96086283D02*
X127934833Y-96062474D01*
X127934833Y-96062474D02*
X127839595Y-96062474D01*
X127839595Y-96062474D02*
X127744357Y-96086283D01*
X127744357Y-96086283D02*
X127696738Y-96110093D01*
X127696738Y-96110093D02*
X127649119Y-96157712D01*
X127649119Y-96157712D02*
X127649119Y-96276759D01*
X127649119Y-96276759D02*
X127696738Y-96348188D01*
X128649119Y-96562473D02*
X127649119Y-96562473D01*
X127696738Y-97062473D02*
X127649119Y-97014854D01*
X127649119Y-97014854D02*
X127649119Y-96943425D01*
X127649119Y-96943425D02*
X127696738Y-96871997D01*
X127696738Y-96871997D02*
X127791976Y-96824378D01*
X127791976Y-96824378D02*
X127887214Y-96800568D01*
X127887214Y-96800568D02*
X128077690Y-96776759D01*
X128077690Y-96776759D02*
X128220547Y-96776759D01*
X128220547Y-96776759D02*
X128411023Y-96800568D01*
X128411023Y-96800568D02*
X128506261Y-96824378D01*
X128506261Y-96824378D02*
X128601500Y-96871997D01*
X128601500Y-96871997D02*
X128649119Y-96943425D01*
X128649119Y-96943425D02*
X128649119Y-96991044D01*
X128649119Y-96991044D02*
X128601500Y-97062473D01*
X128601500Y-97062473D02*
X128553880Y-97086282D01*
X128553880Y-97086282D02*
X128220547Y-97086282D01*
X128220547Y-97086282D02*
X128220547Y-96991044D01*
X127696738Y-97999188D02*
X127649119Y-97951569D01*
X127649119Y-97951569D02*
X127649119Y-97880140D01*
X127649119Y-97880140D02*
X127696738Y-97808712D01*
X127696738Y-97808712D02*
X127791976Y-97761093D01*
X127791976Y-97761093D02*
X127887214Y-97737283D01*
X127887214Y-97737283D02*
X128077690Y-97713474D01*
X128077690Y-97713474D02*
X128220547Y-97713474D01*
X128220547Y-97713474D02*
X128411023Y-97737283D01*
X128411023Y-97737283D02*
X128506261Y-97761093D01*
X128506261Y-97761093D02*
X128601500Y-97808712D01*
X128601500Y-97808712D02*
X128649119Y-97880140D01*
X128649119Y-97880140D02*
X128649119Y-97927759D01*
X128649119Y-97927759D02*
X128601500Y-97999188D01*
X128601500Y-97999188D02*
X128553880Y-98022997D01*
X128553880Y-98022997D02*
X128220547Y-98022997D01*
X128220547Y-98022997D02*
X128220547Y-97927759D01*
X128649119Y-98237283D02*
X127649119Y-98237283D01*
X127649119Y-98237283D02*
X128649119Y-98522997D01*
X128649119Y-98522997D02*
X127649119Y-98522997D01*
X128649119Y-98761093D02*
X127649119Y-98761093D01*
X127649119Y-98761093D02*
X127649119Y-98880141D01*
X127649119Y-98880141D02*
X127696738Y-98951569D01*
X127696738Y-98951569D02*
X127791976Y-98999188D01*
X127791976Y-98999188D02*
X127887214Y-99022998D01*
X127887214Y-99022998D02*
X128077690Y-99046807D01*
X128077690Y-99046807D02*
X128220547Y-99046807D01*
X128220547Y-99046807D02*
X128411023Y-99022998D01*
X128411023Y-99022998D02*
X128506261Y-98999188D01*
X128506261Y-98999188D02*
X128601500Y-98951569D01*
X128601500Y-98951569D02*
X128649119Y-98880141D01*
X128649119Y-98880141D02*
X128649119Y-98761093D01*
D11*
X128035057Y-57054761D02*
X127987438Y-56959523D01*
X127987438Y-56959523D02*
X127892200Y-56864285D01*
X127892200Y-56864285D02*
X127749342Y-56721428D01*
X127749342Y-56721428D02*
X127701723Y-56626190D01*
X127701723Y-56626190D02*
X127701723Y-56530952D01*
X127939819Y-56578571D02*
X127892200Y-56483333D01*
X127892200Y-56483333D02*
X127796961Y-56388095D01*
X127796961Y-56388095D02*
X127606485Y-56340476D01*
X127606485Y-56340476D02*
X127273152Y-56340476D01*
X127273152Y-56340476D02*
X127082676Y-56388095D01*
X127082676Y-56388095D02*
X126987438Y-56483333D01*
X126987438Y-56483333D02*
X126939819Y-56578571D01*
X126939819Y-56578571D02*
X126939819Y-56769047D01*
X126939819Y-56769047D02*
X126987438Y-56864285D01*
X126987438Y-56864285D02*
X127082676Y-56959523D01*
X127082676Y-56959523D02*
X127273152Y-57007142D01*
X127273152Y-57007142D02*
X127606485Y-57007142D01*
X127606485Y-57007142D02*
X127796961Y-56959523D01*
X127796961Y-56959523D02*
X127892200Y-56864285D01*
X127892200Y-56864285D02*
X127939819Y-56769047D01*
X127939819Y-56769047D02*
X127939819Y-56578571D01*
X127939819Y-57959523D02*
X127939819Y-57388095D01*
X127939819Y-57673809D02*
X126939819Y-57673809D01*
X126939819Y-57673809D02*
X127082676Y-57578571D01*
X127082676Y-57578571D02*
X127177914Y-57483333D01*
X127177914Y-57483333D02*
X127225533Y-57388095D01*
X131026819Y-91106666D02*
X131741104Y-91106666D01*
X131741104Y-91106666D02*
X131883961Y-91059047D01*
X131883961Y-91059047D02*
X131979200Y-90963809D01*
X131979200Y-90963809D02*
X132026819Y-90820952D01*
X132026819Y-90820952D02*
X132026819Y-90725714D01*
X132026819Y-92106666D02*
X132026819Y-91535238D01*
X132026819Y-91820952D02*
X131026819Y-91820952D01*
X131026819Y-91820952D02*
X131169676Y-91725714D01*
X131169676Y-91725714D02*
X131264914Y-91630476D01*
X131264914Y-91630476D02*
X131312533Y-91535238D01*
X138333819Y-55237142D02*
X137857628Y-54903809D01*
X138333819Y-54665714D02*
X137333819Y-54665714D01*
X137333819Y-54665714D02*
X137333819Y-55046666D01*
X137333819Y-55046666D02*
X137381438Y-55141904D01*
X137381438Y-55141904D02*
X137429057Y-55189523D01*
X137429057Y-55189523D02*
X137524295Y-55237142D01*
X137524295Y-55237142D02*
X137667152Y-55237142D01*
X137667152Y-55237142D02*
X137762390Y-55189523D01*
X137762390Y-55189523D02*
X137810009Y-55141904D01*
X137810009Y-55141904D02*
X137857628Y-55046666D01*
X137857628Y-55046666D02*
X137857628Y-54665714D01*
X137429057Y-55618095D02*
X137381438Y-55665714D01*
X137381438Y-55665714D02*
X137333819Y-55760952D01*
X137333819Y-55760952D02*
X137333819Y-55999047D01*
X137333819Y-55999047D02*
X137381438Y-56094285D01*
X137381438Y-56094285D02*
X137429057Y-56141904D01*
X137429057Y-56141904D02*
X137524295Y-56189523D01*
X137524295Y-56189523D02*
X137619533Y-56189523D01*
X137619533Y-56189523D02*
X137762390Y-56141904D01*
X137762390Y-56141904D02*
X138333819Y-55570476D01*
X138333819Y-55570476D02*
X138333819Y-56189523D01*
X138333819Y-57141904D02*
X138333819Y-56570476D01*
X138333819Y-56856190D02*
X137333819Y-56856190D01*
X137333819Y-56856190D02*
X137476676Y-56760952D01*
X137476676Y-56760952D02*
X137571914Y-56665714D01*
X137571914Y-56665714D02*
X137619533Y-56570476D01*
D12*
%TO.C,Q1*%
X133126000Y-52030000D02*
X133126000Y-62270000D01*
X129995000Y-52030000D02*
X129995000Y-62270000D01*
X128485000Y-52030000D02*
X133126000Y-52030000D01*
X128485000Y-52030000D02*
X128485000Y-62270000D01*
X128485000Y-55300000D02*
X129995000Y-55300000D01*
X128485000Y-59001000D02*
X129995000Y-59001000D01*
X128485000Y-62270000D02*
X133126000Y-62270000D01*
%TO.C,J1*%
X128982415Y-92356584D02*
X130232415Y-92356584D01*
X134002415Y-92656584D02*
X134002415Y-100776584D01*
X131892415Y-92656584D02*
X131892415Y-93266584D01*
X130592415Y-92656584D02*
X130592415Y-93266584D01*
X129282415Y-92656584D02*
X134002415Y-92656584D01*
X133392415Y-93266584D02*
X133392415Y-100166584D01*
X129892415Y-93266584D02*
X133392415Y-93266584D01*
X128982415Y-93606584D02*
X128982415Y-92356584D01*
X129082415Y-94116584D02*
X129282415Y-94116584D01*
X129282415Y-94416584D02*
X129082415Y-94416584D01*
X129182415Y-94416584D02*
X129182415Y-94116584D01*
X129082415Y-94416584D02*
X129082415Y-94116584D01*
X129892415Y-95216584D02*
X129892415Y-93266584D01*
X129282415Y-95216584D02*
X129892415Y-95216584D01*
X133392415Y-95616584D02*
X132892415Y-95616584D01*
X132892415Y-95616584D02*
X132892415Y-95816584D01*
X133392415Y-95716584D02*
X132892415Y-95716584D01*
X132892415Y-95816584D02*
X133392415Y-95816584D01*
X133392415Y-97616584D02*
X132892415Y-97616584D01*
X132892415Y-97616584D02*
X132892415Y-97816584D01*
X133392415Y-97716584D02*
X132892415Y-97716584D01*
X132892415Y-97816584D02*
X133392415Y-97816584D01*
X129892415Y-98216584D02*
X129282415Y-98216584D01*
X133392415Y-100166584D02*
X129892415Y-100166584D01*
X129892415Y-100166584D02*
X129892415Y-98216584D01*
X134002415Y-100776584D02*
X129282415Y-100776584D01*
X131892415Y-100776584D02*
X131892415Y-100166584D01*
X130592415Y-100776584D02*
X130592415Y-100166584D01*
X129282415Y-100776584D02*
X129282415Y-92656584D01*
%TO.C,R21*%
X135509000Y-55780000D02*
X135509000Y-55710000D01*
X136879000Y-57150000D02*
G75*
G03*
X136879000Y-57150000I-1370000J0D01*
G01*
%TD*%
M02*
