M48
; DRILL file {KiCad 7.0.6} date Thu Aug  8 10:20:09 2024
; FORMAT={-:-/ absolute / inch / decimal}
; #@! TF.CreationDate,2024-08-08T10:20:09+01:00
; #@! TF.GenerationSoftware,Kicad,Pcbnew,7.0.6
; #@! TF.FileFunction,Plated,1,2,PTH
FMAT,2
INCH
; #@! TA.AperFunction,Plated,PTH,ComponentDrill
T1C0.0295
; #@! TA.AperFunction,Plated,PTH,ComponentDrill
T2C0.0315
; #@! TA.AperFunction,Plated,PTH,ComponentDrill
T3C0.0354
; #@! TA.AperFunction,Plated,PTH,ComponentDrill
T4C0.0433
; #@! TA.AperFunction,Plated,PTH,ComponentDrill
T5C0.0866
%
G90
G05
T1
X5.1611Y-3.729
X5.1611Y-3.8077
X5.1611Y-3.8865
T2
X4.895Y-2.394
X4.895Y-3.1815
X4.895Y-3.969
X4.895Y-4.7565
X4.895Y-5.544
X4.995Y-2.394
X4.995Y-3.1815
X4.995Y-3.969
X4.995Y-4.7565
X4.995Y-5.544
X5.15Y-1.8639
X5.15Y-1.9639
X5.335Y-2.15
X5.335Y-2.25
X5.425Y-5.7
X5.425Y-5.8
X5.9375Y-1.8639
X5.9375Y-1.9639
X6.2125Y-5.7
X6.2125Y-5.8
X6.725Y-1.8639
X6.725Y-1.9639
X7.0Y-5.7
X7.0Y-5.8
X7.5125Y-1.8639
X7.5125Y-1.9639
X7.7875Y-5.7
X7.7875Y-5.8
X8.3Y-1.8639
X8.3Y-1.9639
X8.575Y-5.7
X8.575Y-5.8
X8.73Y-2.12
X8.73Y-2.9075
X8.73Y-3.695
X8.73Y-4.4825
X8.73Y-5.27
X8.83Y-2.12
X8.83Y-2.9075
X8.83Y-3.695
X8.83Y-4.4825
X8.83Y-5.27
T3
X4.8939Y-2.1567
X4.8939Y-2.2567
X4.8939Y-2.9441
X4.8939Y-3.0441
X4.8939Y-3.7315
X4.8939Y-3.8315
X4.8939Y-4.5189
X4.8939Y-4.6189
X4.8939Y-5.3063
X4.8939Y-5.4063
X5.1876Y-5.8
X5.2876Y-5.8
X5.2876Y-1.863
X5.3876Y-1.863
X5.975Y-5.8
X6.075Y-5.8
X6.075Y-1.863
X6.175Y-1.863
X6.7624Y-5.8
X6.8624Y-5.8
X6.8624Y-1.863
X6.9624Y-1.863
X7.5498Y-5.8
X7.6498Y-5.8
X7.6498Y-1.863
X7.7498Y-1.863
X8.3372Y-5.8
X8.4372Y-5.8
X8.4372Y-1.863
X8.5372Y-1.863
X8.8309Y-2.2567
X8.8309Y-2.3567
X8.8309Y-3.0441
X8.8309Y-3.1441
X8.8309Y-3.8315
X8.8309Y-3.9315
X8.8309Y-4.6189
X8.8309Y-4.7189
X8.8309Y-5.4063
X8.8309Y-5.5063
T4
X5.1872Y-2.15
X5.1872Y-2.25
X5.1872Y-2.35
T5
X5.4451Y-2.4142
X5.4451Y-5.2488
X8.2797Y-2.4142
X8.2797Y-5.2488
T0
M30
