%TF.GenerationSoftware,KiCad,Pcbnew,7.0.6*%
%TF.CreationDate,2024-08-08T10:20:05+01:00*%
%TF.ProjectId,DMI_LightBox,444d495f-4c69-4676-9874-426f782e6b69,rev?*%
%TF.SameCoordinates,Original*%
%TF.FileFunction,Copper,L2,Bot*%
%TF.FilePolarity,Positive*%
%FSLAX46Y46*%
G04 Gerber Fmt 4.6, Leading zero omitted, Abs format (unit mm)*
G04 Created by KiCad (PCBNEW 7.0.6) date 2024-08-08 10:20:05*
%MOMM*%
%LPD*%
G01*
G04 APERTURE LIST*
G04 Aperture macros list*
%AMRoundRect*
0 Rectangle with rounded corners*
0 $1 Rounding radius*
0 $2 $3 $4 $5 $6 $7 $8 $9 X,Y pos of 4 corners*
0 Add a 4 corners polygon primitive as box body*
4,1,4,$2,$3,$4,$5,$6,$7,$8,$9,$2,$3,0*
0 Add four circle primitives for the rounded corners*
1,1,$1+$1,$2,$3*
1,1,$1+$1,$4,$5*
1,1,$1+$1,$6,$7*
1,1,$1+$1,$8,$9*
0 Add four rect primitives between the rounded corners*
20,1,$1+$1,$2,$3,$4,$5,0*
20,1,$1+$1,$4,$5,$6,$7,0*
20,1,$1+$1,$6,$7,$8,$9,0*
20,1,$1+$1,$8,$9,$2,$3,0*%
G04 Aperture macros list end*
%TA.AperFunction,ComponentPad*%
%ADD10C,3.800000*%
%TD*%
%TA.AperFunction,ComponentPad*%
%ADD11C,1.600000*%
%TD*%
%TA.AperFunction,ComponentPad*%
%ADD12O,1.600000X1.600000*%
%TD*%
%TA.AperFunction,ComponentPad*%
%ADD13R,1.800000X1.800000*%
%TD*%
%TA.AperFunction,ComponentPad*%
%ADD14C,1.800000*%
%TD*%
%TA.AperFunction,ComponentPad*%
%ADD15R,2.000000X1.905000*%
%TD*%
%TA.AperFunction,ComponentPad*%
%ADD16O,2.000000X1.905000*%
%TD*%
%TA.AperFunction,ComponentPad*%
%ADD17RoundRect,0.250000X-0.625000X0.350000X-0.625000X-0.350000X0.625000X-0.350000X0.625000X0.350000X0*%
%TD*%
%TA.AperFunction,ComponentPad*%
%ADD18O,1.750000X1.200000*%
%TD*%
%TA.AperFunction,Conductor*%
%ADD19C,0.250000*%
%TD*%
G04 APERTURE END LIST*
D10*
%TO.P,,3*%
%TO.N,GND*%
X138305001Y-133319999D03*
%TD*%
D11*
%TO.P,R14,1*%
%TO.N,Net-(D14-K)*%
X157797500Y-147320000D03*
D12*
%TO.P,R14,2*%
%TO.N,VOUT*%
X157797500Y-144780000D03*
%TD*%
D13*
%TO.P,D18,1,K*%
%TO.N,Net-(D18-K)*%
X124305000Y-97319999D03*
D14*
%TO.P,D18,2,A*%
%TO.N,VIN*%
X124305000Y-94779999D03*
%TD*%
D13*
%TO.P,D8,1,K*%
%TO.N,Net-(D8-K)*%
X224305002Y-97320000D03*
D14*
%TO.P,D8,2,A*%
%TO.N,VIN*%
X224305002Y-99860000D03*
%TD*%
D13*
%TO.P,D2,1,K*%
%TO.N,Net-(D2-K)*%
X154305002Y-47319999D03*
D14*
%TO.P,D2,2,A*%
%TO.N,VIN*%
X156845002Y-47319999D03*
%TD*%
D11*
%TO.P,R12,1*%
%TO.N,Net-(D12-K)*%
X197802500Y-147320000D03*
D12*
%TO.P,R12,2*%
%TO.N,VOUT*%
X197802500Y-144780000D03*
%TD*%
D13*
%TO.P,D13,1,K*%
%TO.N,Net-(D13-K)*%
X174305000Y-147320000D03*
D14*
%TO.P,D13,2,A*%
%TO.N,VIN*%
X171765000Y-147320000D03*
%TD*%
D13*
%TO.P,D14,1,K*%
%TO.N,Net-(D14-K)*%
X154305000Y-147320000D03*
D14*
%TO.P,D14,2,A*%
%TO.N,VIN*%
X151765000Y-147320000D03*
%TD*%
D13*
%TO.P,D17,1,K*%
%TO.N,Net-(D17-K)*%
X124305000Y-117319999D03*
D14*
%TO.P,D17,2,A*%
%TO.N,VIN*%
X124305000Y-114779999D03*
%TD*%
D13*
%TO.P,D5,1,K*%
%TO.N,Net-(D5-K)*%
X214305002Y-47319999D03*
D14*
%TO.P,D5,2,A*%
%TO.N,VIN*%
X216845002Y-47319999D03*
%TD*%
D11*
%TO.P,R9,1*%
%TO.N,Net-(D9-K)*%
X224282000Y-113855500D03*
D12*
%TO.P,R9,2*%
%TO.N,VOUT*%
X221742000Y-113855500D03*
%TD*%
D11*
%TO.P,R4,1*%
%TO.N,Net-(D4-K)*%
X190817500Y-47342000D03*
D12*
%TO.P,R4,2*%
%TO.N,VOUT*%
X190817500Y-49882000D03*
%TD*%
D10*
%TO.P,REF\u002A\u002A,1*%
%TO.N,GND*%
X210305001Y-61319999D03*
%TD*%
D11*
%TO.P,R17,1*%
%TO.N,Net-(D17-K)*%
X124333000Y-120815100D03*
D12*
%TO.P,R17,2*%
%TO.N,VOUT*%
X126873000Y-120815100D03*
%TD*%
D13*
%TO.P,D1,1,K*%
%TO.N,Net-(D1-K)*%
X134305002Y-47319999D03*
D14*
%TO.P,D1,2,A*%
%TO.N,VIN*%
X136845002Y-47319999D03*
%TD*%
D13*
%TO.P,D11,1,K*%
%TO.N,Net-(D11-K)*%
X214305000Y-147320000D03*
D14*
%TO.P,D11,2,A*%
%TO.N,VIN*%
X211765000Y-147320000D03*
%TD*%
D11*
%TO.P,R5,1*%
%TO.N,Net-(D5-K)*%
X210820000Y-47342000D03*
D12*
%TO.P,R5,2*%
%TO.N,VOUT*%
X210820000Y-49882000D03*
%TD*%
D13*
%TO.P,D6,1,K*%
%TO.N,Net-(D6-K)*%
X224305002Y-57320000D03*
D14*
%TO.P,D6,2,A*%
%TO.N,VIN*%
X224305002Y-59860000D03*
%TD*%
D11*
%TO.P,R3,1*%
%TO.N,Net-(D3-K)*%
X170815000Y-47342000D03*
D12*
%TO.P,R3,2*%
%TO.N,VOUT*%
X170815000Y-49882000D03*
%TD*%
D11*
%TO.P,R16,1*%
%TO.N,Net-(D16-K)*%
X124333000Y-140817600D03*
D12*
%TO.P,R16,2*%
%TO.N,VOUT*%
X126873000Y-140817600D03*
%TD*%
D13*
%TO.P,D3,1,K*%
%TO.N,Net-(D3-K)*%
X174305002Y-47319999D03*
D14*
%TO.P,D3,2,A*%
%TO.N,VIN*%
X176845002Y-47319999D03*
%TD*%
D13*
%TO.P,D15,1,K*%
%TO.N,Net-(D15-K)*%
X134305000Y-147320000D03*
D14*
%TO.P,D15,2,A*%
%TO.N,VIN*%
X131765000Y-147320000D03*
%TD*%
D11*
%TO.P,R1,1*%
%TO.N,Net-(D1-K)*%
X130810000Y-47342000D03*
D12*
%TO.P,R1,2*%
%TO.N,VOUT*%
X130810000Y-49882000D03*
%TD*%
D11*
%TO.P,R6,1*%
%TO.N,Net-(D6-K)*%
X224282000Y-53848000D03*
D12*
%TO.P,R6,2*%
%TO.N,VOUT*%
X221742000Y-53848000D03*
%TD*%
D11*
%TO.P,R11,1*%
%TO.N,Net-(D11-K)*%
X217805000Y-147320000D03*
D12*
%TO.P,R11,2*%
%TO.N,VOUT*%
X217805000Y-144780000D03*
%TD*%
D13*
%TO.P,D7,1,K*%
%TO.N,Net-(D7-K)*%
X224305002Y-77320000D03*
D14*
%TO.P,D7,2,A*%
%TO.N,VIN*%
X224305002Y-79860000D03*
%TD*%
D13*
%TO.P,D4,1,K*%
%TO.N,Net-(D4-K)*%
X194305002Y-47319999D03*
D14*
%TO.P,D4,2,A*%
%TO.N,VIN*%
X196845002Y-47319999D03*
%TD*%
D13*
%TO.P,D19,1,K*%
%TO.N,Net-(D19-K)*%
X124305000Y-77319999D03*
D14*
%TO.P,D19,2,A*%
%TO.N,VIN*%
X124305000Y-74779999D03*
%TD*%
D11*
%TO.P,R15,1*%
%TO.N,Net-(D15-K)*%
X137795000Y-147320000D03*
D12*
%TO.P,R15,2*%
%TO.N,VOUT*%
X137795000Y-144780000D03*
%TD*%
D13*
%TO.P,D16,1,K*%
%TO.N,Net-(D16-K)*%
X124305000Y-137319999D03*
D14*
%TO.P,D16,2,A*%
%TO.N,VIN*%
X124305000Y-134779999D03*
%TD*%
D11*
%TO.P,R19,1*%
%TO.N,Net-(D19-K)*%
X124333000Y-80810100D03*
D12*
%TO.P,R19,2*%
%TO.N,VOUT*%
X126873000Y-80810100D03*
%TD*%
D11*
%TO.P,R10,1*%
%TO.N,Net-(D10-K)*%
X224282000Y-133858000D03*
D12*
%TO.P,R10,2*%
%TO.N,VOUT*%
X221742000Y-133858000D03*
%TD*%
D13*
%TO.P,D10,1,K*%
%TO.N,Net-(D10-K)*%
X224305002Y-137320000D03*
D14*
%TO.P,D10,2,A*%
%TO.N,VIN*%
X224305002Y-139860000D03*
%TD*%
D10*
%TO.P,,4*%
%TO.N,GND*%
X138305001Y-61319999D03*
%TD*%
D11*
%TO.P,R2,1*%
%TO.N,Net-(D2-K)*%
X150812500Y-47342000D03*
D12*
%TO.P,R2,2*%
%TO.N,VOUT*%
X150812500Y-49882000D03*
%TD*%
D11*
%TO.P,R20,1*%
%TO.N,Net-(D20-K)*%
X124333000Y-60807600D03*
D12*
%TO.P,R20,2*%
%TO.N,VOUT*%
X126873000Y-60807600D03*
%TD*%
D10*
%TO.P,,2*%
%TO.N,GND*%
X210305001Y-133319999D03*
%TD*%
D13*
%TO.P,D9,1,K*%
%TO.N,Net-(D9-K)*%
X224305002Y-117320000D03*
D14*
%TO.P,D9,2,A*%
%TO.N,VIN*%
X224305002Y-119860000D03*
%TD*%
D11*
%TO.P,R8,1*%
%TO.N,Net-(D8-K)*%
X224282000Y-93853000D03*
D12*
%TO.P,R8,2*%
%TO.N,VOUT*%
X221742000Y-93853000D03*
%TD*%
D13*
%TO.P,D20,1,K*%
%TO.N,Net-(D20-K)*%
X124305000Y-57319999D03*
D14*
%TO.P,D20,2,A*%
%TO.N,VIN*%
X124305000Y-54779999D03*
%TD*%
D11*
%TO.P,R18,1*%
%TO.N,Net-(D18-K)*%
X124333000Y-100812600D03*
D12*
%TO.P,R18,2*%
%TO.N,VOUT*%
X126873000Y-100812600D03*
%TD*%
D11*
%TO.P,R13,1*%
%TO.N,Net-(D13-K)*%
X177800000Y-147320000D03*
D12*
%TO.P,R13,2*%
%TO.N,VOUT*%
X177800000Y-144780000D03*
%TD*%
D11*
%TO.P,R7,1*%
%TO.N,Net-(D7-K)*%
X224282000Y-73850500D03*
D12*
%TO.P,R7,2*%
%TO.N,VOUT*%
X221742000Y-73850500D03*
%TD*%
D13*
%TO.P,D12,1,K*%
%TO.N,Net-(D12-K)*%
X194305000Y-147320000D03*
D14*
%TO.P,D12,2,A*%
%TO.N,VIN*%
X191765000Y-147320000D03*
%TD*%
D15*
%TO.P,Q1,1,G*%
%TO.N,SIG*%
X131755000Y-54610000D03*
D16*
%TO.P,Q1,2,D*%
%TO.N,VOUT*%
X131755000Y-57150000D03*
%TO.P,Q1,3,S*%
%TO.N,GND*%
X131755000Y-59690000D03*
%TD*%
D17*
%TO.P,J1,1,Pin_1*%
%TO.N,VIN*%
X131092415Y-94716584D03*
D18*
%TO.P,J1,2,Pin_2*%
%TO.N,SIG*%
X131092415Y-96716584D03*
%TO.P,J1,3,Pin_3*%
%TO.N,GND*%
X131092415Y-98716584D03*
%TD*%
D11*
%TO.P,R21,1*%
%TO.N,GND*%
X135509000Y-57150000D03*
D12*
%TO.P,R21,2*%
%TO.N,SIG*%
X135509000Y-54610000D03*
%TD*%
D19*
%TO.N,SIG*%
X133080000Y-94728999D02*
X131092415Y-96716584D01*
X133080000Y-55935000D02*
X133080000Y-94728999D01*
X131755000Y-54610000D02*
X133080000Y-55935000D01*
X131755000Y-54610000D02*
X135509000Y-54610000D01*
%TO.N,VIN*%
X121920000Y-140716000D02*
X128524000Y-147320000D01*
X224305002Y-143486998D02*
X224282000Y-143510000D01*
X216845002Y-47319999D02*
X220396001Y-47319999D01*
X169225000Y-149860000D02*
X169164000Y-149860000D01*
X148844000Y-149860000D02*
X169164000Y-149860000D01*
X121920000Y-138176000D02*
X121920000Y-140716000D01*
X124305000Y-74779999D02*
X121920000Y-77164999D01*
X139461001Y-44704000D02*
X136845002Y-47319999D01*
X131092415Y-94716584D02*
X131029000Y-94779999D01*
X171765000Y-147320000D02*
X169225000Y-149860000D01*
X209296000Y-149789000D02*
X209296000Y-149860000D01*
X179324000Y-44841001D02*
X179324000Y-44704000D01*
X224305002Y-79860000D02*
X227076000Y-82630998D01*
X131029000Y-94779999D02*
X124305000Y-94779999D01*
X121920000Y-77164999D02*
X121920000Y-77216000D01*
X188468000Y-149860000D02*
X209296000Y-149860000D01*
X156845002Y-47319999D02*
X159461001Y-44704000D01*
X179324000Y-44704000D02*
X159512000Y-44704000D01*
X211765000Y-147320000D02*
X209296000Y-149789000D01*
X124305000Y-94779999D02*
X121920000Y-92394999D01*
X191765000Y-147320000D02*
X189225000Y-149860000D01*
X227076000Y-82804000D02*
X227076000Y-62992000D01*
X124305000Y-94779999D02*
X121920000Y-97164999D01*
X159461001Y-44704000D02*
X159512000Y-44704000D01*
X159512000Y-44704000D02*
X139461001Y-44704000D01*
X196845002Y-47319999D02*
X199461001Y-44704000D01*
X131064000Y-149860000D02*
X148844000Y-149860000D01*
X121920000Y-112268000D02*
X121920000Y-131572000D01*
X124305000Y-54779999D02*
X121920000Y-57164999D01*
X224282000Y-143510000D02*
X227076000Y-140716000D01*
X220472000Y-47244000D02*
X217932000Y-44704000D01*
X224305002Y-99860000D02*
X227061002Y-102616000D01*
X121920000Y-132588000D02*
X121920000Y-138176000D01*
X209296000Y-149860000D02*
X217932000Y-149860000D01*
X217932000Y-44704000D02*
X199644000Y-44704000D01*
X227076000Y-53848000D02*
X220472000Y-47244000D01*
X121920000Y-72394999D02*
X124305000Y-74779999D01*
X121920000Y-131572000D02*
X121920000Y-132588000D01*
X169164000Y-149860000D02*
X188468000Y-149860000D01*
X121920000Y-77216000D02*
X121920000Y-91440000D01*
X151765000Y-147320000D02*
X149225000Y-149860000D01*
X227076000Y-82630998D02*
X227076000Y-82804000D01*
X124305000Y-134779999D02*
X121920000Y-132394999D01*
X124305000Y-114779999D02*
X121920000Y-112394999D01*
X199644000Y-44704000D02*
X179324000Y-44704000D01*
X131765000Y-147320000D02*
X128524000Y-147320000D01*
X121920000Y-112394999D02*
X121920000Y-112268000D01*
X121920000Y-57164999D02*
X121920000Y-72394999D01*
X227076000Y-140716000D02*
X227076000Y-122428000D01*
X217932000Y-149860000D02*
X224282000Y-143510000D01*
X227076000Y-62992000D02*
X227076000Y-53848000D01*
X128524000Y-147320000D02*
X131064000Y-149860000D01*
X199461001Y-44704000D02*
X199644000Y-44704000D01*
X121920000Y-97536000D02*
X121920000Y-112268000D01*
X176845002Y-47319999D02*
X179324000Y-44841001D01*
X224305002Y-119860000D02*
X226873002Y-122428000D01*
X224305002Y-59860000D02*
X227076000Y-62630998D01*
X227076000Y-62630998D02*
X227076000Y-62992000D01*
X121920000Y-132394999D02*
X121920000Y-131572000D01*
X227061002Y-102616000D02*
X227076000Y-102616000D01*
X227076000Y-102616000D02*
X227076000Y-82804000D01*
X227076000Y-122428000D02*
X227076000Y-102616000D01*
X220396001Y-47319999D02*
X220472000Y-47244000D01*
X226873002Y-122428000D02*
X227076000Y-122428000D01*
X149225000Y-149860000D02*
X148844000Y-149860000D01*
X121920000Y-97164999D02*
X121920000Y-97536000D01*
X224305002Y-139860000D02*
X224305002Y-143486998D01*
X189225000Y-149860000D02*
X188468000Y-149860000D01*
X121920000Y-92394999D02*
X121920000Y-91440000D01*
%TD*%
%TA.AperFunction,Conductor*%
%TO.N,GND*%
G36*
X219320470Y-42340184D02*
G01*
X219341112Y-42356818D01*
X229268182Y-52283887D01*
X229301667Y-52345210D01*
X229304501Y-52371568D01*
X229304501Y-142268429D01*
X229284816Y-142335468D01*
X229268182Y-142356110D01*
X219341112Y-152283180D01*
X219279789Y-152316665D01*
X219253431Y-152319499D01*
X129356570Y-152319499D01*
X129289531Y-152299814D01*
X129268889Y-152283180D01*
X119416319Y-142430609D01*
X119382834Y-142369286D01*
X119380000Y-142342928D01*
X119380000Y-97145196D01*
X121289839Y-97145196D01*
X121294224Y-97191584D01*
X121294499Y-97197420D01*
X121294499Y-97508334D01*
X121294500Y-97508344D01*
X121294500Y-112188982D01*
X121294499Y-112312255D01*
X121292776Y-112327871D01*
X121293061Y-112327898D01*
X121292326Y-112335664D01*
X121294500Y-112404813D01*
X121294499Y-131517642D01*
X121294500Y-131517647D01*
X121294500Y-132312254D01*
X121292775Y-132327871D01*
X121293061Y-132327898D01*
X121292326Y-132335664D01*
X121294500Y-132404813D01*
X121294500Y-140633255D01*
X121292775Y-140648872D01*
X121293061Y-140648899D01*
X121292326Y-140656665D01*
X121294500Y-140725814D01*
X121294500Y-140755343D01*
X121294501Y-140755360D01*
X121295368Y-140762231D01*
X121295826Y-140768050D01*
X121297290Y-140814624D01*
X121297291Y-140814627D01*
X121302880Y-140833867D01*
X121306824Y-140852911D01*
X121309336Y-140872792D01*
X121316899Y-140891895D01*
X121326490Y-140916119D01*
X121328382Y-140921647D01*
X121341381Y-140966388D01*
X121351580Y-140983634D01*
X121360138Y-141001103D01*
X121367514Y-141019732D01*
X121394898Y-141057423D01*
X121398106Y-141062307D01*
X121421827Y-141102416D01*
X121421833Y-141102424D01*
X121435990Y-141116580D01*
X121448628Y-141131376D01*
X121460405Y-141147586D01*
X121460406Y-141147587D01*
X121496309Y-141177288D01*
X121500620Y-141181210D01*
X126412670Y-146093261D01*
X128023197Y-147703788D01*
X128033022Y-147716051D01*
X128033243Y-147715869D01*
X128038214Y-147721878D01*
X128064217Y-147746295D01*
X128088635Y-147769226D01*
X128099850Y-147780441D01*
X128111064Y-147791656D01*
X128111092Y-147791682D01*
X130563197Y-150243788D01*
X130573022Y-150256051D01*
X130573243Y-150255869D01*
X130578214Y-150261878D01*
X130599043Y-150281437D01*
X130628635Y-150309226D01*
X130649529Y-150330120D01*
X130655011Y-150334373D01*
X130659443Y-150338157D01*
X130693418Y-150370062D01*
X130710976Y-150379714D01*
X130727235Y-150390395D01*
X130743064Y-150402673D01*
X130785838Y-150421182D01*
X130791056Y-150423738D01*
X130831908Y-150446197D01*
X130851316Y-150451180D01*
X130869717Y-150457480D01*
X130888104Y-150465437D01*
X130931488Y-150472308D01*
X130934119Y-150472725D01*
X130939839Y-150473909D01*
X130984981Y-150485500D01*
X131005016Y-150485500D01*
X131024414Y-150487026D01*
X131044194Y-150490159D01*
X131044195Y-150490160D01*
X131044195Y-150490159D01*
X131044196Y-150490160D01*
X131090583Y-150485775D01*
X131096422Y-150485500D01*
X148764981Y-150485500D01*
X149142257Y-150485500D01*
X149157877Y-150487224D01*
X149157904Y-150486939D01*
X149165660Y-150487671D01*
X149165667Y-150487673D01*
X149234814Y-150485500D01*
X169084981Y-150485500D01*
X169142257Y-150485500D01*
X169157877Y-150487224D01*
X169157904Y-150486939D01*
X169165660Y-150487671D01*
X169165667Y-150487673D01*
X169234814Y-150485500D01*
X169264350Y-150485500D01*
X188388981Y-150485500D01*
X189142257Y-150485500D01*
X189157877Y-150487224D01*
X189157904Y-150486939D01*
X189165660Y-150487671D01*
X189165667Y-150487673D01*
X189234814Y-150485500D01*
X209216981Y-150485500D01*
X209225153Y-150485500D01*
X209248385Y-150487696D01*
X209249989Y-150488001D01*
X209256412Y-150489227D01*
X209313724Y-150485621D01*
X209317597Y-150485500D01*
X217849257Y-150485500D01*
X217864877Y-150487224D01*
X217864904Y-150486939D01*
X217872660Y-150487671D01*
X217872667Y-150487673D01*
X217941814Y-150485500D01*
X217971350Y-150485500D01*
X217978228Y-150484630D01*
X217984041Y-150484172D01*
X218030627Y-150482709D01*
X218049869Y-150477117D01*
X218068912Y-150473174D01*
X218088792Y-150470664D01*
X218132122Y-150453507D01*
X218137646Y-150451617D01*
X218141396Y-150450527D01*
X218182390Y-150438618D01*
X218199629Y-150428422D01*
X218217103Y-150419862D01*
X218235727Y-150412488D01*
X218235727Y-150412487D01*
X218235732Y-150412486D01*
X218273449Y-150385082D01*
X218278305Y-150381892D01*
X218318420Y-150358170D01*
X218332589Y-150343999D01*
X218347379Y-150331368D01*
X218363587Y-150319594D01*
X218393299Y-150283676D01*
X218397212Y-150279376D01*
X224688790Y-143987799D01*
X224701044Y-143977984D01*
X224700861Y-143977762D01*
X224706868Y-143972790D01*
X224706879Y-143972784D01*
X224737787Y-143939870D01*
X224754244Y-143922346D01*
X226728422Y-141948167D01*
X227459786Y-141216802D01*
X227472048Y-141206980D01*
X227471865Y-141206759D01*
X227477867Y-141201792D01*
X227477877Y-141201786D01*
X227525241Y-141151348D01*
X227546120Y-141130470D01*
X227550373Y-141124986D01*
X227554150Y-141120563D01*
X227586062Y-141086582D01*
X227595714Y-141069023D01*
X227606389Y-141052772D01*
X227618674Y-141036936D01*
X227637186Y-140994152D01*
X227639742Y-140988935D01*
X227657383Y-140956848D01*
X227662194Y-140948098D01*
X227662194Y-140948097D01*
X227662197Y-140948092D01*
X227667180Y-140928680D01*
X227673477Y-140910291D01*
X227681438Y-140891895D01*
X227688729Y-140845853D01*
X227689908Y-140840162D01*
X227701500Y-140795019D01*
X227701500Y-140774974D01*
X227703025Y-140755591D01*
X227706160Y-140735804D01*
X227701775Y-140689415D01*
X227701500Y-140683577D01*
X227701500Y-122498844D01*
X227703697Y-122475608D01*
X227705227Y-122467587D01*
X227704934Y-122462936D01*
X227701620Y-122410274D01*
X227701499Y-122406398D01*
X227701500Y-122388649D01*
X227701500Y-102686844D01*
X227703697Y-102663606D01*
X227705227Y-102655588D01*
X227701621Y-102598275D01*
X227701500Y-102594403D01*
X227701500Y-82764649D01*
X227701499Y-82713749D01*
X227703224Y-82698126D01*
X227702938Y-82698099D01*
X227703671Y-82690339D01*
X227703673Y-82690331D01*
X227701500Y-82621183D01*
X227701500Y-62952650D01*
X227701500Y-62952649D01*
X227701500Y-62713740D01*
X227703224Y-62698120D01*
X227702939Y-62698094D01*
X227703671Y-62690338D01*
X227703673Y-62690331D01*
X227701500Y-62621183D01*
X227701500Y-53930736D01*
X227703224Y-53915123D01*
X227702938Y-53915096D01*
X227703672Y-53907333D01*
X227701500Y-53838202D01*
X227701500Y-53808651D01*
X227701500Y-53808650D01*
X227700629Y-53801759D01*
X227700172Y-53795945D01*
X227698709Y-53749374D01*
X227698709Y-53749372D01*
X227693120Y-53730137D01*
X227689174Y-53711084D01*
X227686664Y-53691208D01*
X227669501Y-53647859D01*
X227667614Y-53642346D01*
X227661503Y-53621313D01*
X227654617Y-53597610D01*
X227644421Y-53580369D01*
X227635860Y-53562893D01*
X227630762Y-53550017D01*
X227628486Y-53544268D01*
X227628486Y-53544267D01*
X227618474Y-53530488D01*
X227601083Y-53506550D01*
X227597900Y-53501705D01*
X227574170Y-53461579D01*
X227574165Y-53461573D01*
X227560005Y-53447413D01*
X227547370Y-53432620D01*
X227535593Y-53416412D01*
X227499693Y-53386713D01*
X227495381Y-53382790D01*
X220964391Y-46851801D01*
X220949521Y-46833827D01*
X220944924Y-46827062D01*
X220944921Y-46827059D01*
X220944919Y-46827056D01*
X220901852Y-46789089D01*
X220899028Y-46786437D01*
X220886471Y-46773880D01*
X218432803Y-44320212D01*
X218422980Y-44307950D01*
X218422759Y-44308134D01*
X218417786Y-44302123D01*
X218399159Y-44284631D01*
X218367364Y-44254773D01*
X218356919Y-44244328D01*
X218346475Y-44233883D01*
X218340986Y-44229625D01*
X218336561Y-44225847D01*
X218302582Y-44193938D01*
X218302580Y-44193936D01*
X218302577Y-44193935D01*
X218285029Y-44184288D01*
X218268763Y-44173604D01*
X218252933Y-44161325D01*
X218210168Y-44142818D01*
X218204922Y-44140248D01*
X218164093Y-44117803D01*
X218164092Y-44117802D01*
X218144693Y-44112822D01*
X218126281Y-44106518D01*
X218107898Y-44098562D01*
X218107892Y-44098560D01*
X218061874Y-44091272D01*
X218056152Y-44090087D01*
X218011021Y-44078500D01*
X218011019Y-44078500D01*
X217990984Y-44078500D01*
X217971586Y-44076973D01*
X217957695Y-44074773D01*
X217951805Y-44073840D01*
X217951804Y-44073840D01*
X217905416Y-44078225D01*
X217899578Y-44078500D01*
X199543738Y-44078500D01*
X199528121Y-44076776D01*
X199528094Y-44077062D01*
X199520332Y-44076327D01*
X199451204Y-44078500D01*
X179394847Y-44078500D01*
X179371615Y-44076304D01*
X179363588Y-44074773D01*
X179363586Y-44074773D01*
X179354633Y-44075336D01*
X179306275Y-44078378D01*
X179302403Y-44078500D01*
X159543738Y-44078500D01*
X159528121Y-44076776D01*
X159528094Y-44077062D01*
X159520332Y-44076327D01*
X159451204Y-44078500D01*
X139543738Y-44078500D01*
X139528121Y-44076776D01*
X139528094Y-44077062D01*
X139520332Y-44076327D01*
X139451204Y-44078500D01*
X139421651Y-44078500D01*
X139420930Y-44078590D01*
X139414758Y-44079369D01*
X139408946Y-44079826D01*
X139362374Y-44081290D01*
X139362373Y-44081290D01*
X139343130Y-44086881D01*
X139324080Y-44090825D01*
X139304212Y-44093334D01*
X139304210Y-44093335D01*
X139260885Y-44110488D01*
X139255358Y-44112380D01*
X139210611Y-44125381D01*
X139210610Y-44125382D01*
X139193368Y-44135579D01*
X139175900Y-44144137D01*
X139157270Y-44151513D01*
X139157268Y-44151514D01*
X139119577Y-44178898D01*
X139114695Y-44182105D01*
X139074580Y-44205830D01*
X139060409Y-44220000D01*
X139045624Y-44232628D01*
X139029413Y-44244407D01*
X138999710Y-44280310D01*
X138995778Y-44284631D01*
X137343521Y-45936887D01*
X137282198Y-45970372D01*
X137215577Y-45966487D01*
X137189985Y-45957701D01*
X136999452Y-45925907D01*
X136961051Y-45919499D01*
X136728953Y-45919499D01*
X136690552Y-45925907D01*
X136500017Y-45957701D01*
X136280506Y-46033060D01*
X136280497Y-46033063D01*
X136076373Y-46143530D01*
X136076367Y-46143534D01*
X135893224Y-46286080D01*
X135893220Y-46286084D01*
X135884868Y-46295157D01*
X135824981Y-46331147D01*
X135755143Y-46329046D01*
X135697527Y-46289521D01*
X135677457Y-46254506D01*
X135648799Y-46177670D01*
X135648795Y-46177663D01*
X135562549Y-46062454D01*
X135562546Y-46062451D01*
X135447337Y-45976205D01*
X135447330Y-45976201D01*
X135312484Y-45925907D01*
X135312485Y-45925907D01*
X135252885Y-45919500D01*
X135252883Y-45919499D01*
X135252875Y-45919499D01*
X135252866Y-45919499D01*
X133357131Y-45919499D01*
X133357125Y-45919500D01*
X133297518Y-45925907D01*
X133162673Y-45976201D01*
X133162666Y-45976205D01*
X133047457Y-46062451D01*
X133047454Y-46062454D01*
X132961208Y-46177663D01*
X132961204Y-46177670D01*
X132910910Y-46312516D01*
X132904503Y-46372115D01*
X132904502Y-46372134D01*
X132904502Y-48267869D01*
X132904503Y-48267875D01*
X132910910Y-48327482D01*
X132961204Y-48462327D01*
X132961208Y-48462334D01*
X133047454Y-48577543D01*
X133047457Y-48577546D01*
X133162666Y-48663792D01*
X133162673Y-48663796D01*
X133297519Y-48714090D01*
X133297518Y-48714090D01*
X133304446Y-48714834D01*
X133357129Y-48720499D01*
X135252874Y-48720498D01*
X135312485Y-48714090D01*
X135447333Y-48663795D01*
X135562548Y-48577545D01*
X135648798Y-48462330D01*
X135677456Y-48385492D01*
X135719328Y-48329558D01*
X135784792Y-48305140D01*
X135853065Y-48319991D01*
X135884868Y-48344842D01*
X135892304Y-48352919D01*
X135893217Y-48353911D01*
X135893224Y-48353917D01*
X136076367Y-48496463D01*
X136076373Y-48496467D01*
X136076376Y-48496469D01*
X136280499Y-48606935D01*
X136394489Y-48646067D01*
X136500017Y-48682296D01*
X136500019Y-48682296D01*
X136500021Y-48682297D01*
X136728953Y-48720499D01*
X136728954Y-48720499D01*
X136961050Y-48720499D01*
X136961051Y-48720499D01*
X137189983Y-48682297D01*
X137409505Y-48606935D01*
X137613628Y-48496469D01*
X137644338Y-48472567D01*
X137675131Y-48448599D01*
X137796786Y-48353912D01*
X137953981Y-48183152D01*
X138080926Y-47988848D01*
X138174159Y-47776299D01*
X138231136Y-47551304D01*
X138248479Y-47342000D01*
X138250302Y-47320005D01*
X138250302Y-47319992D01*
X138231137Y-47088701D01*
X138231134Y-47088685D01*
X138221742Y-47051601D01*
X138193825Y-46941360D01*
X138196449Y-46871543D01*
X138226347Y-46823242D01*
X139683772Y-45365819D01*
X139745096Y-45332334D01*
X139771454Y-45329500D01*
X157651548Y-45329500D01*
X157718587Y-45349185D01*
X157764342Y-45401989D01*
X157774286Y-45471147D01*
X157745261Y-45534703D01*
X157739229Y-45541181D01*
X157343521Y-45936887D01*
X157282198Y-45970372D01*
X157215577Y-45966487D01*
X157189985Y-45957701D01*
X156999452Y-45925907D01*
X156961051Y-45919499D01*
X156728953Y-45919499D01*
X156690552Y-45925907D01*
X156500017Y-45957701D01*
X156280506Y-46033060D01*
X156280497Y-46033063D01*
X156076373Y-46143530D01*
X156076367Y-46143534D01*
X155893224Y-46286080D01*
X155893220Y-46286084D01*
X155884868Y-46295157D01*
X155824981Y-46331147D01*
X155755143Y-46329046D01*
X155697527Y-46289521D01*
X155677457Y-46254506D01*
X155648799Y-46177670D01*
X155648795Y-46177663D01*
X155562549Y-46062454D01*
X155562546Y-46062451D01*
X155447337Y-45976205D01*
X155447330Y-45976201D01*
X155312484Y-45925907D01*
X155312485Y-45925907D01*
X155252885Y-45919500D01*
X155252883Y-45919499D01*
X155252875Y-45919499D01*
X155252866Y-45919499D01*
X153357131Y-45919499D01*
X153357125Y-45919500D01*
X153297518Y-45925907D01*
X153162673Y-45976201D01*
X153162666Y-45976205D01*
X153047457Y-46062451D01*
X153047454Y-46062454D01*
X152961208Y-46177663D01*
X152961204Y-46177670D01*
X152910910Y-46312516D01*
X152904503Y-46372115D01*
X152904502Y-46372134D01*
X152904502Y-48267869D01*
X152904503Y-48267875D01*
X152910910Y-48327482D01*
X152961204Y-48462327D01*
X152961208Y-48462334D01*
X153047454Y-48577543D01*
X153047457Y-48577546D01*
X153162666Y-48663792D01*
X153162673Y-48663796D01*
X153297519Y-48714090D01*
X153297518Y-48714090D01*
X153304446Y-48714834D01*
X153357129Y-48720499D01*
X155252874Y-48720498D01*
X155312485Y-48714090D01*
X155447333Y-48663795D01*
X155562548Y-48577545D01*
X155648798Y-48462330D01*
X155677456Y-48385492D01*
X155719328Y-48329558D01*
X155784792Y-48305140D01*
X155853065Y-48319991D01*
X155884868Y-48344842D01*
X155892304Y-48352919D01*
X155893217Y-48353911D01*
X155893224Y-48353917D01*
X156076367Y-48496463D01*
X156076373Y-48496467D01*
X156076376Y-48496469D01*
X156280499Y-48606935D01*
X156394489Y-48646067D01*
X156500017Y-48682296D01*
X156500019Y-48682296D01*
X156500021Y-48682297D01*
X156728953Y-48720499D01*
X156728954Y-48720499D01*
X156961050Y-48720499D01*
X156961051Y-48720499D01*
X157189983Y-48682297D01*
X157409505Y-48606935D01*
X157613628Y-48496469D01*
X157644338Y-48472567D01*
X157675131Y-48448599D01*
X157796786Y-48353912D01*
X157953981Y-48183152D01*
X158080926Y-47988848D01*
X158174159Y-47776299D01*
X158231136Y-47551304D01*
X158248479Y-47342000D01*
X158250302Y-47320005D01*
X158250302Y-47319992D01*
X158231137Y-47088701D01*
X158231134Y-47088685D01*
X158221742Y-47051601D01*
X158193825Y-46941360D01*
X158196449Y-46871543D01*
X158226347Y-46823242D01*
X159683772Y-45365819D01*
X159745096Y-45332334D01*
X159771454Y-45329500D01*
X177651549Y-45329500D01*
X177718588Y-45349185D01*
X177764343Y-45401989D01*
X177774287Y-45471147D01*
X177745262Y-45534703D01*
X177739230Y-45541181D01*
X177343522Y-45936887D01*
X177282199Y-45970372D01*
X177215579Y-45966487D01*
X177189988Y-45957701D01*
X176999206Y-45925865D01*
X176961051Y-45919499D01*
X176728953Y-45919499D01*
X176690552Y-45925907D01*
X176500017Y-45957701D01*
X176280506Y-46033060D01*
X176280497Y-46033063D01*
X176076373Y-46143530D01*
X176076367Y-46143534D01*
X175893224Y-46286080D01*
X175893220Y-46286084D01*
X175884868Y-46295157D01*
X175824981Y-46331147D01*
X175755143Y-46329046D01*
X175697527Y-46289521D01*
X175677457Y-46254506D01*
X175648799Y-46177670D01*
X175648795Y-46177663D01*
X175562549Y-46062454D01*
X175562546Y-46062451D01*
X175447337Y-45976205D01*
X175447330Y-45976201D01*
X175312484Y-45925907D01*
X175312485Y-45925907D01*
X175252885Y-45919500D01*
X175252883Y-45919499D01*
X175252875Y-45919499D01*
X175252866Y-45919499D01*
X173357131Y-45919499D01*
X173357125Y-45919500D01*
X173297518Y-45925907D01*
X173162673Y-45976201D01*
X173162666Y-45976205D01*
X173047457Y-46062451D01*
X173047454Y-46062454D01*
X172961208Y-46177663D01*
X172961204Y-46177670D01*
X172910910Y-46312516D01*
X172904503Y-46372115D01*
X172904502Y-46372134D01*
X172904502Y-48267869D01*
X172904503Y-48267875D01*
X172910910Y-48327482D01*
X172961204Y-48462327D01*
X172961208Y-48462334D01*
X173047454Y-48577543D01*
X173047457Y-48577546D01*
X173162666Y-48663792D01*
X173162673Y-48663796D01*
X173297519Y-48714090D01*
X173297518Y-48714090D01*
X173304446Y-48714834D01*
X173357129Y-48720499D01*
X175252874Y-48720498D01*
X175312485Y-48714090D01*
X175447333Y-48663795D01*
X175562548Y-48577545D01*
X175648798Y-48462330D01*
X175677456Y-48385492D01*
X175719328Y-48329558D01*
X175784792Y-48305140D01*
X175853065Y-48319991D01*
X175884868Y-48344842D01*
X175892304Y-48352919D01*
X175893217Y-48353911D01*
X175893224Y-48353917D01*
X176076367Y-48496463D01*
X176076373Y-48496467D01*
X176076376Y-48496469D01*
X176280499Y-48606935D01*
X176394489Y-48646067D01*
X176500017Y-48682296D01*
X176500019Y-48682296D01*
X176500021Y-48682297D01*
X176728953Y-48720499D01*
X176728954Y-48720499D01*
X176961050Y-48720499D01*
X176961051Y-48720499D01*
X177189983Y-48682297D01*
X177409505Y-48606935D01*
X177613628Y-48496469D01*
X177644338Y-48472567D01*
X177675131Y-48448599D01*
X177796786Y-48353912D01*
X177953981Y-48183152D01*
X178080926Y-47988848D01*
X178174159Y-47776299D01*
X178231136Y-47551304D01*
X178248479Y-47342000D01*
X178250302Y-47320005D01*
X178250302Y-47319992D01*
X178231137Y-47088701D01*
X178231134Y-47088685D01*
X178221742Y-47051601D01*
X178193825Y-46941360D01*
X178196449Y-46871543D01*
X178226347Y-46823242D01*
X179683770Y-45365819D01*
X179745094Y-45332334D01*
X179771452Y-45329500D01*
X197651548Y-45329500D01*
X197718587Y-45349185D01*
X197764342Y-45401989D01*
X197774286Y-45471147D01*
X197745261Y-45534703D01*
X197739229Y-45541181D01*
X197343521Y-45936887D01*
X197282198Y-45970372D01*
X197215577Y-45966487D01*
X197189985Y-45957701D01*
X196999452Y-45925907D01*
X196961051Y-45919499D01*
X196728953Y-45919499D01*
X196690552Y-45925907D01*
X196500017Y-45957701D01*
X196280506Y-46033060D01*
X196280497Y-46033063D01*
X196076373Y-46143530D01*
X196076367Y-46143534D01*
X195893224Y-46286080D01*
X195893220Y-46286084D01*
X195884868Y-46295157D01*
X195824981Y-46331147D01*
X195755143Y-46329046D01*
X195697527Y-46289521D01*
X195677457Y-46254506D01*
X195648799Y-46177670D01*
X195648795Y-46177663D01*
X195562549Y-46062454D01*
X195562546Y-46062451D01*
X195447337Y-45976205D01*
X195447330Y-45976201D01*
X195312484Y-45925907D01*
X195312485Y-45925907D01*
X195252885Y-45919500D01*
X195252883Y-45919499D01*
X195252875Y-45919499D01*
X195252866Y-45919499D01*
X193357131Y-45919499D01*
X193357125Y-45919500D01*
X193297518Y-45925907D01*
X193162673Y-45976201D01*
X193162666Y-45976205D01*
X193047457Y-46062451D01*
X193047454Y-46062454D01*
X192961208Y-46177663D01*
X192961204Y-46177670D01*
X192910910Y-46312516D01*
X192904503Y-46372115D01*
X192904502Y-46372134D01*
X192904502Y-48267869D01*
X192904503Y-48267875D01*
X192910910Y-48327482D01*
X192961204Y-48462327D01*
X192961208Y-48462334D01*
X193047454Y-48577543D01*
X193047457Y-48577546D01*
X193162666Y-48663792D01*
X193162673Y-48663796D01*
X193297519Y-48714090D01*
X193297518Y-48714090D01*
X193304446Y-48714834D01*
X193357129Y-48720499D01*
X195252874Y-48720498D01*
X195312485Y-48714090D01*
X195447333Y-48663795D01*
X195562548Y-48577545D01*
X195648798Y-48462330D01*
X195677456Y-48385492D01*
X195719328Y-48329558D01*
X195784792Y-48305140D01*
X195853065Y-48319991D01*
X195884868Y-48344842D01*
X195892304Y-48352919D01*
X195893217Y-48353911D01*
X195893224Y-48353917D01*
X196076367Y-48496463D01*
X196076373Y-48496467D01*
X196076376Y-48496469D01*
X196280499Y-48606935D01*
X196394489Y-48646067D01*
X196500017Y-48682296D01*
X196500019Y-48682296D01*
X196500021Y-48682297D01*
X196728953Y-48720499D01*
X196728954Y-48720499D01*
X196961050Y-48720499D01*
X196961051Y-48720499D01*
X197189983Y-48682297D01*
X197409505Y-48606935D01*
X197613628Y-48496469D01*
X197644338Y-48472567D01*
X197675131Y-48448599D01*
X197796786Y-48353912D01*
X197953981Y-48183152D01*
X198080926Y-47988848D01*
X198174159Y-47776299D01*
X198231136Y-47551304D01*
X198248479Y-47342000D01*
X198250302Y-47320005D01*
X198250302Y-47319992D01*
X198231137Y-47088701D01*
X198231134Y-47088685D01*
X198221742Y-47051601D01*
X198193825Y-46941360D01*
X198196449Y-46871543D01*
X198226347Y-46823242D01*
X199683772Y-45365819D01*
X199745096Y-45332334D01*
X199771454Y-45329500D01*
X217621548Y-45329500D01*
X217688587Y-45349185D01*
X217709229Y-45365819D01*
X218826227Y-46482818D01*
X218859712Y-46544141D01*
X218854728Y-46613833D01*
X218812856Y-46669766D01*
X218747392Y-46694183D01*
X218738546Y-46694499D01*
X218176353Y-46694499D01*
X218109314Y-46674814D01*
X218072544Y-46638320D01*
X217953985Y-46456851D01*
X217953982Y-46456848D01*
X217953981Y-46456846D01*
X217796786Y-46286086D01*
X217796781Y-46286082D01*
X217796779Y-46286080D01*
X217613636Y-46143534D01*
X217613630Y-46143530D01*
X217409506Y-46033063D01*
X217409497Y-46033060D01*
X217189986Y-45957701D01*
X216999452Y-45925907D01*
X216961051Y-45919499D01*
X216728953Y-45919499D01*
X216690552Y-45925907D01*
X216500017Y-45957701D01*
X216280506Y-46033060D01*
X216280497Y-46033063D01*
X216076373Y-46143530D01*
X216076367Y-46143534D01*
X215893224Y-46286080D01*
X215893220Y-46286084D01*
X215884868Y-46295157D01*
X215824981Y-46331147D01*
X215755143Y-46329046D01*
X215697527Y-46289521D01*
X215677457Y-46254506D01*
X215648799Y-46177670D01*
X215648795Y-46177663D01*
X215562549Y-46062454D01*
X215562546Y-46062451D01*
X215447337Y-45976205D01*
X215447330Y-45976201D01*
X215312484Y-45925907D01*
X215312485Y-45925907D01*
X215252885Y-45919500D01*
X215252883Y-45919499D01*
X215252875Y-45919499D01*
X215252866Y-45919499D01*
X213357131Y-45919499D01*
X213357125Y-45919500D01*
X213297518Y-45925907D01*
X213162673Y-45976201D01*
X213162666Y-45976205D01*
X213047457Y-46062451D01*
X213047454Y-46062454D01*
X212961208Y-46177663D01*
X212961204Y-46177670D01*
X212910910Y-46312516D01*
X212904503Y-46372115D01*
X212904502Y-46372134D01*
X212904502Y-48267869D01*
X212904503Y-48267875D01*
X212910910Y-48327482D01*
X212961204Y-48462327D01*
X212961208Y-48462334D01*
X213047454Y-48577543D01*
X213047457Y-48577546D01*
X213162666Y-48663792D01*
X213162673Y-48663796D01*
X213297519Y-48714090D01*
X213297518Y-48714090D01*
X213304446Y-48714834D01*
X213357129Y-48720499D01*
X215252874Y-48720498D01*
X215312485Y-48714090D01*
X215447333Y-48663795D01*
X215562548Y-48577545D01*
X215648798Y-48462330D01*
X215677456Y-48385492D01*
X215719328Y-48329558D01*
X215784792Y-48305140D01*
X215853065Y-48319991D01*
X215884868Y-48344842D01*
X215892304Y-48352919D01*
X215893217Y-48353911D01*
X215893224Y-48353917D01*
X216076367Y-48496463D01*
X216076373Y-48496467D01*
X216076376Y-48496469D01*
X216280499Y-48606935D01*
X216394489Y-48646067D01*
X216500017Y-48682296D01*
X216500019Y-48682296D01*
X216500021Y-48682297D01*
X216728953Y-48720499D01*
X216728954Y-48720499D01*
X216961050Y-48720499D01*
X216961051Y-48720499D01*
X217189983Y-48682297D01*
X217409505Y-48606935D01*
X217613628Y-48496469D01*
X217644338Y-48472567D01*
X217675131Y-48448599D01*
X217796786Y-48353912D01*
X217953981Y-48183152D01*
X218072543Y-48001678D01*
X218125691Y-47956321D01*
X218176353Y-47945499D01*
X220237547Y-47945499D01*
X220304586Y-47965184D01*
X220325228Y-47981818D01*
X224723886Y-52380476D01*
X224757371Y-52441799D01*
X224752387Y-52511491D01*
X224710515Y-52567424D01*
X224645051Y-52591841D01*
X224604112Y-52587932D01*
X224508697Y-52562366D01*
X224508693Y-52562365D01*
X224508692Y-52562365D01*
X224508691Y-52562364D01*
X224508686Y-52562364D01*
X224282002Y-52542532D01*
X224281998Y-52542532D01*
X224055313Y-52562364D01*
X224055302Y-52562366D01*
X223835511Y-52621258D01*
X223835502Y-52621261D01*
X223629267Y-52717431D01*
X223629265Y-52717432D01*
X223442858Y-52847954D01*
X223281954Y-53008858D01*
X223151432Y-53195265D01*
X223151430Y-53195268D01*
X223124380Y-53253277D01*
X223078207Y-53305715D01*
X223011013Y-53324866D01*
X222944132Y-53304649D01*
X222899619Y-53253277D01*
X222872568Y-53195266D01*
X222742047Y-53008861D01*
X222742045Y-53008858D01*
X222581141Y-52847954D01*
X222394734Y-52717432D01*
X222394732Y-52717431D01*
X222188497Y-52621261D01*
X222188488Y-52621258D01*
X221968697Y-52562366D01*
X221968693Y-52562365D01*
X221968692Y-52562365D01*
X221968691Y-52562364D01*
X221968686Y-52562364D01*
X221742002Y-52542532D01*
X221741998Y-52542532D01*
X221515313Y-52562364D01*
X221515302Y-52562366D01*
X221295511Y-52621258D01*
X221295502Y-52621261D01*
X221089267Y-52717431D01*
X221089265Y-52717432D01*
X220902858Y-52847954D01*
X220741954Y-53008858D01*
X220611432Y-53195265D01*
X220611431Y-53195267D01*
X220515261Y-53401502D01*
X220515258Y-53401511D01*
X220456366Y-53621302D01*
X220456364Y-53621313D01*
X220436532Y-53847998D01*
X220436532Y-53848001D01*
X220456364Y-54074686D01*
X220456366Y-54074697D01*
X220515258Y-54294488D01*
X220515261Y-54294497D01*
X220611431Y-54500732D01*
X220611432Y-54500734D01*
X220741954Y-54687141D01*
X220902858Y-54848045D01*
X220902861Y-54848047D01*
X221089266Y-54978568D01*
X221295504Y-55074739D01*
X221515308Y-55133635D01*
X221677230Y-55147801D01*
X221741998Y-55153468D01*
X221742000Y-55153468D01*
X221742002Y-55153468D01*
X221798672Y-55148509D01*
X221968692Y-55133635D01*
X222188496Y-55074739D01*
X222394734Y-54978568D01*
X222581139Y-54848047D01*
X222742047Y-54687139D01*
X222872568Y-54500734D01*
X222899618Y-54442724D01*
X222945790Y-54390285D01*
X223012983Y-54371133D01*
X223079865Y-54391348D01*
X223124382Y-54442725D01*
X223151429Y-54500728D01*
X223151432Y-54500734D01*
X223281954Y-54687141D01*
X223442858Y-54848045D01*
X223442861Y-54848047D01*
X223629266Y-54978568D01*
X223835504Y-55074739D01*
X224055308Y-55133635D01*
X224217230Y-55147801D01*
X224281998Y-55153468D01*
X224282000Y-55153468D01*
X224282002Y-55153468D01*
X224338673Y-55148509D01*
X224508692Y-55133635D01*
X224728496Y-55074739D01*
X224934734Y-54978568D01*
X225121139Y-54848047D01*
X225282047Y-54687139D01*
X225412568Y-54500734D01*
X225508739Y-54294496D01*
X225567635Y-54074692D01*
X225587468Y-53848000D01*
X225567635Y-53621308D01*
X225542067Y-53525886D01*
X225543730Y-53456038D01*
X225582892Y-53398175D01*
X225647121Y-53370671D01*
X225716023Y-53382257D01*
X225749523Y-53406113D01*
X226414181Y-54070771D01*
X226447666Y-54132094D01*
X226450500Y-54158452D01*
X226450499Y-60821545D01*
X226430814Y-60888584D01*
X226378010Y-60934339D01*
X226308852Y-60944283D01*
X226245296Y-60915258D01*
X226238828Y-60909236D01*
X225686348Y-60356756D01*
X225652864Y-60295434D01*
X225653824Y-60238638D01*
X225691136Y-60091305D01*
X225701315Y-59968461D01*
X225710302Y-59860006D01*
X225710302Y-59859993D01*
X225691137Y-59628702D01*
X225691135Y-59628691D01*
X225634159Y-59403699D01*
X225540926Y-59191151D01*
X225413985Y-58996852D01*
X225413982Y-58996849D01*
X225413981Y-58996847D01*
X225319197Y-58893884D01*
X225288277Y-58831232D01*
X225296137Y-58761806D01*
X225340285Y-58707651D01*
X225367097Y-58693722D01*
X225447328Y-58663798D01*
X225447328Y-58663797D01*
X225447333Y-58663796D01*
X225562548Y-58577546D01*
X225648798Y-58462331D01*
X225699093Y-58327483D01*
X225705502Y-58267873D01*
X225705501Y-56372128D01*
X225699093Y-56312517D01*
X225699092Y-56312515D01*
X225648799Y-56177671D01*
X225648795Y-56177664D01*
X225562549Y-56062455D01*
X225562546Y-56062452D01*
X225447337Y-55976206D01*
X225447330Y-55976202D01*
X225312484Y-55925908D01*
X225312485Y-55925908D01*
X225252885Y-55919501D01*
X225252883Y-55919500D01*
X225252875Y-55919500D01*
X225252866Y-55919500D01*
X223357131Y-55919500D01*
X223357125Y-55919501D01*
X223297518Y-55925908D01*
X223162673Y-55976202D01*
X223162666Y-55976206D01*
X223047457Y-56062452D01*
X223047454Y-56062455D01*
X222961208Y-56177664D01*
X222961204Y-56177671D01*
X222910910Y-56312517D01*
X222904503Y-56372116D01*
X222904503Y-56372123D01*
X222904502Y-56372135D01*
X222904502Y-58267870D01*
X222904503Y-58267876D01*
X222910910Y-58327483D01*
X222961204Y-58462328D01*
X222961208Y-58462335D01*
X223047454Y-58577544D01*
X223047457Y-58577547D01*
X223162666Y-58663793D01*
X223162675Y-58663798D01*
X223242906Y-58693722D01*
X223298840Y-58735593D01*
X223323258Y-58801057D01*
X223308407Y-58869330D01*
X223290804Y-58893886D01*
X223196021Y-58996849D01*
X223069077Y-59191151D01*
X222975844Y-59403699D01*
X222918868Y-59628691D01*
X222918866Y-59628702D01*
X222899702Y-59859993D01*
X222899702Y-59860006D01*
X222918866Y-60091297D01*
X222918868Y-60091308D01*
X222975844Y-60316300D01*
X223069077Y-60528848D01*
X223196018Y-60723147D01*
X223196021Y-60723151D01*
X223196023Y-60723153D01*
X223353218Y-60893913D01*
X223353221Y-60893915D01*
X223353224Y-60893918D01*
X223536367Y-61036464D01*
X223536373Y-61036468D01*
X223536376Y-61036470D01*
X223740499Y-61146936D01*
X223854489Y-61186068D01*
X223960017Y-61222297D01*
X223960019Y-61222297D01*
X223960021Y-61222298D01*
X224188953Y-61260500D01*
X224188954Y-61260500D01*
X224421050Y-61260500D01*
X224421051Y-61260500D01*
X224649983Y-61222298D01*
X224675578Y-61213510D01*
X224745373Y-61210359D01*
X224803522Y-61243110D01*
X226414180Y-62853768D01*
X226447665Y-62915091D01*
X226450499Y-62941449D01*
X226450499Y-80821545D01*
X226430814Y-80888584D01*
X226378010Y-80934339D01*
X226308852Y-80944283D01*
X226245296Y-80915258D01*
X226238818Y-80909226D01*
X225686349Y-80356757D01*
X225652864Y-80295434D01*
X225653824Y-80238638D01*
X225691136Y-80091305D01*
X225710302Y-79860000D01*
X225710302Y-79859993D01*
X225691137Y-79628702D01*
X225691135Y-79628691D01*
X225634159Y-79403699D01*
X225540926Y-79191151D01*
X225413985Y-78996852D01*
X225413982Y-78996849D01*
X225413981Y-78996847D01*
X225319197Y-78893884D01*
X225288277Y-78831232D01*
X225296137Y-78761806D01*
X225340285Y-78707651D01*
X225367097Y-78693722D01*
X225447328Y-78663798D01*
X225447328Y-78663797D01*
X225447333Y-78663796D01*
X225562548Y-78577546D01*
X225648798Y-78462331D01*
X225699093Y-78327483D01*
X225705502Y-78267873D01*
X225705501Y-76372128D01*
X225699093Y-76312517D01*
X225699092Y-76312515D01*
X225648799Y-76177671D01*
X225648795Y-76177664D01*
X225562549Y-76062455D01*
X225562546Y-76062452D01*
X225447337Y-75976206D01*
X225447330Y-75976202D01*
X225312484Y-75925908D01*
X225312485Y-75925908D01*
X225252885Y-75919501D01*
X225252883Y-75919500D01*
X225252875Y-75919500D01*
X225252866Y-75919500D01*
X223357131Y-75919500D01*
X223357125Y-75919501D01*
X223297518Y-75925908D01*
X223162673Y-75976202D01*
X223162666Y-75976206D01*
X223047457Y-76062452D01*
X223047454Y-76062455D01*
X222961208Y-76177664D01*
X222961204Y-76177671D01*
X222910910Y-76312517D01*
X222904503Y-76372116D01*
X222904503Y-76372123D01*
X222904502Y-76372135D01*
X222904502Y-78267870D01*
X222904503Y-78267876D01*
X222910910Y-78327483D01*
X222961204Y-78462328D01*
X222961208Y-78462335D01*
X223047454Y-78577544D01*
X223047457Y-78577547D01*
X223162666Y-78663793D01*
X223162675Y-78663798D01*
X223242906Y-78693722D01*
X223298840Y-78735593D01*
X223323258Y-78801057D01*
X223308407Y-78869330D01*
X223290804Y-78893886D01*
X223196021Y-78996849D01*
X223069077Y-79191151D01*
X222975844Y-79403699D01*
X222918868Y-79628691D01*
X222918866Y-79628702D01*
X222899702Y-79859993D01*
X222899702Y-79860006D01*
X222918866Y-80091297D01*
X222918868Y-80091308D01*
X222975844Y-80316300D01*
X223069077Y-80528848D01*
X223196018Y-80723147D01*
X223196021Y-80723151D01*
X223196023Y-80723153D01*
X223353218Y-80893913D01*
X223353221Y-80893915D01*
X223353224Y-80893918D01*
X223536367Y-81036464D01*
X223536373Y-81036468D01*
X223536376Y-81036470D01*
X223740499Y-81146936D01*
X223854489Y-81186068D01*
X223960017Y-81222297D01*
X223960019Y-81222297D01*
X223960021Y-81222298D01*
X224188953Y-81260500D01*
X224188954Y-81260500D01*
X224421050Y-81260500D01*
X224421051Y-81260500D01*
X224649983Y-81222298D01*
X224675578Y-81213510D01*
X224745373Y-81210359D01*
X224803521Y-81243109D01*
X226414181Y-82853770D01*
X226447665Y-82915091D01*
X226450499Y-82941449D01*
X226450499Y-100821545D01*
X226430814Y-100888584D01*
X226378010Y-100934339D01*
X226308852Y-100944283D01*
X226245296Y-100915258D01*
X226238828Y-100909236D01*
X225686348Y-100356756D01*
X225652864Y-100295434D01*
X225653824Y-100238638D01*
X225691136Y-100091305D01*
X225710302Y-99860000D01*
X225710302Y-99859993D01*
X225691137Y-99628702D01*
X225691135Y-99628691D01*
X225634159Y-99403699D01*
X225540926Y-99191151D01*
X225413985Y-98996852D01*
X225413982Y-98996849D01*
X225413981Y-98996847D01*
X225319197Y-98893884D01*
X225288277Y-98831232D01*
X225296137Y-98761806D01*
X225340285Y-98707651D01*
X225367097Y-98693722D01*
X225447328Y-98663798D01*
X225447328Y-98663797D01*
X225447333Y-98663796D01*
X225562548Y-98577546D01*
X225648798Y-98462331D01*
X225699093Y-98327483D01*
X225705502Y-98267873D01*
X225705501Y-96372128D01*
X225699093Y-96312517D01*
X225699092Y-96312515D01*
X225648799Y-96177671D01*
X225648795Y-96177664D01*
X225562549Y-96062455D01*
X225562546Y-96062452D01*
X225447337Y-95976206D01*
X225447330Y-95976202D01*
X225312484Y-95925908D01*
X225312485Y-95925908D01*
X225252885Y-95919501D01*
X225252883Y-95919500D01*
X225252875Y-95919500D01*
X225252866Y-95919500D01*
X223357131Y-95919500D01*
X223357125Y-95919501D01*
X223297518Y-95925908D01*
X223162673Y-95976202D01*
X223162666Y-95976206D01*
X223047457Y-96062452D01*
X223047454Y-96062455D01*
X222961208Y-96177664D01*
X222961204Y-96177671D01*
X222910910Y-96312517D01*
X222905429Y-96363501D01*
X222904503Y-96372123D01*
X222904502Y-96372135D01*
X222904502Y-98267870D01*
X222904503Y-98267876D01*
X222910910Y-98327483D01*
X222961204Y-98462328D01*
X222961208Y-98462335D01*
X223047454Y-98577544D01*
X223047457Y-98577547D01*
X223162666Y-98663793D01*
X223162675Y-98663798D01*
X223242906Y-98693722D01*
X223298840Y-98735593D01*
X223323258Y-98801057D01*
X223308407Y-98869330D01*
X223290804Y-98893886D01*
X223196021Y-98996849D01*
X223069077Y-99191151D01*
X222975844Y-99403699D01*
X222918868Y-99628691D01*
X222918866Y-99628702D01*
X222899702Y-99859993D01*
X222899702Y-99860006D01*
X222918866Y-100091297D01*
X222918868Y-100091308D01*
X222975844Y-100316300D01*
X223069077Y-100528848D01*
X223196018Y-100723147D01*
X223196021Y-100723151D01*
X223196023Y-100723153D01*
X223353218Y-100893913D01*
X223353221Y-100893915D01*
X223353224Y-100893918D01*
X223536367Y-101036464D01*
X223536373Y-101036468D01*
X223536376Y-101036470D01*
X223740499Y-101146936D01*
X223854489Y-101186068D01*
X223960017Y-101222297D01*
X223960019Y-101222297D01*
X223960021Y-101222298D01*
X224188953Y-101260500D01*
X224188954Y-101260500D01*
X224421050Y-101260500D01*
X224421051Y-101260500D01*
X224649983Y-101222298D01*
X224675578Y-101213510D01*
X224745373Y-101210359D01*
X224803522Y-101243110D01*
X226414181Y-102853768D01*
X226447666Y-102915091D01*
X226450500Y-102941449D01*
X226450500Y-120821544D01*
X226430815Y-120888583D01*
X226378011Y-120934338D01*
X226308853Y-120944282D01*
X226245297Y-120915257D01*
X226238819Y-120909225D01*
X225686351Y-120356758D01*
X225652866Y-120295435D01*
X225653826Y-120238636D01*
X225673140Y-120162367D01*
X225691136Y-120091305D01*
X225691137Y-120091297D01*
X225710302Y-119860006D01*
X225710302Y-119859993D01*
X225691137Y-119628702D01*
X225691135Y-119628691D01*
X225634159Y-119403699D01*
X225540926Y-119191151D01*
X225413985Y-118996852D01*
X225413982Y-118996849D01*
X225413981Y-118996847D01*
X225319197Y-118893884D01*
X225288277Y-118831232D01*
X225296137Y-118761806D01*
X225340285Y-118707651D01*
X225367097Y-118693722D01*
X225447328Y-118663798D01*
X225447328Y-118663797D01*
X225447333Y-118663796D01*
X225562548Y-118577546D01*
X225648798Y-118462331D01*
X225699093Y-118327483D01*
X225705502Y-118267873D01*
X225705501Y-116372128D01*
X225699093Y-116312517D01*
X225699092Y-116312515D01*
X225648799Y-116177671D01*
X225648795Y-116177664D01*
X225562549Y-116062455D01*
X225562546Y-116062452D01*
X225447337Y-115976206D01*
X225447330Y-115976202D01*
X225312484Y-115925908D01*
X225312485Y-115925908D01*
X225252885Y-115919501D01*
X225252883Y-115919500D01*
X225252875Y-115919500D01*
X225252866Y-115919500D01*
X223357131Y-115919500D01*
X223357125Y-115919501D01*
X223297518Y-115925908D01*
X223162673Y-115976202D01*
X223162666Y-115976206D01*
X223047457Y-116062452D01*
X223047454Y-116062455D01*
X222961208Y-116177664D01*
X222961204Y-116177671D01*
X222910910Y-116312517D01*
X222904503Y-116372115D01*
X222904503Y-116372123D01*
X222904502Y-116372135D01*
X222904502Y-118267870D01*
X222904503Y-118267876D01*
X222910910Y-118327483D01*
X222961204Y-118462328D01*
X222961208Y-118462335D01*
X223047454Y-118577544D01*
X223047457Y-118577547D01*
X223162666Y-118663793D01*
X223162675Y-118663798D01*
X223242906Y-118693722D01*
X223298840Y-118735593D01*
X223323258Y-118801057D01*
X223308407Y-118869330D01*
X223290804Y-118893886D01*
X223196021Y-118996849D01*
X223069077Y-119191151D01*
X222975844Y-119403699D01*
X222918868Y-119628691D01*
X222918866Y-119628702D01*
X222899702Y-119859993D01*
X222899702Y-119860006D01*
X222918866Y-120091297D01*
X222918868Y-120091308D01*
X222975844Y-120316300D01*
X223069077Y-120528848D01*
X223196018Y-120723147D01*
X223196021Y-120723151D01*
X223196023Y-120723153D01*
X223353218Y-120893913D01*
X223353221Y-120893915D01*
X223353224Y-120893918D01*
X223536367Y-121036464D01*
X223536373Y-121036468D01*
X223536376Y-121036470D01*
X223740499Y-121146936D01*
X223854489Y-121186068D01*
X223960017Y-121222297D01*
X223960019Y-121222297D01*
X223960021Y-121222298D01*
X224188953Y-121260500D01*
X224188954Y-121260500D01*
X224421050Y-121260500D01*
X224421051Y-121260500D01*
X224649983Y-121222298D01*
X224675578Y-121213510D01*
X224745373Y-121210359D01*
X224803522Y-121243110D01*
X226372199Y-122811788D01*
X226382024Y-122824051D01*
X226382245Y-122823869D01*
X226387212Y-122829873D01*
X226387215Y-122829876D01*
X226387216Y-122829877D01*
X226411383Y-122852572D01*
X226446778Y-122912811D01*
X226450500Y-122942964D01*
X226450499Y-140405547D01*
X226430814Y-140472586D01*
X226414180Y-140493228D01*
X225142182Y-141765226D01*
X225080859Y-141798711D01*
X225011167Y-141793727D01*
X224955234Y-141751855D01*
X224930817Y-141686391D01*
X224930501Y-141677563D01*
X224930501Y-141187813D01*
X224950186Y-141120775D01*
X224995484Y-141078759D01*
X225029267Y-141060477D01*
X225073628Y-141036470D01*
X225256786Y-140893913D01*
X225413981Y-140723153D01*
X225540926Y-140528849D01*
X225634159Y-140316300D01*
X225691136Y-140091305D01*
X225691137Y-140091297D01*
X225710302Y-139860006D01*
X225710302Y-139859993D01*
X225691137Y-139628702D01*
X225691135Y-139628691D01*
X225634159Y-139403699D01*
X225540926Y-139191151D01*
X225413985Y-138996852D01*
X225413982Y-138996849D01*
X225413981Y-138996847D01*
X225319197Y-138893884D01*
X225288277Y-138831232D01*
X225296137Y-138761806D01*
X225340285Y-138707651D01*
X225367097Y-138693722D01*
X225447328Y-138663798D01*
X225447328Y-138663797D01*
X225447333Y-138663796D01*
X225562548Y-138577546D01*
X225648798Y-138462331D01*
X225699093Y-138327483D01*
X225705502Y-138267873D01*
X225705501Y-136372128D01*
X225699093Y-136312517D01*
X225699092Y-136312515D01*
X225648799Y-136177671D01*
X225648795Y-136177664D01*
X225562549Y-136062455D01*
X225562546Y-136062452D01*
X225447337Y-135976206D01*
X225447330Y-135976202D01*
X225312484Y-135925908D01*
X225312485Y-135925908D01*
X225252885Y-135919501D01*
X225252883Y-135919500D01*
X225252875Y-135919500D01*
X225252866Y-135919500D01*
X223357131Y-135919500D01*
X223357125Y-135919501D01*
X223297518Y-135925908D01*
X223162673Y-135976202D01*
X223162666Y-135976206D01*
X223047457Y-136062452D01*
X223047454Y-136062455D01*
X222961208Y-136177664D01*
X222961204Y-136177671D01*
X222910910Y-136312517D01*
X222904503Y-136372115D01*
X222904503Y-136372123D01*
X222904502Y-136372135D01*
X222904502Y-138267870D01*
X222904503Y-138267876D01*
X222910910Y-138327483D01*
X222961204Y-138462328D01*
X222961208Y-138462335D01*
X223047454Y-138577544D01*
X223047457Y-138577547D01*
X223162666Y-138663793D01*
X223162675Y-138663798D01*
X223242906Y-138693722D01*
X223298840Y-138735593D01*
X223323258Y-138801057D01*
X223308407Y-138869330D01*
X223290804Y-138893886D01*
X223196021Y-138996849D01*
X223069077Y-139191151D01*
X222975844Y-139403699D01*
X222918868Y-139628691D01*
X222918866Y-139628702D01*
X222899702Y-139859993D01*
X222899702Y-139860006D01*
X222918866Y-140091297D01*
X222918868Y-140091308D01*
X222975844Y-140316300D01*
X223069077Y-140528848D01*
X223196018Y-140723147D01*
X223196021Y-140723151D01*
X223196023Y-140723153D01*
X223353218Y-140893913D01*
X223353221Y-140893915D01*
X223353224Y-140893918D01*
X223536367Y-141036464D01*
X223536378Y-141036471D01*
X223614519Y-141078759D01*
X223664110Y-141127978D01*
X223679502Y-141187814D01*
X223679502Y-143176544D01*
X223659817Y-143243583D01*
X223643183Y-143264225D01*
X219305642Y-147601765D01*
X219244319Y-147635250D01*
X219174627Y-147630266D01*
X219118694Y-147588394D01*
X219094277Y-147522930D01*
X219094433Y-147503276D01*
X219110468Y-147320000D01*
X219110468Y-147319998D01*
X219090635Y-147093313D01*
X219090635Y-147093308D01*
X219031739Y-146873504D01*
X218935568Y-146667266D01*
X218805047Y-146480861D01*
X218805045Y-146480858D01*
X218644141Y-146319954D01*
X218457734Y-146189432D01*
X218457728Y-146189429D01*
X218399725Y-146162382D01*
X218347285Y-146116210D01*
X218328133Y-146049017D01*
X218348348Y-145982135D01*
X218399725Y-145937618D01*
X218457734Y-145910568D01*
X218644139Y-145780047D01*
X218805047Y-145619139D01*
X218935568Y-145432734D01*
X219031739Y-145226496D01*
X219090635Y-145006692D01*
X219110468Y-144780000D01*
X219090635Y-144553308D01*
X219031739Y-144333504D01*
X218935568Y-144127266D01*
X218805047Y-143940861D01*
X218805045Y-143940858D01*
X218644141Y-143779954D01*
X218457734Y-143649432D01*
X218457732Y-143649431D01*
X218251497Y-143553261D01*
X218251488Y-143553258D01*
X218031697Y-143494366D01*
X218031693Y-143494365D01*
X218031692Y-143494365D01*
X218031691Y-143494364D01*
X218031686Y-143494364D01*
X217805002Y-143474532D01*
X217804998Y-143474532D01*
X217578313Y-143494364D01*
X217578302Y-143494366D01*
X217358511Y-143553258D01*
X217358502Y-143553261D01*
X217152267Y-143649431D01*
X217152265Y-143649432D01*
X216965858Y-143779954D01*
X216804954Y-143940858D01*
X216674432Y-144127265D01*
X216674431Y-144127267D01*
X216578261Y-144333502D01*
X216578258Y-144333511D01*
X216519366Y-144553302D01*
X216519364Y-144553313D01*
X216499532Y-144779998D01*
X216499532Y-144780001D01*
X216519364Y-145006686D01*
X216519366Y-145006697D01*
X216578258Y-145226488D01*
X216578261Y-145226497D01*
X216674431Y-145432732D01*
X216674432Y-145432734D01*
X216804954Y-145619141D01*
X216965858Y-145780045D01*
X216965861Y-145780047D01*
X217152266Y-145910568D01*
X217185163Y-145925908D01*
X217210275Y-145937618D01*
X217262714Y-145983791D01*
X217281866Y-146050984D01*
X217261650Y-146117865D01*
X217210275Y-146162382D01*
X217152267Y-146189431D01*
X217152265Y-146189432D01*
X216965858Y-146319954D01*
X216804954Y-146480858D01*
X216674432Y-146667265D01*
X216674431Y-146667267D01*
X216578261Y-146873502D01*
X216578258Y-146873511D01*
X216519366Y-147093302D01*
X216519364Y-147093313D01*
X216499532Y-147319998D01*
X216499532Y-147320001D01*
X216519364Y-147546686D01*
X216519366Y-147546697D01*
X216578258Y-147766488D01*
X216578261Y-147766497D01*
X216674431Y-147972732D01*
X216674432Y-147972734D01*
X216804954Y-148159141D01*
X216965858Y-148320045D01*
X216965861Y-148320047D01*
X217152266Y-148450568D01*
X217358504Y-148546739D01*
X217578308Y-148605635D01*
X217740230Y-148619801D01*
X217804998Y-148625468D01*
X217805000Y-148625468D01*
X217805001Y-148625468D01*
X217843955Y-148622059D01*
X217988278Y-148609433D01*
X218056777Y-148623200D01*
X218106960Y-148671815D01*
X218122894Y-148739843D01*
X218099519Y-148805687D01*
X218086766Y-148820642D01*
X217709228Y-149198181D01*
X217647905Y-149231666D01*
X217621547Y-149234500D01*
X211034452Y-149234500D01*
X210967413Y-149214815D01*
X210921658Y-149162011D01*
X210911714Y-149092853D01*
X210940739Y-149029297D01*
X210946761Y-149022828D01*
X211266481Y-148703107D01*
X211327801Y-148669625D01*
X211394420Y-148673509D01*
X211420019Y-148682298D01*
X211648951Y-148720500D01*
X211648952Y-148720500D01*
X211881048Y-148720500D01*
X211881049Y-148720500D01*
X212109981Y-148682298D01*
X212329503Y-148606936D01*
X212533626Y-148496470D01*
X212716784Y-148353913D01*
X212725130Y-148344846D01*
X212785010Y-148308854D01*
X212854849Y-148310949D01*
X212912468Y-148350469D01*
X212932544Y-148385491D01*
X212961203Y-148462330D01*
X212961206Y-148462335D01*
X213047452Y-148577544D01*
X213047455Y-148577547D01*
X213162664Y-148663793D01*
X213162671Y-148663797D01*
X213297517Y-148714091D01*
X213297516Y-148714091D01*
X213304444Y-148714835D01*
X213357127Y-148720500D01*
X215252872Y-148720499D01*
X215312483Y-148714091D01*
X215447331Y-148663796D01*
X215562546Y-148577546D01*
X215648796Y-148462331D01*
X215699091Y-148327483D01*
X215705500Y-148267873D01*
X215705499Y-146372128D01*
X215699091Y-146312517D01*
X215689233Y-146286087D01*
X215648797Y-146177671D01*
X215648793Y-146177664D01*
X215562547Y-146062455D01*
X215562544Y-146062452D01*
X215447335Y-145976206D01*
X215447328Y-145976202D01*
X215312482Y-145925908D01*
X215312483Y-145925908D01*
X215252883Y-145919501D01*
X215252881Y-145919500D01*
X215252873Y-145919500D01*
X215252864Y-145919500D01*
X213357129Y-145919500D01*
X213357123Y-145919501D01*
X213297516Y-145925908D01*
X213162671Y-145976202D01*
X213162664Y-145976206D01*
X213047455Y-146062452D01*
X213047452Y-146062455D01*
X212961206Y-146177664D01*
X212961203Y-146177670D01*
X212932544Y-146254508D01*
X212890672Y-146310441D01*
X212825208Y-146334858D01*
X212756935Y-146320006D01*
X212725135Y-146295158D01*
X212716784Y-146286087D01*
X212716778Y-146286082D01*
X212716777Y-146286081D01*
X212533634Y-146143535D01*
X212533628Y-146143531D01*
X212329504Y-146033064D01*
X212329495Y-146033061D01*
X212109984Y-145957702D01*
X211919450Y-145925908D01*
X211881049Y-145919500D01*
X211648951Y-145919500D01*
X211610550Y-145925908D01*
X211420015Y-145957702D01*
X211200504Y-146033061D01*
X211200495Y-146033064D01*
X210996371Y-146143531D01*
X210996365Y-146143535D01*
X210813222Y-146286081D01*
X210813219Y-146286084D01*
X210813216Y-146286086D01*
X210813216Y-146286087D01*
X210768319Y-146334858D01*
X210656016Y-146456852D01*
X210529075Y-146651151D01*
X210435842Y-146863699D01*
X210378866Y-147088691D01*
X210378864Y-147088702D01*
X210359700Y-147319993D01*
X210359700Y-147320006D01*
X210378865Y-147551301D01*
X210416175Y-147698636D01*
X210413550Y-147768456D01*
X210383650Y-147816757D01*
X209002228Y-149198181D01*
X208940905Y-149231666D01*
X208914547Y-149234500D01*
X191034452Y-149234500D01*
X190967413Y-149214815D01*
X190921658Y-149162011D01*
X190911714Y-149092853D01*
X190940739Y-149029297D01*
X190946761Y-149022828D01*
X191266481Y-148703107D01*
X191327801Y-148669625D01*
X191394420Y-148673509D01*
X191420019Y-148682298D01*
X191648951Y-148720500D01*
X191648952Y-148720500D01*
X191881048Y-148720500D01*
X191881049Y-148720500D01*
X192109981Y-148682298D01*
X192329503Y-148606936D01*
X192533626Y-148496470D01*
X192716784Y-148353913D01*
X192725130Y-148344846D01*
X192785010Y-148308854D01*
X192854849Y-148310949D01*
X192912468Y-148350469D01*
X192932544Y-148385491D01*
X192961203Y-148462330D01*
X192961206Y-148462335D01*
X193047452Y-148577544D01*
X193047455Y-148577547D01*
X193162664Y-148663793D01*
X193162671Y-148663797D01*
X193297517Y-148714091D01*
X193297516Y-148714091D01*
X193304444Y-148714835D01*
X193357127Y-148720500D01*
X195252872Y-148720499D01*
X195312483Y-148714091D01*
X195447331Y-148663796D01*
X195562546Y-148577546D01*
X195648796Y-148462331D01*
X195699091Y-148327483D01*
X195705500Y-148267873D01*
X195705500Y-147320001D01*
X196497032Y-147320001D01*
X196516864Y-147546686D01*
X196516866Y-147546697D01*
X196575758Y-147766488D01*
X196575761Y-147766497D01*
X196671931Y-147972732D01*
X196671932Y-147972734D01*
X196802454Y-148159141D01*
X196963358Y-148320045D01*
X196963361Y-148320047D01*
X197149766Y-148450568D01*
X197356004Y-148546739D01*
X197575808Y-148605635D01*
X197737730Y-148619801D01*
X197802498Y-148625468D01*
X197802500Y-148625468D01*
X197802502Y-148625468D01*
X197859172Y-148620509D01*
X198029192Y-148605635D01*
X198248996Y-148546739D01*
X198455234Y-148450568D01*
X198641639Y-148320047D01*
X198802547Y-148159139D01*
X198933068Y-147972734D01*
X199029239Y-147766496D01*
X199088135Y-147546692D01*
X199105134Y-147352384D01*
X199107968Y-147320001D01*
X199107968Y-147319998D01*
X199088135Y-147093313D01*
X199088135Y-147093308D01*
X199029239Y-146873504D01*
X198933068Y-146667266D01*
X198802547Y-146480861D01*
X198802545Y-146480858D01*
X198641641Y-146319954D01*
X198455234Y-146189432D01*
X198455228Y-146189429D01*
X198397225Y-146162382D01*
X198344785Y-146116210D01*
X198325633Y-146049017D01*
X198345848Y-145982135D01*
X198397225Y-145937618D01*
X198455234Y-145910568D01*
X198641639Y-145780047D01*
X198802547Y-145619139D01*
X198933068Y-145432734D01*
X199029239Y-145226496D01*
X199088135Y-145006692D01*
X199107968Y-144780000D01*
X199088135Y-144553308D01*
X199029239Y-144333504D01*
X198933068Y-144127266D01*
X198802547Y-143940861D01*
X198802545Y-143940858D01*
X198641641Y-143779954D01*
X198455234Y-143649432D01*
X198455232Y-143649431D01*
X198248997Y-143553261D01*
X198248988Y-143553258D01*
X198029197Y-143494366D01*
X198029193Y-143494365D01*
X198029192Y-143494365D01*
X198029191Y-143494364D01*
X198029186Y-143494364D01*
X197802502Y-143474532D01*
X197802498Y-143474532D01*
X197575813Y-143494364D01*
X197575802Y-143494366D01*
X197356011Y-143553258D01*
X197356002Y-143553261D01*
X197149767Y-143649431D01*
X197149765Y-143649432D01*
X196963358Y-143779954D01*
X196802454Y-143940858D01*
X196671932Y-144127265D01*
X196671931Y-144127267D01*
X196575761Y-144333502D01*
X196575758Y-144333511D01*
X196516866Y-144553302D01*
X196516864Y-144553313D01*
X196497032Y-144779998D01*
X196497032Y-144780001D01*
X196516864Y-145006686D01*
X196516866Y-145006697D01*
X196575758Y-145226488D01*
X196575761Y-145226497D01*
X196671931Y-145432732D01*
X196671932Y-145432734D01*
X196802454Y-145619141D01*
X196963358Y-145780045D01*
X196963361Y-145780047D01*
X197149766Y-145910568D01*
X197182663Y-145925908D01*
X197207775Y-145937618D01*
X197260214Y-145983791D01*
X197279366Y-146050984D01*
X197259150Y-146117865D01*
X197207775Y-146162382D01*
X197149767Y-146189431D01*
X197149765Y-146189432D01*
X196963358Y-146319954D01*
X196802454Y-146480858D01*
X196671932Y-146667265D01*
X196671931Y-146667267D01*
X196575761Y-146873502D01*
X196575758Y-146873511D01*
X196516866Y-147093302D01*
X196516864Y-147093313D01*
X196497032Y-147319998D01*
X196497032Y-147320001D01*
X195705500Y-147320001D01*
X195705499Y-146372128D01*
X195699091Y-146312517D01*
X195689233Y-146286087D01*
X195648797Y-146177671D01*
X195648793Y-146177664D01*
X195562547Y-146062455D01*
X195562544Y-146062452D01*
X195447335Y-145976206D01*
X195447328Y-145976202D01*
X195312482Y-145925908D01*
X195312483Y-145925908D01*
X195252883Y-145919501D01*
X195252881Y-145919500D01*
X195252873Y-145919500D01*
X195252864Y-145919500D01*
X193357129Y-145919500D01*
X193357123Y-145919501D01*
X193297516Y-145925908D01*
X193162671Y-145976202D01*
X193162664Y-145976206D01*
X193047455Y-146062452D01*
X193047452Y-146062455D01*
X192961206Y-146177664D01*
X192961203Y-146177670D01*
X192932544Y-146254508D01*
X192890672Y-146310441D01*
X192825208Y-146334858D01*
X192756935Y-146320006D01*
X192725135Y-146295158D01*
X192716784Y-146286087D01*
X192716778Y-146286082D01*
X192716777Y-146286081D01*
X192533634Y-146143535D01*
X192533628Y-146143531D01*
X192329504Y-146033064D01*
X192329495Y-146033061D01*
X192109984Y-145957702D01*
X191919450Y-145925908D01*
X191881049Y-145919500D01*
X191648951Y-145919500D01*
X191610550Y-145925908D01*
X191420015Y-145957702D01*
X191200504Y-146033061D01*
X191200495Y-146033064D01*
X190996371Y-146143531D01*
X190996365Y-146143535D01*
X190813222Y-146286081D01*
X190813219Y-146286084D01*
X190813216Y-146286086D01*
X190813216Y-146286087D01*
X190768319Y-146334858D01*
X190656016Y-146456852D01*
X190529075Y-146651151D01*
X190435842Y-146863699D01*
X190378866Y-147088691D01*
X190378864Y-147088702D01*
X190359700Y-147319993D01*
X190359700Y-147320006D01*
X190378865Y-147551301D01*
X190416175Y-147698636D01*
X190413550Y-147768456D01*
X190383650Y-147816757D01*
X189002228Y-149198181D01*
X188940905Y-149231666D01*
X188914547Y-149234500D01*
X171034452Y-149234500D01*
X170967413Y-149214815D01*
X170921658Y-149162011D01*
X170911714Y-149092853D01*
X170940739Y-149029297D01*
X170946761Y-149022828D01*
X171266481Y-148703107D01*
X171327801Y-148669625D01*
X171394420Y-148673509D01*
X171420019Y-148682298D01*
X171648951Y-148720500D01*
X171648952Y-148720500D01*
X171881048Y-148720500D01*
X171881049Y-148720500D01*
X172109981Y-148682298D01*
X172329503Y-148606936D01*
X172533626Y-148496470D01*
X172716784Y-148353913D01*
X172725130Y-148344846D01*
X172785010Y-148308854D01*
X172854849Y-148310949D01*
X172912468Y-148350469D01*
X172932544Y-148385491D01*
X172961203Y-148462330D01*
X172961206Y-148462335D01*
X173047452Y-148577544D01*
X173047455Y-148577547D01*
X173162664Y-148663793D01*
X173162671Y-148663797D01*
X173297517Y-148714091D01*
X173297516Y-148714091D01*
X173304444Y-148714835D01*
X173357127Y-148720500D01*
X175252872Y-148720499D01*
X175312483Y-148714091D01*
X175447331Y-148663796D01*
X175562546Y-148577546D01*
X175648796Y-148462331D01*
X175699091Y-148327483D01*
X175705500Y-148267873D01*
X175705500Y-147320001D01*
X176494532Y-147320001D01*
X176514364Y-147546686D01*
X176514366Y-147546697D01*
X176573258Y-147766488D01*
X176573261Y-147766497D01*
X176669431Y-147972732D01*
X176669432Y-147972734D01*
X176799954Y-148159141D01*
X176960858Y-148320045D01*
X176960861Y-148320047D01*
X177147266Y-148450568D01*
X177353504Y-148546739D01*
X177573308Y-148605635D01*
X177735230Y-148619801D01*
X177799998Y-148625468D01*
X177800000Y-148625468D01*
X177800002Y-148625468D01*
X177856672Y-148620509D01*
X178026692Y-148605635D01*
X178246496Y-148546739D01*
X178452734Y-148450568D01*
X178639139Y-148320047D01*
X178800047Y-148159139D01*
X178930568Y-147972734D01*
X179026739Y-147766496D01*
X179085635Y-147546692D01*
X179102634Y-147352384D01*
X179105468Y-147320001D01*
X179105468Y-147319998D01*
X179085635Y-147093313D01*
X179085635Y-147093308D01*
X179026739Y-146873504D01*
X178930568Y-146667266D01*
X178800047Y-146480861D01*
X178800045Y-146480858D01*
X178639141Y-146319954D01*
X178452734Y-146189432D01*
X178452728Y-146189429D01*
X178394725Y-146162382D01*
X178342285Y-146116210D01*
X178323133Y-146049017D01*
X178343348Y-145982135D01*
X178394725Y-145937618D01*
X178452734Y-145910568D01*
X178639139Y-145780047D01*
X178800047Y-145619139D01*
X178930568Y-145432734D01*
X179026739Y-145226496D01*
X179085635Y-145006692D01*
X179105468Y-144780000D01*
X179085635Y-144553308D01*
X179026739Y-144333504D01*
X178930568Y-144127266D01*
X178800047Y-143940861D01*
X178800045Y-143940858D01*
X178639141Y-143779954D01*
X178452734Y-143649432D01*
X178452732Y-143649431D01*
X178246497Y-143553261D01*
X178246488Y-143553258D01*
X178026697Y-143494366D01*
X178026693Y-143494365D01*
X178026692Y-143494365D01*
X178026691Y-143494364D01*
X178026686Y-143494364D01*
X177800002Y-143474532D01*
X177799998Y-143474532D01*
X177573313Y-143494364D01*
X177573302Y-143494366D01*
X177353511Y-143553258D01*
X177353502Y-143553261D01*
X177147267Y-143649431D01*
X177147265Y-143649432D01*
X176960858Y-143779954D01*
X176799954Y-143940858D01*
X176669432Y-144127265D01*
X176669431Y-144127267D01*
X176573261Y-144333502D01*
X176573258Y-144333511D01*
X176514366Y-144553302D01*
X176514364Y-144553313D01*
X176494532Y-144779998D01*
X176494532Y-144780001D01*
X176514364Y-145006686D01*
X176514366Y-145006697D01*
X176573258Y-145226488D01*
X176573261Y-145226497D01*
X176669431Y-145432732D01*
X176669432Y-145432734D01*
X176799954Y-145619141D01*
X176960858Y-145780045D01*
X176960861Y-145780047D01*
X177147266Y-145910568D01*
X177180163Y-145925908D01*
X177205275Y-145937618D01*
X177257714Y-145983791D01*
X177276866Y-146050984D01*
X177256650Y-146117865D01*
X177205275Y-146162382D01*
X177147267Y-146189431D01*
X177147265Y-146189432D01*
X176960858Y-146319954D01*
X176799954Y-146480858D01*
X176669432Y-146667265D01*
X176669431Y-146667267D01*
X176573261Y-146873502D01*
X176573258Y-146873511D01*
X176514366Y-147093302D01*
X176514364Y-147093313D01*
X176494532Y-147319998D01*
X176494532Y-147320001D01*
X175705500Y-147320001D01*
X175705499Y-146372128D01*
X175699091Y-146312517D01*
X175689233Y-146286087D01*
X175648797Y-146177671D01*
X175648793Y-146177664D01*
X175562547Y-146062455D01*
X175562544Y-146062452D01*
X175447335Y-145976206D01*
X175447328Y-145976202D01*
X175312482Y-145925908D01*
X175312483Y-145925908D01*
X175252883Y-145919501D01*
X175252881Y-145919500D01*
X175252873Y-145919500D01*
X175252864Y-145919500D01*
X173357129Y-145919500D01*
X173357123Y-145919501D01*
X173297516Y-145925908D01*
X173162671Y-145976202D01*
X173162664Y-145976206D01*
X173047455Y-146062452D01*
X173047452Y-146062455D01*
X172961206Y-146177664D01*
X172961203Y-146177670D01*
X172932544Y-146254508D01*
X172890672Y-146310441D01*
X172825208Y-146334858D01*
X172756935Y-146320006D01*
X172725135Y-146295158D01*
X172716784Y-146286087D01*
X172716778Y-146286082D01*
X172716777Y-146286081D01*
X172533634Y-146143535D01*
X172533628Y-146143531D01*
X172329504Y-146033064D01*
X172329495Y-146033061D01*
X172109984Y-145957702D01*
X171919450Y-145925908D01*
X171881049Y-145919500D01*
X171648951Y-145919500D01*
X171610550Y-145925908D01*
X171420015Y-145957702D01*
X171200504Y-146033061D01*
X171200495Y-146033064D01*
X170996371Y-146143531D01*
X170996365Y-146143535D01*
X170813222Y-146286081D01*
X170813219Y-146286084D01*
X170813216Y-146286086D01*
X170813216Y-146286087D01*
X170768319Y-146334858D01*
X170656016Y-146456852D01*
X170529075Y-146651151D01*
X170435842Y-146863699D01*
X170378866Y-147088691D01*
X170378864Y-147088702D01*
X170359700Y-147319993D01*
X170359700Y-147320006D01*
X170378865Y-147551301D01*
X170416175Y-147698636D01*
X170413550Y-147768456D01*
X170383650Y-147816757D01*
X169002228Y-149198181D01*
X168940905Y-149231666D01*
X168914547Y-149234500D01*
X151034452Y-149234500D01*
X150967413Y-149214815D01*
X150921658Y-149162011D01*
X150911714Y-149092853D01*
X150940739Y-149029297D01*
X150946761Y-149022828D01*
X151266481Y-148703107D01*
X151327801Y-148669625D01*
X151394420Y-148673509D01*
X151420019Y-148682298D01*
X151648951Y-148720500D01*
X151648952Y-148720500D01*
X151881048Y-148720500D01*
X151881049Y-148720500D01*
X152109981Y-148682298D01*
X152329503Y-148606936D01*
X152533626Y-148496470D01*
X152716784Y-148353913D01*
X152725130Y-148344846D01*
X152785010Y-148308854D01*
X152854849Y-148310949D01*
X152912468Y-148350469D01*
X152932544Y-148385491D01*
X152961203Y-148462330D01*
X152961206Y-148462335D01*
X153047452Y-148577544D01*
X153047455Y-148577547D01*
X153162664Y-148663793D01*
X153162671Y-148663797D01*
X153297517Y-148714091D01*
X153297516Y-148714091D01*
X153304444Y-148714835D01*
X153357127Y-148720500D01*
X155252872Y-148720499D01*
X155312483Y-148714091D01*
X155447331Y-148663796D01*
X155562546Y-148577546D01*
X155648796Y-148462331D01*
X155699091Y-148327483D01*
X155705500Y-148267873D01*
X155705500Y-147320001D01*
X156492032Y-147320001D01*
X156511864Y-147546686D01*
X156511866Y-147546697D01*
X156570758Y-147766488D01*
X156570761Y-147766497D01*
X156666931Y-147972732D01*
X156666932Y-147972734D01*
X156797454Y-148159141D01*
X156958358Y-148320045D01*
X156958361Y-148320047D01*
X157144766Y-148450568D01*
X157351004Y-148546739D01*
X157570808Y-148605635D01*
X157732730Y-148619801D01*
X157797498Y-148625468D01*
X157797500Y-148625468D01*
X157797502Y-148625468D01*
X157854173Y-148620509D01*
X158024192Y-148605635D01*
X158243996Y-148546739D01*
X158450234Y-148450568D01*
X158636639Y-148320047D01*
X158797547Y-148159139D01*
X158928068Y-147972734D01*
X159024239Y-147766496D01*
X159083135Y-147546692D01*
X159100134Y-147352384D01*
X159102968Y-147320001D01*
X159102968Y-147319998D01*
X159083135Y-147093313D01*
X159083135Y-147093308D01*
X159024239Y-146873504D01*
X158928068Y-146667266D01*
X158797547Y-146480861D01*
X158797545Y-146480858D01*
X158636641Y-146319954D01*
X158450234Y-146189432D01*
X158450228Y-146189429D01*
X158392225Y-146162382D01*
X158339785Y-146116210D01*
X158320633Y-146049017D01*
X158340848Y-145982135D01*
X158392225Y-145937618D01*
X158450234Y-145910568D01*
X158636639Y-145780047D01*
X158797547Y-145619139D01*
X158928068Y-145432734D01*
X159024239Y-145226496D01*
X159083135Y-145006692D01*
X159102968Y-144780000D01*
X159083135Y-144553308D01*
X159024239Y-144333504D01*
X158928068Y-144127266D01*
X158797547Y-143940861D01*
X158797545Y-143940858D01*
X158636641Y-143779954D01*
X158450234Y-143649432D01*
X158450232Y-143649431D01*
X158243997Y-143553261D01*
X158243988Y-143553258D01*
X158024197Y-143494366D01*
X158024193Y-143494365D01*
X158024192Y-143494365D01*
X158024191Y-143494364D01*
X158024186Y-143494364D01*
X157797502Y-143474532D01*
X157797498Y-143474532D01*
X157570813Y-143494364D01*
X157570802Y-143494366D01*
X157351011Y-143553258D01*
X157351002Y-143553261D01*
X157144767Y-143649431D01*
X157144765Y-143649432D01*
X156958358Y-143779954D01*
X156797454Y-143940858D01*
X156666932Y-144127265D01*
X156666931Y-144127267D01*
X156570761Y-144333502D01*
X156570758Y-144333511D01*
X156511866Y-144553302D01*
X156511864Y-144553313D01*
X156492032Y-144779998D01*
X156492032Y-144780001D01*
X156511864Y-145006686D01*
X156511866Y-145006697D01*
X156570758Y-145226488D01*
X156570761Y-145226497D01*
X156666931Y-145432732D01*
X156666932Y-145432734D01*
X156797454Y-145619141D01*
X156958358Y-145780045D01*
X156958361Y-145780047D01*
X157144766Y-145910568D01*
X157177663Y-145925908D01*
X157202775Y-145937618D01*
X157255214Y-145983791D01*
X157274366Y-146050984D01*
X157254150Y-146117865D01*
X157202775Y-146162382D01*
X157144767Y-146189431D01*
X157144765Y-146189432D01*
X156958358Y-146319954D01*
X156797454Y-146480858D01*
X156666932Y-146667265D01*
X156666931Y-146667267D01*
X156570761Y-146873502D01*
X156570758Y-146873511D01*
X156511866Y-147093302D01*
X156511864Y-147093313D01*
X156492032Y-147319998D01*
X156492032Y-147320001D01*
X155705500Y-147320001D01*
X155705499Y-146372128D01*
X155699091Y-146312517D01*
X155689233Y-146286087D01*
X155648797Y-146177671D01*
X155648793Y-146177664D01*
X155562547Y-146062455D01*
X155562544Y-146062452D01*
X155447335Y-145976206D01*
X155447328Y-145976202D01*
X155312482Y-145925908D01*
X155312483Y-145925908D01*
X155252883Y-145919501D01*
X155252881Y-145919500D01*
X155252873Y-145919500D01*
X155252864Y-145919500D01*
X153357129Y-145919500D01*
X153357123Y-145919501D01*
X153297516Y-145925908D01*
X153162671Y-145976202D01*
X153162664Y-145976206D01*
X153047455Y-146062452D01*
X153047452Y-146062455D01*
X152961206Y-146177664D01*
X152961203Y-146177670D01*
X152932544Y-146254508D01*
X152890672Y-146310441D01*
X152825208Y-146334858D01*
X152756935Y-146320006D01*
X152725135Y-146295158D01*
X152716784Y-146286087D01*
X152716778Y-146286082D01*
X152716777Y-146286081D01*
X152533634Y-146143535D01*
X152533628Y-146143531D01*
X152329504Y-146033064D01*
X152329495Y-146033061D01*
X152109984Y-145957702D01*
X151919450Y-145925908D01*
X151881049Y-145919500D01*
X151648951Y-145919500D01*
X151610550Y-145925908D01*
X151420015Y-145957702D01*
X151200504Y-146033061D01*
X151200495Y-146033064D01*
X150996371Y-146143531D01*
X150996365Y-146143535D01*
X150813222Y-146286081D01*
X150813219Y-146286084D01*
X150813216Y-146286086D01*
X150813216Y-146286087D01*
X150768319Y-146334858D01*
X150656016Y-146456852D01*
X150529075Y-146651151D01*
X150435842Y-146863699D01*
X150378866Y-147088691D01*
X150378864Y-147088702D01*
X150359700Y-147319993D01*
X150359700Y-147320006D01*
X150378865Y-147551301D01*
X150416175Y-147698636D01*
X150413550Y-147768456D01*
X150383650Y-147816757D01*
X149002228Y-149198181D01*
X148940905Y-149231666D01*
X148914547Y-149234500D01*
X131374453Y-149234500D01*
X131307414Y-149214815D01*
X131286772Y-149198181D01*
X130245772Y-148157181D01*
X130212287Y-148095858D01*
X130217271Y-148026166D01*
X130259143Y-147970233D01*
X130324607Y-147945816D01*
X130333453Y-147945500D01*
X130433649Y-147945500D01*
X130500688Y-147965185D01*
X130537458Y-148001679D01*
X130656016Y-148183147D01*
X130656019Y-148183151D01*
X130656021Y-148183153D01*
X130813216Y-148353913D01*
X130813219Y-148353915D01*
X130813222Y-148353918D01*
X130996365Y-148496464D01*
X130996371Y-148496468D01*
X130996374Y-148496470D01*
X131200497Y-148606936D01*
X131254479Y-148625468D01*
X131420015Y-148682297D01*
X131420017Y-148682297D01*
X131420019Y-148682298D01*
X131648951Y-148720500D01*
X131648952Y-148720500D01*
X131881048Y-148720500D01*
X131881049Y-148720500D01*
X132109981Y-148682298D01*
X132329503Y-148606936D01*
X132533626Y-148496470D01*
X132716784Y-148353913D01*
X132725130Y-148344846D01*
X132785010Y-148308854D01*
X132854849Y-148310949D01*
X132912468Y-148350469D01*
X132932544Y-148385491D01*
X132961203Y-148462330D01*
X132961206Y-148462335D01*
X133047452Y-148577544D01*
X133047455Y-148577547D01*
X133162664Y-148663793D01*
X133162671Y-148663797D01*
X133297517Y-148714091D01*
X133297516Y-148714091D01*
X133304444Y-148714835D01*
X133357127Y-148720500D01*
X135252872Y-148720499D01*
X135312483Y-148714091D01*
X135447331Y-148663796D01*
X135562546Y-148577546D01*
X135648796Y-148462331D01*
X135699091Y-148327483D01*
X135705500Y-148267873D01*
X135705500Y-147320001D01*
X136489532Y-147320001D01*
X136509364Y-147546686D01*
X136509366Y-147546697D01*
X136568258Y-147766488D01*
X136568261Y-147766497D01*
X136664431Y-147972732D01*
X136664432Y-147972734D01*
X136794954Y-148159141D01*
X136955858Y-148320045D01*
X136955861Y-148320047D01*
X137142266Y-148450568D01*
X137348504Y-148546739D01*
X137568308Y-148605635D01*
X137730230Y-148619801D01*
X137794998Y-148625468D01*
X137795000Y-148625468D01*
X137795002Y-148625468D01*
X137851673Y-148620509D01*
X138021692Y-148605635D01*
X138241496Y-148546739D01*
X138447734Y-148450568D01*
X138634139Y-148320047D01*
X138795047Y-148159139D01*
X138925568Y-147972734D01*
X139021739Y-147766496D01*
X139080635Y-147546692D01*
X139097634Y-147352384D01*
X139100468Y-147320001D01*
X139100468Y-147319998D01*
X139080635Y-147093313D01*
X139080635Y-147093308D01*
X139021739Y-146873504D01*
X138925568Y-146667266D01*
X138795047Y-146480861D01*
X138795045Y-146480858D01*
X138634141Y-146319954D01*
X138447734Y-146189432D01*
X138447728Y-146189429D01*
X138389725Y-146162382D01*
X138337285Y-146116210D01*
X138318133Y-146049017D01*
X138338348Y-145982135D01*
X138389725Y-145937618D01*
X138447734Y-145910568D01*
X138634139Y-145780047D01*
X138795047Y-145619139D01*
X138925568Y-145432734D01*
X139021739Y-145226496D01*
X139080635Y-145006692D01*
X139100468Y-144780000D01*
X139080635Y-144553308D01*
X139021739Y-144333504D01*
X138925568Y-144127266D01*
X138795047Y-143940861D01*
X138795045Y-143940858D01*
X138634141Y-143779954D01*
X138447734Y-143649432D01*
X138447732Y-143649431D01*
X138241497Y-143553261D01*
X138241488Y-143553258D01*
X138021697Y-143494366D01*
X138021693Y-143494365D01*
X138021692Y-143494365D01*
X138021691Y-143494364D01*
X138021686Y-143494364D01*
X137795002Y-143474532D01*
X137794998Y-143474532D01*
X137568313Y-143494364D01*
X137568302Y-143494366D01*
X137348511Y-143553258D01*
X137348502Y-143553261D01*
X137142267Y-143649431D01*
X137142265Y-143649432D01*
X136955858Y-143779954D01*
X136794954Y-143940858D01*
X136664432Y-144127265D01*
X136664431Y-144127267D01*
X136568261Y-144333502D01*
X136568258Y-144333511D01*
X136509366Y-144553302D01*
X136509364Y-144553313D01*
X136489532Y-144779998D01*
X136489532Y-144780001D01*
X136509364Y-145006686D01*
X136509366Y-145006697D01*
X136568258Y-145226488D01*
X136568261Y-145226497D01*
X136664431Y-145432732D01*
X136664432Y-145432734D01*
X136794954Y-145619141D01*
X136955858Y-145780045D01*
X136955861Y-145780047D01*
X137142266Y-145910568D01*
X137175163Y-145925908D01*
X137200275Y-145937618D01*
X137252714Y-145983791D01*
X137271866Y-146050984D01*
X137251650Y-146117865D01*
X137200275Y-146162382D01*
X137142267Y-146189431D01*
X137142265Y-146189432D01*
X136955858Y-146319954D01*
X136794954Y-146480858D01*
X136664432Y-146667265D01*
X136664431Y-146667267D01*
X136568261Y-146873502D01*
X136568258Y-146873511D01*
X136509366Y-147093302D01*
X136509364Y-147093313D01*
X136489532Y-147319998D01*
X136489532Y-147320001D01*
X135705500Y-147320001D01*
X135705499Y-146372128D01*
X135699091Y-146312517D01*
X135689233Y-146286087D01*
X135648797Y-146177671D01*
X135648793Y-146177664D01*
X135562547Y-146062455D01*
X135562544Y-146062452D01*
X135447335Y-145976206D01*
X135447328Y-145976202D01*
X135312482Y-145925908D01*
X135312483Y-145925908D01*
X135252883Y-145919501D01*
X135252881Y-145919500D01*
X135252873Y-145919500D01*
X135252864Y-145919500D01*
X133357129Y-145919500D01*
X133357123Y-145919501D01*
X133297516Y-145925908D01*
X133162671Y-145976202D01*
X133162664Y-145976206D01*
X133047455Y-146062452D01*
X133047452Y-146062455D01*
X132961206Y-146177664D01*
X132961203Y-146177670D01*
X132932544Y-146254508D01*
X132890672Y-146310441D01*
X132825208Y-146334858D01*
X132756935Y-146320006D01*
X132725135Y-146295158D01*
X132716784Y-146286087D01*
X132716778Y-146286082D01*
X132716777Y-146286081D01*
X132533634Y-146143535D01*
X132533628Y-146143531D01*
X132329504Y-146033064D01*
X132329495Y-146033061D01*
X132109984Y-145957702D01*
X131919450Y-145925908D01*
X131881049Y-145919500D01*
X131648951Y-145919500D01*
X131610550Y-145925908D01*
X131420015Y-145957702D01*
X131200504Y-146033061D01*
X131200495Y-146033064D01*
X130996371Y-146143531D01*
X130996365Y-146143535D01*
X130813222Y-146286081D01*
X130813219Y-146286084D01*
X130813216Y-146286086D01*
X130813216Y-146286087D01*
X130768319Y-146334858D01*
X130656016Y-146456852D01*
X130537458Y-146638321D01*
X130484311Y-146683678D01*
X130433649Y-146694500D01*
X128834453Y-146694500D01*
X128767414Y-146674815D01*
X128746772Y-146658181D01*
X124409453Y-142320862D01*
X124375968Y-142259539D01*
X124380952Y-142189847D01*
X124422824Y-142133914D01*
X124486324Y-142109653D01*
X124559692Y-142103235D01*
X124779496Y-142044339D01*
X124985734Y-141948168D01*
X125172139Y-141817647D01*
X125333047Y-141656739D01*
X125463568Y-141470334D01*
X125490618Y-141412324D01*
X125536790Y-141359885D01*
X125603983Y-141340733D01*
X125670865Y-141360948D01*
X125715382Y-141412325D01*
X125742429Y-141470328D01*
X125742432Y-141470334D01*
X125872954Y-141656741D01*
X126033858Y-141817645D01*
X126033861Y-141817647D01*
X126220266Y-141948168D01*
X126426504Y-142044339D01*
X126646308Y-142103235D01*
X126808230Y-142117401D01*
X126872998Y-142123068D01*
X126873000Y-142123068D01*
X126873002Y-142123068D01*
X126929672Y-142118109D01*
X127099692Y-142103235D01*
X127319496Y-142044339D01*
X127525734Y-141948168D01*
X127712139Y-141817647D01*
X127873047Y-141656739D01*
X128003568Y-141470334D01*
X128099739Y-141264096D01*
X128158635Y-141044292D01*
X128178468Y-140817600D01*
X128176492Y-140795019D01*
X128166742Y-140683577D01*
X128158635Y-140590908D01*
X128099739Y-140371104D01*
X128003568Y-140164866D01*
X127873047Y-139978461D01*
X127873045Y-139978458D01*
X127712141Y-139817554D01*
X127525734Y-139687032D01*
X127525732Y-139687031D01*
X127319497Y-139590861D01*
X127319488Y-139590858D01*
X127099697Y-139531966D01*
X127099693Y-139531965D01*
X127099692Y-139531965D01*
X127099691Y-139531964D01*
X127099686Y-139531964D01*
X126873002Y-139512132D01*
X126872998Y-139512132D01*
X126646313Y-139531964D01*
X126646302Y-139531966D01*
X126426511Y-139590858D01*
X126426502Y-139590861D01*
X126220267Y-139687031D01*
X126220265Y-139687032D01*
X126033858Y-139817554D01*
X125872954Y-139978458D01*
X125742432Y-140164865D01*
X125742430Y-140164868D01*
X125715380Y-140222877D01*
X125669207Y-140275315D01*
X125602013Y-140294466D01*
X125535132Y-140274249D01*
X125490619Y-140222877D01*
X125463568Y-140164866D01*
X125333047Y-139978461D01*
X125333045Y-139978458D01*
X125172141Y-139817554D01*
X124985734Y-139687032D01*
X124985732Y-139687031D01*
X124779497Y-139590861D01*
X124779488Y-139590858D01*
X124559697Y-139531966D01*
X124559693Y-139531965D01*
X124559692Y-139531965D01*
X124559691Y-139531964D01*
X124559686Y-139531964D01*
X124333002Y-139512132D01*
X124332998Y-139512132D01*
X124106313Y-139531964D01*
X124106302Y-139531966D01*
X123886511Y-139590858D01*
X123886502Y-139590861D01*
X123680267Y-139687031D01*
X123680265Y-139687032D01*
X123493858Y-139817554D01*
X123332954Y-139978458D01*
X123202432Y-140164865D01*
X123202431Y-140164867D01*
X123106261Y-140371102D01*
X123106258Y-140371111D01*
X123047366Y-140590902D01*
X123047364Y-140590912D01*
X123040946Y-140664273D01*
X123015493Y-140729342D01*
X122958902Y-140770320D01*
X122889140Y-140774198D01*
X122829737Y-140741146D01*
X122581819Y-140493228D01*
X122548334Y-140431905D01*
X122545500Y-140405547D01*
X122545500Y-138136650D01*
X122545500Y-136177663D01*
X122545500Y-134204447D01*
X122565184Y-134137412D01*
X122617988Y-134091657D01*
X122687146Y-134081713D01*
X122750702Y-134110738D01*
X122757180Y-134116769D01*
X122923651Y-134283240D01*
X122957135Y-134344562D01*
X122956175Y-134401360D01*
X122918866Y-134548689D01*
X122918864Y-134548701D01*
X122899700Y-134779992D01*
X122899700Y-134780005D01*
X122918864Y-135011296D01*
X122918866Y-135011307D01*
X122975842Y-135236299D01*
X123069075Y-135448847D01*
X123196016Y-135643146D01*
X123196019Y-135643150D01*
X123196021Y-135643152D01*
X123290803Y-135746113D01*
X123321724Y-135808766D01*
X123313864Y-135878192D01*
X123269716Y-135932347D01*
X123242906Y-135946276D01*
X123162669Y-135976202D01*
X123162664Y-135976205D01*
X123047455Y-136062451D01*
X123047452Y-136062454D01*
X122961206Y-136177663D01*
X122961202Y-136177670D01*
X122910908Y-136312516D01*
X122904501Y-136372115D01*
X122904501Y-136372123D01*
X122904500Y-136372134D01*
X122904500Y-138267869D01*
X122904501Y-138267875D01*
X122910908Y-138327482D01*
X122961202Y-138462327D01*
X122961206Y-138462334D01*
X123047452Y-138577543D01*
X123047455Y-138577546D01*
X123162664Y-138663792D01*
X123162671Y-138663796D01*
X123297517Y-138714090D01*
X123297516Y-138714090D01*
X123304444Y-138714834D01*
X123357127Y-138720499D01*
X125252872Y-138720498D01*
X125312483Y-138714090D01*
X125447331Y-138663795D01*
X125562546Y-138577545D01*
X125648796Y-138462330D01*
X125699091Y-138327482D01*
X125705500Y-138267872D01*
X125705499Y-136372127D01*
X125699091Y-136312516D01*
X125648796Y-136177668D01*
X125648795Y-136177667D01*
X125648793Y-136177663D01*
X125562547Y-136062454D01*
X125562544Y-136062451D01*
X125447335Y-135976205D01*
X125447328Y-135976201D01*
X125367094Y-135946276D01*
X125311160Y-135904405D01*
X125286743Y-135838940D01*
X125301595Y-135770667D01*
X125319190Y-135746120D01*
X125413979Y-135643152D01*
X125540924Y-135448848D01*
X125634157Y-135236299D01*
X125691134Y-135011304D01*
X125703833Y-134858047D01*
X125710300Y-134780005D01*
X125710300Y-134779992D01*
X125691135Y-134548701D01*
X125691133Y-134548690D01*
X125634157Y-134323698D01*
X125540924Y-134111150D01*
X125413983Y-133916851D01*
X125413980Y-133916848D01*
X125413979Y-133916846D01*
X125256784Y-133746086D01*
X125256779Y-133746082D01*
X125256777Y-133746080D01*
X125073634Y-133603534D01*
X125073628Y-133603530D01*
X124869504Y-133493063D01*
X124869495Y-133493060D01*
X124649984Y-133417701D01*
X124478282Y-133389049D01*
X124421049Y-133379499D01*
X124188951Y-133379499D01*
X124131717Y-133389049D01*
X123960016Y-133417701D01*
X123934421Y-133426488D01*
X123864622Y-133429637D01*
X123806479Y-133396887D01*
X123729596Y-133320004D01*
X135900256Y-133320004D01*
X135919216Y-133621382D01*
X135919217Y-133621389D01*
X135975806Y-133918039D01*
X136069126Y-134205246D01*
X136069128Y-134205251D01*
X136197705Y-134478490D01*
X136197708Y-134478496D01*
X136359514Y-134733463D01*
X136440313Y-134831132D01*
X137369212Y-133902234D01*
X137469895Y-134043623D01*
X137621933Y-134188591D01*
X137724223Y-134254328D01*
X136791565Y-135186985D01*
X137016475Y-135350392D01*
X137016486Y-135350399D01*
X137281110Y-135495877D01*
X137281118Y-135495881D01*
X137561890Y-135607046D01*
X137561893Y-135607047D01*
X137854400Y-135682149D01*
X138153996Y-135719998D01*
X138154008Y-135719999D01*
X138455994Y-135719999D01*
X138456005Y-135719998D01*
X138755601Y-135682149D01*
X139048108Y-135607047D01*
X139048111Y-135607046D01*
X139328883Y-135495881D01*
X139328891Y-135495877D01*
X139593515Y-135350399D01*
X139593526Y-135350392D01*
X139818434Y-135186985D01*
X139818435Y-135186985D01*
X138888307Y-134256858D01*
X138902411Y-134249588D01*
X139067541Y-134119728D01*
X139205111Y-133960964D01*
X139239666Y-133901111D01*
X140169687Y-134831132D01*
X140250484Y-134733468D01*
X140412293Y-134478496D01*
X140412296Y-134478490D01*
X140540873Y-134205251D01*
X140540875Y-134205246D01*
X140634195Y-133918039D01*
X140690784Y-133621389D01*
X140690785Y-133621382D01*
X140709746Y-133320004D01*
X140709746Y-133319993D01*
X140690785Y-133018615D01*
X140690784Y-133018608D01*
X140634195Y-132721958D01*
X140540875Y-132434751D01*
X140540873Y-132434746D01*
X140412296Y-132161507D01*
X140412293Y-132161501D01*
X140250487Y-131906534D01*
X140169686Y-131808863D01*
X139240788Y-132737762D01*
X139140107Y-132596375D01*
X138988069Y-132451407D01*
X138885778Y-132385668D01*
X139818435Y-131453011D01*
X139593531Y-131289608D01*
X139593521Y-131289601D01*
X139328891Y-131144120D01*
X139328883Y-131144116D01*
X139048111Y-131032951D01*
X139048108Y-131032950D01*
X138755601Y-130957848D01*
X138456005Y-130919999D01*
X138153996Y-130919999D01*
X137854400Y-130957848D01*
X137561893Y-131032950D01*
X137561890Y-131032951D01*
X137281118Y-131144116D01*
X137281110Y-131144120D01*
X137016480Y-131289601D01*
X137016462Y-131289613D01*
X136791566Y-131453009D01*
X136791565Y-131453011D01*
X137721694Y-132383139D01*
X137707591Y-132390410D01*
X137542461Y-132520270D01*
X137404891Y-132679034D01*
X137370335Y-132738885D01*
X136440313Y-131808863D01*
X136359517Y-131906529D01*
X136197708Y-132161501D01*
X136197705Y-132161507D01*
X136069128Y-132434746D01*
X136069126Y-132434751D01*
X135975806Y-132721958D01*
X135919217Y-133018608D01*
X135919216Y-133018615D01*
X135900256Y-133319993D01*
X135900256Y-133320004D01*
X123729596Y-133320004D01*
X122581819Y-132172227D01*
X122548334Y-132110904D01*
X122545500Y-132084546D01*
X122545500Y-124295773D01*
X134304420Y-124295773D01*
X134304458Y-124319998D01*
X134304577Y-124320283D01*
X134304617Y-124320381D01*
X134315880Y-124331586D01*
X140904294Y-130919999D01*
X147287197Y-137302902D01*
X147287431Y-137303251D01*
X147304619Y-137320383D01*
X147304901Y-137320499D01*
X147305000Y-137320540D01*
X147305001Y-137320540D01*
X147329555Y-137320540D01*
X147329761Y-137320499D01*
X201280146Y-137320499D01*
X201280335Y-137320537D01*
X201304998Y-137320539D01*
X201305001Y-137320541D01*
X201305285Y-137320423D01*
X201305428Y-137320364D01*
X201307654Y-137319464D01*
X201313832Y-137311933D01*
X201323148Y-137302617D01*
X201323261Y-137302445D01*
X205305702Y-133320004D01*
X207900256Y-133320004D01*
X207919216Y-133621382D01*
X207919217Y-133621389D01*
X207975806Y-133918039D01*
X208069126Y-134205246D01*
X208069128Y-134205251D01*
X208197705Y-134478490D01*
X208197708Y-134478496D01*
X208359514Y-134733463D01*
X208440313Y-134831132D01*
X209369212Y-133902234D01*
X209469895Y-134043623D01*
X209621933Y-134188591D01*
X209724223Y-134254328D01*
X208791565Y-135186985D01*
X209016475Y-135350392D01*
X209016486Y-135350399D01*
X209281110Y-135495877D01*
X209281118Y-135495881D01*
X209561890Y-135607046D01*
X209561893Y-135607047D01*
X209854400Y-135682149D01*
X210153996Y-135719998D01*
X210154008Y-135719999D01*
X210455994Y-135719999D01*
X210456005Y-135719998D01*
X210755601Y-135682149D01*
X211048108Y-135607047D01*
X211048111Y-135607046D01*
X211328883Y-135495881D01*
X211328891Y-135495877D01*
X211593515Y-135350399D01*
X211593526Y-135350392D01*
X211818434Y-135186985D01*
X211818435Y-135186985D01*
X210888307Y-134256858D01*
X210902411Y-134249588D01*
X211067541Y-134119728D01*
X211205111Y-133960964D01*
X211239666Y-133901112D01*
X212169687Y-134831132D01*
X212250484Y-134733468D01*
X212412293Y-134478496D01*
X212412296Y-134478490D01*
X212540873Y-134205251D01*
X212540875Y-134205246D01*
X212634195Y-133918039D01*
X212645648Y-133858001D01*
X220436532Y-133858001D01*
X220456364Y-134084686D01*
X220456366Y-134084697D01*
X220515258Y-134304488D01*
X220515261Y-134304497D01*
X220611431Y-134510732D01*
X220611432Y-134510734D01*
X220741954Y-134697141D01*
X220902858Y-134858045D01*
X220902861Y-134858047D01*
X221089266Y-134988568D01*
X221295504Y-135084739D01*
X221515308Y-135143635D01*
X221677230Y-135157801D01*
X221741998Y-135163468D01*
X221742000Y-135163468D01*
X221742002Y-135163468D01*
X221798672Y-135158509D01*
X221968692Y-135143635D01*
X222188496Y-135084739D01*
X222394734Y-134988568D01*
X222581139Y-134858047D01*
X222742047Y-134697139D01*
X222872568Y-134510734D01*
X222899618Y-134452724D01*
X222945790Y-134400285D01*
X223012983Y-134381133D01*
X223079865Y-134401348D01*
X223124382Y-134452725D01*
X223151429Y-134510728D01*
X223151432Y-134510734D01*
X223281954Y-134697141D01*
X223442858Y-134858045D01*
X223442861Y-134858047D01*
X223629266Y-134988568D01*
X223835504Y-135084739D01*
X224055308Y-135143635D01*
X224217230Y-135157801D01*
X224281998Y-135163468D01*
X224282000Y-135163468D01*
X224282002Y-135163468D01*
X224338673Y-135158509D01*
X224508692Y-135143635D01*
X224728496Y-135084739D01*
X224934734Y-134988568D01*
X225121139Y-134858047D01*
X225282047Y-134697139D01*
X225412568Y-134510734D01*
X225508739Y-134304496D01*
X225567635Y-134084692D01*
X225587468Y-133858000D01*
X225567635Y-133631308D01*
X225512754Y-133426488D01*
X225508741Y-133411511D01*
X225508738Y-133411502D01*
X225473002Y-133334866D01*
X225412568Y-133205266D01*
X225282047Y-133018861D01*
X225282045Y-133018858D01*
X225121141Y-132857954D01*
X224934734Y-132727432D01*
X224934732Y-132727431D01*
X224728497Y-132631261D01*
X224728488Y-132631258D01*
X224508697Y-132572366D01*
X224508693Y-132572365D01*
X224508692Y-132572365D01*
X224508691Y-132572364D01*
X224508686Y-132572364D01*
X224282002Y-132552532D01*
X224281998Y-132552532D01*
X224055313Y-132572364D01*
X224055302Y-132572366D01*
X223835511Y-132631258D01*
X223835502Y-132631261D01*
X223629267Y-132727431D01*
X223629265Y-132727432D01*
X223442858Y-132857954D01*
X223281954Y-133018858D01*
X223151432Y-133205265D01*
X223151431Y-133205267D01*
X223124382Y-133263275D01*
X223078209Y-133315714D01*
X223011016Y-133334866D01*
X222944135Y-133314650D01*
X222899618Y-133263275D01*
X222872568Y-133205267D01*
X222872567Y-133205265D01*
X222742045Y-133018858D01*
X222581141Y-132857954D01*
X222394734Y-132727432D01*
X222394732Y-132727431D01*
X222188497Y-132631261D01*
X222188488Y-132631258D01*
X221968697Y-132572366D01*
X221968693Y-132572365D01*
X221968692Y-132572365D01*
X221968691Y-132572364D01*
X221968686Y-132572364D01*
X221742002Y-132552532D01*
X221741998Y-132552532D01*
X221515313Y-132572364D01*
X221515302Y-132572366D01*
X221295511Y-132631258D01*
X221295502Y-132631261D01*
X221089267Y-132727431D01*
X221089265Y-132727432D01*
X220902858Y-132857954D01*
X220741954Y-133018858D01*
X220611432Y-133205265D01*
X220611431Y-133205267D01*
X220515261Y-133411502D01*
X220515258Y-133411511D01*
X220456366Y-133631302D01*
X220456364Y-133631313D01*
X220436532Y-133857998D01*
X220436532Y-133858001D01*
X212645648Y-133858001D01*
X212690784Y-133621389D01*
X212690785Y-133621382D01*
X212709746Y-133320004D01*
X212709746Y-133319993D01*
X212690785Y-133018615D01*
X212690784Y-133018608D01*
X212634195Y-132721958D01*
X212540875Y-132434751D01*
X212540873Y-132434746D01*
X212412296Y-132161507D01*
X212412293Y-132161501D01*
X212250487Y-131906534D01*
X212169686Y-131808863D01*
X211240788Y-132737761D01*
X211140107Y-132596375D01*
X210988069Y-132451407D01*
X210885778Y-132385668D01*
X211818435Y-131453011D01*
X211593531Y-131289608D01*
X211593521Y-131289601D01*
X211328891Y-131144120D01*
X211328883Y-131144116D01*
X211048111Y-131032951D01*
X211048108Y-131032950D01*
X210755601Y-130957848D01*
X210456005Y-130919999D01*
X210153996Y-130919999D01*
X209854400Y-130957848D01*
X209561893Y-131032950D01*
X209561890Y-131032951D01*
X209281118Y-131144116D01*
X209281110Y-131144120D01*
X209016480Y-131289601D01*
X209016462Y-131289613D01*
X208791566Y-131453009D01*
X208791565Y-131453011D01*
X209721694Y-132383139D01*
X209707591Y-132390410D01*
X209542461Y-132520270D01*
X209404891Y-132679034D01*
X209370335Y-132738885D01*
X208440313Y-131808863D01*
X208359517Y-131906529D01*
X208197708Y-132161501D01*
X208197705Y-132161507D01*
X208069128Y-132434746D01*
X208069126Y-132434751D01*
X207975806Y-132721958D01*
X207919217Y-133018608D01*
X207919216Y-133018615D01*
X207900256Y-133319993D01*
X207900256Y-133320004D01*
X205305702Y-133320004D01*
X214293802Y-124331903D01*
X214305382Y-124320383D01*
X214305382Y-124320382D01*
X214305384Y-124320382D01*
X214305501Y-124320098D01*
X214305501Y-124320097D01*
X214305542Y-124319999D01*
X214305540Y-124319996D01*
X214305585Y-124295663D01*
X214305501Y-124295239D01*
X214305501Y-113855501D01*
X220436532Y-113855501D01*
X220456364Y-114082186D01*
X220456366Y-114082197D01*
X220515258Y-114301988D01*
X220515261Y-114301997D01*
X220611431Y-114508232D01*
X220611432Y-114508234D01*
X220741954Y-114694641D01*
X220902858Y-114855545D01*
X220902861Y-114855547D01*
X221089266Y-114986068D01*
X221295504Y-115082239D01*
X221515308Y-115141135D01*
X221677230Y-115155301D01*
X221741998Y-115160968D01*
X221742000Y-115160968D01*
X221742002Y-115160968D01*
X221798672Y-115156009D01*
X221968692Y-115141135D01*
X222188496Y-115082239D01*
X222394734Y-114986068D01*
X222581139Y-114855547D01*
X222742047Y-114694639D01*
X222872568Y-114508234D01*
X222899618Y-114450224D01*
X222945790Y-114397785D01*
X223012983Y-114378633D01*
X223079865Y-114398848D01*
X223124382Y-114450225D01*
X223151429Y-114508228D01*
X223151432Y-114508234D01*
X223281954Y-114694641D01*
X223442858Y-114855545D01*
X223442861Y-114855547D01*
X223629266Y-114986068D01*
X223835504Y-115082239D01*
X224055308Y-115141135D01*
X224217230Y-115155301D01*
X224281998Y-115160968D01*
X224282000Y-115160968D01*
X224282002Y-115160968D01*
X224338673Y-115156009D01*
X224508692Y-115141135D01*
X224728496Y-115082239D01*
X224934734Y-114986068D01*
X225121139Y-114855547D01*
X225282047Y-114694639D01*
X225412568Y-114508234D01*
X225508739Y-114301996D01*
X225567635Y-114082192D01*
X225587468Y-113855500D01*
X225567635Y-113628808D01*
X225508739Y-113409004D01*
X225412568Y-113202766D01*
X225282047Y-113016361D01*
X225282045Y-113016358D01*
X225121141Y-112855454D01*
X224934734Y-112724932D01*
X224934732Y-112724931D01*
X224728497Y-112628761D01*
X224728488Y-112628758D01*
X224508697Y-112569866D01*
X224508693Y-112569865D01*
X224508692Y-112569865D01*
X224508691Y-112569864D01*
X224508686Y-112569864D01*
X224282002Y-112550032D01*
X224281998Y-112550032D01*
X224055313Y-112569864D01*
X224055302Y-112569866D01*
X223835511Y-112628758D01*
X223835502Y-112628761D01*
X223629267Y-112724931D01*
X223629265Y-112724932D01*
X223442858Y-112855454D01*
X223281954Y-113016358D01*
X223151432Y-113202765D01*
X223151430Y-113202768D01*
X223124380Y-113260777D01*
X223078207Y-113313215D01*
X223011013Y-113332366D01*
X222944132Y-113312149D01*
X222899619Y-113260777D01*
X222872568Y-113202766D01*
X222742047Y-113016361D01*
X222742045Y-113016358D01*
X222581141Y-112855454D01*
X222394734Y-112724932D01*
X222394732Y-112724931D01*
X222188497Y-112628761D01*
X222188488Y-112628758D01*
X221968697Y-112569866D01*
X221968693Y-112569865D01*
X221968692Y-112569865D01*
X221968691Y-112569864D01*
X221968686Y-112569864D01*
X221742002Y-112550032D01*
X221741998Y-112550032D01*
X221515313Y-112569864D01*
X221515302Y-112569866D01*
X221295511Y-112628758D01*
X221295502Y-112628761D01*
X221089267Y-112724931D01*
X221089265Y-112724932D01*
X220902858Y-112855454D01*
X220741954Y-113016358D01*
X220611432Y-113202765D01*
X220611431Y-113202767D01*
X220515261Y-113409002D01*
X220515258Y-113409011D01*
X220456366Y-113628802D01*
X220456364Y-113628813D01*
X220436532Y-113855498D01*
X220436532Y-113855501D01*
X214305501Y-113855501D01*
X214305501Y-93853001D01*
X220436532Y-93853001D01*
X220456364Y-94079686D01*
X220456366Y-94079697D01*
X220515258Y-94299488D01*
X220515261Y-94299497D01*
X220611431Y-94505732D01*
X220611432Y-94505734D01*
X220741954Y-94692141D01*
X220902858Y-94853045D01*
X220902861Y-94853047D01*
X221089266Y-94983568D01*
X221295504Y-95079739D01*
X221515308Y-95138635D01*
X221677230Y-95152801D01*
X221741998Y-95158468D01*
X221742000Y-95158468D01*
X221742002Y-95158468D01*
X221798672Y-95153509D01*
X221968692Y-95138635D01*
X222188496Y-95079739D01*
X222394734Y-94983568D01*
X222581139Y-94853047D01*
X222742047Y-94692139D01*
X222872568Y-94505734D01*
X222899619Y-94447721D01*
X222945788Y-94395286D01*
X223012981Y-94376133D01*
X223079862Y-94396348D01*
X223124380Y-94447722D01*
X223151432Y-94505734D01*
X223151433Y-94505735D01*
X223281954Y-94692141D01*
X223442858Y-94853045D01*
X223442861Y-94853047D01*
X223629266Y-94983568D01*
X223835504Y-95079739D01*
X224055308Y-95138635D01*
X224217230Y-95152801D01*
X224281998Y-95158468D01*
X224282000Y-95158468D01*
X224282002Y-95158468D01*
X224338673Y-95153509D01*
X224508692Y-95138635D01*
X224728496Y-95079739D01*
X224934734Y-94983568D01*
X225121139Y-94853047D01*
X225282047Y-94692139D01*
X225412568Y-94505734D01*
X225508739Y-94299496D01*
X225567635Y-94079692D01*
X225587468Y-93853000D01*
X225567635Y-93626308D01*
X225520828Y-93451621D01*
X225508741Y-93406511D01*
X225508738Y-93406502D01*
X225412568Y-93200267D01*
X225412567Y-93200265D01*
X225282045Y-93013858D01*
X225121141Y-92852954D01*
X224934734Y-92722432D01*
X224934732Y-92722431D01*
X224728497Y-92626261D01*
X224728488Y-92626258D01*
X224508697Y-92567366D01*
X224508693Y-92567365D01*
X224508692Y-92567365D01*
X224508691Y-92567364D01*
X224508686Y-92567364D01*
X224282002Y-92547532D01*
X224281998Y-92547532D01*
X224055313Y-92567364D01*
X224055302Y-92567366D01*
X223835511Y-92626258D01*
X223835502Y-92626261D01*
X223629267Y-92722431D01*
X223629265Y-92722432D01*
X223442858Y-92852954D01*
X223281954Y-93013858D01*
X223151432Y-93200265D01*
X223151431Y-93200267D01*
X223124382Y-93258275D01*
X223078209Y-93310714D01*
X223011016Y-93329866D01*
X222944135Y-93309650D01*
X222899618Y-93258275D01*
X222872568Y-93200267D01*
X222872567Y-93200265D01*
X222742045Y-93013858D01*
X222581141Y-92852954D01*
X222394734Y-92722432D01*
X222394732Y-92722431D01*
X222188497Y-92626261D01*
X222188488Y-92626258D01*
X221968697Y-92567366D01*
X221968693Y-92567365D01*
X221968692Y-92567365D01*
X221968691Y-92567364D01*
X221968686Y-92567364D01*
X221742002Y-92547532D01*
X221741998Y-92547532D01*
X221515313Y-92567364D01*
X221515302Y-92567366D01*
X221295511Y-92626258D01*
X221295502Y-92626261D01*
X221089267Y-92722431D01*
X221089265Y-92722432D01*
X220902858Y-92852954D01*
X220741954Y-93013858D01*
X220611432Y-93200265D01*
X220611431Y-93200267D01*
X220515261Y-93406502D01*
X220515258Y-93406511D01*
X220456366Y-93626302D01*
X220456364Y-93626313D01*
X220436532Y-93852998D01*
X220436532Y-93853001D01*
X214305501Y-93853001D01*
X214305501Y-73850501D01*
X220436532Y-73850501D01*
X220456364Y-74077186D01*
X220456366Y-74077197D01*
X220515258Y-74296988D01*
X220515261Y-74296997D01*
X220611431Y-74503232D01*
X220611432Y-74503234D01*
X220741954Y-74689641D01*
X220902858Y-74850545D01*
X220902861Y-74850547D01*
X221089266Y-74981068D01*
X221295504Y-75077239D01*
X221515308Y-75136135D01*
X221677230Y-75150301D01*
X221741998Y-75155968D01*
X221742000Y-75155968D01*
X221742002Y-75155968D01*
X221798672Y-75151009D01*
X221968692Y-75136135D01*
X222188496Y-75077239D01*
X222394734Y-74981068D01*
X222581139Y-74850547D01*
X222742047Y-74689639D01*
X222872568Y-74503234D01*
X222899618Y-74445224D01*
X222945790Y-74392785D01*
X223012983Y-74373633D01*
X223079865Y-74393848D01*
X223124382Y-74445225D01*
X223151429Y-74503228D01*
X223151432Y-74503234D01*
X223281954Y-74689641D01*
X223442858Y-74850545D01*
X223442861Y-74850547D01*
X223629266Y-74981068D01*
X223835504Y-75077239D01*
X224055308Y-75136135D01*
X224217230Y-75150301D01*
X224281998Y-75155968D01*
X224282000Y-75155968D01*
X224282002Y-75155968D01*
X224338673Y-75151009D01*
X224508692Y-75136135D01*
X224728496Y-75077239D01*
X224934734Y-74981068D01*
X225121139Y-74850547D01*
X225282047Y-74689639D01*
X225412568Y-74503234D01*
X225508739Y-74296996D01*
X225567635Y-74077192D01*
X225587468Y-73850500D01*
X225567635Y-73623808D01*
X225508739Y-73404004D01*
X225412568Y-73197766D01*
X225282047Y-73011361D01*
X225282045Y-73011358D01*
X225121141Y-72850454D01*
X224934734Y-72719932D01*
X224934732Y-72719931D01*
X224728497Y-72623761D01*
X224728488Y-72623758D01*
X224508697Y-72564866D01*
X224508693Y-72564865D01*
X224508692Y-72564865D01*
X224508691Y-72564864D01*
X224508686Y-72564864D01*
X224282002Y-72545032D01*
X224281998Y-72545032D01*
X224055313Y-72564864D01*
X224055302Y-72564866D01*
X223835511Y-72623758D01*
X223835502Y-72623761D01*
X223629267Y-72719931D01*
X223629265Y-72719932D01*
X223442858Y-72850454D01*
X223281954Y-73011358D01*
X223151432Y-73197765D01*
X223151431Y-73197767D01*
X223124382Y-73255775D01*
X223078209Y-73308214D01*
X223011016Y-73327366D01*
X222944135Y-73307150D01*
X222899618Y-73255775D01*
X222872568Y-73197767D01*
X222872567Y-73197765D01*
X222742045Y-73011358D01*
X222581141Y-72850454D01*
X222394734Y-72719932D01*
X222394732Y-72719931D01*
X222188497Y-72623761D01*
X222188488Y-72623758D01*
X221968697Y-72564866D01*
X221968693Y-72564865D01*
X221968692Y-72564865D01*
X221968691Y-72564864D01*
X221968686Y-72564864D01*
X221742002Y-72545032D01*
X221741998Y-72545032D01*
X221515313Y-72564864D01*
X221515302Y-72564866D01*
X221295511Y-72623758D01*
X221295502Y-72623761D01*
X221089267Y-72719931D01*
X221089265Y-72719932D01*
X220902858Y-72850454D01*
X220741954Y-73011358D01*
X220611432Y-73197765D01*
X220611431Y-73197767D01*
X220515261Y-73404002D01*
X220515258Y-73404011D01*
X220456366Y-73623802D01*
X220456364Y-73623813D01*
X220436532Y-73850498D01*
X220436532Y-73850501D01*
X214305501Y-73850501D01*
X214305501Y-70342661D01*
X214305540Y-70320001D01*
X214305542Y-70319999D01*
X214305540Y-70319994D01*
X214305501Y-70319898D01*
X214305385Y-70319618D01*
X214305384Y-70319617D01*
X214305384Y-70319616D01*
X214305382Y-70319615D01*
X214288253Y-70302429D01*
X214287904Y-70302195D01*
X205305714Y-61320004D01*
X207900256Y-61320004D01*
X207919216Y-61621382D01*
X207919217Y-61621389D01*
X207975806Y-61918039D01*
X208069126Y-62205246D01*
X208069128Y-62205251D01*
X208197705Y-62478490D01*
X208197708Y-62478496D01*
X208359514Y-62733463D01*
X208440313Y-62831132D01*
X209369212Y-61902234D01*
X209469895Y-62043623D01*
X209621933Y-62188591D01*
X209724223Y-62254328D01*
X208791565Y-63186985D01*
X209016475Y-63350392D01*
X209016486Y-63350399D01*
X209281110Y-63495877D01*
X209281118Y-63495881D01*
X209561890Y-63607046D01*
X209561893Y-63607047D01*
X209854400Y-63682149D01*
X210153996Y-63719998D01*
X210154008Y-63719999D01*
X210455994Y-63719999D01*
X210456005Y-63719998D01*
X210755601Y-63682149D01*
X211048108Y-63607047D01*
X211048111Y-63607046D01*
X211328883Y-63495881D01*
X211328891Y-63495877D01*
X211593515Y-63350399D01*
X211593526Y-63350392D01*
X211818434Y-63186985D01*
X211818435Y-63186985D01*
X210888307Y-62256858D01*
X210902411Y-62249588D01*
X211067541Y-62119728D01*
X211205111Y-61960964D01*
X211239666Y-61901111D01*
X212169687Y-62831132D01*
X212250484Y-62733468D01*
X212412293Y-62478496D01*
X212412296Y-62478490D01*
X212540873Y-62205251D01*
X212540875Y-62205246D01*
X212634195Y-61918039D01*
X212690784Y-61621389D01*
X212690785Y-61621382D01*
X212709746Y-61320004D01*
X212709746Y-61319993D01*
X212690785Y-61018615D01*
X212690784Y-61018608D01*
X212634195Y-60721958D01*
X212540875Y-60434751D01*
X212540873Y-60434746D01*
X212412296Y-60161507D01*
X212412293Y-60161501D01*
X212250487Y-59906534D01*
X212169686Y-59808863D01*
X211240788Y-60737761D01*
X211140107Y-60596375D01*
X210988069Y-60451407D01*
X210885778Y-60385668D01*
X211818435Y-59453011D01*
X211593531Y-59289608D01*
X211593521Y-59289601D01*
X211328891Y-59144120D01*
X211328883Y-59144116D01*
X211048111Y-59032951D01*
X211048108Y-59032950D01*
X210755601Y-58957848D01*
X210456005Y-58919999D01*
X210153996Y-58919999D01*
X209854400Y-58957848D01*
X209561893Y-59032950D01*
X209561890Y-59032951D01*
X209281118Y-59144116D01*
X209281110Y-59144120D01*
X209016480Y-59289601D01*
X209016462Y-59289613D01*
X208791566Y-59453009D01*
X208791565Y-59453011D01*
X209721694Y-60383139D01*
X209707591Y-60390410D01*
X209542461Y-60520270D01*
X209404891Y-60679034D01*
X209370335Y-60738885D01*
X208440313Y-59808863D01*
X208359517Y-59906529D01*
X208197708Y-60161501D01*
X208197705Y-60161507D01*
X208069128Y-60434746D01*
X208069126Y-60434751D01*
X207975806Y-60721958D01*
X207919217Y-61018608D01*
X207919216Y-61018615D01*
X207900256Y-61319993D01*
X207900256Y-61320004D01*
X205305714Y-61320004D01*
X201316585Y-57330875D01*
X201305384Y-57319617D01*
X201305384Y-57319616D01*
X201305382Y-57319615D01*
X201305381Y-57319614D01*
X201305285Y-57319574D01*
X201305003Y-57319456D01*
X201280335Y-57319460D01*
X201280146Y-57319499D01*
X147329761Y-57319499D01*
X147329555Y-57319458D01*
X147305001Y-57319458D01*
X147304902Y-57319499D01*
X147304618Y-57319615D01*
X147287714Y-57336404D01*
X147287359Y-57336932D01*
X134321996Y-70302294D01*
X134321820Y-70302412D01*
X134304617Y-70319615D01*
X134304458Y-70319994D01*
X134304462Y-70344664D01*
X134304501Y-70344854D01*
X134304501Y-124295367D01*
X134304420Y-124295773D01*
X122545500Y-124295773D01*
X122545500Y-120815101D01*
X123027532Y-120815101D01*
X123047364Y-121041786D01*
X123047366Y-121041797D01*
X123106258Y-121261588D01*
X123106261Y-121261597D01*
X123202431Y-121467832D01*
X123202432Y-121467834D01*
X123332954Y-121654241D01*
X123493858Y-121815145D01*
X123493861Y-121815147D01*
X123680266Y-121945668D01*
X123886504Y-122041839D01*
X124106308Y-122100735D01*
X124268230Y-122114901D01*
X124332998Y-122120568D01*
X124333000Y-122120568D01*
X124333002Y-122120568D01*
X124389672Y-122115609D01*
X124559692Y-122100735D01*
X124779496Y-122041839D01*
X124985734Y-121945668D01*
X125172139Y-121815147D01*
X125333047Y-121654239D01*
X125463568Y-121467834D01*
X125490619Y-121409821D01*
X125536788Y-121357386D01*
X125603981Y-121338233D01*
X125670862Y-121358448D01*
X125715380Y-121409822D01*
X125742432Y-121467834D01*
X125742433Y-121467835D01*
X125872954Y-121654241D01*
X126033858Y-121815145D01*
X126033861Y-121815147D01*
X126220266Y-121945668D01*
X126426504Y-122041839D01*
X126646308Y-122100735D01*
X126808230Y-122114901D01*
X126872998Y-122120568D01*
X126873000Y-122120568D01*
X126873002Y-122120568D01*
X126929672Y-122115609D01*
X127099692Y-122100735D01*
X127319496Y-122041839D01*
X127525734Y-121945668D01*
X127712139Y-121815147D01*
X127873047Y-121654239D01*
X128003568Y-121467834D01*
X128099739Y-121261596D01*
X128158635Y-121041792D01*
X128178468Y-120815100D01*
X128158635Y-120588408D01*
X128099739Y-120368604D01*
X128003568Y-120162366D01*
X127873047Y-119975961D01*
X127873045Y-119975958D01*
X127712141Y-119815054D01*
X127525734Y-119684532D01*
X127525732Y-119684531D01*
X127319497Y-119588361D01*
X127319488Y-119588358D01*
X127099697Y-119529466D01*
X127099693Y-119529465D01*
X127099692Y-119529465D01*
X127099691Y-119529464D01*
X127099686Y-119529464D01*
X126873002Y-119509632D01*
X126872998Y-119509632D01*
X126646313Y-119529464D01*
X126646302Y-119529466D01*
X126426511Y-119588358D01*
X126426502Y-119588361D01*
X126220267Y-119684531D01*
X126220265Y-119684532D01*
X126033858Y-119815054D01*
X125872954Y-119975958D01*
X125742432Y-120162365D01*
X125742430Y-120162368D01*
X125715380Y-120220377D01*
X125669207Y-120272815D01*
X125602013Y-120291966D01*
X125535132Y-120271749D01*
X125490619Y-120220377D01*
X125463568Y-120162366D01*
X125413806Y-120091297D01*
X125333045Y-119975958D01*
X125172141Y-119815054D01*
X124985734Y-119684532D01*
X124985732Y-119684531D01*
X124779497Y-119588361D01*
X124779488Y-119588358D01*
X124559697Y-119529466D01*
X124559693Y-119529465D01*
X124559692Y-119529465D01*
X124559691Y-119529464D01*
X124559686Y-119529464D01*
X124333002Y-119509632D01*
X124332998Y-119509632D01*
X124106313Y-119529464D01*
X124106302Y-119529466D01*
X123886511Y-119588358D01*
X123886502Y-119588361D01*
X123680267Y-119684531D01*
X123680265Y-119684532D01*
X123493858Y-119815054D01*
X123332954Y-119975958D01*
X123202432Y-120162365D01*
X123202431Y-120162367D01*
X123106261Y-120368602D01*
X123106258Y-120368611D01*
X123047366Y-120588402D01*
X123047364Y-120588413D01*
X123027532Y-120815098D01*
X123027532Y-120815101D01*
X122545500Y-120815101D01*
X122545500Y-114204451D01*
X122565185Y-114137412D01*
X122617989Y-114091657D01*
X122687147Y-114081713D01*
X122750703Y-114110738D01*
X122757181Y-114116770D01*
X122923650Y-114283239D01*
X122957135Y-114344562D01*
X122956175Y-114401360D01*
X122918866Y-114548689D01*
X122918864Y-114548701D01*
X122899700Y-114779992D01*
X122899700Y-114780005D01*
X122918864Y-115011296D01*
X122918866Y-115011307D01*
X122975842Y-115236299D01*
X123069075Y-115448847D01*
X123196016Y-115643146D01*
X123196019Y-115643150D01*
X123196021Y-115643152D01*
X123290803Y-115746113D01*
X123321724Y-115808766D01*
X123313864Y-115878192D01*
X123269716Y-115932347D01*
X123242906Y-115946276D01*
X123162669Y-115976202D01*
X123162664Y-115976205D01*
X123047455Y-116062451D01*
X123047452Y-116062454D01*
X122961206Y-116177663D01*
X122961202Y-116177670D01*
X122910908Y-116312516D01*
X122904501Y-116372115D01*
X122904501Y-116372123D01*
X122904500Y-116372134D01*
X122904500Y-118267869D01*
X122904501Y-118267875D01*
X122910908Y-118327482D01*
X122961202Y-118462327D01*
X122961206Y-118462334D01*
X123047452Y-118577543D01*
X123047455Y-118577546D01*
X123162664Y-118663792D01*
X123162671Y-118663796D01*
X123297517Y-118714090D01*
X123297516Y-118714090D01*
X123304444Y-118714834D01*
X123357127Y-118720499D01*
X125252872Y-118720498D01*
X125312483Y-118714090D01*
X125447331Y-118663795D01*
X125562546Y-118577545D01*
X125648796Y-118462330D01*
X125699091Y-118327482D01*
X125705500Y-118267872D01*
X125705499Y-116372127D01*
X125699091Y-116312516D01*
X125648796Y-116177668D01*
X125648795Y-116177667D01*
X125648793Y-116177663D01*
X125562547Y-116062454D01*
X125562544Y-116062451D01*
X125447335Y-115976205D01*
X125447328Y-115976201D01*
X125367094Y-115946276D01*
X125311160Y-115904405D01*
X125286743Y-115838940D01*
X125301595Y-115770667D01*
X125319190Y-115746120D01*
X125413979Y-115643152D01*
X125540924Y-115448848D01*
X125634157Y-115236299D01*
X125691134Y-115011304D01*
X125693225Y-114986067D01*
X125710300Y-114780005D01*
X125710300Y-114779992D01*
X125691135Y-114548701D01*
X125691133Y-114548690D01*
X125634157Y-114323698D01*
X125540924Y-114111150D01*
X125413983Y-113916851D01*
X125413980Y-113916848D01*
X125413979Y-113916846D01*
X125256784Y-113746086D01*
X125256779Y-113746082D01*
X125256777Y-113746080D01*
X125073634Y-113603534D01*
X125073628Y-113603530D01*
X124869504Y-113493063D01*
X124869495Y-113493060D01*
X124649984Y-113417701D01*
X124478282Y-113389049D01*
X124421049Y-113379499D01*
X124188951Y-113379499D01*
X124131717Y-113389049D01*
X123960016Y-113417701D01*
X123934421Y-113426488D01*
X123864622Y-113429637D01*
X123806479Y-113396887D01*
X122581819Y-112172227D01*
X122548334Y-112110904D01*
X122545500Y-112084546D01*
X122545500Y-100812601D01*
X123027532Y-100812601D01*
X123047364Y-101039286D01*
X123047366Y-101039297D01*
X123106258Y-101259088D01*
X123106261Y-101259097D01*
X123202431Y-101465332D01*
X123202432Y-101465334D01*
X123332954Y-101651741D01*
X123493858Y-101812645D01*
X123493861Y-101812647D01*
X123680266Y-101943168D01*
X123886504Y-102039339D01*
X124106308Y-102098235D01*
X124268230Y-102112401D01*
X124332998Y-102118068D01*
X124333000Y-102118068D01*
X124333002Y-102118068D01*
X124389672Y-102113109D01*
X124559692Y-102098235D01*
X124779496Y-102039339D01*
X124985734Y-101943168D01*
X125172139Y-101812647D01*
X125333047Y-101651739D01*
X125463568Y-101465334D01*
X125490618Y-101407324D01*
X125536790Y-101354885D01*
X125603983Y-101335733D01*
X125670865Y-101355948D01*
X125715382Y-101407325D01*
X125742429Y-101465328D01*
X125742432Y-101465334D01*
X125872954Y-101651741D01*
X126033858Y-101812645D01*
X126033861Y-101812647D01*
X126220266Y-101943168D01*
X126426504Y-102039339D01*
X126646308Y-102098235D01*
X126808230Y-102112401D01*
X126872998Y-102118068D01*
X126873000Y-102118068D01*
X126873002Y-102118068D01*
X126929672Y-102113109D01*
X127099692Y-102098235D01*
X127319496Y-102039339D01*
X127525734Y-101943168D01*
X127712139Y-101812647D01*
X127873047Y-101651739D01*
X128003568Y-101465334D01*
X128099739Y-101259096D01*
X128158635Y-101039292D01*
X128178468Y-100812600D01*
X128158635Y-100585908D01*
X128099739Y-100366104D01*
X128003568Y-100159866D01*
X127873047Y-99973461D01*
X127873045Y-99973458D01*
X127712141Y-99812554D01*
X127525734Y-99682032D01*
X127525732Y-99682031D01*
X127319497Y-99585861D01*
X127319488Y-99585858D01*
X127099697Y-99526966D01*
X127099693Y-99526965D01*
X127099692Y-99526965D01*
X127099691Y-99526964D01*
X127099686Y-99526964D01*
X126873002Y-99507132D01*
X126872998Y-99507132D01*
X126646313Y-99526964D01*
X126646302Y-99526966D01*
X126426511Y-99585858D01*
X126426502Y-99585861D01*
X126220267Y-99682031D01*
X126220265Y-99682032D01*
X126033858Y-99812554D01*
X125872954Y-99973458D01*
X125742432Y-100159865D01*
X125742431Y-100159867D01*
X125715382Y-100217875D01*
X125669209Y-100270314D01*
X125602016Y-100289466D01*
X125535135Y-100269250D01*
X125490618Y-100217875D01*
X125463568Y-100159867D01*
X125463567Y-100159865D01*
X125415563Y-100091308D01*
X125333047Y-99973461D01*
X125333045Y-99973458D01*
X125172141Y-99812554D01*
X124985734Y-99682032D01*
X124985732Y-99682031D01*
X124779497Y-99585861D01*
X124779488Y-99585858D01*
X124559697Y-99526966D01*
X124559693Y-99526965D01*
X124559692Y-99526965D01*
X124559691Y-99526964D01*
X124559686Y-99526964D01*
X124333002Y-99507132D01*
X124332998Y-99507132D01*
X124106313Y-99526964D01*
X124106302Y-99526966D01*
X123886511Y-99585858D01*
X123886502Y-99585861D01*
X123680267Y-99682031D01*
X123680265Y-99682032D01*
X123493858Y-99812554D01*
X123332954Y-99973458D01*
X123202432Y-100159865D01*
X123202431Y-100159867D01*
X123106261Y-100366102D01*
X123106258Y-100366111D01*
X123047366Y-100585902D01*
X123047364Y-100585913D01*
X123027532Y-100812598D01*
X123027532Y-100812601D01*
X122545500Y-100812601D01*
X122545500Y-97475450D01*
X122565185Y-97408411D01*
X122581815Y-97387773D01*
X122692820Y-97276768D01*
X122754142Y-97243284D01*
X122823834Y-97248268D01*
X122879767Y-97290140D01*
X122904184Y-97355604D01*
X122904500Y-97364450D01*
X122904500Y-98267869D01*
X122904501Y-98267875D01*
X122910908Y-98327482D01*
X122961202Y-98462327D01*
X122961206Y-98462334D01*
X123047452Y-98577543D01*
X123047455Y-98577546D01*
X123162664Y-98663792D01*
X123162671Y-98663796D01*
X123297517Y-98714090D01*
X123297516Y-98714090D01*
X123304444Y-98714834D01*
X123357127Y-98720499D01*
X125252872Y-98720498D01*
X125312483Y-98714090D01*
X125447331Y-98663795D01*
X125562546Y-98577545D01*
X125648796Y-98462330D01*
X125699091Y-98327482D01*
X125705500Y-98267872D01*
X125705499Y-96372127D01*
X125699091Y-96312516D01*
X125696110Y-96304524D01*
X125648797Y-96177670D01*
X125648793Y-96177663D01*
X125562547Y-96062454D01*
X125562544Y-96062451D01*
X125447335Y-95976205D01*
X125447328Y-95976201D01*
X125367094Y-95946276D01*
X125311160Y-95904405D01*
X125286743Y-95838940D01*
X125301595Y-95770667D01*
X125319190Y-95746120D01*
X125413979Y-95643152D01*
X125532541Y-95461678D01*
X125585689Y-95416321D01*
X125636351Y-95405499D01*
X129725472Y-95405499D01*
X129792511Y-95425184D01*
X129831009Y-95464399D01*
X129874703Y-95535240D01*
X129874704Y-95535241D01*
X129874705Y-95535242D01*
X129998759Y-95659296D01*
X130062154Y-95698398D01*
X130108879Y-95750346D01*
X130120102Y-95819308D01*
X130092259Y-95883390D01*
X130073711Y-95901406D01*
X130054533Y-95916487D01*
X130054527Y-95916493D01*
X129916893Y-96075330D01*
X129811813Y-96257334D01*
X129743071Y-96455949D01*
X129743071Y-96455951D01*
X129728219Y-96559254D01*
X129713161Y-96663985D01*
X129723160Y-96873911D01*
X129772711Y-97078162D01*
X129772713Y-97078166D01*
X129860013Y-97269327D01*
X129860016Y-97269332D01*
X129860017Y-97269334D01*
X129860019Y-97269337D01*
X129923042Y-97357840D01*
X129981930Y-97440537D01*
X129981935Y-97440543D01*
X130134034Y-97585568D01*
X130175801Y-97612410D01*
X130221556Y-97665214D01*
X130231500Y-97734373D01*
X130202475Y-97797929D01*
X130185414Y-97814196D01*
X130054877Y-97916852D01*
X130054874Y-97916855D01*
X129917309Y-98075614D01*
X129917300Y-98075625D01*
X129812270Y-98257544D01*
X129812267Y-98257551D01*
X129743559Y-98456066D01*
X129743559Y-98456068D01*
X129742047Y-98466584D01*
X130812855Y-98466584D01*
X130774137Y-98508643D01*
X130723864Y-98623254D01*
X130713529Y-98747979D01*
X130744252Y-98869303D01*
X130807809Y-98966584D01*
X129746157Y-98966584D01*
X129773185Y-99077993D01*
X129860455Y-99269091D01*
X129982304Y-99440203D01*
X129982310Y-99440209D01*
X130134347Y-99585176D01*
X130311072Y-99698750D01*
X130506100Y-99776828D01*
X130712377Y-99816584D01*
X130842415Y-99816584D01*
X130842415Y-98997201D01*
X130911467Y-99050947D01*
X131029839Y-99091584D01*
X131123488Y-99091584D01*
X131215861Y-99076170D01*
X131325929Y-99016603D01*
X131342414Y-98998694D01*
X131342415Y-99816584D01*
X131419813Y-99816584D01*
X131576537Y-99801618D01*
X131576541Y-99801617D01*
X131778101Y-99742434D01*
X131964829Y-99646170D01*
X132129952Y-99516315D01*
X132129955Y-99516312D01*
X132267520Y-99357553D01*
X132267529Y-99357542D01*
X132372559Y-99175623D01*
X132372562Y-99175616D01*
X132441270Y-98977101D01*
X132441270Y-98977099D01*
X132442783Y-98966584D01*
X131371975Y-98966584D01*
X131410693Y-98924525D01*
X131460966Y-98809914D01*
X131471301Y-98685189D01*
X131440578Y-98563865D01*
X131377021Y-98466584D01*
X132438672Y-98466584D01*
X132411644Y-98355174D01*
X132324374Y-98164076D01*
X132202525Y-97992964D01*
X132202519Y-97992958D01*
X132050482Y-97847992D01*
X132009056Y-97821368D01*
X131963302Y-97768563D01*
X131953359Y-97699405D01*
X131982385Y-97635849D01*
X131999445Y-97619583D01*
X132130298Y-97516678D01*
X132130301Y-97516676D01*
X132267934Y-97357840D01*
X132373019Y-97175828D01*
X132441759Y-96977217D01*
X132471669Y-96769186D01*
X132461669Y-96559254D01*
X132414179Y-96363499D01*
X132417503Y-96293710D01*
X132447000Y-96246587D01*
X133463786Y-95229801D01*
X133476048Y-95219979D01*
X133475865Y-95219758D01*
X133481867Y-95214791D01*
X133481877Y-95214785D01*
X133529241Y-95164347D01*
X133550120Y-95143469D01*
X133554373Y-95137985D01*
X133558150Y-95133562D01*
X133590062Y-95099581D01*
X133599714Y-95082022D01*
X133610389Y-95065771D01*
X133622674Y-95049935D01*
X133641186Y-95007151D01*
X133643742Y-95001934D01*
X133666197Y-94961091D01*
X133671180Y-94941679D01*
X133677477Y-94923290D01*
X133685438Y-94904894D01*
X133692729Y-94858852D01*
X133693908Y-94853161D01*
X133705500Y-94808018D01*
X133705500Y-94787981D01*
X133707027Y-94768581D01*
X133710160Y-94748803D01*
X133705775Y-94702414D01*
X133705500Y-94696576D01*
X133705500Y-61320004D01*
X135900256Y-61320004D01*
X135919216Y-61621382D01*
X135919217Y-61621389D01*
X135975806Y-61918039D01*
X136069126Y-62205246D01*
X136069128Y-62205251D01*
X136197705Y-62478490D01*
X136197708Y-62478496D01*
X136359514Y-62733463D01*
X136440313Y-62831132D01*
X137369212Y-61902234D01*
X137469895Y-62043623D01*
X137621933Y-62188591D01*
X137724223Y-62254328D01*
X136791565Y-63186985D01*
X137016475Y-63350392D01*
X137016486Y-63350399D01*
X137281110Y-63495877D01*
X137281118Y-63495881D01*
X137561890Y-63607046D01*
X137561893Y-63607047D01*
X137854400Y-63682149D01*
X138153996Y-63719998D01*
X138154008Y-63719999D01*
X138455994Y-63719999D01*
X138456005Y-63719998D01*
X138755601Y-63682149D01*
X139048108Y-63607047D01*
X139048111Y-63607046D01*
X139328883Y-63495881D01*
X139328891Y-63495877D01*
X139593515Y-63350399D01*
X139593526Y-63350392D01*
X139818434Y-63186985D01*
X139818435Y-63186985D01*
X138888307Y-62256858D01*
X138902411Y-62249588D01*
X139067541Y-62119728D01*
X139205111Y-61960964D01*
X139239666Y-61901111D01*
X140169687Y-62831132D01*
X140250484Y-62733468D01*
X140412293Y-62478496D01*
X140412296Y-62478490D01*
X140540873Y-62205251D01*
X140540875Y-62205246D01*
X140634195Y-61918039D01*
X140690784Y-61621389D01*
X140690785Y-61621382D01*
X140709746Y-61320004D01*
X140709746Y-61319993D01*
X140690785Y-61018615D01*
X140690784Y-61018608D01*
X140634195Y-60721958D01*
X140540875Y-60434751D01*
X140540873Y-60434746D01*
X140412296Y-60161507D01*
X140412293Y-60161501D01*
X140250487Y-59906534D01*
X140169686Y-59808863D01*
X139240788Y-60737762D01*
X139140107Y-60596375D01*
X138988069Y-60451407D01*
X138885778Y-60385668D01*
X139818435Y-59453011D01*
X139593531Y-59289608D01*
X139593521Y-59289601D01*
X139328891Y-59144120D01*
X139328883Y-59144116D01*
X139048111Y-59032951D01*
X139048108Y-59032950D01*
X138755601Y-58957848D01*
X138456005Y-58919999D01*
X138153996Y-58919999D01*
X137854400Y-58957848D01*
X137561893Y-59032950D01*
X137561890Y-59032951D01*
X137281118Y-59144116D01*
X137281110Y-59144120D01*
X137016480Y-59289601D01*
X137016462Y-59289613D01*
X136791566Y-59453009D01*
X136791565Y-59453011D01*
X137721694Y-60383139D01*
X137707591Y-60390410D01*
X137542461Y-60520270D01*
X137404891Y-60679034D01*
X137370335Y-60738885D01*
X136440313Y-59808863D01*
X136359517Y-59906529D01*
X136197708Y-60161501D01*
X136197705Y-60161507D01*
X136069128Y-60434746D01*
X136069126Y-60434751D01*
X135975806Y-60721958D01*
X135919217Y-61018608D01*
X135919216Y-61018615D01*
X135900256Y-61319993D01*
X135900256Y-61320004D01*
X133705500Y-61320004D01*
X133705500Y-56017742D01*
X133707224Y-56002122D01*
X133706939Y-56002096D01*
X133707671Y-55994340D01*
X133707673Y-55994333D01*
X133705500Y-55925185D01*
X133705500Y-55895650D01*
X133704631Y-55888772D01*
X133704172Y-55882943D01*
X133702709Y-55836372D01*
X133697122Y-55817144D01*
X133693174Y-55798084D01*
X133690663Y-55778204D01*
X133673512Y-55734887D01*
X133671619Y-55729358D01*
X133658618Y-55684609D01*
X133658616Y-55684606D01*
X133648423Y-55667371D01*
X133639861Y-55649894D01*
X133632487Y-55631270D01*
X133632486Y-55631268D01*
X133605079Y-55593545D01*
X133601888Y-55588686D01*
X133578172Y-55548583D01*
X133578165Y-55548574D01*
X133564006Y-55534415D01*
X133551368Y-55519619D01*
X133539594Y-55503413D01*
X133503688Y-55473709D01*
X133499376Y-55469786D01*
X133476771Y-55447180D01*
X133443286Y-55385858D01*
X133448270Y-55316166D01*
X133490142Y-55260233D01*
X133555606Y-55235816D01*
X133564452Y-55235500D01*
X134294812Y-55235500D01*
X134361851Y-55255185D01*
X134396387Y-55288377D01*
X134508954Y-55449141D01*
X134669858Y-55610045D01*
X134669861Y-55610047D01*
X134856266Y-55740568D01*
X134914865Y-55767893D01*
X134967305Y-55814065D01*
X134986457Y-55881258D01*
X134966242Y-55948139D01*
X134914867Y-55992657D01*
X134856511Y-56019869D01*
X134783527Y-56070972D01*
X134783526Y-56070973D01*
X135464600Y-56752046D01*
X135383852Y-56764835D01*
X135270955Y-56822359D01*
X135181359Y-56911955D01*
X135123835Y-57024852D01*
X135111046Y-57105599D01*
X134429973Y-56424526D01*
X134429972Y-56424527D01*
X134378868Y-56497513D01*
X134282734Y-56703673D01*
X134282730Y-56703682D01*
X134223860Y-56923389D01*
X134223858Y-56923400D01*
X134204034Y-57149997D01*
X134204034Y-57150002D01*
X134223858Y-57376599D01*
X134223860Y-57376610D01*
X134282730Y-57596317D01*
X134282734Y-57596326D01*
X134378865Y-57802481D01*
X134378866Y-57802483D01*
X134429973Y-57875471D01*
X134429974Y-57875472D01*
X135111046Y-57194399D01*
X135123835Y-57275148D01*
X135181359Y-57388045D01*
X135270955Y-57477641D01*
X135383852Y-57535165D01*
X135464599Y-57547953D01*
X134783526Y-58229025D01*
X134783526Y-58229026D01*
X134856512Y-58280131D01*
X134856516Y-58280133D01*
X135062673Y-58376265D01*
X135062682Y-58376269D01*
X135282389Y-58435139D01*
X135282400Y-58435141D01*
X135508998Y-58454966D01*
X135509002Y-58454966D01*
X135735599Y-58435141D01*
X135735610Y-58435139D01*
X135955317Y-58376269D01*
X135955331Y-58376264D01*
X136161478Y-58280136D01*
X136234472Y-58229025D01*
X135553401Y-57547953D01*
X135634148Y-57535165D01*
X135747045Y-57477641D01*
X135836641Y-57388045D01*
X135894165Y-57275148D01*
X135906953Y-57194399D01*
X136588025Y-57875472D01*
X136639136Y-57802478D01*
X136735264Y-57596331D01*
X136735269Y-57596317D01*
X136794139Y-57376610D01*
X136794141Y-57376599D01*
X136813966Y-57150002D01*
X136813966Y-57149997D01*
X136794141Y-56923400D01*
X136794139Y-56923389D01*
X136735269Y-56703682D01*
X136735265Y-56703673D01*
X136639133Y-56497516D01*
X136639131Y-56497512D01*
X136588026Y-56424526D01*
X136588025Y-56424526D01*
X135906953Y-57105597D01*
X135894165Y-57024852D01*
X135836641Y-56911955D01*
X135747045Y-56822359D01*
X135634148Y-56764835D01*
X135553400Y-56752046D01*
X136234472Y-56070974D01*
X136234471Y-56070973D01*
X136161483Y-56019866D01*
X136161481Y-56019865D01*
X136103133Y-55992657D01*
X136050694Y-55946484D01*
X136031542Y-55879291D01*
X136051758Y-55812410D01*
X136103129Y-55767895D01*
X136161734Y-55740568D01*
X136348139Y-55610047D01*
X136509047Y-55449139D01*
X136639568Y-55262734D01*
X136735739Y-55056496D01*
X136794635Y-54836692D01*
X136814468Y-54610000D01*
X136794635Y-54383308D01*
X136735739Y-54163504D01*
X136639568Y-53957266D01*
X136509047Y-53770861D01*
X136509045Y-53770858D01*
X136348141Y-53609954D01*
X136161734Y-53479432D01*
X136161732Y-53479431D01*
X135955497Y-53383261D01*
X135955488Y-53383258D01*
X135735697Y-53324366D01*
X135735693Y-53324365D01*
X135735692Y-53324365D01*
X135735691Y-53324364D01*
X135735686Y-53324364D01*
X135509002Y-53304532D01*
X135508998Y-53304532D01*
X135282313Y-53324364D01*
X135282302Y-53324366D01*
X135062511Y-53383258D01*
X135062502Y-53383261D01*
X134856267Y-53479431D01*
X134856265Y-53479432D01*
X134669858Y-53609954D01*
X134508954Y-53770858D01*
X134396387Y-53931623D01*
X134341811Y-53975248D01*
X134294812Y-53984500D01*
X133379499Y-53984500D01*
X133312460Y-53964815D01*
X133266705Y-53912011D01*
X133255499Y-53860500D01*
X133255499Y-53609629D01*
X133255498Y-53609623D01*
X133255497Y-53609616D01*
X133249091Y-53550017D01*
X133246947Y-53544269D01*
X133198797Y-53415171D01*
X133198793Y-53415164D01*
X133112547Y-53299955D01*
X133112544Y-53299952D01*
X132997335Y-53213706D01*
X132997328Y-53213702D01*
X132862482Y-53163408D01*
X132862483Y-53163408D01*
X132802883Y-53157001D01*
X132802881Y-53157000D01*
X132802873Y-53157000D01*
X132802864Y-53157000D01*
X130707129Y-53157000D01*
X130707123Y-53157001D01*
X130647516Y-53163408D01*
X130512671Y-53213702D01*
X130512664Y-53213706D01*
X130397455Y-53299952D01*
X130397452Y-53299955D01*
X130311206Y-53415164D01*
X130311202Y-53415171D01*
X130260908Y-53550017D01*
X130255155Y-53603534D01*
X130254501Y-53609623D01*
X130254500Y-53609635D01*
X130254500Y-55610370D01*
X130254501Y-55610376D01*
X130260908Y-55669983D01*
X130311202Y-55804828D01*
X130311206Y-55804835D01*
X130397452Y-55920044D01*
X130397455Y-55920047D01*
X130512664Y-56006293D01*
X130512673Y-56006298D01*
X130543311Y-56017725D01*
X130599245Y-56059595D01*
X130623663Y-56125059D01*
X130608812Y-56193332D01*
X130597833Y-56210069D01*
X130486929Y-56352559D01*
X130372321Y-56564334D01*
X130372318Y-56564343D01*
X130294134Y-56792083D01*
X130272222Y-56923400D01*
X130254500Y-57029601D01*
X130254500Y-57270399D01*
X130262687Y-57319460D01*
X130294134Y-57507916D01*
X130372318Y-57735656D01*
X130372321Y-57735665D01*
X130486929Y-57947441D01*
X130530451Y-58003358D01*
X130634829Y-58137463D01*
X130734292Y-58229025D01*
X130811994Y-58300555D01*
X130836384Y-58316489D01*
X130881742Y-58369634D01*
X130891166Y-58438866D01*
X130861665Y-58502202D01*
X130836390Y-58524104D01*
X130812297Y-58539846D01*
X130812289Y-58539851D01*
X130635202Y-58702873D01*
X130635193Y-58702883D01*
X130487350Y-58892831D01*
X130487344Y-58892840D01*
X130372784Y-59104531D01*
X130372778Y-59104545D01*
X130294619Y-59332208D01*
X130276633Y-59439999D01*
X130276634Y-59440000D01*
X131260148Y-59440000D01*
X131211441Y-59577047D01*
X131201123Y-59727886D01*
X131231884Y-59875915D01*
X131265090Y-59940000D01*
X130276633Y-59940000D01*
X130294619Y-60047791D01*
X130372778Y-60275454D01*
X130372784Y-60275468D01*
X130487344Y-60487159D01*
X130487350Y-60487168D01*
X130635193Y-60677116D01*
X130635202Y-60677126D01*
X130812289Y-60840148D01*
X130812300Y-60840156D01*
X131013815Y-60971813D01*
X131234260Y-61068508D01*
X131234259Y-61068508D01*
X131467604Y-61127599D01*
X131504999Y-61130697D01*
X131504999Y-60181683D01*
X131533819Y-60199209D01*
X131679404Y-60240000D01*
X131792622Y-60240000D01*
X131904783Y-60224584D01*
X132005000Y-60181053D01*
X132005000Y-61130696D01*
X132042394Y-61127599D01*
X132042395Y-61127599D01*
X132275737Y-61068509D01*
X132280682Y-61066340D01*
X132349982Y-61057433D01*
X132413096Y-61087406D01*
X132449987Y-61146743D01*
X132454500Y-61179893D01*
X132454500Y-93742938D01*
X132434815Y-93809977D01*
X132382011Y-93855732D01*
X132312853Y-93865676D01*
X132249297Y-93836651D01*
X132242819Y-93830620D01*
X132222176Y-93809977D01*
X132186071Y-93773872D01*
X132036749Y-93681770D01*
X131870212Y-93626585D01*
X131870210Y-93626584D01*
X131767425Y-93616084D01*
X130417413Y-93616084D01*
X130417396Y-93616085D01*
X130314618Y-93626584D01*
X130314615Y-93626585D01*
X130148083Y-93681769D01*
X130148078Y-93681771D01*
X129998757Y-93773873D01*
X129874704Y-93897926D01*
X129782602Y-94047247D01*
X129782598Y-94047256D01*
X129775226Y-94069505D01*
X129735453Y-94126949D01*
X129670936Y-94153771D01*
X129657521Y-94154499D01*
X125636351Y-94154499D01*
X125569312Y-94134814D01*
X125532542Y-94098320D01*
X125413983Y-93916851D01*
X125413980Y-93916848D01*
X125413979Y-93916846D01*
X125256784Y-93746086D01*
X125256779Y-93746082D01*
X125256777Y-93746080D01*
X125073634Y-93603534D01*
X125073628Y-93603530D01*
X124869504Y-93493063D01*
X124869495Y-93493060D01*
X124649984Y-93417701D01*
X124478282Y-93389049D01*
X124421049Y-93379499D01*
X124188951Y-93379499D01*
X124131717Y-93389049D01*
X123960016Y-93417701D01*
X123934421Y-93426488D01*
X123864622Y-93429637D01*
X123806479Y-93396887D01*
X122581819Y-92172227D01*
X122548334Y-92110904D01*
X122545500Y-92084546D01*
X122545500Y-80810101D01*
X123027532Y-80810101D01*
X123047364Y-81036786D01*
X123047366Y-81036797D01*
X123106258Y-81256588D01*
X123106261Y-81256597D01*
X123202431Y-81462832D01*
X123202432Y-81462834D01*
X123332954Y-81649241D01*
X123493858Y-81810145D01*
X123493861Y-81810147D01*
X123680266Y-81940668D01*
X123886504Y-82036839D01*
X124106308Y-82095735D01*
X124268230Y-82109901D01*
X124332998Y-82115568D01*
X124333000Y-82115568D01*
X124333002Y-82115568D01*
X124389672Y-82110609D01*
X124559692Y-82095735D01*
X124779496Y-82036839D01*
X124985734Y-81940668D01*
X125172139Y-81810147D01*
X125333047Y-81649239D01*
X125463568Y-81462834D01*
X125490618Y-81404824D01*
X125536790Y-81352385D01*
X125603983Y-81333233D01*
X125670865Y-81353448D01*
X125715382Y-81404825D01*
X125742429Y-81462828D01*
X125742432Y-81462834D01*
X125872954Y-81649241D01*
X126033858Y-81810145D01*
X126033861Y-81810147D01*
X126220266Y-81940668D01*
X126426504Y-82036839D01*
X126646308Y-82095735D01*
X126808230Y-82109901D01*
X126872998Y-82115568D01*
X126873000Y-82115568D01*
X126873002Y-82115568D01*
X126929672Y-82110609D01*
X127099692Y-82095735D01*
X127319496Y-82036839D01*
X127525734Y-81940668D01*
X127712139Y-81810147D01*
X127873047Y-81649239D01*
X128003568Y-81462834D01*
X128099739Y-81256596D01*
X128158635Y-81036792D01*
X128178468Y-80810100D01*
X128158635Y-80583408D01*
X128099739Y-80363604D01*
X128003568Y-80157366D01*
X127873047Y-79970961D01*
X127873045Y-79970958D01*
X127712141Y-79810054D01*
X127525734Y-79679532D01*
X127525732Y-79679531D01*
X127319497Y-79583361D01*
X127319488Y-79583358D01*
X127099697Y-79524466D01*
X127099693Y-79524465D01*
X127099692Y-79524465D01*
X127099691Y-79524464D01*
X127099686Y-79524464D01*
X126873002Y-79504632D01*
X126872998Y-79504632D01*
X126646313Y-79524464D01*
X126646302Y-79524466D01*
X126426511Y-79583358D01*
X126426502Y-79583361D01*
X126220267Y-79679531D01*
X126220265Y-79679532D01*
X126033858Y-79810054D01*
X125872954Y-79970958D01*
X125742432Y-80157365D01*
X125742430Y-80157368D01*
X125715380Y-80215377D01*
X125669207Y-80267815D01*
X125602013Y-80286966D01*
X125535132Y-80266749D01*
X125490619Y-80215377D01*
X125463568Y-80157366D01*
X125417307Y-80091297D01*
X125333045Y-79970958D01*
X125172141Y-79810054D01*
X124985734Y-79679532D01*
X124985732Y-79679531D01*
X124779497Y-79583361D01*
X124779488Y-79583358D01*
X124559697Y-79524466D01*
X124559693Y-79524465D01*
X124559692Y-79524465D01*
X124559691Y-79524464D01*
X124559686Y-79524464D01*
X124333002Y-79504632D01*
X124332998Y-79504632D01*
X124106313Y-79524464D01*
X124106302Y-79524466D01*
X123886511Y-79583358D01*
X123886502Y-79583361D01*
X123680267Y-79679531D01*
X123680265Y-79679532D01*
X123493858Y-79810054D01*
X123332954Y-79970958D01*
X123202432Y-80157365D01*
X123202431Y-80157367D01*
X123106261Y-80363602D01*
X123106258Y-80363611D01*
X123047366Y-80583402D01*
X123047364Y-80583413D01*
X123027532Y-80810098D01*
X123027532Y-80810101D01*
X122545500Y-80810101D01*
X122545500Y-77475450D01*
X122565185Y-77408411D01*
X122581815Y-77387773D01*
X122692820Y-77276768D01*
X122754142Y-77243284D01*
X122823834Y-77248268D01*
X122879767Y-77290140D01*
X122904184Y-77355604D01*
X122904500Y-77364450D01*
X122904500Y-78267869D01*
X122904501Y-78267875D01*
X122910908Y-78327482D01*
X122961202Y-78462327D01*
X122961206Y-78462334D01*
X123047452Y-78577543D01*
X123047455Y-78577546D01*
X123162664Y-78663792D01*
X123162671Y-78663796D01*
X123297517Y-78714090D01*
X123297516Y-78714090D01*
X123304444Y-78714834D01*
X123357127Y-78720499D01*
X125252872Y-78720498D01*
X125312483Y-78714090D01*
X125447331Y-78663795D01*
X125562546Y-78577545D01*
X125648796Y-78462330D01*
X125699091Y-78327482D01*
X125705500Y-78267872D01*
X125705499Y-76372127D01*
X125699091Y-76312516D01*
X125648796Y-76177668D01*
X125648795Y-76177667D01*
X125648793Y-76177663D01*
X125562547Y-76062454D01*
X125562544Y-76062451D01*
X125447335Y-75976205D01*
X125447328Y-75976201D01*
X125367094Y-75946276D01*
X125311160Y-75904405D01*
X125286743Y-75838940D01*
X125301595Y-75770667D01*
X125319190Y-75746120D01*
X125413979Y-75643152D01*
X125540924Y-75448848D01*
X125634157Y-75236299D01*
X125691134Y-75011304D01*
X125691135Y-75011296D01*
X125710300Y-74780005D01*
X125710300Y-74779992D01*
X125691135Y-74548701D01*
X125691133Y-74548690D01*
X125634157Y-74323698D01*
X125540924Y-74111150D01*
X125413983Y-73916851D01*
X125413980Y-73916848D01*
X125413979Y-73916846D01*
X125256784Y-73746086D01*
X125256779Y-73746082D01*
X125256777Y-73746080D01*
X125073634Y-73603534D01*
X125073628Y-73603530D01*
X124869504Y-73493063D01*
X124869495Y-73493060D01*
X124649984Y-73417701D01*
X124478282Y-73389049D01*
X124421049Y-73379499D01*
X124188951Y-73379499D01*
X124131717Y-73389049D01*
X123960016Y-73417701D01*
X123934421Y-73426488D01*
X123864622Y-73429637D01*
X123806479Y-73396887D01*
X122581819Y-72172227D01*
X122548334Y-72110904D01*
X122545500Y-72084546D01*
X122545500Y-60807601D01*
X123027532Y-60807601D01*
X123047364Y-61034286D01*
X123047366Y-61034297D01*
X123106258Y-61254088D01*
X123106261Y-61254097D01*
X123202431Y-61460332D01*
X123202432Y-61460334D01*
X123332954Y-61646741D01*
X123493858Y-61807645D01*
X123493861Y-61807647D01*
X123680266Y-61938168D01*
X123886504Y-62034339D01*
X123886509Y-62034340D01*
X123886511Y-62034341D01*
X123939415Y-62048516D01*
X124106308Y-62093235D01*
X124268230Y-62107401D01*
X124332998Y-62113068D01*
X124333000Y-62113068D01*
X124333002Y-62113068D01*
X124389672Y-62108109D01*
X124559692Y-62093235D01*
X124779496Y-62034339D01*
X124985734Y-61938168D01*
X125172139Y-61807647D01*
X125333047Y-61646739D01*
X125463568Y-61460334D01*
X125490619Y-61402321D01*
X125536788Y-61349886D01*
X125603981Y-61330733D01*
X125670862Y-61350948D01*
X125715380Y-61402322D01*
X125742432Y-61460334D01*
X125742433Y-61460335D01*
X125872954Y-61646741D01*
X126033858Y-61807645D01*
X126033861Y-61807647D01*
X126220266Y-61938168D01*
X126426504Y-62034339D01*
X126426509Y-62034340D01*
X126426511Y-62034341D01*
X126479415Y-62048516D01*
X126646308Y-62093235D01*
X126808230Y-62107401D01*
X126872998Y-62113068D01*
X126873000Y-62113068D01*
X126873002Y-62113068D01*
X126929672Y-62108109D01*
X127099692Y-62093235D01*
X127319496Y-62034339D01*
X127525734Y-61938168D01*
X127712139Y-61807647D01*
X127873047Y-61646739D01*
X128003568Y-61460334D01*
X128099739Y-61254096D01*
X128158635Y-61034292D01*
X128178468Y-60807600D01*
X128174959Y-60767497D01*
X128158635Y-60580913D01*
X128158635Y-60580908D01*
X128113916Y-60414015D01*
X128099741Y-60361111D01*
X128099738Y-60361102D01*
X128059799Y-60275454D01*
X128003568Y-60154866D01*
X127873047Y-59968461D01*
X127873045Y-59968458D01*
X127712141Y-59807554D01*
X127525734Y-59677032D01*
X127525732Y-59677031D01*
X127319497Y-59580861D01*
X127319488Y-59580858D01*
X127099697Y-59521966D01*
X127099693Y-59521965D01*
X127099692Y-59521965D01*
X127099691Y-59521964D01*
X127099686Y-59521964D01*
X126873002Y-59502132D01*
X126872998Y-59502132D01*
X126646313Y-59521964D01*
X126646302Y-59521966D01*
X126426511Y-59580858D01*
X126426502Y-59580861D01*
X126220267Y-59677031D01*
X126220265Y-59677032D01*
X126033858Y-59807554D01*
X125872954Y-59968458D01*
X125742432Y-60154865D01*
X125742430Y-60154868D01*
X125715380Y-60212877D01*
X125669207Y-60265315D01*
X125602013Y-60284466D01*
X125535132Y-60264249D01*
X125490619Y-60212877D01*
X125463568Y-60154866D01*
X125333047Y-59968461D01*
X125333045Y-59968458D01*
X125172141Y-59807554D01*
X124985734Y-59677032D01*
X124985732Y-59677031D01*
X124779497Y-59580861D01*
X124779488Y-59580858D01*
X124559697Y-59521966D01*
X124559693Y-59521965D01*
X124559692Y-59521965D01*
X124559691Y-59521964D01*
X124559686Y-59521964D01*
X124333002Y-59502132D01*
X124332998Y-59502132D01*
X124106313Y-59521964D01*
X124106302Y-59521966D01*
X123886511Y-59580858D01*
X123886502Y-59580861D01*
X123680267Y-59677031D01*
X123680265Y-59677032D01*
X123493858Y-59807554D01*
X123332954Y-59968458D01*
X123202432Y-60154865D01*
X123202431Y-60154867D01*
X123106261Y-60361102D01*
X123106258Y-60361111D01*
X123047366Y-60580902D01*
X123047364Y-60580913D01*
X123027532Y-60807598D01*
X123027532Y-60807601D01*
X122545500Y-60807601D01*
X122545500Y-57475450D01*
X122565185Y-57408411D01*
X122581815Y-57387773D01*
X122692820Y-57276768D01*
X122754142Y-57243284D01*
X122823834Y-57248268D01*
X122879767Y-57290140D01*
X122904184Y-57355604D01*
X122904500Y-57364450D01*
X122904500Y-58267869D01*
X122904501Y-58267875D01*
X122910908Y-58327482D01*
X122961202Y-58462327D01*
X122961206Y-58462334D01*
X123047452Y-58577543D01*
X123047455Y-58577546D01*
X123162664Y-58663792D01*
X123162671Y-58663796D01*
X123297517Y-58714090D01*
X123297516Y-58714090D01*
X123304444Y-58714834D01*
X123357127Y-58720499D01*
X125252872Y-58720498D01*
X125312483Y-58714090D01*
X125447331Y-58663795D01*
X125562546Y-58577545D01*
X125648796Y-58462330D01*
X125699091Y-58327482D01*
X125705500Y-58267872D01*
X125705499Y-56372127D01*
X125699091Y-56312516D01*
X125654638Y-56193332D01*
X125648797Y-56177670D01*
X125648793Y-56177663D01*
X125562547Y-56062454D01*
X125562544Y-56062451D01*
X125447335Y-55976205D01*
X125447328Y-55976201D01*
X125367094Y-55946276D01*
X125311160Y-55904405D01*
X125286743Y-55838940D01*
X125301595Y-55770667D01*
X125319190Y-55746120D01*
X125413979Y-55643152D01*
X125540924Y-55448848D01*
X125634157Y-55236299D01*
X125691134Y-55011304D01*
X125705602Y-54836697D01*
X125710300Y-54780005D01*
X125710300Y-54779992D01*
X125691135Y-54548701D01*
X125691133Y-54548690D01*
X125634157Y-54323698D01*
X125540924Y-54111150D01*
X125413983Y-53916851D01*
X125413980Y-53916848D01*
X125413979Y-53916846D01*
X125256784Y-53746086D01*
X125256779Y-53746082D01*
X125256777Y-53746080D01*
X125073634Y-53603534D01*
X125073628Y-53603530D01*
X124869504Y-53493063D01*
X124869495Y-53493060D01*
X124649984Y-53417701D01*
X124464280Y-53386713D01*
X124421049Y-53379499D01*
X124188951Y-53379499D01*
X124145720Y-53386713D01*
X123960015Y-53417701D01*
X123740504Y-53493060D01*
X123740495Y-53493063D01*
X123536371Y-53603530D01*
X123536365Y-53603534D01*
X123353222Y-53746080D01*
X123353219Y-53746083D01*
X123196016Y-53916851D01*
X123069075Y-54111150D01*
X122975842Y-54323698D01*
X122918866Y-54548690D01*
X122918864Y-54548701D01*
X122899700Y-54779992D01*
X122899700Y-54780005D01*
X122918865Y-55011300D01*
X122956175Y-55158635D01*
X122953550Y-55228455D01*
X122923650Y-55276756D01*
X121536208Y-56664198D01*
X121523951Y-56674019D01*
X121524134Y-56674240D01*
X121518123Y-56679212D01*
X121470772Y-56729635D01*
X121449889Y-56750518D01*
X121449877Y-56750531D01*
X121445621Y-56756016D01*
X121441837Y-56760446D01*
X121409937Y-56794417D01*
X121409936Y-56794419D01*
X121400284Y-56811975D01*
X121389610Y-56828225D01*
X121377329Y-56844060D01*
X121377324Y-56844067D01*
X121358815Y-56886837D01*
X121356245Y-56892083D01*
X121333803Y-56932905D01*
X121328822Y-56952306D01*
X121322521Y-56970709D01*
X121314562Y-56989101D01*
X121314561Y-56989104D01*
X121307271Y-57035126D01*
X121306087Y-57040845D01*
X121294501Y-57085971D01*
X121294500Y-57085981D01*
X121294500Y-57106015D01*
X121292973Y-57125414D01*
X121289840Y-57145193D01*
X121289839Y-57145196D01*
X121294224Y-57191584D01*
X121294499Y-57197420D01*
X121294500Y-72312254D01*
X121292775Y-72327871D01*
X121293061Y-72327898D01*
X121292326Y-72335664D01*
X121294500Y-72404813D01*
X121294500Y-72434342D01*
X121294501Y-72434359D01*
X121295368Y-72441230D01*
X121295826Y-72447049D01*
X121297290Y-72493623D01*
X121297291Y-72493626D01*
X121302880Y-72512866D01*
X121306824Y-72531910D01*
X121309336Y-72551791D01*
X121314513Y-72564866D01*
X121326490Y-72595118D01*
X121328382Y-72600646D01*
X121341381Y-72645387D01*
X121351580Y-72662633D01*
X121360138Y-72680102D01*
X121367514Y-72698731D01*
X121394898Y-72736422D01*
X121398106Y-72741306D01*
X121421827Y-72781415D01*
X121421833Y-72781423D01*
X121435990Y-72795579D01*
X121448628Y-72810375D01*
X121460405Y-72826585D01*
X121460406Y-72826586D01*
X121496309Y-72856287D01*
X121500620Y-72860209D01*
X122243940Y-73603529D01*
X122923650Y-74283239D01*
X122957135Y-74344562D01*
X122956175Y-74401360D01*
X122918866Y-74548689D01*
X122918864Y-74548701D01*
X122899700Y-74779992D01*
X122899700Y-74780005D01*
X122918865Y-75011300D01*
X122956175Y-75158635D01*
X122953550Y-75228455D01*
X122923650Y-75276756D01*
X121536208Y-76664198D01*
X121523951Y-76674019D01*
X121524134Y-76674240D01*
X121518123Y-76679212D01*
X121470772Y-76729635D01*
X121449889Y-76750518D01*
X121449877Y-76750531D01*
X121445621Y-76756016D01*
X121441837Y-76760446D01*
X121409937Y-76794417D01*
X121409936Y-76794419D01*
X121400284Y-76811975D01*
X121389610Y-76828225D01*
X121377329Y-76844060D01*
X121377324Y-76844067D01*
X121358815Y-76886837D01*
X121356245Y-76892083D01*
X121333803Y-76932905D01*
X121328822Y-76952306D01*
X121322521Y-76970709D01*
X121314562Y-76989101D01*
X121314561Y-76989104D01*
X121307271Y-77035126D01*
X121306087Y-77040845D01*
X121294501Y-77085971D01*
X121294500Y-77085981D01*
X121294500Y-77106015D01*
X121292973Y-77125414D01*
X121289840Y-77145193D01*
X121289839Y-77145196D01*
X121294224Y-77191584D01*
X121294499Y-77197420D01*
X121294500Y-91360981D01*
X121294500Y-92312254D01*
X121292775Y-92327871D01*
X121293061Y-92327898D01*
X121292326Y-92335664D01*
X121294500Y-92404813D01*
X121294500Y-92434342D01*
X121294501Y-92434359D01*
X121295368Y-92441230D01*
X121295826Y-92447049D01*
X121297290Y-92493623D01*
X121297291Y-92493626D01*
X121302880Y-92512866D01*
X121306824Y-92531910D01*
X121309336Y-92551791D01*
X121326490Y-92595118D01*
X121328382Y-92600646D01*
X121341381Y-92645387D01*
X121351580Y-92662633D01*
X121360138Y-92680102D01*
X121367514Y-92698731D01*
X121394898Y-92736422D01*
X121398106Y-92741306D01*
X121421827Y-92781415D01*
X121421833Y-92781423D01*
X121435990Y-92795579D01*
X121448628Y-92810375D01*
X121460405Y-92826585D01*
X121460406Y-92826586D01*
X121496309Y-92856287D01*
X121500620Y-92860209D01*
X122243940Y-93603529D01*
X122923650Y-94283239D01*
X122957135Y-94344562D01*
X122956175Y-94401360D01*
X122918866Y-94548689D01*
X122918864Y-94548701D01*
X122899700Y-94779992D01*
X122899700Y-94780005D01*
X122918865Y-95011300D01*
X122956175Y-95158635D01*
X122953550Y-95228455D01*
X122923650Y-95276756D01*
X121536208Y-96664198D01*
X121523951Y-96674019D01*
X121524134Y-96674240D01*
X121518123Y-96679212D01*
X121470772Y-96729635D01*
X121449889Y-96750518D01*
X121449877Y-96750531D01*
X121445621Y-96756016D01*
X121441837Y-96760446D01*
X121409937Y-96794417D01*
X121409936Y-96794419D01*
X121400284Y-96811975D01*
X121389610Y-96828225D01*
X121377329Y-96844060D01*
X121377324Y-96844067D01*
X121358815Y-96886837D01*
X121356245Y-96892083D01*
X121333803Y-96932905D01*
X121328822Y-96952306D01*
X121322521Y-96970709D01*
X121314562Y-96989101D01*
X121314561Y-96989104D01*
X121307271Y-97035126D01*
X121306087Y-97040845D01*
X121294501Y-97085971D01*
X121294500Y-97085981D01*
X121294500Y-97106015D01*
X121292973Y-97125414D01*
X121289840Y-97145193D01*
X121289839Y-97145196D01*
X119380000Y-97145196D01*
X119380000Y-52297068D01*
X119399685Y-52230029D01*
X119416314Y-52209392D01*
X121743705Y-49882001D01*
X129504532Y-49882001D01*
X129524364Y-50108686D01*
X129524366Y-50108697D01*
X129583258Y-50328488D01*
X129583261Y-50328497D01*
X129679431Y-50534732D01*
X129679432Y-50534734D01*
X129809954Y-50721141D01*
X129970858Y-50882045D01*
X129970861Y-50882047D01*
X130157266Y-51012568D01*
X130363504Y-51108739D01*
X130583308Y-51167635D01*
X130745230Y-51181801D01*
X130809998Y-51187468D01*
X130810000Y-51187468D01*
X130810002Y-51187468D01*
X130866672Y-51182509D01*
X131036692Y-51167635D01*
X131256496Y-51108739D01*
X131462734Y-51012568D01*
X131649139Y-50882047D01*
X131810047Y-50721139D01*
X131940568Y-50534734D01*
X132036739Y-50328496D01*
X132095635Y-50108692D01*
X132115468Y-49882001D01*
X149507032Y-49882001D01*
X149526864Y-50108686D01*
X149526866Y-50108697D01*
X149585758Y-50328488D01*
X149585761Y-50328497D01*
X149681931Y-50534732D01*
X149681932Y-50534734D01*
X149812454Y-50721141D01*
X149973358Y-50882045D01*
X149973361Y-50882047D01*
X150159766Y-51012568D01*
X150366004Y-51108739D01*
X150585808Y-51167635D01*
X150747730Y-51181801D01*
X150812498Y-51187468D01*
X150812500Y-51187468D01*
X150812502Y-51187468D01*
X150869172Y-51182509D01*
X151039192Y-51167635D01*
X151258996Y-51108739D01*
X151465234Y-51012568D01*
X151651639Y-50882047D01*
X151812547Y-50721139D01*
X151943068Y-50534734D01*
X152039239Y-50328496D01*
X152098135Y-50108692D01*
X152117968Y-49882001D01*
X169509532Y-49882001D01*
X169529364Y-50108686D01*
X169529366Y-50108697D01*
X169588258Y-50328488D01*
X169588261Y-50328497D01*
X169684431Y-50534732D01*
X169684432Y-50534734D01*
X169814954Y-50721141D01*
X169975858Y-50882045D01*
X169975861Y-50882047D01*
X170162266Y-51012568D01*
X170368504Y-51108739D01*
X170588308Y-51167635D01*
X170750230Y-51181801D01*
X170814998Y-51187468D01*
X170815000Y-51187468D01*
X170815002Y-51187468D01*
X170871673Y-51182509D01*
X171041692Y-51167635D01*
X171261496Y-51108739D01*
X171467734Y-51012568D01*
X171654139Y-50882047D01*
X171815047Y-50721139D01*
X171945568Y-50534734D01*
X172041739Y-50328496D01*
X172100635Y-50108692D01*
X172120468Y-49882001D01*
X189512032Y-49882001D01*
X189531864Y-50108686D01*
X189531866Y-50108697D01*
X189590758Y-50328488D01*
X189590761Y-50328497D01*
X189686931Y-50534732D01*
X189686932Y-50534734D01*
X189817454Y-50721141D01*
X189978358Y-50882045D01*
X189978361Y-50882047D01*
X190164766Y-51012568D01*
X190371004Y-51108739D01*
X190590808Y-51167635D01*
X190752730Y-51181801D01*
X190817498Y-51187468D01*
X190817500Y-51187468D01*
X190817502Y-51187468D01*
X190874172Y-51182509D01*
X191044192Y-51167635D01*
X191263996Y-51108739D01*
X191470234Y-51012568D01*
X191656639Y-50882047D01*
X191817547Y-50721139D01*
X191948068Y-50534734D01*
X192044239Y-50328496D01*
X192103135Y-50108692D01*
X192122968Y-49882001D01*
X209514532Y-49882001D01*
X209534364Y-50108686D01*
X209534366Y-50108697D01*
X209593258Y-50328488D01*
X209593261Y-50328497D01*
X209689431Y-50534732D01*
X209689432Y-50534734D01*
X209819954Y-50721141D01*
X209980858Y-50882045D01*
X209980861Y-50882047D01*
X210167266Y-51012568D01*
X210373504Y-51108739D01*
X210593308Y-51167635D01*
X210755230Y-51181801D01*
X210819998Y-51187468D01*
X210820000Y-51187468D01*
X210820002Y-51187468D01*
X210876673Y-51182509D01*
X211046692Y-51167635D01*
X211266496Y-51108739D01*
X211472734Y-51012568D01*
X211659139Y-50882047D01*
X211820047Y-50721139D01*
X211950568Y-50534734D01*
X212046739Y-50328496D01*
X212105635Y-50108692D01*
X212125468Y-49882000D01*
X212105635Y-49655308D01*
X212046739Y-49435504D01*
X211950568Y-49229266D01*
X211820047Y-49042861D01*
X211820045Y-49042858D01*
X211659141Y-48881954D01*
X211472734Y-48751432D01*
X211472728Y-48751429D01*
X211414725Y-48724382D01*
X211362285Y-48678210D01*
X211343133Y-48611017D01*
X211363348Y-48544135D01*
X211414725Y-48499618D01*
X211472734Y-48472568D01*
X211659139Y-48342047D01*
X211820047Y-48181139D01*
X211950568Y-47994734D01*
X212046739Y-47788496D01*
X212105635Y-47568692D01*
X212125468Y-47342000D01*
X212105635Y-47115308D01*
X212046739Y-46895504D01*
X211950568Y-46689266D01*
X211820047Y-46502861D01*
X211820045Y-46502858D01*
X211659141Y-46341954D01*
X211472734Y-46211432D01*
X211472732Y-46211431D01*
X211266497Y-46115261D01*
X211266488Y-46115258D01*
X211046697Y-46056366D01*
X211046693Y-46056365D01*
X211046692Y-46056365D01*
X211046691Y-46056364D01*
X211046686Y-46056364D01*
X210820002Y-46036532D01*
X210819998Y-46036532D01*
X210593313Y-46056364D01*
X210593302Y-46056366D01*
X210373511Y-46115258D01*
X210373502Y-46115261D01*
X210167267Y-46211431D01*
X210167265Y-46211432D01*
X209980858Y-46341954D01*
X209819954Y-46502858D01*
X209689432Y-46689265D01*
X209689431Y-46689267D01*
X209593261Y-46895502D01*
X209593258Y-46895511D01*
X209534366Y-47115302D01*
X209534364Y-47115313D01*
X209514532Y-47341998D01*
X209514532Y-47342001D01*
X209534364Y-47568686D01*
X209534366Y-47568697D01*
X209593258Y-47788488D01*
X209593261Y-47788497D01*
X209689431Y-47994732D01*
X209689432Y-47994734D01*
X209819954Y-48181141D01*
X209980858Y-48342045D01*
X209997805Y-48353911D01*
X210167266Y-48472568D01*
X210225275Y-48499618D01*
X210277714Y-48545791D01*
X210296866Y-48612984D01*
X210276650Y-48679865D01*
X210225275Y-48724382D01*
X210167267Y-48751431D01*
X210167265Y-48751432D01*
X209980858Y-48881954D01*
X209819954Y-49042858D01*
X209689432Y-49229265D01*
X209689431Y-49229267D01*
X209593261Y-49435502D01*
X209593258Y-49435511D01*
X209534366Y-49655302D01*
X209534364Y-49655313D01*
X209514532Y-49881998D01*
X209514532Y-49882001D01*
X192122968Y-49882001D01*
X192122968Y-49882000D01*
X192103135Y-49655308D01*
X192044239Y-49435504D01*
X191948068Y-49229266D01*
X191817547Y-49042861D01*
X191817545Y-49042858D01*
X191656641Y-48881954D01*
X191470234Y-48751432D01*
X191470228Y-48751429D01*
X191412225Y-48724382D01*
X191359785Y-48678210D01*
X191340633Y-48611017D01*
X191360848Y-48544135D01*
X191412225Y-48499618D01*
X191470234Y-48472568D01*
X191656639Y-48342047D01*
X191817547Y-48181139D01*
X191948068Y-47994734D01*
X192044239Y-47788496D01*
X192103135Y-47568692D01*
X192122968Y-47342000D01*
X192103135Y-47115308D01*
X192044239Y-46895504D01*
X191948068Y-46689266D01*
X191817547Y-46502861D01*
X191817545Y-46502858D01*
X191656641Y-46341954D01*
X191470234Y-46211432D01*
X191470232Y-46211431D01*
X191263997Y-46115261D01*
X191263988Y-46115258D01*
X191044197Y-46056366D01*
X191044193Y-46056365D01*
X191044192Y-46056365D01*
X191044191Y-46056364D01*
X191044186Y-46056364D01*
X190817502Y-46036532D01*
X190817498Y-46036532D01*
X190590813Y-46056364D01*
X190590802Y-46056366D01*
X190371011Y-46115258D01*
X190371002Y-46115261D01*
X190164767Y-46211431D01*
X190164765Y-46211432D01*
X189978358Y-46341954D01*
X189817454Y-46502858D01*
X189686932Y-46689265D01*
X189686931Y-46689267D01*
X189590761Y-46895502D01*
X189590758Y-46895511D01*
X189531866Y-47115302D01*
X189531864Y-47115313D01*
X189512032Y-47341998D01*
X189512032Y-47342001D01*
X189531864Y-47568686D01*
X189531866Y-47568697D01*
X189590758Y-47788488D01*
X189590761Y-47788497D01*
X189686931Y-47994732D01*
X189686932Y-47994734D01*
X189817454Y-48181141D01*
X189978358Y-48342045D01*
X189995305Y-48353911D01*
X190164766Y-48472568D01*
X190222775Y-48499618D01*
X190275214Y-48545791D01*
X190294366Y-48612984D01*
X190274150Y-48679865D01*
X190222775Y-48724382D01*
X190164767Y-48751431D01*
X190164765Y-48751432D01*
X189978358Y-48881954D01*
X189817454Y-49042858D01*
X189686932Y-49229265D01*
X189686931Y-49229267D01*
X189590761Y-49435502D01*
X189590758Y-49435511D01*
X189531866Y-49655302D01*
X189531864Y-49655313D01*
X189512032Y-49881998D01*
X189512032Y-49882001D01*
X172120468Y-49882001D01*
X172120468Y-49882000D01*
X172100635Y-49655308D01*
X172041739Y-49435504D01*
X171945568Y-49229266D01*
X171815047Y-49042861D01*
X171815045Y-49042858D01*
X171654141Y-48881954D01*
X171467734Y-48751432D01*
X171467728Y-48751429D01*
X171409725Y-48724382D01*
X171357285Y-48678210D01*
X171338133Y-48611017D01*
X171358348Y-48544135D01*
X171409725Y-48499618D01*
X171467734Y-48472568D01*
X171654139Y-48342047D01*
X171815047Y-48181139D01*
X171945568Y-47994734D01*
X172041739Y-47788496D01*
X172100635Y-47568692D01*
X172120468Y-47342000D01*
X172100635Y-47115308D01*
X172041739Y-46895504D01*
X171945568Y-46689266D01*
X171815047Y-46502861D01*
X171815045Y-46502858D01*
X171654141Y-46341954D01*
X171467734Y-46211432D01*
X171467732Y-46211431D01*
X171261497Y-46115261D01*
X171261488Y-46115258D01*
X171041697Y-46056366D01*
X171041693Y-46056365D01*
X171041692Y-46056365D01*
X171041691Y-46056364D01*
X171041686Y-46056364D01*
X170815002Y-46036532D01*
X170814998Y-46036532D01*
X170588313Y-46056364D01*
X170588302Y-46056366D01*
X170368511Y-46115258D01*
X170368502Y-46115261D01*
X170162267Y-46211431D01*
X170162265Y-46211432D01*
X169975858Y-46341954D01*
X169814954Y-46502858D01*
X169684432Y-46689265D01*
X169684431Y-46689267D01*
X169588261Y-46895502D01*
X169588258Y-46895511D01*
X169529366Y-47115302D01*
X169529364Y-47115313D01*
X169509532Y-47341998D01*
X169509532Y-47342001D01*
X169529364Y-47568686D01*
X169529366Y-47568697D01*
X169588258Y-47788488D01*
X169588261Y-47788497D01*
X169684431Y-47994732D01*
X169684432Y-47994734D01*
X169814954Y-48181141D01*
X169975858Y-48342045D01*
X169979856Y-48344844D01*
X170162266Y-48472568D01*
X170220278Y-48499619D01*
X170272713Y-48545788D01*
X170291866Y-48612982D01*
X170271651Y-48679863D01*
X170220277Y-48724380D01*
X170162268Y-48751430D01*
X170162265Y-48751432D01*
X169975858Y-48881954D01*
X169814954Y-49042858D01*
X169684432Y-49229265D01*
X169684431Y-49229267D01*
X169588261Y-49435502D01*
X169588258Y-49435511D01*
X169529366Y-49655302D01*
X169529364Y-49655313D01*
X169509532Y-49881998D01*
X169509532Y-49882001D01*
X152117968Y-49882001D01*
X152117968Y-49882000D01*
X152098135Y-49655308D01*
X152039239Y-49435504D01*
X151943068Y-49229266D01*
X151812547Y-49042861D01*
X151812545Y-49042858D01*
X151651641Y-48881954D01*
X151465234Y-48751432D01*
X151465228Y-48751429D01*
X151407225Y-48724382D01*
X151354785Y-48678210D01*
X151335633Y-48611017D01*
X151355848Y-48544135D01*
X151407225Y-48499618D01*
X151465234Y-48472568D01*
X151651639Y-48342047D01*
X151812547Y-48181139D01*
X151943068Y-47994734D01*
X152039239Y-47788496D01*
X152098135Y-47568692D01*
X152117968Y-47342000D01*
X152098135Y-47115308D01*
X152039239Y-46895504D01*
X151943068Y-46689266D01*
X151812547Y-46502861D01*
X151812545Y-46502858D01*
X151651641Y-46341954D01*
X151465234Y-46211432D01*
X151465232Y-46211431D01*
X151258997Y-46115261D01*
X151258988Y-46115258D01*
X151039197Y-46056366D01*
X151039193Y-46056365D01*
X151039192Y-46056365D01*
X151039191Y-46056364D01*
X151039186Y-46056364D01*
X150812502Y-46036532D01*
X150812498Y-46036532D01*
X150585813Y-46056364D01*
X150585802Y-46056366D01*
X150366011Y-46115258D01*
X150366002Y-46115261D01*
X150159767Y-46211431D01*
X150159765Y-46211432D01*
X149973358Y-46341954D01*
X149812454Y-46502858D01*
X149681932Y-46689265D01*
X149681931Y-46689267D01*
X149585761Y-46895502D01*
X149585758Y-46895511D01*
X149526866Y-47115302D01*
X149526864Y-47115313D01*
X149507032Y-47341998D01*
X149507032Y-47342001D01*
X149526864Y-47568686D01*
X149526866Y-47568697D01*
X149585758Y-47788488D01*
X149585761Y-47788497D01*
X149681931Y-47994732D01*
X149681932Y-47994734D01*
X149812454Y-48181141D01*
X149973358Y-48342045D01*
X149990305Y-48353911D01*
X150159766Y-48472568D01*
X150217775Y-48499618D01*
X150270214Y-48545791D01*
X150289366Y-48612984D01*
X150269150Y-48679865D01*
X150217775Y-48724382D01*
X150159767Y-48751431D01*
X150159765Y-48751432D01*
X149973358Y-48881954D01*
X149812454Y-49042858D01*
X149681932Y-49229265D01*
X149681931Y-49229267D01*
X149585761Y-49435502D01*
X149585758Y-49435511D01*
X149526866Y-49655302D01*
X149526864Y-49655313D01*
X149507032Y-49881998D01*
X149507032Y-49882001D01*
X132115468Y-49882001D01*
X132115468Y-49882000D01*
X132095635Y-49655308D01*
X132036739Y-49435504D01*
X131940568Y-49229266D01*
X131810047Y-49042861D01*
X131810045Y-49042858D01*
X131649141Y-48881954D01*
X131462734Y-48751432D01*
X131462728Y-48751429D01*
X131404725Y-48724382D01*
X131352285Y-48678210D01*
X131333133Y-48611017D01*
X131353348Y-48544135D01*
X131404725Y-48499618D01*
X131462734Y-48472568D01*
X131649139Y-48342047D01*
X131810047Y-48181139D01*
X131940568Y-47994734D01*
X132036739Y-47788496D01*
X132095635Y-47568692D01*
X132115468Y-47342000D01*
X132095635Y-47115308D01*
X132036739Y-46895504D01*
X131940568Y-46689266D01*
X131810047Y-46502861D01*
X131810045Y-46502858D01*
X131649141Y-46341954D01*
X131462734Y-46211432D01*
X131462732Y-46211431D01*
X131256497Y-46115261D01*
X131256488Y-46115258D01*
X131036697Y-46056366D01*
X131036693Y-46056365D01*
X131036692Y-46056365D01*
X131036691Y-46056364D01*
X131036686Y-46056364D01*
X130810002Y-46036532D01*
X130809998Y-46036532D01*
X130583313Y-46056364D01*
X130583302Y-46056366D01*
X130363511Y-46115258D01*
X130363502Y-46115261D01*
X130157267Y-46211431D01*
X130157265Y-46211432D01*
X129970858Y-46341954D01*
X129809954Y-46502858D01*
X129679432Y-46689265D01*
X129679431Y-46689267D01*
X129583261Y-46895502D01*
X129583258Y-46895511D01*
X129524366Y-47115302D01*
X129524364Y-47115313D01*
X129504532Y-47341998D01*
X129504532Y-47342001D01*
X129524364Y-47568686D01*
X129524366Y-47568697D01*
X129583258Y-47788488D01*
X129583261Y-47788497D01*
X129679431Y-47994732D01*
X129679432Y-47994734D01*
X129809954Y-48181141D01*
X129970858Y-48342045D01*
X129987805Y-48353911D01*
X130157266Y-48472568D01*
X130215275Y-48499618D01*
X130267714Y-48545791D01*
X130286866Y-48612984D01*
X130266650Y-48679865D01*
X130215275Y-48724382D01*
X130157267Y-48751431D01*
X130157265Y-48751432D01*
X129970858Y-48881954D01*
X129809954Y-49042858D01*
X129679432Y-49229265D01*
X129679431Y-49229267D01*
X129583261Y-49435502D01*
X129583258Y-49435511D01*
X129524366Y-49655302D01*
X129524364Y-49655313D01*
X129504532Y-49881998D01*
X129504532Y-49882001D01*
X121743705Y-49882001D01*
X129268889Y-42356818D01*
X129330212Y-42323333D01*
X129356570Y-42320499D01*
X219253431Y-42320499D01*
X219320470Y-42340184D01*
G37*
%TD.AperFunction*%
%TD*%
M02*
