%TF.GenerationSoftware,KiCad,Pcbnew,7.0.6*%
%TF.CreationDate,2024-08-08T10:20:05+01:00*%
%TF.ProjectId,DMI_LightBox,444d495f-4c69-4676-9874-426f782e6b69,rev?*%
%TF.SameCoordinates,Original*%
%TF.FileFunction,Legend,Top*%
%TF.FilePolarity,Positive*%
%FSLAX46Y46*%
G04 Gerber Fmt 4.6, Leading zero omitted, Abs format (unit mm)*
G04 Created by KiCad (PCBNEW 7.0.6) date 2024-08-08 10:20:05*
%MOMM*%
%LPD*%
G01*
G04 APERTURE LIST*
%ADD10C,0.150000*%
%ADD11C,0.120000*%
G04 APERTURE END LIST*
D10*
X160665319Y-146692857D02*
X160189128Y-147026190D01*
X160665319Y-147264285D02*
X159665319Y-147264285D01*
X159665319Y-147264285D02*
X159665319Y-146883333D01*
X159665319Y-146883333D02*
X159712938Y-146788095D01*
X159712938Y-146788095D02*
X159760557Y-146740476D01*
X159760557Y-146740476D02*
X159855795Y-146692857D01*
X159855795Y-146692857D02*
X159998652Y-146692857D01*
X159998652Y-146692857D02*
X160093890Y-146740476D01*
X160093890Y-146740476D02*
X160141509Y-146788095D01*
X160141509Y-146788095D02*
X160189128Y-146883333D01*
X160189128Y-146883333D02*
X160189128Y-147264285D01*
X160665319Y-145740476D02*
X160665319Y-146311904D01*
X160665319Y-146026190D02*
X159665319Y-146026190D01*
X159665319Y-146026190D02*
X159808176Y-146121428D01*
X159808176Y-146121428D02*
X159903414Y-146216666D01*
X159903414Y-146216666D02*
X159951033Y-146311904D01*
X159998652Y-144883333D02*
X160665319Y-144883333D01*
X159617700Y-145121428D02*
X160331985Y-145359523D01*
X160331985Y-145359523D02*
X160331985Y-144740476D01*
X120799819Y-97264284D02*
X119799819Y-97264284D01*
X119799819Y-97264284D02*
X119799819Y-97026189D01*
X119799819Y-97026189D02*
X119847438Y-96883332D01*
X119847438Y-96883332D02*
X119942676Y-96788094D01*
X119942676Y-96788094D02*
X120037914Y-96740475D01*
X120037914Y-96740475D02*
X120228390Y-96692856D01*
X120228390Y-96692856D02*
X120371247Y-96692856D01*
X120371247Y-96692856D02*
X120561723Y-96740475D01*
X120561723Y-96740475D02*
X120656961Y-96788094D01*
X120656961Y-96788094D02*
X120752200Y-96883332D01*
X120752200Y-96883332D02*
X120799819Y-97026189D01*
X120799819Y-97026189D02*
X120799819Y-97264284D01*
X120799819Y-95740475D02*
X120799819Y-96311903D01*
X120799819Y-96026189D02*
X119799819Y-96026189D01*
X119799819Y-96026189D02*
X119942676Y-96121427D01*
X119942676Y-96121427D02*
X120037914Y-96216665D01*
X120037914Y-96216665D02*
X120085533Y-96311903D01*
X120228390Y-95169046D02*
X120180771Y-95264284D01*
X120180771Y-95264284D02*
X120133152Y-95311903D01*
X120133152Y-95311903D02*
X120037914Y-95359522D01*
X120037914Y-95359522D02*
X119990295Y-95359522D01*
X119990295Y-95359522D02*
X119895057Y-95311903D01*
X119895057Y-95311903D02*
X119847438Y-95264284D01*
X119847438Y-95264284D02*
X119799819Y-95169046D01*
X119799819Y-95169046D02*
X119799819Y-94978570D01*
X119799819Y-94978570D02*
X119847438Y-94883332D01*
X119847438Y-94883332D02*
X119895057Y-94835713D01*
X119895057Y-94835713D02*
X119990295Y-94788094D01*
X119990295Y-94788094D02*
X120037914Y-94788094D01*
X120037914Y-94788094D02*
X120133152Y-94835713D01*
X120133152Y-94835713D02*
X120180771Y-94883332D01*
X120180771Y-94883332D02*
X120228390Y-94978570D01*
X120228390Y-94978570D02*
X120228390Y-95169046D01*
X120228390Y-95169046D02*
X120276009Y-95264284D01*
X120276009Y-95264284D02*
X120323628Y-95311903D01*
X120323628Y-95311903D02*
X120418866Y-95359522D01*
X120418866Y-95359522D02*
X120609342Y-95359522D01*
X120609342Y-95359522D02*
X120704580Y-95311903D01*
X120704580Y-95311903D02*
X120752200Y-95264284D01*
X120752200Y-95264284D02*
X120799819Y-95169046D01*
X120799819Y-95169046D02*
X120799819Y-94978570D01*
X120799819Y-94978570D02*
X120752200Y-94883332D01*
X120752200Y-94883332D02*
X120704580Y-94835713D01*
X120704580Y-94835713D02*
X120609342Y-94788094D01*
X120609342Y-94788094D02*
X120418866Y-94788094D01*
X120418866Y-94788094D02*
X120323628Y-94835713D01*
X120323628Y-94835713D02*
X120276009Y-94883332D01*
X120276009Y-94883332D02*
X120228390Y-94978570D01*
X228719821Y-99328094D02*
X227719821Y-99328094D01*
X227719821Y-99328094D02*
X227719821Y-99089999D01*
X227719821Y-99089999D02*
X227767440Y-98947142D01*
X227767440Y-98947142D02*
X227862678Y-98851904D01*
X227862678Y-98851904D02*
X227957916Y-98804285D01*
X227957916Y-98804285D02*
X228148392Y-98756666D01*
X228148392Y-98756666D02*
X228291249Y-98756666D01*
X228291249Y-98756666D02*
X228481725Y-98804285D01*
X228481725Y-98804285D02*
X228576963Y-98851904D01*
X228576963Y-98851904D02*
X228672202Y-98947142D01*
X228672202Y-98947142D02*
X228719821Y-99089999D01*
X228719821Y-99089999D02*
X228719821Y-99328094D01*
X228148392Y-98185237D02*
X228100773Y-98280475D01*
X228100773Y-98280475D02*
X228053154Y-98328094D01*
X228053154Y-98328094D02*
X227957916Y-98375713D01*
X227957916Y-98375713D02*
X227910297Y-98375713D01*
X227910297Y-98375713D02*
X227815059Y-98328094D01*
X227815059Y-98328094D02*
X227767440Y-98280475D01*
X227767440Y-98280475D02*
X227719821Y-98185237D01*
X227719821Y-98185237D02*
X227719821Y-97994761D01*
X227719821Y-97994761D02*
X227767440Y-97899523D01*
X227767440Y-97899523D02*
X227815059Y-97851904D01*
X227815059Y-97851904D02*
X227910297Y-97804285D01*
X227910297Y-97804285D02*
X227957916Y-97804285D01*
X227957916Y-97804285D02*
X228053154Y-97851904D01*
X228053154Y-97851904D02*
X228100773Y-97899523D01*
X228100773Y-97899523D02*
X228148392Y-97994761D01*
X228148392Y-97994761D02*
X228148392Y-98185237D01*
X228148392Y-98185237D02*
X228196011Y-98280475D01*
X228196011Y-98280475D02*
X228243630Y-98328094D01*
X228243630Y-98328094D02*
X228338868Y-98375713D01*
X228338868Y-98375713D02*
X228529344Y-98375713D01*
X228529344Y-98375713D02*
X228624582Y-98328094D01*
X228624582Y-98328094D02*
X228672202Y-98280475D01*
X228672202Y-98280475D02*
X228719821Y-98185237D01*
X228719821Y-98185237D02*
X228719821Y-97994761D01*
X228719821Y-97994761D02*
X228672202Y-97899523D01*
X228672202Y-97899523D02*
X228624582Y-97851904D01*
X228624582Y-97851904D02*
X228529344Y-97804285D01*
X228529344Y-97804285D02*
X228338868Y-97804285D01*
X228338868Y-97804285D02*
X228243630Y-97851904D01*
X228243630Y-97851904D02*
X228196011Y-97899523D01*
X228196011Y-97899523D02*
X228148392Y-97994761D01*
X154836907Y-43814818D02*
X154836907Y-42814818D01*
X154836907Y-42814818D02*
X155075002Y-42814818D01*
X155075002Y-42814818D02*
X155217859Y-42862437D01*
X155217859Y-42862437D02*
X155313097Y-42957675D01*
X155313097Y-42957675D02*
X155360716Y-43052913D01*
X155360716Y-43052913D02*
X155408335Y-43243389D01*
X155408335Y-43243389D02*
X155408335Y-43386246D01*
X155408335Y-43386246D02*
X155360716Y-43576722D01*
X155360716Y-43576722D02*
X155313097Y-43671960D01*
X155313097Y-43671960D02*
X155217859Y-43767199D01*
X155217859Y-43767199D02*
X155075002Y-43814818D01*
X155075002Y-43814818D02*
X154836907Y-43814818D01*
X155789288Y-42910056D02*
X155836907Y-42862437D01*
X155836907Y-42862437D02*
X155932145Y-42814818D01*
X155932145Y-42814818D02*
X156170240Y-42814818D01*
X156170240Y-42814818D02*
X156265478Y-42862437D01*
X156265478Y-42862437D02*
X156313097Y-42910056D01*
X156313097Y-42910056D02*
X156360716Y-43005294D01*
X156360716Y-43005294D02*
X156360716Y-43100532D01*
X156360716Y-43100532D02*
X156313097Y-43243389D01*
X156313097Y-43243389D02*
X155741669Y-43814818D01*
X155741669Y-43814818D02*
X156360716Y-43814818D01*
X200670319Y-146692857D02*
X200194128Y-147026190D01*
X200670319Y-147264285D02*
X199670319Y-147264285D01*
X199670319Y-147264285D02*
X199670319Y-146883333D01*
X199670319Y-146883333D02*
X199717938Y-146788095D01*
X199717938Y-146788095D02*
X199765557Y-146740476D01*
X199765557Y-146740476D02*
X199860795Y-146692857D01*
X199860795Y-146692857D02*
X200003652Y-146692857D01*
X200003652Y-146692857D02*
X200098890Y-146740476D01*
X200098890Y-146740476D02*
X200146509Y-146788095D01*
X200146509Y-146788095D02*
X200194128Y-146883333D01*
X200194128Y-146883333D02*
X200194128Y-147264285D01*
X200670319Y-145740476D02*
X200670319Y-146311904D01*
X200670319Y-146026190D02*
X199670319Y-146026190D01*
X199670319Y-146026190D02*
X199813176Y-146121428D01*
X199813176Y-146121428D02*
X199908414Y-146216666D01*
X199908414Y-146216666D02*
X199956033Y-146311904D01*
X199765557Y-145359523D02*
X199717938Y-145311904D01*
X199717938Y-145311904D02*
X199670319Y-145216666D01*
X199670319Y-145216666D02*
X199670319Y-144978571D01*
X199670319Y-144978571D02*
X199717938Y-144883333D01*
X199717938Y-144883333D02*
X199765557Y-144835714D01*
X199765557Y-144835714D02*
X199860795Y-144788095D01*
X199860795Y-144788095D02*
X199956033Y-144788095D01*
X199956033Y-144788095D02*
X200098890Y-144835714D01*
X200098890Y-144835714D02*
X200670319Y-145407142D01*
X200670319Y-145407142D02*
X200670319Y-144788095D01*
X171820714Y-151734819D02*
X171820714Y-150734819D01*
X171820714Y-150734819D02*
X172058809Y-150734819D01*
X172058809Y-150734819D02*
X172201666Y-150782438D01*
X172201666Y-150782438D02*
X172296904Y-150877676D01*
X172296904Y-150877676D02*
X172344523Y-150972914D01*
X172344523Y-150972914D02*
X172392142Y-151163390D01*
X172392142Y-151163390D02*
X172392142Y-151306247D01*
X172392142Y-151306247D02*
X172344523Y-151496723D01*
X172344523Y-151496723D02*
X172296904Y-151591961D01*
X172296904Y-151591961D02*
X172201666Y-151687200D01*
X172201666Y-151687200D02*
X172058809Y-151734819D01*
X172058809Y-151734819D02*
X171820714Y-151734819D01*
X173344523Y-151734819D02*
X172773095Y-151734819D01*
X173058809Y-151734819D02*
X173058809Y-150734819D01*
X173058809Y-150734819D02*
X172963571Y-150877676D01*
X172963571Y-150877676D02*
X172868333Y-150972914D01*
X172868333Y-150972914D02*
X172773095Y-151020533D01*
X173677857Y-150734819D02*
X174296904Y-150734819D01*
X174296904Y-150734819D02*
X173963571Y-151115771D01*
X173963571Y-151115771D02*
X174106428Y-151115771D01*
X174106428Y-151115771D02*
X174201666Y-151163390D01*
X174201666Y-151163390D02*
X174249285Y-151211009D01*
X174249285Y-151211009D02*
X174296904Y-151306247D01*
X174296904Y-151306247D02*
X174296904Y-151544342D01*
X174296904Y-151544342D02*
X174249285Y-151639580D01*
X174249285Y-151639580D02*
X174201666Y-151687200D01*
X174201666Y-151687200D02*
X174106428Y-151734819D01*
X174106428Y-151734819D02*
X173820714Y-151734819D01*
X173820714Y-151734819D02*
X173725476Y-151687200D01*
X173725476Y-151687200D02*
X173677857Y-151639580D01*
X151820714Y-151734819D02*
X151820714Y-150734819D01*
X151820714Y-150734819D02*
X152058809Y-150734819D01*
X152058809Y-150734819D02*
X152201666Y-150782438D01*
X152201666Y-150782438D02*
X152296904Y-150877676D01*
X152296904Y-150877676D02*
X152344523Y-150972914D01*
X152344523Y-150972914D02*
X152392142Y-151163390D01*
X152392142Y-151163390D02*
X152392142Y-151306247D01*
X152392142Y-151306247D02*
X152344523Y-151496723D01*
X152344523Y-151496723D02*
X152296904Y-151591961D01*
X152296904Y-151591961D02*
X152201666Y-151687200D01*
X152201666Y-151687200D02*
X152058809Y-151734819D01*
X152058809Y-151734819D02*
X151820714Y-151734819D01*
X153344523Y-151734819D02*
X152773095Y-151734819D01*
X153058809Y-151734819D02*
X153058809Y-150734819D01*
X153058809Y-150734819D02*
X152963571Y-150877676D01*
X152963571Y-150877676D02*
X152868333Y-150972914D01*
X152868333Y-150972914D02*
X152773095Y-151020533D01*
X154201666Y-151068152D02*
X154201666Y-151734819D01*
X153963571Y-150687200D02*
X153725476Y-151401485D01*
X153725476Y-151401485D02*
X154344523Y-151401485D01*
X120799819Y-117264284D02*
X119799819Y-117264284D01*
X119799819Y-117264284D02*
X119799819Y-117026189D01*
X119799819Y-117026189D02*
X119847438Y-116883332D01*
X119847438Y-116883332D02*
X119942676Y-116788094D01*
X119942676Y-116788094D02*
X120037914Y-116740475D01*
X120037914Y-116740475D02*
X120228390Y-116692856D01*
X120228390Y-116692856D02*
X120371247Y-116692856D01*
X120371247Y-116692856D02*
X120561723Y-116740475D01*
X120561723Y-116740475D02*
X120656961Y-116788094D01*
X120656961Y-116788094D02*
X120752200Y-116883332D01*
X120752200Y-116883332D02*
X120799819Y-117026189D01*
X120799819Y-117026189D02*
X120799819Y-117264284D01*
X120799819Y-115740475D02*
X120799819Y-116311903D01*
X120799819Y-116026189D02*
X119799819Y-116026189D01*
X119799819Y-116026189D02*
X119942676Y-116121427D01*
X119942676Y-116121427D02*
X120037914Y-116216665D01*
X120037914Y-116216665D02*
X120085533Y-116311903D01*
X119799819Y-115407141D02*
X119799819Y-114740475D01*
X119799819Y-114740475D02*
X120799819Y-115169046D01*
X214836907Y-43814818D02*
X214836907Y-42814818D01*
X214836907Y-42814818D02*
X215075002Y-42814818D01*
X215075002Y-42814818D02*
X215217859Y-42862437D01*
X215217859Y-42862437D02*
X215313097Y-42957675D01*
X215313097Y-42957675D02*
X215360716Y-43052913D01*
X215360716Y-43052913D02*
X215408335Y-43243389D01*
X215408335Y-43243389D02*
X215408335Y-43386246D01*
X215408335Y-43386246D02*
X215360716Y-43576722D01*
X215360716Y-43576722D02*
X215313097Y-43671960D01*
X215313097Y-43671960D02*
X215217859Y-43767199D01*
X215217859Y-43767199D02*
X215075002Y-43814818D01*
X215075002Y-43814818D02*
X214836907Y-43814818D01*
X216313097Y-42814818D02*
X215836907Y-42814818D01*
X215836907Y-42814818D02*
X215789288Y-43291008D01*
X215789288Y-43291008D02*
X215836907Y-43243389D01*
X215836907Y-43243389D02*
X215932145Y-43195770D01*
X215932145Y-43195770D02*
X216170240Y-43195770D01*
X216170240Y-43195770D02*
X216265478Y-43243389D01*
X216265478Y-43243389D02*
X216313097Y-43291008D01*
X216313097Y-43291008D02*
X216360716Y-43386246D01*
X216360716Y-43386246D02*
X216360716Y-43624341D01*
X216360716Y-43624341D02*
X216313097Y-43719579D01*
X216313097Y-43719579D02*
X216265478Y-43767199D01*
X216265478Y-43767199D02*
X216170240Y-43814818D01*
X216170240Y-43814818D02*
X215932145Y-43814818D01*
X215932145Y-43814818D02*
X215836907Y-43767199D01*
X215836907Y-43767199D02*
X215789288Y-43719579D01*
X222845333Y-111897319D02*
X222512000Y-111421128D01*
X222273905Y-111897319D02*
X222273905Y-110897319D01*
X222273905Y-110897319D02*
X222654857Y-110897319D01*
X222654857Y-110897319D02*
X222750095Y-110944938D01*
X222750095Y-110944938D02*
X222797714Y-110992557D01*
X222797714Y-110992557D02*
X222845333Y-111087795D01*
X222845333Y-111087795D02*
X222845333Y-111230652D01*
X222845333Y-111230652D02*
X222797714Y-111325890D01*
X222797714Y-111325890D02*
X222750095Y-111373509D01*
X222750095Y-111373509D02*
X222654857Y-111421128D01*
X222654857Y-111421128D02*
X222273905Y-111421128D01*
X223321524Y-111897319D02*
X223512000Y-111897319D01*
X223512000Y-111897319D02*
X223607238Y-111849700D01*
X223607238Y-111849700D02*
X223654857Y-111802080D01*
X223654857Y-111802080D02*
X223750095Y-111659223D01*
X223750095Y-111659223D02*
X223797714Y-111468747D01*
X223797714Y-111468747D02*
X223797714Y-111087795D01*
X223797714Y-111087795D02*
X223750095Y-110992557D01*
X223750095Y-110992557D02*
X223702476Y-110944938D01*
X223702476Y-110944938D02*
X223607238Y-110897319D01*
X223607238Y-110897319D02*
X223416762Y-110897319D01*
X223416762Y-110897319D02*
X223321524Y-110944938D01*
X223321524Y-110944938D02*
X223273905Y-110992557D01*
X223273905Y-110992557D02*
X223226286Y-111087795D01*
X223226286Y-111087795D02*
X223226286Y-111325890D01*
X223226286Y-111325890D02*
X223273905Y-111421128D01*
X223273905Y-111421128D02*
X223321524Y-111468747D01*
X223321524Y-111468747D02*
X223416762Y-111516366D01*
X223416762Y-111516366D02*
X223607238Y-111516366D01*
X223607238Y-111516366D02*
X223702476Y-111468747D01*
X223702476Y-111468747D02*
X223750095Y-111421128D01*
X223750095Y-111421128D02*
X223797714Y-111325890D01*
X189176819Y-48778666D02*
X188700628Y-49111999D01*
X189176819Y-49350094D02*
X188176819Y-49350094D01*
X188176819Y-49350094D02*
X188176819Y-48969142D01*
X188176819Y-48969142D02*
X188224438Y-48873904D01*
X188224438Y-48873904D02*
X188272057Y-48826285D01*
X188272057Y-48826285D02*
X188367295Y-48778666D01*
X188367295Y-48778666D02*
X188510152Y-48778666D01*
X188510152Y-48778666D02*
X188605390Y-48826285D01*
X188605390Y-48826285D02*
X188653009Y-48873904D01*
X188653009Y-48873904D02*
X188700628Y-48969142D01*
X188700628Y-48969142D02*
X188700628Y-49350094D01*
X188510152Y-47921523D02*
X189176819Y-47921523D01*
X188129200Y-48159618D02*
X188843485Y-48397713D01*
X188843485Y-48397713D02*
X188843485Y-47778666D01*
X124960142Y-123682919D02*
X124626809Y-123206728D01*
X124388714Y-123682919D02*
X124388714Y-122682919D01*
X124388714Y-122682919D02*
X124769666Y-122682919D01*
X124769666Y-122682919D02*
X124864904Y-122730538D01*
X124864904Y-122730538D02*
X124912523Y-122778157D01*
X124912523Y-122778157D02*
X124960142Y-122873395D01*
X124960142Y-122873395D02*
X124960142Y-123016252D01*
X124960142Y-123016252D02*
X124912523Y-123111490D01*
X124912523Y-123111490D02*
X124864904Y-123159109D01*
X124864904Y-123159109D02*
X124769666Y-123206728D01*
X124769666Y-123206728D02*
X124388714Y-123206728D01*
X125912523Y-123682919D02*
X125341095Y-123682919D01*
X125626809Y-123682919D02*
X125626809Y-122682919D01*
X125626809Y-122682919D02*
X125531571Y-122825776D01*
X125531571Y-122825776D02*
X125436333Y-122921014D01*
X125436333Y-122921014D02*
X125341095Y-122968633D01*
X126245857Y-122682919D02*
X126912523Y-122682919D01*
X126912523Y-122682919D02*
X126483952Y-123682919D01*
X134836907Y-43814818D02*
X134836907Y-42814818D01*
X134836907Y-42814818D02*
X135075002Y-42814818D01*
X135075002Y-42814818D02*
X135217859Y-42862437D01*
X135217859Y-42862437D02*
X135313097Y-42957675D01*
X135313097Y-42957675D02*
X135360716Y-43052913D01*
X135360716Y-43052913D02*
X135408335Y-43243389D01*
X135408335Y-43243389D02*
X135408335Y-43386246D01*
X135408335Y-43386246D02*
X135360716Y-43576722D01*
X135360716Y-43576722D02*
X135313097Y-43671960D01*
X135313097Y-43671960D02*
X135217859Y-43767199D01*
X135217859Y-43767199D02*
X135075002Y-43814818D01*
X135075002Y-43814818D02*
X134836907Y-43814818D01*
X136360716Y-43814818D02*
X135789288Y-43814818D01*
X136075002Y-43814818D02*
X136075002Y-42814818D01*
X136075002Y-42814818D02*
X135979764Y-42957675D01*
X135979764Y-42957675D02*
X135884526Y-43052913D01*
X135884526Y-43052913D02*
X135789288Y-43100532D01*
X211820714Y-151734819D02*
X211820714Y-150734819D01*
X211820714Y-150734819D02*
X212058809Y-150734819D01*
X212058809Y-150734819D02*
X212201666Y-150782438D01*
X212201666Y-150782438D02*
X212296904Y-150877676D01*
X212296904Y-150877676D02*
X212344523Y-150972914D01*
X212344523Y-150972914D02*
X212392142Y-151163390D01*
X212392142Y-151163390D02*
X212392142Y-151306247D01*
X212392142Y-151306247D02*
X212344523Y-151496723D01*
X212344523Y-151496723D02*
X212296904Y-151591961D01*
X212296904Y-151591961D02*
X212201666Y-151687200D01*
X212201666Y-151687200D02*
X212058809Y-151734819D01*
X212058809Y-151734819D02*
X211820714Y-151734819D01*
X213344523Y-151734819D02*
X212773095Y-151734819D01*
X213058809Y-151734819D02*
X213058809Y-150734819D01*
X213058809Y-150734819D02*
X212963571Y-150877676D01*
X212963571Y-150877676D02*
X212868333Y-150972914D01*
X212868333Y-150972914D02*
X212773095Y-151020533D01*
X214296904Y-151734819D02*
X213725476Y-151734819D01*
X214011190Y-151734819D02*
X214011190Y-150734819D01*
X214011190Y-150734819D02*
X213915952Y-150877676D01*
X213915952Y-150877676D02*
X213820714Y-150972914D01*
X213820714Y-150972914D02*
X213725476Y-151020533D01*
X209115819Y-48680666D02*
X208639628Y-49013999D01*
X209115819Y-49252094D02*
X208115819Y-49252094D01*
X208115819Y-49252094D02*
X208115819Y-48871142D01*
X208115819Y-48871142D02*
X208163438Y-48775904D01*
X208163438Y-48775904D02*
X208211057Y-48728285D01*
X208211057Y-48728285D02*
X208306295Y-48680666D01*
X208306295Y-48680666D02*
X208449152Y-48680666D01*
X208449152Y-48680666D02*
X208544390Y-48728285D01*
X208544390Y-48728285D02*
X208592009Y-48775904D01*
X208592009Y-48775904D02*
X208639628Y-48871142D01*
X208639628Y-48871142D02*
X208639628Y-49252094D01*
X208115819Y-47775904D02*
X208115819Y-48252094D01*
X208115819Y-48252094D02*
X208592009Y-48299713D01*
X208592009Y-48299713D02*
X208544390Y-48252094D01*
X208544390Y-48252094D02*
X208496771Y-48156856D01*
X208496771Y-48156856D02*
X208496771Y-47918761D01*
X208496771Y-47918761D02*
X208544390Y-47823523D01*
X208544390Y-47823523D02*
X208592009Y-47775904D01*
X208592009Y-47775904D02*
X208687247Y-47728285D01*
X208687247Y-47728285D02*
X208925342Y-47728285D01*
X208925342Y-47728285D02*
X209020580Y-47775904D01*
X209020580Y-47775904D02*
X209068200Y-47823523D01*
X209068200Y-47823523D02*
X209115819Y-47918761D01*
X209115819Y-47918761D02*
X209115819Y-48156856D01*
X209115819Y-48156856D02*
X209068200Y-48252094D01*
X209068200Y-48252094D02*
X209020580Y-48299713D01*
X228719821Y-59328094D02*
X227719821Y-59328094D01*
X227719821Y-59328094D02*
X227719821Y-59089999D01*
X227719821Y-59089999D02*
X227767440Y-58947142D01*
X227767440Y-58947142D02*
X227862678Y-58851904D01*
X227862678Y-58851904D02*
X227957916Y-58804285D01*
X227957916Y-58804285D02*
X228148392Y-58756666D01*
X228148392Y-58756666D02*
X228291249Y-58756666D01*
X228291249Y-58756666D02*
X228481725Y-58804285D01*
X228481725Y-58804285D02*
X228576963Y-58851904D01*
X228576963Y-58851904D02*
X228672202Y-58947142D01*
X228672202Y-58947142D02*
X228719821Y-59089999D01*
X228719821Y-59089999D02*
X228719821Y-59328094D01*
X227719821Y-57899523D02*
X227719821Y-58089999D01*
X227719821Y-58089999D02*
X227767440Y-58185237D01*
X227767440Y-58185237D02*
X227815059Y-58232856D01*
X227815059Y-58232856D02*
X227957916Y-58328094D01*
X227957916Y-58328094D02*
X228148392Y-58375713D01*
X228148392Y-58375713D02*
X228529344Y-58375713D01*
X228529344Y-58375713D02*
X228624582Y-58328094D01*
X228624582Y-58328094D02*
X228672202Y-58280475D01*
X228672202Y-58280475D02*
X228719821Y-58185237D01*
X228719821Y-58185237D02*
X228719821Y-57994761D01*
X228719821Y-57994761D02*
X228672202Y-57899523D01*
X228672202Y-57899523D02*
X228624582Y-57851904D01*
X228624582Y-57851904D02*
X228529344Y-57804285D01*
X228529344Y-57804285D02*
X228291249Y-57804285D01*
X228291249Y-57804285D02*
X228196011Y-57851904D01*
X228196011Y-57851904D02*
X228148392Y-57899523D01*
X228148392Y-57899523D02*
X228100773Y-57994761D01*
X228100773Y-57994761D02*
X228100773Y-58185237D01*
X228100773Y-58185237D02*
X228148392Y-58280475D01*
X228148392Y-58280475D02*
X228196011Y-58328094D01*
X228196011Y-58328094D02*
X228291249Y-58375713D01*
X169174319Y-48778666D02*
X168698128Y-49111999D01*
X169174319Y-49350094D02*
X168174319Y-49350094D01*
X168174319Y-49350094D02*
X168174319Y-48969142D01*
X168174319Y-48969142D02*
X168221938Y-48873904D01*
X168221938Y-48873904D02*
X168269557Y-48826285D01*
X168269557Y-48826285D02*
X168364795Y-48778666D01*
X168364795Y-48778666D02*
X168507652Y-48778666D01*
X168507652Y-48778666D02*
X168602890Y-48826285D01*
X168602890Y-48826285D02*
X168650509Y-48873904D01*
X168650509Y-48873904D02*
X168698128Y-48969142D01*
X168698128Y-48969142D02*
X168698128Y-49350094D01*
X168174319Y-48445332D02*
X168174319Y-47826285D01*
X168174319Y-47826285D02*
X168555271Y-48159618D01*
X168555271Y-48159618D02*
X168555271Y-48016761D01*
X168555271Y-48016761D02*
X168602890Y-47921523D01*
X168602890Y-47921523D02*
X168650509Y-47873904D01*
X168650509Y-47873904D02*
X168745747Y-47826285D01*
X168745747Y-47826285D02*
X168983842Y-47826285D01*
X168983842Y-47826285D02*
X169079080Y-47873904D01*
X169079080Y-47873904D02*
X169126700Y-47921523D01*
X169126700Y-47921523D02*
X169174319Y-48016761D01*
X169174319Y-48016761D02*
X169174319Y-48302475D01*
X169174319Y-48302475D02*
X169126700Y-48397713D01*
X169126700Y-48397713D02*
X169079080Y-48445332D01*
X124960142Y-143685419D02*
X124626809Y-143209228D01*
X124388714Y-143685419D02*
X124388714Y-142685419D01*
X124388714Y-142685419D02*
X124769666Y-142685419D01*
X124769666Y-142685419D02*
X124864904Y-142733038D01*
X124864904Y-142733038D02*
X124912523Y-142780657D01*
X124912523Y-142780657D02*
X124960142Y-142875895D01*
X124960142Y-142875895D02*
X124960142Y-143018752D01*
X124960142Y-143018752D02*
X124912523Y-143113990D01*
X124912523Y-143113990D02*
X124864904Y-143161609D01*
X124864904Y-143161609D02*
X124769666Y-143209228D01*
X124769666Y-143209228D02*
X124388714Y-143209228D01*
X125912523Y-143685419D02*
X125341095Y-143685419D01*
X125626809Y-143685419D02*
X125626809Y-142685419D01*
X125626809Y-142685419D02*
X125531571Y-142828276D01*
X125531571Y-142828276D02*
X125436333Y-142923514D01*
X125436333Y-142923514D02*
X125341095Y-142971133D01*
X126769666Y-142685419D02*
X126579190Y-142685419D01*
X126579190Y-142685419D02*
X126483952Y-142733038D01*
X126483952Y-142733038D02*
X126436333Y-142780657D01*
X126436333Y-142780657D02*
X126341095Y-142923514D01*
X126341095Y-142923514D02*
X126293476Y-143113990D01*
X126293476Y-143113990D02*
X126293476Y-143494942D01*
X126293476Y-143494942D02*
X126341095Y-143590180D01*
X126341095Y-143590180D02*
X126388714Y-143637800D01*
X126388714Y-143637800D02*
X126483952Y-143685419D01*
X126483952Y-143685419D02*
X126674428Y-143685419D01*
X126674428Y-143685419D02*
X126769666Y-143637800D01*
X126769666Y-143637800D02*
X126817285Y-143590180D01*
X126817285Y-143590180D02*
X126864904Y-143494942D01*
X126864904Y-143494942D02*
X126864904Y-143256847D01*
X126864904Y-143256847D02*
X126817285Y-143161609D01*
X126817285Y-143161609D02*
X126769666Y-143113990D01*
X126769666Y-143113990D02*
X126674428Y-143066371D01*
X126674428Y-143066371D02*
X126483952Y-143066371D01*
X126483952Y-143066371D02*
X126388714Y-143113990D01*
X126388714Y-143113990D02*
X126341095Y-143161609D01*
X126341095Y-143161609D02*
X126293476Y-143256847D01*
X174836907Y-43814818D02*
X174836907Y-42814818D01*
X174836907Y-42814818D02*
X175075002Y-42814818D01*
X175075002Y-42814818D02*
X175217859Y-42862437D01*
X175217859Y-42862437D02*
X175313097Y-42957675D01*
X175313097Y-42957675D02*
X175360716Y-43052913D01*
X175360716Y-43052913D02*
X175408335Y-43243389D01*
X175408335Y-43243389D02*
X175408335Y-43386246D01*
X175408335Y-43386246D02*
X175360716Y-43576722D01*
X175360716Y-43576722D02*
X175313097Y-43671960D01*
X175313097Y-43671960D02*
X175217859Y-43767199D01*
X175217859Y-43767199D02*
X175075002Y-43814818D01*
X175075002Y-43814818D02*
X174836907Y-43814818D01*
X175741669Y-42814818D02*
X176360716Y-42814818D01*
X176360716Y-42814818D02*
X176027383Y-43195770D01*
X176027383Y-43195770D02*
X176170240Y-43195770D01*
X176170240Y-43195770D02*
X176265478Y-43243389D01*
X176265478Y-43243389D02*
X176313097Y-43291008D01*
X176313097Y-43291008D02*
X176360716Y-43386246D01*
X176360716Y-43386246D02*
X176360716Y-43624341D01*
X176360716Y-43624341D02*
X176313097Y-43719579D01*
X176313097Y-43719579D02*
X176265478Y-43767199D01*
X176265478Y-43767199D02*
X176170240Y-43814818D01*
X176170240Y-43814818D02*
X175884526Y-43814818D01*
X175884526Y-43814818D02*
X175789288Y-43767199D01*
X175789288Y-43767199D02*
X175741669Y-43719579D01*
X131820714Y-151711819D02*
X131820714Y-150711819D01*
X131820714Y-150711819D02*
X132058809Y-150711819D01*
X132058809Y-150711819D02*
X132201666Y-150759438D01*
X132201666Y-150759438D02*
X132296904Y-150854676D01*
X132296904Y-150854676D02*
X132344523Y-150949914D01*
X132344523Y-150949914D02*
X132392142Y-151140390D01*
X132392142Y-151140390D02*
X132392142Y-151283247D01*
X132392142Y-151283247D02*
X132344523Y-151473723D01*
X132344523Y-151473723D02*
X132296904Y-151568961D01*
X132296904Y-151568961D02*
X132201666Y-151664200D01*
X132201666Y-151664200D02*
X132058809Y-151711819D01*
X132058809Y-151711819D02*
X131820714Y-151711819D01*
X133344523Y-151711819D02*
X132773095Y-151711819D01*
X133058809Y-151711819D02*
X133058809Y-150711819D01*
X133058809Y-150711819D02*
X132963571Y-150854676D01*
X132963571Y-150854676D02*
X132868333Y-150949914D01*
X132868333Y-150949914D02*
X132773095Y-150997533D01*
X134249285Y-150711819D02*
X133773095Y-150711819D01*
X133773095Y-150711819D02*
X133725476Y-151188009D01*
X133725476Y-151188009D02*
X133773095Y-151140390D01*
X133773095Y-151140390D02*
X133868333Y-151092771D01*
X133868333Y-151092771D02*
X134106428Y-151092771D01*
X134106428Y-151092771D02*
X134201666Y-151140390D01*
X134201666Y-151140390D02*
X134249285Y-151188009D01*
X134249285Y-151188009D02*
X134296904Y-151283247D01*
X134296904Y-151283247D02*
X134296904Y-151521342D01*
X134296904Y-151521342D02*
X134249285Y-151616580D01*
X134249285Y-151616580D02*
X134201666Y-151664200D01*
X134201666Y-151664200D02*
X134106428Y-151711819D01*
X134106428Y-151711819D02*
X133868333Y-151711819D01*
X133868333Y-151711819D02*
X133773095Y-151664200D01*
X133773095Y-151664200D02*
X133725476Y-151616580D01*
X129105819Y-48680666D02*
X128629628Y-49013999D01*
X129105819Y-49252094D02*
X128105819Y-49252094D01*
X128105819Y-49252094D02*
X128105819Y-48871142D01*
X128105819Y-48871142D02*
X128153438Y-48775904D01*
X128153438Y-48775904D02*
X128201057Y-48728285D01*
X128201057Y-48728285D02*
X128296295Y-48680666D01*
X128296295Y-48680666D02*
X128439152Y-48680666D01*
X128439152Y-48680666D02*
X128534390Y-48728285D01*
X128534390Y-48728285D02*
X128582009Y-48775904D01*
X128582009Y-48775904D02*
X128629628Y-48871142D01*
X128629628Y-48871142D02*
X128629628Y-49252094D01*
X129105819Y-47728285D02*
X129105819Y-48299713D01*
X129105819Y-48013999D02*
X128105819Y-48013999D01*
X128105819Y-48013999D02*
X128248676Y-48109237D01*
X128248676Y-48109237D02*
X128343914Y-48204475D01*
X128343914Y-48204475D02*
X128391533Y-48299713D01*
X222845333Y-51889819D02*
X222512000Y-51413628D01*
X222273905Y-51889819D02*
X222273905Y-50889819D01*
X222273905Y-50889819D02*
X222654857Y-50889819D01*
X222654857Y-50889819D02*
X222750095Y-50937438D01*
X222750095Y-50937438D02*
X222797714Y-50985057D01*
X222797714Y-50985057D02*
X222845333Y-51080295D01*
X222845333Y-51080295D02*
X222845333Y-51223152D01*
X222845333Y-51223152D02*
X222797714Y-51318390D01*
X222797714Y-51318390D02*
X222750095Y-51366009D01*
X222750095Y-51366009D02*
X222654857Y-51413628D01*
X222654857Y-51413628D02*
X222273905Y-51413628D01*
X223702476Y-50889819D02*
X223512000Y-50889819D01*
X223512000Y-50889819D02*
X223416762Y-50937438D01*
X223416762Y-50937438D02*
X223369143Y-50985057D01*
X223369143Y-50985057D02*
X223273905Y-51127914D01*
X223273905Y-51127914D02*
X223226286Y-51318390D01*
X223226286Y-51318390D02*
X223226286Y-51699342D01*
X223226286Y-51699342D02*
X223273905Y-51794580D01*
X223273905Y-51794580D02*
X223321524Y-51842200D01*
X223321524Y-51842200D02*
X223416762Y-51889819D01*
X223416762Y-51889819D02*
X223607238Y-51889819D01*
X223607238Y-51889819D02*
X223702476Y-51842200D01*
X223702476Y-51842200D02*
X223750095Y-51794580D01*
X223750095Y-51794580D02*
X223797714Y-51699342D01*
X223797714Y-51699342D02*
X223797714Y-51461247D01*
X223797714Y-51461247D02*
X223750095Y-51366009D01*
X223750095Y-51366009D02*
X223702476Y-51318390D01*
X223702476Y-51318390D02*
X223607238Y-51270771D01*
X223607238Y-51270771D02*
X223416762Y-51270771D01*
X223416762Y-51270771D02*
X223321524Y-51318390D01*
X223321524Y-51318390D02*
X223273905Y-51366009D01*
X223273905Y-51366009D02*
X223226286Y-51461247D01*
X220672819Y-146692857D02*
X220196628Y-147026190D01*
X220672819Y-147264285D02*
X219672819Y-147264285D01*
X219672819Y-147264285D02*
X219672819Y-146883333D01*
X219672819Y-146883333D02*
X219720438Y-146788095D01*
X219720438Y-146788095D02*
X219768057Y-146740476D01*
X219768057Y-146740476D02*
X219863295Y-146692857D01*
X219863295Y-146692857D02*
X220006152Y-146692857D01*
X220006152Y-146692857D02*
X220101390Y-146740476D01*
X220101390Y-146740476D02*
X220149009Y-146788095D01*
X220149009Y-146788095D02*
X220196628Y-146883333D01*
X220196628Y-146883333D02*
X220196628Y-147264285D01*
X220672819Y-145740476D02*
X220672819Y-146311904D01*
X220672819Y-146026190D02*
X219672819Y-146026190D01*
X219672819Y-146026190D02*
X219815676Y-146121428D01*
X219815676Y-146121428D02*
X219910914Y-146216666D01*
X219910914Y-146216666D02*
X219958533Y-146311904D01*
X220672819Y-144788095D02*
X220672819Y-145359523D01*
X220672819Y-145073809D02*
X219672819Y-145073809D01*
X219672819Y-145073809D02*
X219815676Y-145169047D01*
X219815676Y-145169047D02*
X219910914Y-145264285D01*
X219910914Y-145264285D02*
X219958533Y-145359523D01*
X228719821Y-79328094D02*
X227719821Y-79328094D01*
X227719821Y-79328094D02*
X227719821Y-79089999D01*
X227719821Y-79089999D02*
X227767440Y-78947142D01*
X227767440Y-78947142D02*
X227862678Y-78851904D01*
X227862678Y-78851904D02*
X227957916Y-78804285D01*
X227957916Y-78804285D02*
X228148392Y-78756666D01*
X228148392Y-78756666D02*
X228291249Y-78756666D01*
X228291249Y-78756666D02*
X228481725Y-78804285D01*
X228481725Y-78804285D02*
X228576963Y-78851904D01*
X228576963Y-78851904D02*
X228672202Y-78947142D01*
X228672202Y-78947142D02*
X228719821Y-79089999D01*
X228719821Y-79089999D02*
X228719821Y-79328094D01*
X227719821Y-78423332D02*
X227719821Y-77756666D01*
X227719821Y-77756666D02*
X228719821Y-78185237D01*
X194836907Y-43814818D02*
X194836907Y-42814818D01*
X194836907Y-42814818D02*
X195075002Y-42814818D01*
X195075002Y-42814818D02*
X195217859Y-42862437D01*
X195217859Y-42862437D02*
X195313097Y-42957675D01*
X195313097Y-42957675D02*
X195360716Y-43052913D01*
X195360716Y-43052913D02*
X195408335Y-43243389D01*
X195408335Y-43243389D02*
X195408335Y-43386246D01*
X195408335Y-43386246D02*
X195360716Y-43576722D01*
X195360716Y-43576722D02*
X195313097Y-43671960D01*
X195313097Y-43671960D02*
X195217859Y-43767199D01*
X195217859Y-43767199D02*
X195075002Y-43814818D01*
X195075002Y-43814818D02*
X194836907Y-43814818D01*
X196265478Y-43148151D02*
X196265478Y-43814818D01*
X196027383Y-42767199D02*
X195789288Y-43481484D01*
X195789288Y-43481484D02*
X196408335Y-43481484D01*
X120799819Y-77264284D02*
X119799819Y-77264284D01*
X119799819Y-77264284D02*
X119799819Y-77026189D01*
X119799819Y-77026189D02*
X119847438Y-76883332D01*
X119847438Y-76883332D02*
X119942676Y-76788094D01*
X119942676Y-76788094D02*
X120037914Y-76740475D01*
X120037914Y-76740475D02*
X120228390Y-76692856D01*
X120228390Y-76692856D02*
X120371247Y-76692856D01*
X120371247Y-76692856D02*
X120561723Y-76740475D01*
X120561723Y-76740475D02*
X120656961Y-76788094D01*
X120656961Y-76788094D02*
X120752200Y-76883332D01*
X120752200Y-76883332D02*
X120799819Y-77026189D01*
X120799819Y-77026189D02*
X120799819Y-77264284D01*
X120799819Y-75740475D02*
X120799819Y-76311903D01*
X120799819Y-76026189D02*
X119799819Y-76026189D01*
X119799819Y-76026189D02*
X119942676Y-76121427D01*
X119942676Y-76121427D02*
X120037914Y-76216665D01*
X120037914Y-76216665D02*
X120085533Y-76311903D01*
X120799819Y-75264284D02*
X120799819Y-75073808D01*
X120799819Y-75073808D02*
X120752200Y-74978570D01*
X120752200Y-74978570D02*
X120704580Y-74930951D01*
X120704580Y-74930951D02*
X120561723Y-74835713D01*
X120561723Y-74835713D02*
X120371247Y-74788094D01*
X120371247Y-74788094D02*
X119990295Y-74788094D01*
X119990295Y-74788094D02*
X119895057Y-74835713D01*
X119895057Y-74835713D02*
X119847438Y-74883332D01*
X119847438Y-74883332D02*
X119799819Y-74978570D01*
X119799819Y-74978570D02*
X119799819Y-75169046D01*
X119799819Y-75169046D02*
X119847438Y-75264284D01*
X119847438Y-75264284D02*
X119895057Y-75311903D01*
X119895057Y-75311903D02*
X119990295Y-75359522D01*
X119990295Y-75359522D02*
X120228390Y-75359522D01*
X120228390Y-75359522D02*
X120323628Y-75311903D01*
X120323628Y-75311903D02*
X120371247Y-75264284D01*
X120371247Y-75264284D02*
X120418866Y-75169046D01*
X120418866Y-75169046D02*
X120418866Y-74978570D01*
X120418866Y-74978570D02*
X120371247Y-74883332D01*
X120371247Y-74883332D02*
X120323628Y-74835713D01*
X120323628Y-74835713D02*
X120228390Y-74788094D01*
X140662819Y-146692857D02*
X140186628Y-147026190D01*
X140662819Y-147264285D02*
X139662819Y-147264285D01*
X139662819Y-147264285D02*
X139662819Y-146883333D01*
X139662819Y-146883333D02*
X139710438Y-146788095D01*
X139710438Y-146788095D02*
X139758057Y-146740476D01*
X139758057Y-146740476D02*
X139853295Y-146692857D01*
X139853295Y-146692857D02*
X139996152Y-146692857D01*
X139996152Y-146692857D02*
X140091390Y-146740476D01*
X140091390Y-146740476D02*
X140139009Y-146788095D01*
X140139009Y-146788095D02*
X140186628Y-146883333D01*
X140186628Y-146883333D02*
X140186628Y-147264285D01*
X140662819Y-145740476D02*
X140662819Y-146311904D01*
X140662819Y-146026190D02*
X139662819Y-146026190D01*
X139662819Y-146026190D02*
X139805676Y-146121428D01*
X139805676Y-146121428D02*
X139900914Y-146216666D01*
X139900914Y-146216666D02*
X139948533Y-146311904D01*
X139662819Y-144835714D02*
X139662819Y-145311904D01*
X139662819Y-145311904D02*
X140139009Y-145359523D01*
X140139009Y-145359523D02*
X140091390Y-145311904D01*
X140091390Y-145311904D02*
X140043771Y-145216666D01*
X140043771Y-145216666D02*
X140043771Y-144978571D01*
X140043771Y-144978571D02*
X140091390Y-144883333D01*
X140091390Y-144883333D02*
X140139009Y-144835714D01*
X140139009Y-144835714D02*
X140234247Y-144788095D01*
X140234247Y-144788095D02*
X140472342Y-144788095D01*
X140472342Y-144788095D02*
X140567580Y-144835714D01*
X140567580Y-144835714D02*
X140615200Y-144883333D01*
X140615200Y-144883333D02*
X140662819Y-144978571D01*
X140662819Y-144978571D02*
X140662819Y-145216666D01*
X140662819Y-145216666D02*
X140615200Y-145311904D01*
X140615200Y-145311904D02*
X140567580Y-145359523D01*
X120877819Y-137264284D02*
X119877819Y-137264284D01*
X119877819Y-137264284D02*
X119877819Y-137026189D01*
X119877819Y-137026189D02*
X119925438Y-136883332D01*
X119925438Y-136883332D02*
X120020676Y-136788094D01*
X120020676Y-136788094D02*
X120115914Y-136740475D01*
X120115914Y-136740475D02*
X120306390Y-136692856D01*
X120306390Y-136692856D02*
X120449247Y-136692856D01*
X120449247Y-136692856D02*
X120639723Y-136740475D01*
X120639723Y-136740475D02*
X120734961Y-136788094D01*
X120734961Y-136788094D02*
X120830200Y-136883332D01*
X120830200Y-136883332D02*
X120877819Y-137026189D01*
X120877819Y-137026189D02*
X120877819Y-137264284D01*
X120877819Y-135740475D02*
X120877819Y-136311903D01*
X120877819Y-136026189D02*
X119877819Y-136026189D01*
X119877819Y-136026189D02*
X120020676Y-136121427D01*
X120020676Y-136121427D02*
X120115914Y-136216665D01*
X120115914Y-136216665D02*
X120163533Y-136311903D01*
X119877819Y-134883332D02*
X119877819Y-135073808D01*
X119877819Y-135073808D02*
X119925438Y-135169046D01*
X119925438Y-135169046D02*
X119973057Y-135216665D01*
X119973057Y-135216665D02*
X120115914Y-135311903D01*
X120115914Y-135311903D02*
X120306390Y-135359522D01*
X120306390Y-135359522D02*
X120687342Y-135359522D01*
X120687342Y-135359522D02*
X120782580Y-135311903D01*
X120782580Y-135311903D02*
X120830200Y-135264284D01*
X120830200Y-135264284D02*
X120877819Y-135169046D01*
X120877819Y-135169046D02*
X120877819Y-134978570D01*
X120877819Y-134978570D02*
X120830200Y-134883332D01*
X120830200Y-134883332D02*
X120782580Y-134835713D01*
X120782580Y-134835713D02*
X120687342Y-134788094D01*
X120687342Y-134788094D02*
X120449247Y-134788094D01*
X120449247Y-134788094D02*
X120354009Y-134835713D01*
X120354009Y-134835713D02*
X120306390Y-134883332D01*
X120306390Y-134883332D02*
X120258771Y-134978570D01*
X120258771Y-134978570D02*
X120258771Y-135169046D01*
X120258771Y-135169046D02*
X120306390Y-135264284D01*
X120306390Y-135264284D02*
X120354009Y-135311903D01*
X120354009Y-135311903D02*
X120449247Y-135359522D01*
X124960142Y-83677919D02*
X124626809Y-83201728D01*
X124388714Y-83677919D02*
X124388714Y-82677919D01*
X124388714Y-82677919D02*
X124769666Y-82677919D01*
X124769666Y-82677919D02*
X124864904Y-82725538D01*
X124864904Y-82725538D02*
X124912523Y-82773157D01*
X124912523Y-82773157D02*
X124960142Y-82868395D01*
X124960142Y-82868395D02*
X124960142Y-83011252D01*
X124960142Y-83011252D02*
X124912523Y-83106490D01*
X124912523Y-83106490D02*
X124864904Y-83154109D01*
X124864904Y-83154109D02*
X124769666Y-83201728D01*
X124769666Y-83201728D02*
X124388714Y-83201728D01*
X125912523Y-83677919D02*
X125341095Y-83677919D01*
X125626809Y-83677919D02*
X125626809Y-82677919D01*
X125626809Y-82677919D02*
X125531571Y-82820776D01*
X125531571Y-82820776D02*
X125436333Y-82916014D01*
X125436333Y-82916014D02*
X125341095Y-82963633D01*
X126388714Y-83677919D02*
X126579190Y-83677919D01*
X126579190Y-83677919D02*
X126674428Y-83630300D01*
X126674428Y-83630300D02*
X126722047Y-83582680D01*
X126722047Y-83582680D02*
X126817285Y-83439823D01*
X126817285Y-83439823D02*
X126864904Y-83249347D01*
X126864904Y-83249347D02*
X126864904Y-82868395D01*
X126864904Y-82868395D02*
X126817285Y-82773157D01*
X126817285Y-82773157D02*
X126769666Y-82725538D01*
X126769666Y-82725538D02*
X126674428Y-82677919D01*
X126674428Y-82677919D02*
X126483952Y-82677919D01*
X126483952Y-82677919D02*
X126388714Y-82725538D01*
X126388714Y-82725538D02*
X126341095Y-82773157D01*
X126341095Y-82773157D02*
X126293476Y-82868395D01*
X126293476Y-82868395D02*
X126293476Y-83106490D01*
X126293476Y-83106490D02*
X126341095Y-83201728D01*
X126341095Y-83201728D02*
X126388714Y-83249347D01*
X126388714Y-83249347D02*
X126483952Y-83296966D01*
X126483952Y-83296966D02*
X126674428Y-83296966D01*
X126674428Y-83296966D02*
X126769666Y-83249347D01*
X126769666Y-83249347D02*
X126817285Y-83201728D01*
X126817285Y-83201728D02*
X126864904Y-83106490D01*
X222369142Y-131899819D02*
X222035809Y-131423628D01*
X221797714Y-131899819D02*
X221797714Y-130899819D01*
X221797714Y-130899819D02*
X222178666Y-130899819D01*
X222178666Y-130899819D02*
X222273904Y-130947438D01*
X222273904Y-130947438D02*
X222321523Y-130995057D01*
X222321523Y-130995057D02*
X222369142Y-131090295D01*
X222369142Y-131090295D02*
X222369142Y-131233152D01*
X222369142Y-131233152D02*
X222321523Y-131328390D01*
X222321523Y-131328390D02*
X222273904Y-131376009D01*
X222273904Y-131376009D02*
X222178666Y-131423628D01*
X222178666Y-131423628D02*
X221797714Y-131423628D01*
X223321523Y-131899819D02*
X222750095Y-131899819D01*
X223035809Y-131899819D02*
X223035809Y-130899819D01*
X223035809Y-130899819D02*
X222940571Y-131042676D01*
X222940571Y-131042676D02*
X222845333Y-131137914D01*
X222845333Y-131137914D02*
X222750095Y-131185533D01*
X223940571Y-130899819D02*
X224035809Y-130899819D01*
X224035809Y-130899819D02*
X224131047Y-130947438D01*
X224131047Y-130947438D02*
X224178666Y-130995057D01*
X224178666Y-130995057D02*
X224226285Y-131090295D01*
X224226285Y-131090295D02*
X224273904Y-131280771D01*
X224273904Y-131280771D02*
X224273904Y-131518866D01*
X224273904Y-131518866D02*
X224226285Y-131709342D01*
X224226285Y-131709342D02*
X224178666Y-131804580D01*
X224178666Y-131804580D02*
X224131047Y-131852200D01*
X224131047Y-131852200D02*
X224035809Y-131899819D01*
X224035809Y-131899819D02*
X223940571Y-131899819D01*
X223940571Y-131899819D02*
X223845333Y-131852200D01*
X223845333Y-131852200D02*
X223797714Y-131804580D01*
X223797714Y-131804580D02*
X223750095Y-131709342D01*
X223750095Y-131709342D02*
X223702476Y-131518866D01*
X223702476Y-131518866D02*
X223702476Y-131280771D01*
X223702476Y-131280771D02*
X223750095Y-131090295D01*
X223750095Y-131090295D02*
X223797714Y-130995057D01*
X223797714Y-130995057D02*
X223845333Y-130947438D01*
X223845333Y-130947438D02*
X223940571Y-130899819D01*
X228719821Y-139804285D02*
X227719821Y-139804285D01*
X227719821Y-139804285D02*
X227719821Y-139566190D01*
X227719821Y-139566190D02*
X227767440Y-139423333D01*
X227767440Y-139423333D02*
X227862678Y-139328095D01*
X227862678Y-139328095D02*
X227957916Y-139280476D01*
X227957916Y-139280476D02*
X228148392Y-139232857D01*
X228148392Y-139232857D02*
X228291249Y-139232857D01*
X228291249Y-139232857D02*
X228481725Y-139280476D01*
X228481725Y-139280476D02*
X228576963Y-139328095D01*
X228576963Y-139328095D02*
X228672202Y-139423333D01*
X228672202Y-139423333D02*
X228719821Y-139566190D01*
X228719821Y-139566190D02*
X228719821Y-139804285D01*
X228719821Y-138280476D02*
X228719821Y-138851904D01*
X228719821Y-138566190D02*
X227719821Y-138566190D01*
X227719821Y-138566190D02*
X227862678Y-138661428D01*
X227862678Y-138661428D02*
X227957916Y-138756666D01*
X227957916Y-138756666D02*
X228005535Y-138851904D01*
X227719821Y-137661428D02*
X227719821Y-137566190D01*
X227719821Y-137566190D02*
X227767440Y-137470952D01*
X227767440Y-137470952D02*
X227815059Y-137423333D01*
X227815059Y-137423333D02*
X227910297Y-137375714D01*
X227910297Y-137375714D02*
X228100773Y-137328095D01*
X228100773Y-137328095D02*
X228338868Y-137328095D01*
X228338868Y-137328095D02*
X228529344Y-137375714D01*
X228529344Y-137375714D02*
X228624582Y-137423333D01*
X228624582Y-137423333D02*
X228672202Y-137470952D01*
X228672202Y-137470952D02*
X228719821Y-137566190D01*
X228719821Y-137566190D02*
X228719821Y-137661428D01*
X228719821Y-137661428D02*
X228672202Y-137756666D01*
X228672202Y-137756666D02*
X228624582Y-137804285D01*
X228624582Y-137804285D02*
X228529344Y-137851904D01*
X228529344Y-137851904D02*
X228338868Y-137899523D01*
X228338868Y-137899523D02*
X228100773Y-137899523D01*
X228100773Y-137899523D02*
X227910297Y-137851904D01*
X227910297Y-137851904D02*
X227815059Y-137804285D01*
X227815059Y-137804285D02*
X227767440Y-137756666D01*
X227767440Y-137756666D02*
X227719821Y-137661428D01*
X149044819Y-48680666D02*
X148568628Y-49013999D01*
X149044819Y-49252094D02*
X148044819Y-49252094D01*
X148044819Y-49252094D02*
X148044819Y-48871142D01*
X148044819Y-48871142D02*
X148092438Y-48775904D01*
X148092438Y-48775904D02*
X148140057Y-48728285D01*
X148140057Y-48728285D02*
X148235295Y-48680666D01*
X148235295Y-48680666D02*
X148378152Y-48680666D01*
X148378152Y-48680666D02*
X148473390Y-48728285D01*
X148473390Y-48728285D02*
X148521009Y-48775904D01*
X148521009Y-48775904D02*
X148568628Y-48871142D01*
X148568628Y-48871142D02*
X148568628Y-49252094D01*
X148140057Y-48299713D02*
X148092438Y-48252094D01*
X148092438Y-48252094D02*
X148044819Y-48156856D01*
X148044819Y-48156856D02*
X148044819Y-47918761D01*
X148044819Y-47918761D02*
X148092438Y-47823523D01*
X148092438Y-47823523D02*
X148140057Y-47775904D01*
X148140057Y-47775904D02*
X148235295Y-47728285D01*
X148235295Y-47728285D02*
X148330533Y-47728285D01*
X148330533Y-47728285D02*
X148473390Y-47775904D01*
X148473390Y-47775904D02*
X149044819Y-48347332D01*
X149044819Y-48347332D02*
X149044819Y-47728285D01*
X124960142Y-63675419D02*
X124626809Y-63199228D01*
X124388714Y-63675419D02*
X124388714Y-62675419D01*
X124388714Y-62675419D02*
X124769666Y-62675419D01*
X124769666Y-62675419D02*
X124864904Y-62723038D01*
X124864904Y-62723038D02*
X124912523Y-62770657D01*
X124912523Y-62770657D02*
X124960142Y-62865895D01*
X124960142Y-62865895D02*
X124960142Y-63008752D01*
X124960142Y-63008752D02*
X124912523Y-63103990D01*
X124912523Y-63103990D02*
X124864904Y-63151609D01*
X124864904Y-63151609D02*
X124769666Y-63199228D01*
X124769666Y-63199228D02*
X124388714Y-63199228D01*
X125341095Y-62770657D02*
X125388714Y-62723038D01*
X125388714Y-62723038D02*
X125483952Y-62675419D01*
X125483952Y-62675419D02*
X125722047Y-62675419D01*
X125722047Y-62675419D02*
X125817285Y-62723038D01*
X125817285Y-62723038D02*
X125864904Y-62770657D01*
X125864904Y-62770657D02*
X125912523Y-62865895D01*
X125912523Y-62865895D02*
X125912523Y-62961133D01*
X125912523Y-62961133D02*
X125864904Y-63103990D01*
X125864904Y-63103990D02*
X125293476Y-63675419D01*
X125293476Y-63675419D02*
X125912523Y-63675419D01*
X126531571Y-62675419D02*
X126626809Y-62675419D01*
X126626809Y-62675419D02*
X126722047Y-62723038D01*
X126722047Y-62723038D02*
X126769666Y-62770657D01*
X126769666Y-62770657D02*
X126817285Y-62865895D01*
X126817285Y-62865895D02*
X126864904Y-63056371D01*
X126864904Y-63056371D02*
X126864904Y-63294466D01*
X126864904Y-63294466D02*
X126817285Y-63484942D01*
X126817285Y-63484942D02*
X126769666Y-63580180D01*
X126769666Y-63580180D02*
X126722047Y-63627800D01*
X126722047Y-63627800D02*
X126626809Y-63675419D01*
X126626809Y-63675419D02*
X126531571Y-63675419D01*
X126531571Y-63675419D02*
X126436333Y-63627800D01*
X126436333Y-63627800D02*
X126388714Y-63580180D01*
X126388714Y-63580180D02*
X126341095Y-63484942D01*
X126341095Y-63484942D02*
X126293476Y-63294466D01*
X126293476Y-63294466D02*
X126293476Y-63056371D01*
X126293476Y-63056371D02*
X126341095Y-62865895D01*
X126341095Y-62865895D02*
X126388714Y-62770657D01*
X126388714Y-62770657D02*
X126436333Y-62723038D01*
X126436333Y-62723038D02*
X126531571Y-62675419D01*
X228719821Y-119328094D02*
X227719821Y-119328094D01*
X227719821Y-119328094D02*
X227719821Y-119089999D01*
X227719821Y-119089999D02*
X227767440Y-118947142D01*
X227767440Y-118947142D02*
X227862678Y-118851904D01*
X227862678Y-118851904D02*
X227957916Y-118804285D01*
X227957916Y-118804285D02*
X228148392Y-118756666D01*
X228148392Y-118756666D02*
X228291249Y-118756666D01*
X228291249Y-118756666D02*
X228481725Y-118804285D01*
X228481725Y-118804285D02*
X228576963Y-118851904D01*
X228576963Y-118851904D02*
X228672202Y-118947142D01*
X228672202Y-118947142D02*
X228719821Y-119089999D01*
X228719821Y-119089999D02*
X228719821Y-119328094D01*
X228719821Y-118280475D02*
X228719821Y-118089999D01*
X228719821Y-118089999D02*
X228672202Y-117994761D01*
X228672202Y-117994761D02*
X228624582Y-117947142D01*
X228624582Y-117947142D02*
X228481725Y-117851904D01*
X228481725Y-117851904D02*
X228291249Y-117804285D01*
X228291249Y-117804285D02*
X227910297Y-117804285D01*
X227910297Y-117804285D02*
X227815059Y-117851904D01*
X227815059Y-117851904D02*
X227767440Y-117899523D01*
X227767440Y-117899523D02*
X227719821Y-117994761D01*
X227719821Y-117994761D02*
X227719821Y-118185237D01*
X227719821Y-118185237D02*
X227767440Y-118280475D01*
X227767440Y-118280475D02*
X227815059Y-118328094D01*
X227815059Y-118328094D02*
X227910297Y-118375713D01*
X227910297Y-118375713D02*
X228148392Y-118375713D01*
X228148392Y-118375713D02*
X228243630Y-118328094D01*
X228243630Y-118328094D02*
X228291249Y-118280475D01*
X228291249Y-118280475D02*
X228338868Y-118185237D01*
X228338868Y-118185237D02*
X228338868Y-117994761D01*
X228338868Y-117994761D02*
X228291249Y-117899523D01*
X228291249Y-117899523D02*
X228243630Y-117851904D01*
X228243630Y-117851904D02*
X228148392Y-117804285D01*
X222845333Y-91894819D02*
X222512000Y-91418628D01*
X222273905Y-91894819D02*
X222273905Y-90894819D01*
X222273905Y-90894819D02*
X222654857Y-90894819D01*
X222654857Y-90894819D02*
X222750095Y-90942438D01*
X222750095Y-90942438D02*
X222797714Y-90990057D01*
X222797714Y-90990057D02*
X222845333Y-91085295D01*
X222845333Y-91085295D02*
X222845333Y-91228152D01*
X222845333Y-91228152D02*
X222797714Y-91323390D01*
X222797714Y-91323390D02*
X222750095Y-91371009D01*
X222750095Y-91371009D02*
X222654857Y-91418628D01*
X222654857Y-91418628D02*
X222273905Y-91418628D01*
X223416762Y-91323390D02*
X223321524Y-91275771D01*
X223321524Y-91275771D02*
X223273905Y-91228152D01*
X223273905Y-91228152D02*
X223226286Y-91132914D01*
X223226286Y-91132914D02*
X223226286Y-91085295D01*
X223226286Y-91085295D02*
X223273905Y-90990057D01*
X223273905Y-90990057D02*
X223321524Y-90942438D01*
X223321524Y-90942438D02*
X223416762Y-90894819D01*
X223416762Y-90894819D02*
X223607238Y-90894819D01*
X223607238Y-90894819D02*
X223702476Y-90942438D01*
X223702476Y-90942438D02*
X223750095Y-90990057D01*
X223750095Y-90990057D02*
X223797714Y-91085295D01*
X223797714Y-91085295D02*
X223797714Y-91132914D01*
X223797714Y-91132914D02*
X223750095Y-91228152D01*
X223750095Y-91228152D02*
X223702476Y-91275771D01*
X223702476Y-91275771D02*
X223607238Y-91323390D01*
X223607238Y-91323390D02*
X223416762Y-91323390D01*
X223416762Y-91323390D02*
X223321524Y-91371009D01*
X223321524Y-91371009D02*
X223273905Y-91418628D01*
X223273905Y-91418628D02*
X223226286Y-91513866D01*
X223226286Y-91513866D02*
X223226286Y-91704342D01*
X223226286Y-91704342D02*
X223273905Y-91799580D01*
X223273905Y-91799580D02*
X223321524Y-91847200D01*
X223321524Y-91847200D02*
X223416762Y-91894819D01*
X223416762Y-91894819D02*
X223607238Y-91894819D01*
X223607238Y-91894819D02*
X223702476Y-91847200D01*
X223702476Y-91847200D02*
X223750095Y-91799580D01*
X223750095Y-91799580D02*
X223797714Y-91704342D01*
X223797714Y-91704342D02*
X223797714Y-91513866D01*
X223797714Y-91513866D02*
X223750095Y-91418628D01*
X223750095Y-91418628D02*
X223702476Y-91371009D01*
X223702476Y-91371009D02*
X223607238Y-91323390D01*
X120799819Y-57264284D02*
X119799819Y-57264284D01*
X119799819Y-57264284D02*
X119799819Y-57026189D01*
X119799819Y-57026189D02*
X119847438Y-56883332D01*
X119847438Y-56883332D02*
X119942676Y-56788094D01*
X119942676Y-56788094D02*
X120037914Y-56740475D01*
X120037914Y-56740475D02*
X120228390Y-56692856D01*
X120228390Y-56692856D02*
X120371247Y-56692856D01*
X120371247Y-56692856D02*
X120561723Y-56740475D01*
X120561723Y-56740475D02*
X120656961Y-56788094D01*
X120656961Y-56788094D02*
X120752200Y-56883332D01*
X120752200Y-56883332D02*
X120799819Y-57026189D01*
X120799819Y-57026189D02*
X120799819Y-57264284D01*
X119895057Y-56311903D02*
X119847438Y-56264284D01*
X119847438Y-56264284D02*
X119799819Y-56169046D01*
X119799819Y-56169046D02*
X119799819Y-55930951D01*
X119799819Y-55930951D02*
X119847438Y-55835713D01*
X119847438Y-55835713D02*
X119895057Y-55788094D01*
X119895057Y-55788094D02*
X119990295Y-55740475D01*
X119990295Y-55740475D02*
X120085533Y-55740475D01*
X120085533Y-55740475D02*
X120228390Y-55788094D01*
X120228390Y-55788094D02*
X120799819Y-56359522D01*
X120799819Y-56359522D02*
X120799819Y-55740475D01*
X119799819Y-55121427D02*
X119799819Y-55026189D01*
X119799819Y-55026189D02*
X119847438Y-54930951D01*
X119847438Y-54930951D02*
X119895057Y-54883332D01*
X119895057Y-54883332D02*
X119990295Y-54835713D01*
X119990295Y-54835713D02*
X120180771Y-54788094D01*
X120180771Y-54788094D02*
X120418866Y-54788094D01*
X120418866Y-54788094D02*
X120609342Y-54835713D01*
X120609342Y-54835713D02*
X120704580Y-54883332D01*
X120704580Y-54883332D02*
X120752200Y-54930951D01*
X120752200Y-54930951D02*
X120799819Y-55026189D01*
X120799819Y-55026189D02*
X120799819Y-55121427D01*
X120799819Y-55121427D02*
X120752200Y-55216665D01*
X120752200Y-55216665D02*
X120704580Y-55264284D01*
X120704580Y-55264284D02*
X120609342Y-55311903D01*
X120609342Y-55311903D02*
X120418866Y-55359522D01*
X120418866Y-55359522D02*
X120180771Y-55359522D01*
X120180771Y-55359522D02*
X119990295Y-55311903D01*
X119990295Y-55311903D02*
X119895057Y-55264284D01*
X119895057Y-55264284D02*
X119847438Y-55216665D01*
X119847438Y-55216665D02*
X119799819Y-55121427D01*
X124960142Y-103680419D02*
X124626809Y-103204228D01*
X124388714Y-103680419D02*
X124388714Y-102680419D01*
X124388714Y-102680419D02*
X124769666Y-102680419D01*
X124769666Y-102680419D02*
X124864904Y-102728038D01*
X124864904Y-102728038D02*
X124912523Y-102775657D01*
X124912523Y-102775657D02*
X124960142Y-102870895D01*
X124960142Y-102870895D02*
X124960142Y-103013752D01*
X124960142Y-103013752D02*
X124912523Y-103108990D01*
X124912523Y-103108990D02*
X124864904Y-103156609D01*
X124864904Y-103156609D02*
X124769666Y-103204228D01*
X124769666Y-103204228D02*
X124388714Y-103204228D01*
X125912523Y-103680419D02*
X125341095Y-103680419D01*
X125626809Y-103680419D02*
X125626809Y-102680419D01*
X125626809Y-102680419D02*
X125531571Y-102823276D01*
X125531571Y-102823276D02*
X125436333Y-102918514D01*
X125436333Y-102918514D02*
X125341095Y-102966133D01*
X126483952Y-103108990D02*
X126388714Y-103061371D01*
X126388714Y-103061371D02*
X126341095Y-103013752D01*
X126341095Y-103013752D02*
X126293476Y-102918514D01*
X126293476Y-102918514D02*
X126293476Y-102870895D01*
X126293476Y-102870895D02*
X126341095Y-102775657D01*
X126341095Y-102775657D02*
X126388714Y-102728038D01*
X126388714Y-102728038D02*
X126483952Y-102680419D01*
X126483952Y-102680419D02*
X126674428Y-102680419D01*
X126674428Y-102680419D02*
X126769666Y-102728038D01*
X126769666Y-102728038D02*
X126817285Y-102775657D01*
X126817285Y-102775657D02*
X126864904Y-102870895D01*
X126864904Y-102870895D02*
X126864904Y-102918514D01*
X126864904Y-102918514D02*
X126817285Y-103013752D01*
X126817285Y-103013752D02*
X126769666Y-103061371D01*
X126769666Y-103061371D02*
X126674428Y-103108990D01*
X126674428Y-103108990D02*
X126483952Y-103108990D01*
X126483952Y-103108990D02*
X126388714Y-103156609D01*
X126388714Y-103156609D02*
X126341095Y-103204228D01*
X126341095Y-103204228D02*
X126293476Y-103299466D01*
X126293476Y-103299466D02*
X126293476Y-103489942D01*
X126293476Y-103489942D02*
X126341095Y-103585180D01*
X126341095Y-103585180D02*
X126388714Y-103632800D01*
X126388714Y-103632800D02*
X126483952Y-103680419D01*
X126483952Y-103680419D02*
X126674428Y-103680419D01*
X126674428Y-103680419D02*
X126769666Y-103632800D01*
X126769666Y-103632800D02*
X126817285Y-103585180D01*
X126817285Y-103585180D02*
X126864904Y-103489942D01*
X126864904Y-103489942D02*
X126864904Y-103299466D01*
X126864904Y-103299466D02*
X126817285Y-103204228D01*
X126817285Y-103204228D02*
X126769666Y-103156609D01*
X126769666Y-103156609D02*
X126674428Y-103108990D01*
X180667819Y-146692857D02*
X180191628Y-147026190D01*
X180667819Y-147264285D02*
X179667819Y-147264285D01*
X179667819Y-147264285D02*
X179667819Y-146883333D01*
X179667819Y-146883333D02*
X179715438Y-146788095D01*
X179715438Y-146788095D02*
X179763057Y-146740476D01*
X179763057Y-146740476D02*
X179858295Y-146692857D01*
X179858295Y-146692857D02*
X180001152Y-146692857D01*
X180001152Y-146692857D02*
X180096390Y-146740476D01*
X180096390Y-146740476D02*
X180144009Y-146788095D01*
X180144009Y-146788095D02*
X180191628Y-146883333D01*
X180191628Y-146883333D02*
X180191628Y-147264285D01*
X180667819Y-145740476D02*
X180667819Y-146311904D01*
X180667819Y-146026190D02*
X179667819Y-146026190D01*
X179667819Y-146026190D02*
X179810676Y-146121428D01*
X179810676Y-146121428D02*
X179905914Y-146216666D01*
X179905914Y-146216666D02*
X179953533Y-146311904D01*
X179667819Y-145407142D02*
X179667819Y-144788095D01*
X179667819Y-144788095D02*
X180048771Y-145121428D01*
X180048771Y-145121428D02*
X180048771Y-144978571D01*
X180048771Y-144978571D02*
X180096390Y-144883333D01*
X180096390Y-144883333D02*
X180144009Y-144835714D01*
X180144009Y-144835714D02*
X180239247Y-144788095D01*
X180239247Y-144788095D02*
X180477342Y-144788095D01*
X180477342Y-144788095D02*
X180572580Y-144835714D01*
X180572580Y-144835714D02*
X180620200Y-144883333D01*
X180620200Y-144883333D02*
X180667819Y-144978571D01*
X180667819Y-144978571D02*
X180667819Y-145264285D01*
X180667819Y-145264285D02*
X180620200Y-145359523D01*
X180620200Y-145359523D02*
X180572580Y-145407142D01*
X222845333Y-71892319D02*
X222512000Y-71416128D01*
X222273905Y-71892319D02*
X222273905Y-70892319D01*
X222273905Y-70892319D02*
X222654857Y-70892319D01*
X222654857Y-70892319D02*
X222750095Y-70939938D01*
X222750095Y-70939938D02*
X222797714Y-70987557D01*
X222797714Y-70987557D02*
X222845333Y-71082795D01*
X222845333Y-71082795D02*
X222845333Y-71225652D01*
X222845333Y-71225652D02*
X222797714Y-71320890D01*
X222797714Y-71320890D02*
X222750095Y-71368509D01*
X222750095Y-71368509D02*
X222654857Y-71416128D01*
X222654857Y-71416128D02*
X222273905Y-71416128D01*
X223178667Y-70892319D02*
X223845333Y-70892319D01*
X223845333Y-70892319D02*
X223416762Y-71892319D01*
X191820714Y-151734819D02*
X191820714Y-150734819D01*
X191820714Y-150734819D02*
X192058809Y-150734819D01*
X192058809Y-150734819D02*
X192201666Y-150782438D01*
X192201666Y-150782438D02*
X192296904Y-150877676D01*
X192296904Y-150877676D02*
X192344523Y-150972914D01*
X192344523Y-150972914D02*
X192392142Y-151163390D01*
X192392142Y-151163390D02*
X192392142Y-151306247D01*
X192392142Y-151306247D02*
X192344523Y-151496723D01*
X192344523Y-151496723D02*
X192296904Y-151591961D01*
X192296904Y-151591961D02*
X192201666Y-151687200D01*
X192201666Y-151687200D02*
X192058809Y-151734819D01*
X192058809Y-151734819D02*
X191820714Y-151734819D01*
X193344523Y-151734819D02*
X192773095Y-151734819D01*
X193058809Y-151734819D02*
X193058809Y-150734819D01*
X193058809Y-150734819D02*
X192963571Y-150877676D01*
X192963571Y-150877676D02*
X192868333Y-150972914D01*
X192868333Y-150972914D02*
X192773095Y-151020533D01*
X193725476Y-150830057D02*
X193773095Y-150782438D01*
X193773095Y-150782438D02*
X193868333Y-150734819D01*
X193868333Y-150734819D02*
X194106428Y-150734819D01*
X194106428Y-150734819D02*
X194201666Y-150782438D01*
X194201666Y-150782438D02*
X194249285Y-150830057D01*
X194249285Y-150830057D02*
X194296904Y-150925295D01*
X194296904Y-150925295D02*
X194296904Y-151020533D01*
X194296904Y-151020533D02*
X194249285Y-151163390D01*
X194249285Y-151163390D02*
X193677857Y-151734819D01*
X193677857Y-151734819D02*
X194296904Y-151734819D01*
D11*
%TO.C,R14*%
X157797500Y-145950000D02*
X157797500Y-145880000D01*
X159167500Y-147320000D02*
G75*
G03*
X159167500Y-147320000I-1370000J0D01*
G01*
%TO.C,D18*%
X122760000Y-98609999D02*
X125850000Y-98609999D01*
X124305462Y-93060000D02*
G75*
G03*
X122760170Y-98609998I-462J-2989999D01*
G01*
X125849830Y-98609999D02*
G75*
G03*
X124304538Y-93059999I-1544830J2560000D01*
G01*
X126805000Y-96049999D02*
G75*
G03*
X126805000Y-96049999I-2500000J0D01*
G01*
%TO.C,D8*%
X225850002Y-96030000D02*
X222760002Y-96030000D01*
X224304540Y-101579999D02*
G75*
G03*
X225849832Y-96030001I462J2989999D01*
G01*
X222760172Y-96030000D02*
G75*
G03*
X224305464Y-101580000I1544830J-2560000D01*
G01*
X226805002Y-98590000D02*
G75*
G03*
X226805002Y-98590000I-2500000J0D01*
G01*
%TO.C,D2*%
X153015002Y-45774999D02*
X153015002Y-48864999D01*
X158565001Y-47320461D02*
G75*
G03*
X153015003Y-45775169I-2989999J462D01*
G01*
X153015002Y-48864829D02*
G75*
G03*
X158565002Y-47319537I2560000J1544830D01*
G01*
X158075002Y-47319999D02*
G75*
G03*
X158075002Y-47319999I-2500000J0D01*
G01*
%TO.C,R12*%
X197802500Y-145950000D02*
X197802500Y-145880000D01*
X199172500Y-147320000D02*
G75*
G03*
X199172500Y-147320000I-1370000J0D01*
G01*
%TO.C,D13*%
X175595000Y-148865000D02*
X175595000Y-145775000D01*
X170045001Y-147319538D02*
G75*
G03*
X175594999Y-148864830I2989999J-462D01*
G01*
X175595000Y-145775170D02*
G75*
G03*
X170045000Y-147320462I-2560000J-1544830D01*
G01*
X175535000Y-147320000D02*
G75*
G03*
X175535000Y-147320000I-2500000J0D01*
G01*
%TO.C,D14*%
X155595000Y-148865000D02*
X155595000Y-145775000D01*
X150045001Y-147319538D02*
G75*
G03*
X155594999Y-148864830I2989999J-462D01*
G01*
X155595000Y-145775170D02*
G75*
G03*
X150045000Y-147320462I-2560000J-1544830D01*
G01*
X155535000Y-147320000D02*
G75*
G03*
X155535000Y-147320000I-2500000J0D01*
G01*
%TO.C,D17*%
X122760000Y-118609999D02*
X125850000Y-118609999D01*
X124305462Y-113060000D02*
G75*
G03*
X122760170Y-118609998I-462J-2989999D01*
G01*
X125849830Y-118609999D02*
G75*
G03*
X124304538Y-113059999I-1544830J2560000D01*
G01*
X126805000Y-116049999D02*
G75*
G03*
X126805000Y-116049999I-2500000J0D01*
G01*
%TO.C,D5*%
X213015002Y-45774999D02*
X213015002Y-48864999D01*
X218565001Y-47320461D02*
G75*
G03*
X213015003Y-45775169I-2989999J462D01*
G01*
X213015002Y-48864829D02*
G75*
G03*
X218565002Y-47319537I2560000J1544830D01*
G01*
X218075002Y-47319999D02*
G75*
G03*
X218075002Y-47319999I-2500000J0D01*
G01*
%TO.C,R9*%
X222912000Y-113855500D02*
X222842000Y-113855500D01*
X225652000Y-113855500D02*
G75*
G03*
X225652000Y-113855500I-1370000J0D01*
G01*
%TO.C,R4*%
X190817500Y-48712000D02*
X190817500Y-48782000D01*
X192187500Y-47342000D02*
G75*
G03*
X192187500Y-47342000I-1370000J0D01*
G01*
%TO.C,R17*%
X125703000Y-120815100D02*
X125773000Y-120815100D01*
X125703000Y-120815100D02*
G75*
G03*
X125703000Y-120815100I-1370000J0D01*
G01*
%TO.C,D1*%
X133015002Y-45774999D02*
X133015002Y-48864999D01*
X138565001Y-47320461D02*
G75*
G03*
X133015003Y-45775169I-2989999J462D01*
G01*
X133015002Y-48864829D02*
G75*
G03*
X138565002Y-47319537I2560000J1544830D01*
G01*
X138075002Y-47319999D02*
G75*
G03*
X138075002Y-47319999I-2500000J0D01*
G01*
%TO.C,D11*%
X215595000Y-148865000D02*
X215595000Y-145775000D01*
X210045001Y-147319538D02*
G75*
G03*
X215594999Y-148864830I2989999J-462D01*
G01*
X215595000Y-145775170D02*
G75*
G03*
X210045000Y-147320462I-2560000J-1544830D01*
G01*
X215535000Y-147320000D02*
G75*
G03*
X215535000Y-147320000I-2500000J0D01*
G01*
%TO.C,R5*%
X210820000Y-48712000D02*
X210820000Y-48782000D01*
X212190000Y-47342000D02*
G75*
G03*
X212190000Y-47342000I-1370000J0D01*
G01*
%TO.C,D6*%
X225850002Y-56030000D02*
X222760002Y-56030000D01*
X224304540Y-61579999D02*
G75*
G03*
X225849832Y-56030001I462J2989999D01*
G01*
X222760172Y-56030000D02*
G75*
G03*
X224305464Y-61580000I1544830J-2560000D01*
G01*
X226805002Y-58590000D02*
G75*
G03*
X226805002Y-58590000I-2500000J0D01*
G01*
%TO.C,R3*%
X170815000Y-48712000D02*
X170815000Y-48782000D01*
X172185000Y-47342000D02*
G75*
G03*
X172185000Y-47342000I-1370000J0D01*
G01*
%TO.C,R16*%
X125703000Y-140817600D02*
X125773000Y-140817600D01*
X125703000Y-140817600D02*
G75*
G03*
X125703000Y-140817600I-1370000J0D01*
G01*
%TO.C,D3*%
X173015002Y-45774999D02*
X173015002Y-48864999D01*
X178565001Y-47320461D02*
G75*
G03*
X173015003Y-45775169I-2989999J462D01*
G01*
X173015002Y-48864829D02*
G75*
G03*
X178565002Y-47319537I2560000J1544830D01*
G01*
X178075002Y-47319999D02*
G75*
G03*
X178075002Y-47319999I-2500000J0D01*
G01*
%TO.C,D15*%
X135595000Y-148865000D02*
X135595000Y-145775000D01*
X130045001Y-147319538D02*
G75*
G03*
X135594999Y-148864830I2989999J-462D01*
G01*
X135595000Y-145775170D02*
G75*
G03*
X130045000Y-147320462I-2560000J-1544830D01*
G01*
X135535000Y-147320000D02*
G75*
G03*
X135535000Y-147320000I-2500000J0D01*
G01*
%TO.C,R1*%
X130810000Y-48712000D02*
X130810000Y-48782000D01*
X132180000Y-47342000D02*
G75*
G03*
X132180000Y-47342000I-1370000J0D01*
G01*
%TO.C,R6*%
X222912000Y-53848000D02*
X222842000Y-53848000D01*
X225652000Y-53848000D02*
G75*
G03*
X225652000Y-53848000I-1370000J0D01*
G01*
%TO.C,R11*%
X217805000Y-145950000D02*
X217805000Y-145880000D01*
X219175000Y-147320000D02*
G75*
G03*
X219175000Y-147320000I-1370000J0D01*
G01*
%TO.C,D7*%
X225850002Y-76030000D02*
X222760002Y-76030000D01*
X224304540Y-81579999D02*
G75*
G03*
X225849832Y-76030001I462J2989999D01*
G01*
X222760172Y-76030000D02*
G75*
G03*
X224305464Y-81580000I1544830J-2560000D01*
G01*
X226805002Y-78590000D02*
G75*
G03*
X226805002Y-78590000I-2500000J0D01*
G01*
%TO.C,D4*%
X193015002Y-45774999D02*
X193015002Y-48864999D01*
X198565001Y-47320461D02*
G75*
G03*
X193015003Y-45775169I-2989999J462D01*
G01*
X193015002Y-48864829D02*
G75*
G03*
X198565002Y-47319537I2560000J1544830D01*
G01*
X198075002Y-47319999D02*
G75*
G03*
X198075002Y-47319999I-2500000J0D01*
G01*
%TO.C,D19*%
X122760000Y-78609999D02*
X125850000Y-78609999D01*
X124305462Y-73060000D02*
G75*
G03*
X122760170Y-78609998I-462J-2989999D01*
G01*
X125849830Y-78609999D02*
G75*
G03*
X124304538Y-73059999I-1544830J2560000D01*
G01*
X126805000Y-76049999D02*
G75*
G03*
X126805000Y-76049999I-2500000J0D01*
G01*
%TO.C,R15*%
X137795000Y-145950000D02*
X137795000Y-145880000D01*
X139165000Y-147320000D02*
G75*
G03*
X139165000Y-147320000I-1370000J0D01*
G01*
%TO.C,D16*%
X122760000Y-138609999D02*
X125850000Y-138609999D01*
X124305462Y-133060000D02*
G75*
G03*
X122760170Y-138609998I-462J-2989999D01*
G01*
X125849830Y-138609999D02*
G75*
G03*
X124304538Y-133059999I-1544830J2560000D01*
G01*
X126805000Y-136049999D02*
G75*
G03*
X126805000Y-136049999I-2500000J0D01*
G01*
%TO.C,R19*%
X125703000Y-80810100D02*
X125773000Y-80810100D01*
X125703000Y-80810100D02*
G75*
G03*
X125703000Y-80810100I-1370000J0D01*
G01*
%TO.C,R10*%
X222912000Y-133858000D02*
X222842000Y-133858000D01*
X225652000Y-133858000D02*
G75*
G03*
X225652000Y-133858000I-1370000J0D01*
G01*
%TO.C,D10*%
X225850002Y-136030000D02*
X222760002Y-136030000D01*
X224304540Y-141579999D02*
G75*
G03*
X225849832Y-136030001I462J2989999D01*
G01*
X222760172Y-136030000D02*
G75*
G03*
X224305464Y-141580000I1544830J-2560000D01*
G01*
X226805002Y-138590000D02*
G75*
G03*
X226805002Y-138590000I-2500000J0D01*
G01*
%TO.C,R2*%
X150812500Y-48712000D02*
X150812500Y-48782000D01*
X152182500Y-47342000D02*
G75*
G03*
X152182500Y-47342000I-1370000J0D01*
G01*
%TO.C,R20*%
X125703000Y-60807600D02*
X125773000Y-60807600D01*
X125703000Y-60807600D02*
G75*
G03*
X125703000Y-60807600I-1370000J0D01*
G01*
%TO.C,D9*%
X225850002Y-116030000D02*
X222760002Y-116030000D01*
X224304540Y-121579999D02*
G75*
G03*
X225849832Y-116030001I462J2989999D01*
G01*
X222760172Y-116030000D02*
G75*
G03*
X224305464Y-121580000I1544830J-2560000D01*
G01*
X226805002Y-118590000D02*
G75*
G03*
X226805002Y-118590000I-2500000J0D01*
G01*
%TO.C,R8*%
X222912000Y-93853000D02*
X222842000Y-93853000D01*
X225652000Y-93853000D02*
G75*
G03*
X225652000Y-93853000I-1370000J0D01*
G01*
%TO.C,D20*%
X122760000Y-58609999D02*
X125850000Y-58609999D01*
X124305462Y-53060000D02*
G75*
G03*
X122760170Y-58609998I-462J-2989999D01*
G01*
X125849830Y-58609999D02*
G75*
G03*
X124304538Y-53059999I-1544830J2560000D01*
G01*
X126805000Y-56049999D02*
G75*
G03*
X126805000Y-56049999I-2500000J0D01*
G01*
%TO.C,R18*%
X125703000Y-100812600D02*
X125773000Y-100812600D01*
X125703000Y-100812600D02*
G75*
G03*
X125703000Y-100812600I-1370000J0D01*
G01*
%TO.C,R13*%
X177800000Y-145950000D02*
X177800000Y-145880000D01*
X179170000Y-147320000D02*
G75*
G03*
X179170000Y-147320000I-1370000J0D01*
G01*
%TO.C,R7*%
X222912000Y-73850500D02*
X222842000Y-73850500D01*
X225652000Y-73850500D02*
G75*
G03*
X225652000Y-73850500I-1370000J0D01*
G01*
%TO.C,D12*%
X195595000Y-148865000D02*
X195595000Y-145775000D01*
X190045001Y-147319538D02*
G75*
G03*
X195594999Y-148864830I2989999J-462D01*
G01*
X195595000Y-145775170D02*
G75*
G03*
X190045000Y-147320462I-2560000J-1544830D01*
G01*
X195535000Y-147320000D02*
G75*
G03*
X195535000Y-147320000I-2500000J0D01*
G01*
%TD*%
M02*
