%TF.GenerationSoftware,KiCad,Pcbnew,7.0.6*%
%TF.CreationDate,2024-08-08T10:20:05+01:00*%
%TF.ProjectId,DMI_LightBox,444d495f-4c69-4676-9874-426f782e6b69,rev?*%
%TF.SameCoordinates,Original*%
%TF.FileFunction,Copper,L1,Top*%
%TF.FilePolarity,Positive*%
%FSLAX46Y46*%
G04 Gerber Fmt 4.6, Leading zero omitted, Abs format (unit mm)*
G04 Created by KiCad (PCBNEW 7.0.6) date 2024-08-08 10:20:05*
%MOMM*%
%LPD*%
G01*
G04 APERTURE LIST*
G04 Aperture macros list*
%AMRoundRect*
0 Rectangle with rounded corners*
0 $1 Rounding radius*
0 $2 $3 $4 $5 $6 $7 $8 $9 X,Y pos of 4 corners*
0 Add a 4 corners polygon primitive as box body*
4,1,4,$2,$3,$4,$5,$6,$7,$8,$9,$2,$3,0*
0 Add four circle primitives for the rounded corners*
1,1,$1+$1,$2,$3*
1,1,$1+$1,$4,$5*
1,1,$1+$1,$6,$7*
1,1,$1+$1,$8,$9*
0 Add four rect primitives between the rounded corners*
20,1,$1+$1,$2,$3,$4,$5,0*
20,1,$1+$1,$4,$5,$6,$7,0*
20,1,$1+$1,$6,$7,$8,$9,0*
20,1,$1+$1,$8,$9,$2,$3,0*%
G04 Aperture macros list end*
%TA.AperFunction,ComponentPad*%
%ADD10C,3.800000*%
%TD*%
%TA.AperFunction,ComponentPad*%
%ADD11C,1.600000*%
%TD*%
%TA.AperFunction,ComponentPad*%
%ADD12O,1.600000X1.600000*%
%TD*%
%TA.AperFunction,ComponentPad*%
%ADD13R,1.800000X1.800000*%
%TD*%
%TA.AperFunction,ComponentPad*%
%ADD14C,1.800000*%
%TD*%
%TA.AperFunction,ComponentPad*%
%ADD15R,2.000000X1.905000*%
%TD*%
%TA.AperFunction,ComponentPad*%
%ADD16O,2.000000X1.905000*%
%TD*%
%TA.AperFunction,ComponentPad*%
%ADD17RoundRect,0.250000X-0.625000X0.350000X-0.625000X-0.350000X0.625000X-0.350000X0.625000X0.350000X0*%
%TD*%
%TA.AperFunction,ComponentPad*%
%ADD18O,1.750000X1.200000*%
%TD*%
%TA.AperFunction,Conductor*%
%ADD19C,0.250000*%
%TD*%
G04 APERTURE END LIST*
D10*
%TO.P,,3*%
%TO.N,GND*%
X138305001Y-133319999D03*
%TD*%
D11*
%TO.P,R14,1*%
%TO.N,Net-(D14-K)*%
X157797500Y-147320000D03*
D12*
%TO.P,R14,2*%
%TO.N,VOUT*%
X157797500Y-144780000D03*
%TD*%
D13*
%TO.P,D18,1,K*%
%TO.N,Net-(D18-K)*%
X124305000Y-97319999D03*
D14*
%TO.P,D18,2,A*%
%TO.N,VIN*%
X124305000Y-94779999D03*
%TD*%
D13*
%TO.P,D8,1,K*%
%TO.N,Net-(D8-K)*%
X224305002Y-97320000D03*
D14*
%TO.P,D8,2,A*%
%TO.N,VIN*%
X224305002Y-99860000D03*
%TD*%
D13*
%TO.P,D2,1,K*%
%TO.N,Net-(D2-K)*%
X154305002Y-47319999D03*
D14*
%TO.P,D2,2,A*%
%TO.N,VIN*%
X156845002Y-47319999D03*
%TD*%
D11*
%TO.P,R12,1*%
%TO.N,Net-(D12-K)*%
X197802500Y-147320000D03*
D12*
%TO.P,R12,2*%
%TO.N,VOUT*%
X197802500Y-144780000D03*
%TD*%
D13*
%TO.P,D13,1,K*%
%TO.N,Net-(D13-K)*%
X174305000Y-147320000D03*
D14*
%TO.P,D13,2,A*%
%TO.N,VIN*%
X171765000Y-147320000D03*
%TD*%
D13*
%TO.P,D14,1,K*%
%TO.N,Net-(D14-K)*%
X154305000Y-147320000D03*
D14*
%TO.P,D14,2,A*%
%TO.N,VIN*%
X151765000Y-147320000D03*
%TD*%
D13*
%TO.P,D17,1,K*%
%TO.N,Net-(D17-K)*%
X124305000Y-117319999D03*
D14*
%TO.P,D17,2,A*%
%TO.N,VIN*%
X124305000Y-114779999D03*
%TD*%
D13*
%TO.P,D5,1,K*%
%TO.N,Net-(D5-K)*%
X214305002Y-47319999D03*
D14*
%TO.P,D5,2,A*%
%TO.N,VIN*%
X216845002Y-47319999D03*
%TD*%
D11*
%TO.P,R9,1*%
%TO.N,Net-(D9-K)*%
X224282000Y-113855500D03*
D12*
%TO.P,R9,2*%
%TO.N,VOUT*%
X221742000Y-113855500D03*
%TD*%
D11*
%TO.P,R4,1*%
%TO.N,Net-(D4-K)*%
X190817500Y-47342000D03*
D12*
%TO.P,R4,2*%
%TO.N,VOUT*%
X190817500Y-49882000D03*
%TD*%
D10*
%TO.P,REF\u002A\u002A,1*%
%TO.N,GND*%
X210305001Y-61319999D03*
%TD*%
D11*
%TO.P,R17,1*%
%TO.N,Net-(D17-K)*%
X124333000Y-120815100D03*
D12*
%TO.P,R17,2*%
%TO.N,VOUT*%
X126873000Y-120815100D03*
%TD*%
D13*
%TO.P,D1,1,K*%
%TO.N,Net-(D1-K)*%
X134305002Y-47319999D03*
D14*
%TO.P,D1,2,A*%
%TO.N,VIN*%
X136845002Y-47319999D03*
%TD*%
D13*
%TO.P,D11,1,K*%
%TO.N,Net-(D11-K)*%
X214305000Y-147320000D03*
D14*
%TO.P,D11,2,A*%
%TO.N,VIN*%
X211765000Y-147320000D03*
%TD*%
D11*
%TO.P,R5,1*%
%TO.N,Net-(D5-K)*%
X210820000Y-47342000D03*
D12*
%TO.P,R5,2*%
%TO.N,VOUT*%
X210820000Y-49882000D03*
%TD*%
D13*
%TO.P,D6,1,K*%
%TO.N,Net-(D6-K)*%
X224305002Y-57320000D03*
D14*
%TO.P,D6,2,A*%
%TO.N,VIN*%
X224305002Y-59860000D03*
%TD*%
D11*
%TO.P,R3,1*%
%TO.N,Net-(D3-K)*%
X170815000Y-47342000D03*
D12*
%TO.P,R3,2*%
%TO.N,VOUT*%
X170815000Y-49882000D03*
%TD*%
D11*
%TO.P,R16,1*%
%TO.N,Net-(D16-K)*%
X124333000Y-140817600D03*
D12*
%TO.P,R16,2*%
%TO.N,VOUT*%
X126873000Y-140817600D03*
%TD*%
D13*
%TO.P,D3,1,K*%
%TO.N,Net-(D3-K)*%
X174305002Y-47319999D03*
D14*
%TO.P,D3,2,A*%
%TO.N,VIN*%
X176845002Y-47319999D03*
%TD*%
D13*
%TO.P,D15,1,K*%
%TO.N,Net-(D15-K)*%
X134305000Y-147320000D03*
D14*
%TO.P,D15,2,A*%
%TO.N,VIN*%
X131765000Y-147320000D03*
%TD*%
D11*
%TO.P,R1,1*%
%TO.N,Net-(D1-K)*%
X130810000Y-47342000D03*
D12*
%TO.P,R1,2*%
%TO.N,VOUT*%
X130810000Y-49882000D03*
%TD*%
D11*
%TO.P,R6,1*%
%TO.N,Net-(D6-K)*%
X224282000Y-53848000D03*
D12*
%TO.P,R6,2*%
%TO.N,VOUT*%
X221742000Y-53848000D03*
%TD*%
D11*
%TO.P,R11,1*%
%TO.N,Net-(D11-K)*%
X217805000Y-147320000D03*
D12*
%TO.P,R11,2*%
%TO.N,VOUT*%
X217805000Y-144780000D03*
%TD*%
D13*
%TO.P,D7,1,K*%
%TO.N,Net-(D7-K)*%
X224305002Y-77320000D03*
D14*
%TO.P,D7,2,A*%
%TO.N,VIN*%
X224305002Y-79860000D03*
%TD*%
D13*
%TO.P,D4,1,K*%
%TO.N,Net-(D4-K)*%
X194305002Y-47319999D03*
D14*
%TO.P,D4,2,A*%
%TO.N,VIN*%
X196845002Y-47319999D03*
%TD*%
D13*
%TO.P,D19,1,K*%
%TO.N,Net-(D19-K)*%
X124305000Y-77319999D03*
D14*
%TO.P,D19,2,A*%
%TO.N,VIN*%
X124305000Y-74779999D03*
%TD*%
D11*
%TO.P,R15,1*%
%TO.N,Net-(D15-K)*%
X137795000Y-147320000D03*
D12*
%TO.P,R15,2*%
%TO.N,VOUT*%
X137795000Y-144780000D03*
%TD*%
D13*
%TO.P,D16,1,K*%
%TO.N,Net-(D16-K)*%
X124305000Y-137319999D03*
D14*
%TO.P,D16,2,A*%
%TO.N,VIN*%
X124305000Y-134779999D03*
%TD*%
D11*
%TO.P,R19,1*%
%TO.N,Net-(D19-K)*%
X124333000Y-80810100D03*
D12*
%TO.P,R19,2*%
%TO.N,VOUT*%
X126873000Y-80810100D03*
%TD*%
D11*
%TO.P,R10,1*%
%TO.N,Net-(D10-K)*%
X224282000Y-133858000D03*
D12*
%TO.P,R10,2*%
%TO.N,VOUT*%
X221742000Y-133858000D03*
%TD*%
D13*
%TO.P,D10,1,K*%
%TO.N,Net-(D10-K)*%
X224305002Y-137320000D03*
D14*
%TO.P,D10,2,A*%
%TO.N,VIN*%
X224305002Y-139860000D03*
%TD*%
D10*
%TO.P,,4*%
%TO.N,GND*%
X138305001Y-61319999D03*
%TD*%
D11*
%TO.P,R2,1*%
%TO.N,Net-(D2-K)*%
X150812500Y-47342000D03*
D12*
%TO.P,R2,2*%
%TO.N,VOUT*%
X150812500Y-49882000D03*
%TD*%
D11*
%TO.P,R20,1*%
%TO.N,Net-(D20-K)*%
X124333000Y-60807600D03*
D12*
%TO.P,R20,2*%
%TO.N,VOUT*%
X126873000Y-60807600D03*
%TD*%
D10*
%TO.P,,2*%
%TO.N,GND*%
X210305001Y-133319999D03*
%TD*%
D13*
%TO.P,D9,1,K*%
%TO.N,Net-(D9-K)*%
X224305002Y-117320000D03*
D14*
%TO.P,D9,2,A*%
%TO.N,VIN*%
X224305002Y-119860000D03*
%TD*%
D11*
%TO.P,R8,1*%
%TO.N,Net-(D8-K)*%
X224282000Y-93853000D03*
D12*
%TO.P,R8,2*%
%TO.N,VOUT*%
X221742000Y-93853000D03*
%TD*%
D13*
%TO.P,D20,1,K*%
%TO.N,Net-(D20-K)*%
X124305000Y-57319999D03*
D14*
%TO.P,D20,2,A*%
%TO.N,VIN*%
X124305000Y-54779999D03*
%TD*%
D11*
%TO.P,R18,1*%
%TO.N,Net-(D18-K)*%
X124333000Y-100812600D03*
D12*
%TO.P,R18,2*%
%TO.N,VOUT*%
X126873000Y-100812600D03*
%TD*%
D11*
%TO.P,R13,1*%
%TO.N,Net-(D13-K)*%
X177800000Y-147320000D03*
D12*
%TO.P,R13,2*%
%TO.N,VOUT*%
X177800000Y-144780000D03*
%TD*%
D11*
%TO.P,R7,1*%
%TO.N,Net-(D7-K)*%
X224282000Y-73850500D03*
D12*
%TO.P,R7,2*%
%TO.N,VOUT*%
X221742000Y-73850500D03*
%TD*%
D13*
%TO.P,D12,1,K*%
%TO.N,Net-(D12-K)*%
X194305000Y-147320000D03*
D14*
%TO.P,D12,2,A*%
%TO.N,VIN*%
X191765000Y-147320000D03*
%TD*%
D15*
%TO.P,Q1,1,G*%
%TO.N,SIG*%
X131755000Y-54610000D03*
D16*
%TO.P,Q1,2,D*%
%TO.N,VOUT*%
X131755000Y-57150000D03*
%TO.P,Q1,3,S*%
%TO.N,GND*%
X131755000Y-59690000D03*
%TD*%
D17*
%TO.P,J1,1,Pin_1*%
%TO.N,VIN*%
X131092415Y-94716584D03*
D18*
%TO.P,J1,2,Pin_2*%
%TO.N,SIG*%
X131092415Y-96716584D03*
%TO.P,J1,3,Pin_3*%
%TO.N,GND*%
X131092415Y-98716584D03*
%TD*%
D11*
%TO.P,R21,1*%
%TO.N,GND*%
X135509000Y-57150000D03*
D12*
%TO.P,R21,2*%
%TO.N,SIG*%
X135509000Y-54610000D03*
%TD*%
D19*
%TO.N,Net-(D1-K)*%
X134283001Y-47342000D02*
X134305002Y-47319999D01*
X130810000Y-47342000D02*
X134283001Y-47342000D01*
%TO.N,Net-(D2-K)*%
X150834501Y-47319999D02*
X150812500Y-47342000D01*
X154305002Y-47319999D02*
X150834501Y-47319999D01*
%TO.N,Net-(D3-K)*%
X174305002Y-47319999D02*
X170837001Y-47319999D01*
X170837001Y-47319999D02*
X170815000Y-47342000D01*
%TO.N,Net-(D4-K)*%
X194305002Y-47319999D02*
X190839501Y-47319999D01*
X190839501Y-47319999D02*
X190817500Y-47342000D01*
%TO.N,Net-(D5-K)*%
X214283001Y-47342000D02*
X214305002Y-47319999D01*
X210820000Y-47342000D02*
X214283001Y-47342000D01*
%TO.N,Net-(D6-K)*%
X224305002Y-53871002D02*
X224282000Y-53848000D01*
X224305002Y-57320000D02*
X224305002Y-53871002D01*
%TO.N,Net-(D7-K)*%
X224305002Y-73873502D02*
X224282000Y-73850500D01*
X224305002Y-77320000D02*
X224305002Y-73873502D01*
%TO.N,Net-(D8-K)*%
X224305002Y-93876002D02*
X224282000Y-93853000D01*
X224305002Y-97320000D02*
X224305002Y-93876002D01*
%TO.N,Net-(D9-K)*%
X224305002Y-117320000D02*
X224305002Y-113878502D01*
X224305002Y-113878502D02*
X224282000Y-113855500D01*
%TO.N,Net-(D10-K)*%
X224305002Y-133881002D02*
X224282000Y-133858000D01*
X224305002Y-137320000D02*
X224305002Y-133881002D01*
%TO.N,Net-(D11-K)*%
X214305000Y-147320000D02*
X217805000Y-147320000D01*
%TO.N,Net-(D12-K)*%
X194305000Y-147320000D02*
X197802500Y-147320000D01*
%TO.N,Net-(D13-K)*%
X174305000Y-147320000D02*
X177800000Y-147320000D01*
%TO.N,Net-(D14-K)*%
X154305000Y-147320000D02*
X157797500Y-147320000D01*
%TO.N,Net-(D15-K)*%
X134305000Y-147320000D02*
X137795000Y-147320000D01*
%TO.N,Net-(D16-K)*%
X124333000Y-137347999D02*
X124305000Y-137319999D01*
X124333000Y-140817600D02*
X124333000Y-137347999D01*
%TO.N,Net-(D17-K)*%
X124333000Y-117347999D02*
X124305000Y-117319999D01*
X124333000Y-120815100D02*
X124333000Y-117347999D01*
%TO.N,Net-(D18-K)*%
X124333000Y-97347999D02*
X124305000Y-97319999D01*
X124333000Y-100812600D02*
X124333000Y-97347999D01*
%TO.N,Net-(D19-K)*%
X124305000Y-77319999D02*
X124305000Y-80782100D01*
X124305000Y-80782100D02*
X124333000Y-80810100D01*
%TO.N,Net-(D20-K)*%
X124333000Y-60807600D02*
X124333000Y-57347999D01*
X124333000Y-57347999D02*
X124305000Y-57319999D01*
%TO.N,VOUT*%
X126873000Y-60807600D02*
X128097400Y-60807600D01*
X221742000Y-53848000D02*
X221742000Y-73850500D01*
X190817500Y-49882000D02*
X170815000Y-49882000D01*
X221742000Y-140843000D02*
X217805000Y-144780000D01*
X217776000Y-49882000D02*
X221742000Y-53848000D01*
X126873000Y-140817600D02*
X130810000Y-144754600D01*
X126873000Y-120815100D02*
X126873000Y-140817600D01*
X128097400Y-60807600D02*
X131755000Y-57150000D01*
X177800000Y-144780000D02*
X197802500Y-144780000D01*
X221742000Y-93853000D02*
X221742000Y-113855500D01*
X126873000Y-80810100D02*
X126873000Y-100812600D01*
X137795000Y-144780000D02*
X157797500Y-144780000D01*
X126873000Y-100812600D02*
X126873000Y-120815100D01*
X210820000Y-49882000D02*
X217776000Y-49882000D01*
X170815000Y-49882000D02*
X150812500Y-49882000D01*
X126873000Y-60807600D02*
X126873000Y-80810100D01*
X130810000Y-144754600D02*
X130810000Y-144780000D01*
X130810000Y-144780000D02*
X137795000Y-144780000D01*
X177800000Y-144780000D02*
X157797500Y-144780000D01*
X221742000Y-113855500D02*
X221742000Y-133858000D01*
X221742000Y-73850500D02*
X221742000Y-93853000D01*
X210820000Y-49882000D02*
X190817500Y-49882000D01*
X197802500Y-144780000D02*
X217805000Y-144780000D01*
X150812500Y-49882000D02*
X130810000Y-49882000D01*
X221742000Y-133858000D02*
X221742000Y-140843000D01*
%TD*%
%TA.AperFunction,Conductor*%
%TO.N,GND*%
G36*
X219320470Y-42340184D02*
G01*
X219341112Y-42356818D01*
X229268182Y-52283887D01*
X229301667Y-52345210D01*
X229304501Y-52371568D01*
X229304501Y-142268429D01*
X229284816Y-142335468D01*
X229268182Y-142356110D01*
X219341112Y-152283180D01*
X219279789Y-152316665D01*
X219253431Y-152319499D01*
X129356570Y-152319499D01*
X129289531Y-152299814D01*
X129268889Y-152283180D01*
X119416319Y-142430609D01*
X119382834Y-142369286D01*
X119380000Y-142342928D01*
X119380000Y-134780005D01*
X122899700Y-134780005D01*
X122918864Y-135011296D01*
X122918866Y-135011307D01*
X122975842Y-135236299D01*
X123069075Y-135448847D01*
X123196016Y-135643146D01*
X123196019Y-135643150D01*
X123196021Y-135643152D01*
X123290803Y-135746113D01*
X123321724Y-135808766D01*
X123313864Y-135878192D01*
X123269716Y-135932347D01*
X123242906Y-135946276D01*
X123162669Y-135976202D01*
X123162664Y-135976205D01*
X123047455Y-136062451D01*
X123047452Y-136062454D01*
X122961206Y-136177663D01*
X122961202Y-136177670D01*
X122910908Y-136312516D01*
X122904501Y-136372115D01*
X122904501Y-136372123D01*
X122904500Y-136372134D01*
X122904500Y-138267869D01*
X122904501Y-138267875D01*
X122910908Y-138327482D01*
X122961202Y-138462327D01*
X122961206Y-138462334D01*
X123047452Y-138577543D01*
X123047455Y-138577546D01*
X123162664Y-138663792D01*
X123162671Y-138663796D01*
X123207618Y-138680559D01*
X123297517Y-138714090D01*
X123357127Y-138720499D01*
X123583500Y-138720498D01*
X123650539Y-138740182D01*
X123696294Y-138792986D01*
X123707500Y-138844498D01*
X123707500Y-139603411D01*
X123687815Y-139670450D01*
X123654623Y-139704986D01*
X123493859Y-139817553D01*
X123332954Y-139978458D01*
X123202432Y-140164865D01*
X123202431Y-140164867D01*
X123106261Y-140371102D01*
X123106258Y-140371111D01*
X123047366Y-140590902D01*
X123047364Y-140590913D01*
X123027532Y-140817598D01*
X123027532Y-140817601D01*
X123047364Y-141044286D01*
X123047366Y-141044297D01*
X123106258Y-141264088D01*
X123106261Y-141264097D01*
X123202431Y-141470332D01*
X123202432Y-141470334D01*
X123332954Y-141656741D01*
X123493858Y-141817645D01*
X123493861Y-141817647D01*
X123680266Y-141948168D01*
X123886504Y-142044339D01*
X124106308Y-142103235D01*
X124263780Y-142117012D01*
X124332998Y-142123068D01*
X124333000Y-142123068D01*
X124333002Y-142123068D01*
X124402220Y-142117012D01*
X124559692Y-142103235D01*
X124779496Y-142044339D01*
X124985734Y-141948168D01*
X125172139Y-141817647D01*
X125333047Y-141656739D01*
X125463568Y-141470334D01*
X125490618Y-141412324D01*
X125536790Y-141359885D01*
X125603983Y-141340733D01*
X125670865Y-141360948D01*
X125715382Y-141412325D01*
X125742429Y-141470328D01*
X125742432Y-141470334D01*
X125872954Y-141656741D01*
X126033858Y-141817645D01*
X126033861Y-141817647D01*
X126220266Y-141948168D01*
X126426504Y-142044339D01*
X126646308Y-142103235D01*
X126803780Y-142117012D01*
X126872998Y-142123068D01*
X126873000Y-142123068D01*
X126873002Y-142123068D01*
X126942220Y-142117012D01*
X127099692Y-142103235D01*
X127168048Y-142084919D01*
X127237896Y-142086580D01*
X127287822Y-142117012D01*
X130258509Y-145087699D01*
X130271145Y-145102493D01*
X130291276Y-145130202D01*
X130293455Y-145133409D01*
X130324213Y-145181876D01*
X130330164Y-145187464D01*
X130345604Y-145204978D01*
X130350403Y-145211585D01*
X130394647Y-145248187D01*
X130397567Y-145250761D01*
X130439418Y-145290062D01*
X130446578Y-145293998D01*
X130465879Y-145307114D01*
X130472177Y-145312324D01*
X130472178Y-145312324D01*
X130472179Y-145312325D01*
X130524125Y-145336769D01*
X130527597Y-145338538D01*
X130577903Y-145366195D01*
X130577905Y-145366195D01*
X130577908Y-145366197D01*
X130583205Y-145367556D01*
X130585814Y-145368227D01*
X130607777Y-145376133D01*
X130615174Y-145379614D01*
X130671576Y-145390373D01*
X130675362Y-145391219D01*
X130730981Y-145405500D01*
X130739153Y-145405500D01*
X130762385Y-145407696D01*
X130763989Y-145408001D01*
X130770412Y-145409227D01*
X130827724Y-145405621D01*
X130831597Y-145405500D01*
X136580812Y-145405500D01*
X136647851Y-145425185D01*
X136682387Y-145458377D01*
X136794954Y-145619141D01*
X136955858Y-145780045D01*
X136955861Y-145780047D01*
X137142266Y-145910568D01*
X137175163Y-145925908D01*
X137200275Y-145937618D01*
X137252714Y-145983791D01*
X137271866Y-146050984D01*
X137251650Y-146117865D01*
X137200275Y-146162382D01*
X137142267Y-146189431D01*
X137142265Y-146189432D01*
X136955858Y-146319954D01*
X136794954Y-146480858D01*
X136682387Y-146641623D01*
X136627811Y-146685248D01*
X136580812Y-146694500D01*
X135829499Y-146694500D01*
X135762460Y-146674815D01*
X135716705Y-146622011D01*
X135705499Y-146570500D01*
X135705499Y-146372129D01*
X135705498Y-146372123D01*
X135701492Y-146334858D01*
X135699091Y-146312517D01*
X135689233Y-146286087D01*
X135648797Y-146177671D01*
X135648793Y-146177664D01*
X135562547Y-146062455D01*
X135562544Y-146062452D01*
X135447335Y-145976206D01*
X135447328Y-145976202D01*
X135312482Y-145925908D01*
X135312483Y-145925908D01*
X135252883Y-145919501D01*
X135252881Y-145919500D01*
X135252873Y-145919500D01*
X135252864Y-145919500D01*
X133357129Y-145919500D01*
X133357123Y-145919501D01*
X133297516Y-145925908D01*
X133162671Y-145976202D01*
X133162664Y-145976206D01*
X133047455Y-146062452D01*
X133047452Y-146062455D01*
X132961206Y-146177664D01*
X132961203Y-146177670D01*
X132932544Y-146254508D01*
X132890672Y-146310441D01*
X132825208Y-146334858D01*
X132756935Y-146320006D01*
X132725135Y-146295158D01*
X132716784Y-146286087D01*
X132716778Y-146286082D01*
X132716777Y-146286081D01*
X132533634Y-146143535D01*
X132533628Y-146143531D01*
X132329504Y-146033064D01*
X132329495Y-146033061D01*
X132109984Y-145957702D01*
X131919450Y-145925908D01*
X131881049Y-145919500D01*
X131648951Y-145919500D01*
X131610550Y-145925908D01*
X131420015Y-145957702D01*
X131200504Y-146033061D01*
X131200495Y-146033064D01*
X130996371Y-146143531D01*
X130996365Y-146143535D01*
X130813222Y-146286081D01*
X130813219Y-146286084D01*
X130813216Y-146286086D01*
X130813216Y-146286087D01*
X130768319Y-146334858D01*
X130656016Y-146456852D01*
X130529075Y-146651151D01*
X130435842Y-146863699D01*
X130378866Y-147088691D01*
X130378864Y-147088702D01*
X130359700Y-147319993D01*
X130359700Y-147320006D01*
X130378864Y-147551297D01*
X130378866Y-147551308D01*
X130435842Y-147776300D01*
X130529075Y-147988848D01*
X130656016Y-148183147D01*
X130656019Y-148183151D01*
X130656021Y-148183153D01*
X130813216Y-148353913D01*
X130813219Y-148353915D01*
X130813222Y-148353918D01*
X130996365Y-148496464D01*
X130996371Y-148496468D01*
X130996374Y-148496470D01*
X131200497Y-148606936D01*
X131254479Y-148625468D01*
X131420015Y-148682297D01*
X131420017Y-148682297D01*
X131420019Y-148682298D01*
X131648951Y-148720500D01*
X131648952Y-148720500D01*
X131881048Y-148720500D01*
X131881049Y-148720500D01*
X132109981Y-148682298D01*
X132329503Y-148606936D01*
X132533626Y-148496470D01*
X132716784Y-148353913D01*
X132725130Y-148344846D01*
X132785010Y-148308854D01*
X132854849Y-148310949D01*
X132912468Y-148350469D01*
X132932544Y-148385491D01*
X132961203Y-148462330D01*
X132961206Y-148462335D01*
X133047452Y-148577544D01*
X133047455Y-148577547D01*
X133162664Y-148663793D01*
X133162671Y-148663797D01*
X133297517Y-148714091D01*
X133297516Y-148714091D01*
X133304444Y-148714835D01*
X133357127Y-148720500D01*
X135252872Y-148720499D01*
X135312483Y-148714091D01*
X135447331Y-148663796D01*
X135562546Y-148577546D01*
X135648796Y-148462331D01*
X135699091Y-148327483D01*
X135705500Y-148267873D01*
X135705500Y-148069500D01*
X135725185Y-148002461D01*
X135777989Y-147956706D01*
X135829500Y-147945500D01*
X136580812Y-147945500D01*
X136647851Y-147965185D01*
X136682387Y-147998377D01*
X136794954Y-148159141D01*
X136955858Y-148320045D01*
X136955861Y-148320047D01*
X137142266Y-148450568D01*
X137348504Y-148546739D01*
X137568308Y-148605635D01*
X137730230Y-148619801D01*
X137794998Y-148625468D01*
X137795000Y-148625468D01*
X137795002Y-148625468D01*
X137851673Y-148620509D01*
X138021692Y-148605635D01*
X138241496Y-148546739D01*
X138447734Y-148450568D01*
X138634139Y-148320047D01*
X138795047Y-148159139D01*
X138925568Y-147972734D01*
X139021739Y-147766496D01*
X139080635Y-147546692D01*
X139097634Y-147352384D01*
X139100468Y-147320001D01*
X139100468Y-147319998D01*
X139080635Y-147093313D01*
X139080635Y-147093308D01*
X139021739Y-146873504D01*
X138925568Y-146667266D01*
X138795047Y-146480861D01*
X138795045Y-146480858D01*
X138634141Y-146319954D01*
X138447734Y-146189432D01*
X138447728Y-146189429D01*
X138389725Y-146162382D01*
X138337285Y-146116210D01*
X138318133Y-146049017D01*
X138338348Y-145982135D01*
X138389725Y-145937618D01*
X138447734Y-145910568D01*
X138634139Y-145780047D01*
X138795047Y-145619139D01*
X138907612Y-145458377D01*
X138962189Y-145414752D01*
X139009188Y-145405500D01*
X156583312Y-145405500D01*
X156650351Y-145425185D01*
X156684887Y-145458377D01*
X156797454Y-145619141D01*
X156958358Y-145780045D01*
X156958361Y-145780047D01*
X157144766Y-145910568D01*
X157177663Y-145925908D01*
X157202775Y-145937618D01*
X157255214Y-145983791D01*
X157274366Y-146050984D01*
X157254150Y-146117865D01*
X157202775Y-146162382D01*
X157144767Y-146189431D01*
X157144765Y-146189432D01*
X156958358Y-146319954D01*
X156797454Y-146480858D01*
X156684887Y-146641623D01*
X156630311Y-146685248D01*
X156583312Y-146694500D01*
X155829499Y-146694500D01*
X155762460Y-146674815D01*
X155716705Y-146622011D01*
X155705499Y-146570500D01*
X155705499Y-146372129D01*
X155705498Y-146372123D01*
X155701492Y-146334858D01*
X155699091Y-146312517D01*
X155689233Y-146286087D01*
X155648797Y-146177671D01*
X155648793Y-146177664D01*
X155562547Y-146062455D01*
X155562544Y-146062452D01*
X155447335Y-145976206D01*
X155447328Y-145976202D01*
X155312482Y-145925908D01*
X155312483Y-145925908D01*
X155252883Y-145919501D01*
X155252881Y-145919500D01*
X155252873Y-145919500D01*
X155252864Y-145919500D01*
X153357129Y-145919500D01*
X153357123Y-145919501D01*
X153297516Y-145925908D01*
X153162671Y-145976202D01*
X153162664Y-145976206D01*
X153047455Y-146062452D01*
X153047452Y-146062455D01*
X152961206Y-146177664D01*
X152961203Y-146177670D01*
X152932544Y-146254508D01*
X152890672Y-146310441D01*
X152825208Y-146334858D01*
X152756935Y-146320006D01*
X152725135Y-146295158D01*
X152716784Y-146286087D01*
X152716778Y-146286082D01*
X152716777Y-146286081D01*
X152533634Y-146143535D01*
X152533628Y-146143531D01*
X152329504Y-146033064D01*
X152329495Y-146033061D01*
X152109984Y-145957702D01*
X151919450Y-145925908D01*
X151881049Y-145919500D01*
X151648951Y-145919500D01*
X151610550Y-145925908D01*
X151420015Y-145957702D01*
X151200504Y-146033061D01*
X151200495Y-146033064D01*
X150996371Y-146143531D01*
X150996365Y-146143535D01*
X150813222Y-146286081D01*
X150813219Y-146286084D01*
X150813216Y-146286086D01*
X150813216Y-146286087D01*
X150768319Y-146334858D01*
X150656016Y-146456852D01*
X150529075Y-146651151D01*
X150435842Y-146863699D01*
X150378866Y-147088691D01*
X150378864Y-147088702D01*
X150359700Y-147319993D01*
X150359700Y-147320006D01*
X150378864Y-147551297D01*
X150378866Y-147551308D01*
X150435842Y-147776300D01*
X150529075Y-147988848D01*
X150656016Y-148183147D01*
X150656019Y-148183151D01*
X150656021Y-148183153D01*
X150813216Y-148353913D01*
X150813219Y-148353915D01*
X150813222Y-148353918D01*
X150996365Y-148496464D01*
X150996371Y-148496468D01*
X150996374Y-148496470D01*
X151200497Y-148606936D01*
X151254479Y-148625468D01*
X151420015Y-148682297D01*
X151420017Y-148682297D01*
X151420019Y-148682298D01*
X151648951Y-148720500D01*
X151648952Y-148720500D01*
X151881048Y-148720500D01*
X151881049Y-148720500D01*
X152109981Y-148682298D01*
X152329503Y-148606936D01*
X152533626Y-148496470D01*
X152716784Y-148353913D01*
X152725130Y-148344846D01*
X152785010Y-148308854D01*
X152854849Y-148310949D01*
X152912468Y-148350469D01*
X152932544Y-148385491D01*
X152961203Y-148462330D01*
X152961206Y-148462335D01*
X153047452Y-148577544D01*
X153047455Y-148577547D01*
X153162664Y-148663793D01*
X153162671Y-148663797D01*
X153297517Y-148714091D01*
X153297516Y-148714091D01*
X153304444Y-148714835D01*
X153357127Y-148720500D01*
X155252872Y-148720499D01*
X155312483Y-148714091D01*
X155447331Y-148663796D01*
X155562546Y-148577546D01*
X155648796Y-148462331D01*
X155699091Y-148327483D01*
X155705500Y-148267873D01*
X155705500Y-148069500D01*
X155725185Y-148002461D01*
X155777989Y-147956706D01*
X155829500Y-147945500D01*
X156583312Y-147945500D01*
X156650351Y-147965185D01*
X156684887Y-147998377D01*
X156797454Y-148159141D01*
X156958358Y-148320045D01*
X156958361Y-148320047D01*
X157144766Y-148450568D01*
X157351004Y-148546739D01*
X157570808Y-148605635D01*
X157732730Y-148619801D01*
X157797498Y-148625468D01*
X157797500Y-148625468D01*
X157797502Y-148625468D01*
X157854173Y-148620509D01*
X158024192Y-148605635D01*
X158243996Y-148546739D01*
X158450234Y-148450568D01*
X158636639Y-148320047D01*
X158797547Y-148159139D01*
X158928068Y-147972734D01*
X159024239Y-147766496D01*
X159083135Y-147546692D01*
X159100134Y-147352384D01*
X159102968Y-147320001D01*
X159102968Y-147319998D01*
X159083135Y-147093313D01*
X159083135Y-147093308D01*
X159024239Y-146873504D01*
X158928068Y-146667266D01*
X158797547Y-146480861D01*
X158797545Y-146480858D01*
X158636641Y-146319954D01*
X158450234Y-146189432D01*
X158450228Y-146189429D01*
X158392225Y-146162382D01*
X158339785Y-146116210D01*
X158320633Y-146049017D01*
X158340848Y-145982135D01*
X158392225Y-145937618D01*
X158450234Y-145910568D01*
X158636639Y-145780047D01*
X158797547Y-145619139D01*
X158910112Y-145458377D01*
X158964689Y-145414752D01*
X159011688Y-145405500D01*
X176585812Y-145405500D01*
X176652851Y-145425185D01*
X176687387Y-145458377D01*
X176799954Y-145619141D01*
X176960858Y-145780045D01*
X176960861Y-145780047D01*
X177147266Y-145910568D01*
X177180163Y-145925908D01*
X177205275Y-145937618D01*
X177257714Y-145983791D01*
X177276866Y-146050984D01*
X177256650Y-146117865D01*
X177205275Y-146162382D01*
X177147267Y-146189431D01*
X177147265Y-146189432D01*
X176960858Y-146319954D01*
X176799954Y-146480858D01*
X176687387Y-146641623D01*
X176632811Y-146685248D01*
X176585812Y-146694500D01*
X175829499Y-146694500D01*
X175762460Y-146674815D01*
X175716705Y-146622011D01*
X175705499Y-146570500D01*
X175705499Y-146372129D01*
X175705498Y-146372123D01*
X175701492Y-146334858D01*
X175699091Y-146312517D01*
X175689233Y-146286087D01*
X175648797Y-146177671D01*
X175648793Y-146177664D01*
X175562547Y-146062455D01*
X175562544Y-146062452D01*
X175447335Y-145976206D01*
X175447328Y-145976202D01*
X175312482Y-145925908D01*
X175312483Y-145925908D01*
X175252883Y-145919501D01*
X175252881Y-145919500D01*
X175252873Y-145919500D01*
X175252864Y-145919500D01*
X173357129Y-145919500D01*
X173357123Y-145919501D01*
X173297516Y-145925908D01*
X173162671Y-145976202D01*
X173162664Y-145976206D01*
X173047455Y-146062452D01*
X173047452Y-146062455D01*
X172961206Y-146177664D01*
X172961203Y-146177670D01*
X172932544Y-146254508D01*
X172890672Y-146310441D01*
X172825208Y-146334858D01*
X172756935Y-146320006D01*
X172725135Y-146295158D01*
X172716784Y-146286087D01*
X172716778Y-146286082D01*
X172716777Y-146286081D01*
X172533634Y-146143535D01*
X172533628Y-146143531D01*
X172329504Y-146033064D01*
X172329495Y-146033061D01*
X172109984Y-145957702D01*
X171919450Y-145925908D01*
X171881049Y-145919500D01*
X171648951Y-145919500D01*
X171610550Y-145925908D01*
X171420015Y-145957702D01*
X171200504Y-146033061D01*
X171200495Y-146033064D01*
X170996371Y-146143531D01*
X170996365Y-146143535D01*
X170813222Y-146286081D01*
X170813219Y-146286084D01*
X170813216Y-146286086D01*
X170813216Y-146286087D01*
X170768319Y-146334858D01*
X170656016Y-146456852D01*
X170529075Y-146651151D01*
X170435842Y-146863699D01*
X170378866Y-147088691D01*
X170378864Y-147088702D01*
X170359700Y-147319993D01*
X170359700Y-147320006D01*
X170378864Y-147551297D01*
X170378866Y-147551308D01*
X170435842Y-147776300D01*
X170529075Y-147988848D01*
X170656016Y-148183147D01*
X170656019Y-148183151D01*
X170656021Y-148183153D01*
X170813216Y-148353913D01*
X170813219Y-148353915D01*
X170813222Y-148353918D01*
X170996365Y-148496464D01*
X170996371Y-148496468D01*
X170996374Y-148496470D01*
X171200497Y-148606936D01*
X171254479Y-148625468D01*
X171420015Y-148682297D01*
X171420017Y-148682297D01*
X171420019Y-148682298D01*
X171648951Y-148720500D01*
X171648952Y-148720500D01*
X171881048Y-148720500D01*
X171881049Y-148720500D01*
X172109981Y-148682298D01*
X172329503Y-148606936D01*
X172533626Y-148496470D01*
X172716784Y-148353913D01*
X172725130Y-148344846D01*
X172785010Y-148308854D01*
X172854849Y-148310949D01*
X172912468Y-148350469D01*
X172932544Y-148385491D01*
X172961203Y-148462330D01*
X172961206Y-148462335D01*
X173047452Y-148577544D01*
X173047455Y-148577547D01*
X173162664Y-148663793D01*
X173162671Y-148663797D01*
X173297517Y-148714091D01*
X173297516Y-148714091D01*
X173304444Y-148714835D01*
X173357127Y-148720500D01*
X175252872Y-148720499D01*
X175312483Y-148714091D01*
X175447331Y-148663796D01*
X175562546Y-148577546D01*
X175648796Y-148462331D01*
X175699091Y-148327483D01*
X175705500Y-148267873D01*
X175705500Y-148069499D01*
X175725185Y-148002461D01*
X175777989Y-147956706D01*
X175829500Y-147945500D01*
X176585812Y-147945500D01*
X176652851Y-147965185D01*
X176687387Y-147998377D01*
X176799954Y-148159141D01*
X176960858Y-148320045D01*
X176960861Y-148320047D01*
X177147266Y-148450568D01*
X177353504Y-148546739D01*
X177573308Y-148605635D01*
X177735230Y-148619801D01*
X177799998Y-148625468D01*
X177800000Y-148625468D01*
X177800002Y-148625468D01*
X177856672Y-148620509D01*
X178026692Y-148605635D01*
X178246496Y-148546739D01*
X178452734Y-148450568D01*
X178639139Y-148320047D01*
X178800047Y-148159139D01*
X178930568Y-147972734D01*
X179026739Y-147766496D01*
X179085635Y-147546692D01*
X179102634Y-147352384D01*
X179105468Y-147320001D01*
X179105468Y-147319998D01*
X179085635Y-147093313D01*
X179085635Y-147093308D01*
X179026739Y-146873504D01*
X178930568Y-146667266D01*
X178800047Y-146480861D01*
X178800045Y-146480858D01*
X178639141Y-146319954D01*
X178452734Y-146189432D01*
X178452728Y-146189429D01*
X178394725Y-146162382D01*
X178342285Y-146116210D01*
X178323133Y-146049017D01*
X178343348Y-145982135D01*
X178394725Y-145937618D01*
X178452734Y-145910568D01*
X178639139Y-145780047D01*
X178800047Y-145619139D01*
X178912612Y-145458377D01*
X178967189Y-145414752D01*
X179014188Y-145405500D01*
X196588312Y-145405500D01*
X196655351Y-145425185D01*
X196689887Y-145458377D01*
X196802454Y-145619141D01*
X196963358Y-145780045D01*
X196963361Y-145780047D01*
X197149766Y-145910568D01*
X197182663Y-145925908D01*
X197207775Y-145937618D01*
X197260214Y-145983791D01*
X197279366Y-146050984D01*
X197259150Y-146117865D01*
X197207775Y-146162382D01*
X197149767Y-146189431D01*
X197149765Y-146189432D01*
X196963358Y-146319954D01*
X196802454Y-146480858D01*
X196689887Y-146641623D01*
X196635311Y-146685248D01*
X196588312Y-146694500D01*
X195829499Y-146694500D01*
X195762460Y-146674815D01*
X195716705Y-146622011D01*
X195705499Y-146570500D01*
X195705499Y-146372129D01*
X195705498Y-146372123D01*
X195701492Y-146334858D01*
X195699091Y-146312517D01*
X195689233Y-146286087D01*
X195648797Y-146177671D01*
X195648793Y-146177664D01*
X195562547Y-146062455D01*
X195562544Y-146062452D01*
X195447335Y-145976206D01*
X195447328Y-145976202D01*
X195312482Y-145925908D01*
X195312483Y-145925908D01*
X195252883Y-145919501D01*
X195252881Y-145919500D01*
X195252873Y-145919500D01*
X195252864Y-145919500D01*
X193357129Y-145919500D01*
X193357123Y-145919501D01*
X193297516Y-145925908D01*
X193162671Y-145976202D01*
X193162664Y-145976206D01*
X193047455Y-146062452D01*
X193047452Y-146062455D01*
X192961206Y-146177664D01*
X192961203Y-146177670D01*
X192932544Y-146254508D01*
X192890672Y-146310441D01*
X192825208Y-146334858D01*
X192756935Y-146320006D01*
X192725135Y-146295158D01*
X192716784Y-146286087D01*
X192716778Y-146286082D01*
X192716777Y-146286081D01*
X192533634Y-146143535D01*
X192533628Y-146143531D01*
X192329504Y-146033064D01*
X192329495Y-146033061D01*
X192109984Y-145957702D01*
X191919450Y-145925908D01*
X191881049Y-145919500D01*
X191648951Y-145919500D01*
X191610550Y-145925908D01*
X191420015Y-145957702D01*
X191200504Y-146033061D01*
X191200495Y-146033064D01*
X190996371Y-146143531D01*
X190996365Y-146143535D01*
X190813222Y-146286081D01*
X190813219Y-146286084D01*
X190813216Y-146286086D01*
X190813216Y-146286087D01*
X190768319Y-146334858D01*
X190656016Y-146456852D01*
X190529075Y-146651151D01*
X190435842Y-146863699D01*
X190378866Y-147088691D01*
X190378864Y-147088702D01*
X190359700Y-147319993D01*
X190359700Y-147320006D01*
X190378864Y-147551297D01*
X190378866Y-147551308D01*
X190435842Y-147776300D01*
X190529075Y-147988848D01*
X190656016Y-148183147D01*
X190656019Y-148183151D01*
X190656021Y-148183153D01*
X190813216Y-148353913D01*
X190813219Y-148353915D01*
X190813222Y-148353918D01*
X190996365Y-148496464D01*
X190996371Y-148496468D01*
X190996374Y-148496470D01*
X191200497Y-148606936D01*
X191254479Y-148625468D01*
X191420015Y-148682297D01*
X191420017Y-148682297D01*
X191420019Y-148682298D01*
X191648951Y-148720500D01*
X191648952Y-148720500D01*
X191881048Y-148720500D01*
X191881049Y-148720500D01*
X192109981Y-148682298D01*
X192329503Y-148606936D01*
X192533626Y-148496470D01*
X192716784Y-148353913D01*
X192725130Y-148344846D01*
X192785010Y-148308854D01*
X192854849Y-148310949D01*
X192912468Y-148350469D01*
X192932544Y-148385491D01*
X192961203Y-148462330D01*
X192961206Y-148462335D01*
X193047452Y-148577544D01*
X193047455Y-148577547D01*
X193162664Y-148663793D01*
X193162671Y-148663797D01*
X193297517Y-148714091D01*
X193297516Y-148714091D01*
X193304444Y-148714835D01*
X193357127Y-148720500D01*
X195252872Y-148720499D01*
X195312483Y-148714091D01*
X195447331Y-148663796D01*
X195562546Y-148577546D01*
X195648796Y-148462331D01*
X195699091Y-148327483D01*
X195705500Y-148267873D01*
X195705500Y-148069500D01*
X195725185Y-148002461D01*
X195777989Y-147956706D01*
X195829500Y-147945500D01*
X196588312Y-147945500D01*
X196655351Y-147965185D01*
X196689887Y-147998377D01*
X196802454Y-148159141D01*
X196963358Y-148320045D01*
X196963361Y-148320047D01*
X197149766Y-148450568D01*
X197356004Y-148546739D01*
X197575808Y-148605635D01*
X197737730Y-148619801D01*
X197802498Y-148625468D01*
X197802500Y-148625468D01*
X197802502Y-148625468D01*
X197859172Y-148620509D01*
X198029192Y-148605635D01*
X198248996Y-148546739D01*
X198455234Y-148450568D01*
X198641639Y-148320047D01*
X198802547Y-148159139D01*
X198933068Y-147972734D01*
X199029239Y-147766496D01*
X199088135Y-147546692D01*
X199105134Y-147352384D01*
X199107968Y-147320001D01*
X199107968Y-147319998D01*
X199088135Y-147093313D01*
X199088135Y-147093308D01*
X199029239Y-146873504D01*
X198933068Y-146667266D01*
X198802547Y-146480861D01*
X198802545Y-146480858D01*
X198641641Y-146319954D01*
X198455234Y-146189432D01*
X198455228Y-146189429D01*
X198397225Y-146162382D01*
X198344785Y-146116210D01*
X198325633Y-146049017D01*
X198345848Y-145982135D01*
X198397225Y-145937618D01*
X198455234Y-145910568D01*
X198641639Y-145780047D01*
X198802547Y-145619139D01*
X198915112Y-145458377D01*
X198969689Y-145414752D01*
X199016688Y-145405500D01*
X216590812Y-145405500D01*
X216657851Y-145425185D01*
X216692387Y-145458377D01*
X216804954Y-145619141D01*
X216965858Y-145780045D01*
X216965861Y-145780047D01*
X217152266Y-145910568D01*
X217185163Y-145925908D01*
X217210275Y-145937618D01*
X217262714Y-145983791D01*
X217281866Y-146050984D01*
X217261650Y-146117865D01*
X217210275Y-146162382D01*
X217152267Y-146189431D01*
X217152265Y-146189432D01*
X216965858Y-146319954D01*
X216804954Y-146480858D01*
X216692387Y-146641623D01*
X216637811Y-146685248D01*
X216590812Y-146694500D01*
X215829499Y-146694500D01*
X215762460Y-146674815D01*
X215716705Y-146622011D01*
X215705499Y-146570500D01*
X215705499Y-146372129D01*
X215705498Y-146372123D01*
X215701492Y-146334858D01*
X215699091Y-146312517D01*
X215689233Y-146286087D01*
X215648797Y-146177671D01*
X215648793Y-146177664D01*
X215562547Y-146062455D01*
X215562544Y-146062452D01*
X215447335Y-145976206D01*
X215447328Y-145976202D01*
X215312482Y-145925908D01*
X215312483Y-145925908D01*
X215252883Y-145919501D01*
X215252881Y-145919500D01*
X215252873Y-145919500D01*
X215252864Y-145919500D01*
X213357129Y-145919500D01*
X213357123Y-145919501D01*
X213297516Y-145925908D01*
X213162671Y-145976202D01*
X213162664Y-145976206D01*
X213047455Y-146062452D01*
X213047452Y-146062455D01*
X212961206Y-146177664D01*
X212961203Y-146177670D01*
X212932544Y-146254508D01*
X212890672Y-146310441D01*
X212825208Y-146334858D01*
X212756935Y-146320006D01*
X212725135Y-146295158D01*
X212716784Y-146286087D01*
X212716778Y-146286082D01*
X212716777Y-146286081D01*
X212533634Y-146143535D01*
X212533628Y-146143531D01*
X212329504Y-146033064D01*
X212329495Y-146033061D01*
X212109984Y-145957702D01*
X211919450Y-145925908D01*
X211881049Y-145919500D01*
X211648951Y-145919500D01*
X211610550Y-145925908D01*
X211420015Y-145957702D01*
X211200504Y-146033061D01*
X211200495Y-146033064D01*
X210996371Y-146143531D01*
X210996365Y-146143535D01*
X210813222Y-146286081D01*
X210813219Y-146286084D01*
X210813216Y-146286086D01*
X210813216Y-146286087D01*
X210768319Y-146334858D01*
X210656016Y-146456852D01*
X210529075Y-146651151D01*
X210435842Y-146863699D01*
X210378866Y-147088691D01*
X210378864Y-147088702D01*
X210359700Y-147319993D01*
X210359700Y-147320006D01*
X210378864Y-147551297D01*
X210378866Y-147551308D01*
X210435842Y-147776300D01*
X210529075Y-147988848D01*
X210656016Y-148183147D01*
X210656019Y-148183151D01*
X210656021Y-148183153D01*
X210813216Y-148353913D01*
X210813219Y-148353915D01*
X210813222Y-148353918D01*
X210996365Y-148496464D01*
X210996371Y-148496468D01*
X210996374Y-148496470D01*
X211200497Y-148606936D01*
X211254479Y-148625468D01*
X211420015Y-148682297D01*
X211420017Y-148682297D01*
X211420019Y-148682298D01*
X211648951Y-148720500D01*
X211648952Y-148720500D01*
X211881048Y-148720500D01*
X211881049Y-148720500D01*
X212109981Y-148682298D01*
X212329503Y-148606936D01*
X212533626Y-148496470D01*
X212716784Y-148353913D01*
X212725130Y-148344846D01*
X212785010Y-148308854D01*
X212854849Y-148310949D01*
X212912468Y-148350469D01*
X212932544Y-148385491D01*
X212961203Y-148462330D01*
X212961206Y-148462335D01*
X213047452Y-148577544D01*
X213047455Y-148577547D01*
X213162664Y-148663793D01*
X213162671Y-148663797D01*
X213297517Y-148714091D01*
X213297516Y-148714091D01*
X213304444Y-148714835D01*
X213357127Y-148720500D01*
X215252872Y-148720499D01*
X215312483Y-148714091D01*
X215447331Y-148663796D01*
X215562546Y-148577546D01*
X215648796Y-148462331D01*
X215699091Y-148327483D01*
X215705500Y-148267873D01*
X215705500Y-148069500D01*
X215725185Y-148002461D01*
X215777989Y-147956706D01*
X215829500Y-147945500D01*
X216590812Y-147945500D01*
X216657851Y-147965185D01*
X216692387Y-147998377D01*
X216804954Y-148159141D01*
X216965858Y-148320045D01*
X216965861Y-148320047D01*
X217152266Y-148450568D01*
X217358504Y-148546739D01*
X217578308Y-148605635D01*
X217740230Y-148619801D01*
X217804998Y-148625468D01*
X217805000Y-148625468D01*
X217805002Y-148625468D01*
X217861672Y-148620509D01*
X218031692Y-148605635D01*
X218251496Y-148546739D01*
X218457734Y-148450568D01*
X218644139Y-148320047D01*
X218805047Y-148159139D01*
X218935568Y-147972734D01*
X219031739Y-147766496D01*
X219090635Y-147546692D01*
X219107634Y-147352384D01*
X219110468Y-147320001D01*
X219110468Y-147319998D01*
X219090635Y-147093313D01*
X219090635Y-147093308D01*
X219031739Y-146873504D01*
X218935568Y-146667266D01*
X218805047Y-146480861D01*
X218805045Y-146480858D01*
X218644141Y-146319954D01*
X218457734Y-146189432D01*
X218457728Y-146189429D01*
X218399725Y-146162382D01*
X218347285Y-146116210D01*
X218328133Y-146049017D01*
X218348348Y-145982135D01*
X218399725Y-145937618D01*
X218457734Y-145910568D01*
X218644139Y-145780047D01*
X218805047Y-145619139D01*
X218935568Y-145432734D01*
X219031739Y-145226496D01*
X219090635Y-145006692D01*
X219110468Y-144780000D01*
X219090635Y-144553308D01*
X219072318Y-144484947D01*
X219073981Y-144415101D01*
X219104410Y-144365178D01*
X222125786Y-141343802D01*
X222138048Y-141333980D01*
X222137865Y-141333759D01*
X222143867Y-141328792D01*
X222143877Y-141328786D01*
X222191241Y-141278348D01*
X222212120Y-141257470D01*
X222216370Y-141251989D01*
X222220151Y-141247561D01*
X222252062Y-141213582D01*
X222261713Y-141196024D01*
X222272396Y-141179761D01*
X222284673Y-141163936D01*
X222303183Y-141121158D01*
X222305743Y-141115932D01*
X222328197Y-141075092D01*
X222333178Y-141055687D01*
X222339482Y-141037279D01*
X222339835Y-141036464D01*
X222347438Y-141018895D01*
X222354729Y-140972853D01*
X222355906Y-140967166D01*
X222367500Y-140922019D01*
X222367499Y-140901986D01*
X222369027Y-140882583D01*
X222372159Y-140862808D01*
X222372160Y-140862806D01*
X222367775Y-140816415D01*
X222367500Y-140810577D01*
X222367500Y-135072188D01*
X222387185Y-135005149D01*
X222420377Y-134970613D01*
X222468836Y-134936681D01*
X222581139Y-134858047D01*
X222742047Y-134697139D01*
X222872568Y-134510734D01*
X222899618Y-134452724D01*
X222945790Y-134400285D01*
X223012983Y-134381133D01*
X223079865Y-134401348D01*
X223124382Y-134452725D01*
X223151429Y-134510728D01*
X223151432Y-134510734D01*
X223281954Y-134697141D01*
X223442859Y-134858046D01*
X223626624Y-134986719D01*
X223670249Y-135041296D01*
X223679501Y-135088294D01*
X223679502Y-135795500D01*
X223659818Y-135862539D01*
X223607014Y-135908294D01*
X223555503Y-135919500D01*
X223357132Y-135919500D01*
X223357125Y-135919501D01*
X223297518Y-135925908D01*
X223162673Y-135976202D01*
X223162666Y-135976206D01*
X223047457Y-136062452D01*
X223047454Y-136062455D01*
X222961208Y-136177664D01*
X222961204Y-136177671D01*
X222910910Y-136312517D01*
X222904503Y-136372115D01*
X222904503Y-136372123D01*
X222904502Y-136372135D01*
X222904502Y-138267870D01*
X222904503Y-138267876D01*
X222910910Y-138327483D01*
X222961204Y-138462328D01*
X222961208Y-138462335D01*
X223047454Y-138577544D01*
X223047457Y-138577547D01*
X223162666Y-138663793D01*
X223162675Y-138663798D01*
X223242906Y-138693722D01*
X223298840Y-138735593D01*
X223323258Y-138801057D01*
X223308407Y-138869330D01*
X223290804Y-138893886D01*
X223196021Y-138996849D01*
X223069077Y-139191151D01*
X222975844Y-139403699D01*
X222918868Y-139628691D01*
X222918866Y-139628702D01*
X222899702Y-139859993D01*
X222899702Y-139860006D01*
X222918866Y-140091297D01*
X222918868Y-140091308D01*
X222975844Y-140316300D01*
X223069077Y-140528848D01*
X223196018Y-140723147D01*
X223196021Y-140723151D01*
X223196023Y-140723153D01*
X223353218Y-140893913D01*
X223353221Y-140893915D01*
X223353224Y-140893918D01*
X223536367Y-141036464D01*
X223536373Y-141036468D01*
X223536376Y-141036470D01*
X223740499Y-141146936D01*
X223854489Y-141186068D01*
X223960017Y-141222297D01*
X223960019Y-141222297D01*
X223960021Y-141222298D01*
X224188953Y-141260500D01*
X224188954Y-141260500D01*
X224421050Y-141260500D01*
X224421051Y-141260500D01*
X224649983Y-141222298D01*
X224869505Y-141146936D01*
X225073628Y-141036470D01*
X225096209Y-141018895D01*
X225159052Y-140969982D01*
X225256786Y-140893913D01*
X225413981Y-140723153D01*
X225540926Y-140528849D01*
X225634159Y-140316300D01*
X225691136Y-140091305D01*
X225691137Y-140091297D01*
X225710302Y-139860006D01*
X225710302Y-139859993D01*
X225691137Y-139628702D01*
X225691135Y-139628691D01*
X225634159Y-139403699D01*
X225540926Y-139191151D01*
X225413985Y-138996852D01*
X225413982Y-138996849D01*
X225413981Y-138996847D01*
X225319197Y-138893884D01*
X225288277Y-138831232D01*
X225296137Y-138761806D01*
X225340285Y-138707651D01*
X225367097Y-138693722D01*
X225447328Y-138663798D01*
X225447328Y-138663797D01*
X225447333Y-138663796D01*
X225562548Y-138577546D01*
X225648798Y-138462331D01*
X225699093Y-138327483D01*
X225705502Y-138267873D01*
X225705501Y-136372128D01*
X225699093Y-136312517D01*
X225699092Y-136312515D01*
X225648799Y-136177671D01*
X225648795Y-136177664D01*
X225562549Y-136062455D01*
X225562546Y-136062452D01*
X225447337Y-135976206D01*
X225447330Y-135976202D01*
X225312484Y-135925908D01*
X225312485Y-135925908D01*
X225252885Y-135919501D01*
X225252883Y-135919500D01*
X225252875Y-135919500D01*
X225252867Y-135919500D01*
X225054502Y-135919500D01*
X224987463Y-135899815D01*
X224941708Y-135847011D01*
X224930502Y-135795500D01*
X224930502Y-135056081D01*
X224950187Y-134989042D01*
X224983373Y-134954510D01*
X225121139Y-134858047D01*
X225282047Y-134697139D01*
X225412568Y-134510734D01*
X225508739Y-134304496D01*
X225567635Y-134084692D01*
X225587468Y-133858000D01*
X225567635Y-133631308D01*
X225522916Y-133464415D01*
X225508741Y-133411511D01*
X225508738Y-133411502D01*
X225473002Y-133334866D01*
X225412568Y-133205266D01*
X225282047Y-133018861D01*
X225282045Y-133018858D01*
X225121141Y-132857954D01*
X224934734Y-132727432D01*
X224934732Y-132727431D01*
X224728497Y-132631261D01*
X224728488Y-132631258D01*
X224508697Y-132572366D01*
X224508693Y-132572365D01*
X224508692Y-132572365D01*
X224508691Y-132572364D01*
X224508686Y-132572364D01*
X224282002Y-132552532D01*
X224281998Y-132552532D01*
X224055313Y-132572364D01*
X224055302Y-132572366D01*
X223835511Y-132631258D01*
X223835502Y-132631261D01*
X223629267Y-132727431D01*
X223629265Y-132727432D01*
X223442858Y-132857954D01*
X223281954Y-133018858D01*
X223151432Y-133205265D01*
X223151431Y-133205267D01*
X223124382Y-133263275D01*
X223078209Y-133315714D01*
X223011016Y-133334866D01*
X222944135Y-133314650D01*
X222899618Y-133263275D01*
X222872568Y-133205267D01*
X222872567Y-133205265D01*
X222742045Y-133018858D01*
X222581140Y-132857953D01*
X222420377Y-132745386D01*
X222376752Y-132690809D01*
X222367500Y-132643811D01*
X222367500Y-115069688D01*
X222387185Y-115002649D01*
X222420377Y-114968113D01*
X222468836Y-114934181D01*
X222581139Y-114855547D01*
X222742047Y-114694639D01*
X222872568Y-114508234D01*
X222899618Y-114450224D01*
X222945790Y-114397785D01*
X223012983Y-114378633D01*
X223079865Y-114398848D01*
X223124382Y-114450225D01*
X223151429Y-114508228D01*
X223151432Y-114508234D01*
X223281954Y-114694641D01*
X223442858Y-114855545D01*
X223626625Y-114984219D01*
X223670250Y-115038795D01*
X223679502Y-115085794D01*
X223679502Y-115795500D01*
X223659817Y-115862539D01*
X223607013Y-115908294D01*
X223555503Y-115919500D01*
X223357132Y-115919500D01*
X223357125Y-115919501D01*
X223297518Y-115925908D01*
X223162673Y-115976202D01*
X223162666Y-115976206D01*
X223047457Y-116062452D01*
X223047454Y-116062455D01*
X222961208Y-116177664D01*
X222961204Y-116177671D01*
X222910910Y-116312517D01*
X222904503Y-116372115D01*
X222904503Y-116372123D01*
X222904502Y-116372135D01*
X222904502Y-118267870D01*
X222904503Y-118267876D01*
X222910910Y-118327483D01*
X222961204Y-118462328D01*
X222961208Y-118462335D01*
X223047454Y-118577544D01*
X223047457Y-118577547D01*
X223162666Y-118663793D01*
X223162675Y-118663798D01*
X223242906Y-118693722D01*
X223298840Y-118735593D01*
X223323258Y-118801057D01*
X223308407Y-118869330D01*
X223290804Y-118893886D01*
X223196021Y-118996849D01*
X223069077Y-119191151D01*
X222975844Y-119403699D01*
X222918868Y-119628691D01*
X222918866Y-119628702D01*
X222899702Y-119859993D01*
X222899702Y-119860006D01*
X222918866Y-120091297D01*
X222918868Y-120091308D01*
X222975844Y-120316300D01*
X223069077Y-120528848D01*
X223196018Y-120723147D01*
X223196021Y-120723151D01*
X223196023Y-120723153D01*
X223353218Y-120893913D01*
X223353221Y-120893915D01*
X223353224Y-120893918D01*
X223536367Y-121036464D01*
X223536373Y-121036468D01*
X223536376Y-121036470D01*
X223740499Y-121146936D01*
X223854489Y-121186068D01*
X223960017Y-121222297D01*
X223960019Y-121222297D01*
X223960021Y-121222298D01*
X224188953Y-121260500D01*
X224188954Y-121260500D01*
X224421050Y-121260500D01*
X224421051Y-121260500D01*
X224649983Y-121222298D01*
X224869505Y-121146936D01*
X225073628Y-121036470D01*
X225256786Y-120893913D01*
X225413981Y-120723153D01*
X225540926Y-120528849D01*
X225634159Y-120316300D01*
X225691136Y-120091305D01*
X225691137Y-120091297D01*
X225710302Y-119860006D01*
X225710302Y-119859993D01*
X225691137Y-119628702D01*
X225691135Y-119628691D01*
X225634159Y-119403699D01*
X225540926Y-119191151D01*
X225413985Y-118996852D01*
X225413982Y-118996849D01*
X225413981Y-118996847D01*
X225319197Y-118893884D01*
X225288277Y-118831232D01*
X225296137Y-118761806D01*
X225340285Y-118707651D01*
X225367097Y-118693722D01*
X225447328Y-118663798D01*
X225447328Y-118663797D01*
X225447333Y-118663796D01*
X225562548Y-118577546D01*
X225648798Y-118462331D01*
X225699093Y-118327483D01*
X225705502Y-118267873D01*
X225705501Y-116372128D01*
X225699093Y-116312517D01*
X225699092Y-116312515D01*
X225648799Y-116177671D01*
X225648795Y-116177664D01*
X225562549Y-116062455D01*
X225562546Y-116062452D01*
X225447337Y-115976206D01*
X225447330Y-115976202D01*
X225312484Y-115925908D01*
X225312485Y-115925908D01*
X225252885Y-115919501D01*
X225252883Y-115919500D01*
X225252875Y-115919500D01*
X225252867Y-115919500D01*
X225054502Y-115919500D01*
X224987463Y-115899815D01*
X224941708Y-115847011D01*
X224930502Y-115795500D01*
X224930502Y-115053581D01*
X224950187Y-114986542D01*
X224983373Y-114952010D01*
X225121139Y-114855547D01*
X225282047Y-114694639D01*
X225412568Y-114508234D01*
X225508739Y-114301996D01*
X225567635Y-114082192D01*
X225587468Y-113855500D01*
X225567635Y-113628808D01*
X225508739Y-113409004D01*
X225412568Y-113202766D01*
X225282047Y-113016361D01*
X225282045Y-113016358D01*
X225121141Y-112855454D01*
X224934734Y-112724932D01*
X224934732Y-112724931D01*
X224728497Y-112628761D01*
X224728488Y-112628758D01*
X224508697Y-112569866D01*
X224508693Y-112569865D01*
X224508692Y-112569865D01*
X224508691Y-112569864D01*
X224508686Y-112569864D01*
X224282002Y-112550032D01*
X224281998Y-112550032D01*
X224055313Y-112569864D01*
X224055302Y-112569866D01*
X223835511Y-112628758D01*
X223835502Y-112628761D01*
X223629267Y-112724931D01*
X223629265Y-112724932D01*
X223442858Y-112855454D01*
X223281954Y-113016358D01*
X223151432Y-113202765D01*
X223151430Y-113202768D01*
X223124380Y-113260777D01*
X223078207Y-113313215D01*
X223011013Y-113332366D01*
X222944132Y-113312149D01*
X222899619Y-113260777D01*
X222872568Y-113202766D01*
X222742047Y-113016361D01*
X222742045Y-113016358D01*
X222581140Y-112855453D01*
X222420377Y-112742886D01*
X222376752Y-112688309D01*
X222367500Y-112641311D01*
X222367500Y-95067188D01*
X222387185Y-95000149D01*
X222420377Y-94965613D01*
X222468836Y-94931681D01*
X222581139Y-94853047D01*
X222742047Y-94692139D01*
X222872568Y-94505734D01*
X222899619Y-94447721D01*
X222945788Y-94395286D01*
X223012981Y-94376133D01*
X223079862Y-94396348D01*
X223124380Y-94447722D01*
X223151432Y-94505734D01*
X223151433Y-94505735D01*
X223281954Y-94692141D01*
X223442855Y-94853042D01*
X223442858Y-94853044D01*
X223442861Y-94853047D01*
X223626627Y-94981720D01*
X223670249Y-95036293D01*
X223679501Y-95083292D01*
X223679501Y-95795500D01*
X223659816Y-95862539D01*
X223607012Y-95908294D01*
X223555502Y-95919500D01*
X223357132Y-95919500D01*
X223357125Y-95919501D01*
X223297518Y-95925908D01*
X223162673Y-95976202D01*
X223162666Y-95976206D01*
X223047457Y-96062452D01*
X223047454Y-96062455D01*
X222961208Y-96177664D01*
X222961204Y-96177671D01*
X222910910Y-96312517D01*
X222904503Y-96372115D01*
X222904503Y-96372123D01*
X222904502Y-96372135D01*
X222904502Y-98267870D01*
X222904503Y-98267876D01*
X222910910Y-98327483D01*
X222961204Y-98462328D01*
X222961208Y-98462335D01*
X223047454Y-98577544D01*
X223047457Y-98577547D01*
X223162666Y-98663793D01*
X223162675Y-98663798D01*
X223242906Y-98693722D01*
X223298840Y-98735593D01*
X223323258Y-98801057D01*
X223308407Y-98869330D01*
X223290804Y-98893886D01*
X223196021Y-98996849D01*
X223069077Y-99191151D01*
X222975844Y-99403699D01*
X222918868Y-99628691D01*
X222918866Y-99628702D01*
X222899702Y-99859993D01*
X222899702Y-99860006D01*
X222918866Y-100091297D01*
X222918868Y-100091308D01*
X222975844Y-100316300D01*
X223069077Y-100528848D01*
X223196018Y-100723147D01*
X223196021Y-100723151D01*
X223196023Y-100723153D01*
X223353218Y-100893913D01*
X223353221Y-100893915D01*
X223353224Y-100893918D01*
X223536367Y-101036464D01*
X223536373Y-101036468D01*
X223536376Y-101036470D01*
X223740499Y-101146936D01*
X223854489Y-101186068D01*
X223960017Y-101222297D01*
X223960019Y-101222297D01*
X223960021Y-101222298D01*
X224188953Y-101260500D01*
X224188954Y-101260500D01*
X224421050Y-101260500D01*
X224421051Y-101260500D01*
X224649983Y-101222298D01*
X224869505Y-101146936D01*
X225073628Y-101036470D01*
X225256786Y-100893913D01*
X225413981Y-100723153D01*
X225540926Y-100528849D01*
X225634159Y-100316300D01*
X225691136Y-100091305D01*
X225710302Y-99860000D01*
X225710302Y-99859993D01*
X225691137Y-99628702D01*
X225691135Y-99628691D01*
X225634159Y-99403699D01*
X225540926Y-99191151D01*
X225413985Y-98996852D01*
X225413982Y-98996849D01*
X225413981Y-98996847D01*
X225319197Y-98893884D01*
X225288277Y-98831232D01*
X225296137Y-98761806D01*
X225340285Y-98707651D01*
X225367097Y-98693722D01*
X225447328Y-98663798D01*
X225447328Y-98663797D01*
X225447333Y-98663796D01*
X225562548Y-98577546D01*
X225648798Y-98462331D01*
X225699093Y-98327483D01*
X225705502Y-98267873D01*
X225705501Y-96372128D01*
X225699093Y-96312517D01*
X225699092Y-96312515D01*
X225648799Y-96177671D01*
X225648795Y-96177664D01*
X225562549Y-96062455D01*
X225562546Y-96062452D01*
X225447337Y-95976206D01*
X225447330Y-95976202D01*
X225312484Y-95925908D01*
X225312485Y-95925908D01*
X225252885Y-95919501D01*
X225252883Y-95919500D01*
X225252875Y-95919500D01*
X225252867Y-95919500D01*
X225054502Y-95919500D01*
X224987463Y-95899815D01*
X224941708Y-95847011D01*
X224930502Y-95795500D01*
X224930502Y-95051081D01*
X224950187Y-94984042D01*
X224983373Y-94949510D01*
X225121139Y-94853047D01*
X225282047Y-94692139D01*
X225412568Y-94505734D01*
X225508739Y-94299496D01*
X225567635Y-94079692D01*
X225587468Y-93853000D01*
X225567635Y-93626308D01*
X225508739Y-93406504D01*
X225412568Y-93200266D01*
X225282047Y-93013861D01*
X225282045Y-93013858D01*
X225121141Y-92852954D01*
X224934734Y-92722432D01*
X224934732Y-92722431D01*
X224728497Y-92626261D01*
X224728488Y-92626258D01*
X224508697Y-92567366D01*
X224508693Y-92567365D01*
X224508692Y-92567365D01*
X224508691Y-92567364D01*
X224508686Y-92567364D01*
X224282002Y-92547532D01*
X224281998Y-92547532D01*
X224055313Y-92567364D01*
X224055302Y-92567366D01*
X223835511Y-92626258D01*
X223835502Y-92626261D01*
X223629267Y-92722431D01*
X223629265Y-92722432D01*
X223442858Y-92852954D01*
X223281954Y-93013858D01*
X223151432Y-93200265D01*
X223151431Y-93200267D01*
X223124382Y-93258275D01*
X223078209Y-93310714D01*
X223011016Y-93329866D01*
X222944135Y-93309650D01*
X222899618Y-93258275D01*
X222872568Y-93200267D01*
X222872567Y-93200265D01*
X222742045Y-93013858D01*
X222581140Y-92852953D01*
X222420377Y-92740386D01*
X222376752Y-92685809D01*
X222367500Y-92638811D01*
X222367500Y-75064688D01*
X222387185Y-74997649D01*
X222420377Y-74963113D01*
X222468836Y-74929181D01*
X222581139Y-74850547D01*
X222742047Y-74689639D01*
X222872568Y-74503234D01*
X222899618Y-74445224D01*
X222945790Y-74392785D01*
X223012983Y-74373633D01*
X223079865Y-74393848D01*
X223124382Y-74445225D01*
X223151429Y-74503228D01*
X223151432Y-74503234D01*
X223281954Y-74689641D01*
X223442859Y-74850546D01*
X223626624Y-74979219D01*
X223670249Y-75033796D01*
X223679501Y-75080794D01*
X223679501Y-75795500D01*
X223659816Y-75862539D01*
X223607012Y-75908294D01*
X223555502Y-75919500D01*
X223357132Y-75919500D01*
X223357125Y-75919501D01*
X223297518Y-75925908D01*
X223162673Y-75976202D01*
X223162666Y-75976206D01*
X223047457Y-76062452D01*
X223047454Y-76062455D01*
X222961208Y-76177664D01*
X222961204Y-76177671D01*
X222910910Y-76312517D01*
X222904503Y-76372115D01*
X222904503Y-76372123D01*
X222904502Y-76372135D01*
X222904502Y-78267870D01*
X222904503Y-78267876D01*
X222910910Y-78327483D01*
X222961204Y-78462328D01*
X222961208Y-78462335D01*
X223047454Y-78577544D01*
X223047457Y-78577547D01*
X223162666Y-78663793D01*
X223162675Y-78663798D01*
X223242906Y-78693722D01*
X223298840Y-78735593D01*
X223323258Y-78801057D01*
X223308407Y-78869330D01*
X223290804Y-78893886D01*
X223196021Y-78996849D01*
X223069077Y-79191151D01*
X222975844Y-79403699D01*
X222918868Y-79628691D01*
X222918866Y-79628702D01*
X222899702Y-79859993D01*
X222899702Y-79860006D01*
X222918866Y-80091297D01*
X222918868Y-80091308D01*
X222975844Y-80316300D01*
X223069077Y-80528848D01*
X223196018Y-80723147D01*
X223196021Y-80723151D01*
X223196023Y-80723153D01*
X223353218Y-80893913D01*
X223353221Y-80893915D01*
X223353224Y-80893918D01*
X223536367Y-81036464D01*
X223536373Y-81036468D01*
X223536376Y-81036470D01*
X223740499Y-81146936D01*
X223854489Y-81186068D01*
X223960017Y-81222297D01*
X223960019Y-81222297D01*
X223960021Y-81222298D01*
X224188953Y-81260500D01*
X224188954Y-81260500D01*
X224421050Y-81260500D01*
X224421051Y-81260500D01*
X224649983Y-81222298D01*
X224869505Y-81146936D01*
X225073628Y-81036470D01*
X225256786Y-80893913D01*
X225413981Y-80723153D01*
X225540926Y-80528849D01*
X225634159Y-80316300D01*
X225691136Y-80091305D01*
X225710302Y-79860000D01*
X225710302Y-79859993D01*
X225691137Y-79628702D01*
X225691135Y-79628691D01*
X225634159Y-79403699D01*
X225540926Y-79191151D01*
X225413985Y-78996852D01*
X225413982Y-78996849D01*
X225413981Y-78996847D01*
X225319197Y-78893884D01*
X225288277Y-78831232D01*
X225296137Y-78761806D01*
X225340285Y-78707651D01*
X225367097Y-78693722D01*
X225447328Y-78663798D01*
X225447328Y-78663797D01*
X225447333Y-78663796D01*
X225562548Y-78577546D01*
X225648798Y-78462331D01*
X225699093Y-78327483D01*
X225705502Y-78267873D01*
X225705501Y-76372128D01*
X225699093Y-76312517D01*
X225699092Y-76312515D01*
X225648799Y-76177671D01*
X225648795Y-76177664D01*
X225562549Y-76062455D01*
X225562546Y-76062452D01*
X225447337Y-75976206D01*
X225447330Y-75976202D01*
X225312484Y-75925908D01*
X225312485Y-75925908D01*
X225252885Y-75919501D01*
X225252883Y-75919500D01*
X225252875Y-75919500D01*
X225252867Y-75919500D01*
X225054502Y-75919500D01*
X224987463Y-75899815D01*
X224941708Y-75847011D01*
X224930502Y-75795500D01*
X224930502Y-75448847D01*
X224930502Y-75048577D01*
X224950185Y-74981542D01*
X224983373Y-74947010D01*
X225121139Y-74850547D01*
X225282047Y-74689639D01*
X225412568Y-74503234D01*
X225508739Y-74296996D01*
X225567635Y-74077192D01*
X225587468Y-73850500D01*
X225567635Y-73623808D01*
X225508739Y-73404004D01*
X225412568Y-73197766D01*
X225282047Y-73011361D01*
X225282045Y-73011358D01*
X225121141Y-72850454D01*
X224934734Y-72719932D01*
X224934732Y-72719931D01*
X224728497Y-72623761D01*
X224728488Y-72623758D01*
X224508697Y-72564866D01*
X224508693Y-72564865D01*
X224508692Y-72564865D01*
X224508691Y-72564864D01*
X224508686Y-72564864D01*
X224282002Y-72545032D01*
X224281998Y-72545032D01*
X224055313Y-72564864D01*
X224055302Y-72564866D01*
X223835511Y-72623758D01*
X223835502Y-72623761D01*
X223629267Y-72719931D01*
X223629265Y-72719932D01*
X223442858Y-72850454D01*
X223281954Y-73011358D01*
X223151432Y-73197765D01*
X223151431Y-73197767D01*
X223124382Y-73255775D01*
X223078209Y-73308214D01*
X223011016Y-73327366D01*
X222944135Y-73307150D01*
X222899618Y-73255775D01*
X222872568Y-73197767D01*
X222872567Y-73197765D01*
X222742045Y-73011358D01*
X222581140Y-72850453D01*
X222420377Y-72737886D01*
X222376752Y-72683309D01*
X222367500Y-72636311D01*
X222367500Y-55062188D01*
X222387185Y-54995149D01*
X222420377Y-54960613D01*
X222468836Y-54926681D01*
X222581139Y-54848047D01*
X222742047Y-54687139D01*
X222872568Y-54500734D01*
X222899618Y-54442724D01*
X222945790Y-54390285D01*
X223012983Y-54371133D01*
X223079865Y-54391348D01*
X223124382Y-54442725D01*
X223151429Y-54500728D01*
X223151432Y-54500734D01*
X223281954Y-54687141D01*
X223442859Y-54848046D01*
X223626624Y-54976719D01*
X223670249Y-55031296D01*
X223679501Y-55078294D01*
X223679501Y-55795500D01*
X223659816Y-55862539D01*
X223607012Y-55908294D01*
X223555502Y-55919500D01*
X223357132Y-55919500D01*
X223357125Y-55919501D01*
X223297518Y-55925908D01*
X223162673Y-55976202D01*
X223162666Y-55976206D01*
X223047457Y-56062452D01*
X223047454Y-56062455D01*
X222961208Y-56177664D01*
X222961204Y-56177671D01*
X222910910Y-56312517D01*
X222904503Y-56372115D01*
X222904503Y-56372123D01*
X222904502Y-56372135D01*
X222904502Y-58267870D01*
X222904503Y-58267876D01*
X222910910Y-58327483D01*
X222961204Y-58462328D01*
X222961208Y-58462335D01*
X223047454Y-58577544D01*
X223047457Y-58577547D01*
X223162666Y-58663793D01*
X223162675Y-58663798D01*
X223242906Y-58693722D01*
X223298840Y-58735593D01*
X223323258Y-58801057D01*
X223308407Y-58869330D01*
X223290804Y-58893886D01*
X223196021Y-58996849D01*
X223069077Y-59191151D01*
X222975844Y-59403699D01*
X222918868Y-59628691D01*
X222918866Y-59628702D01*
X222899702Y-59859993D01*
X222899702Y-59860006D01*
X222918866Y-60091297D01*
X222918868Y-60091308D01*
X222975844Y-60316300D01*
X223069077Y-60528848D01*
X223196018Y-60723147D01*
X223196021Y-60723151D01*
X223196023Y-60723153D01*
X223353218Y-60893913D01*
X223353221Y-60893915D01*
X223353224Y-60893918D01*
X223536367Y-61036464D01*
X223536373Y-61036468D01*
X223536376Y-61036470D01*
X223740499Y-61146936D01*
X223854489Y-61186068D01*
X223960017Y-61222297D01*
X223960019Y-61222297D01*
X223960021Y-61222298D01*
X224188953Y-61260500D01*
X224188954Y-61260500D01*
X224421050Y-61260500D01*
X224421051Y-61260500D01*
X224649983Y-61222298D01*
X224869505Y-61146936D01*
X225073628Y-61036470D01*
X225076427Y-61034292D01*
X225173691Y-60958588D01*
X225256786Y-60893913D01*
X225413981Y-60723153D01*
X225540926Y-60528849D01*
X225634159Y-60316300D01*
X225691136Y-60091305D01*
X225692990Y-60068934D01*
X225710302Y-59860006D01*
X225710302Y-59859993D01*
X225691137Y-59628702D01*
X225691135Y-59628691D01*
X225634159Y-59403699D01*
X225540926Y-59191151D01*
X225413985Y-58996852D01*
X225413982Y-58996849D01*
X225413981Y-58996847D01*
X225319197Y-58893884D01*
X225288277Y-58831232D01*
X225296137Y-58761806D01*
X225340285Y-58707651D01*
X225367097Y-58693722D01*
X225447328Y-58663798D01*
X225447328Y-58663797D01*
X225447333Y-58663796D01*
X225562548Y-58577546D01*
X225648798Y-58462331D01*
X225699093Y-58327483D01*
X225705502Y-58267873D01*
X225705501Y-56372128D01*
X225699093Y-56312517D01*
X225699092Y-56312515D01*
X225648799Y-56177671D01*
X225648795Y-56177664D01*
X225562549Y-56062455D01*
X225562546Y-56062452D01*
X225447337Y-55976206D01*
X225447330Y-55976202D01*
X225312484Y-55925908D01*
X225312485Y-55925908D01*
X225252885Y-55919501D01*
X225252883Y-55919500D01*
X225252875Y-55919500D01*
X225252867Y-55919500D01*
X225054502Y-55919500D01*
X224987463Y-55899815D01*
X224941708Y-55847011D01*
X224930502Y-55795500D01*
X224930502Y-55046081D01*
X224950187Y-54979042D01*
X224983373Y-54944510D01*
X225121139Y-54848047D01*
X225282047Y-54687139D01*
X225412568Y-54500734D01*
X225508739Y-54294496D01*
X225567635Y-54074692D01*
X225587468Y-53848000D01*
X225567635Y-53621308D01*
X225508739Y-53401504D01*
X225412568Y-53195266D01*
X225282047Y-53008861D01*
X225282045Y-53008858D01*
X225121141Y-52847954D01*
X224934734Y-52717432D01*
X224934732Y-52717431D01*
X224728497Y-52621261D01*
X224728488Y-52621258D01*
X224508697Y-52562366D01*
X224508693Y-52562365D01*
X224508692Y-52562365D01*
X224508691Y-52562364D01*
X224508686Y-52562364D01*
X224282002Y-52542532D01*
X224281998Y-52542532D01*
X224055313Y-52562364D01*
X224055302Y-52562366D01*
X223835511Y-52621258D01*
X223835502Y-52621261D01*
X223629267Y-52717431D01*
X223629265Y-52717432D01*
X223442858Y-52847954D01*
X223281954Y-53008858D01*
X223151432Y-53195265D01*
X223151430Y-53195268D01*
X223124380Y-53253277D01*
X223078207Y-53305715D01*
X223011013Y-53324866D01*
X222944132Y-53304649D01*
X222899619Y-53253277D01*
X222872568Y-53195266D01*
X222742047Y-53008861D01*
X222742045Y-53008858D01*
X222581141Y-52847954D01*
X222394734Y-52717432D01*
X222394732Y-52717431D01*
X222188497Y-52621261D01*
X222188488Y-52621258D01*
X221968697Y-52562366D01*
X221968693Y-52562365D01*
X221968692Y-52562365D01*
X221968691Y-52562364D01*
X221968686Y-52562364D01*
X221742002Y-52542532D01*
X221741999Y-52542532D01*
X221515313Y-52562364D01*
X221515296Y-52562367D01*
X221446949Y-52580680D01*
X221377099Y-52579016D01*
X221327177Y-52548586D01*
X218276803Y-49498212D01*
X218266980Y-49485950D01*
X218266759Y-49486134D01*
X218261786Y-49480123D01*
X218261786Y-49480122D01*
X218211364Y-49432773D01*
X218200919Y-49422328D01*
X218190475Y-49411883D01*
X218184986Y-49407625D01*
X218180561Y-49403847D01*
X218146582Y-49371938D01*
X218146580Y-49371936D01*
X218146577Y-49371935D01*
X218129029Y-49362288D01*
X218112763Y-49351604D01*
X218096933Y-49339325D01*
X218054168Y-49320818D01*
X218048922Y-49318248D01*
X218008093Y-49295803D01*
X218008092Y-49295802D01*
X217988693Y-49290822D01*
X217970281Y-49284518D01*
X217951898Y-49276562D01*
X217951892Y-49276560D01*
X217905874Y-49269272D01*
X217900152Y-49268087D01*
X217855021Y-49256500D01*
X217855019Y-49256500D01*
X217834984Y-49256500D01*
X217815586Y-49254973D01*
X217808162Y-49253797D01*
X217795805Y-49251840D01*
X217795804Y-49251840D01*
X217749416Y-49256225D01*
X217743578Y-49256500D01*
X212034188Y-49256500D01*
X211967149Y-49236815D01*
X211932613Y-49203623D01*
X211820045Y-49042858D01*
X211659141Y-48881954D01*
X211472734Y-48751432D01*
X211472728Y-48751429D01*
X211414725Y-48724382D01*
X211362285Y-48678210D01*
X211343133Y-48611017D01*
X211363348Y-48544135D01*
X211414725Y-48499618D01*
X211472734Y-48472568D01*
X211659139Y-48342047D01*
X211820047Y-48181139D01*
X211898681Y-48068836D01*
X211932613Y-48020377D01*
X211987189Y-47976752D01*
X212034188Y-47967500D01*
X212780503Y-47967500D01*
X212847542Y-47987185D01*
X212893297Y-48039989D01*
X212904503Y-48091500D01*
X212904503Y-48267875D01*
X212910910Y-48327482D01*
X212961204Y-48462327D01*
X212961208Y-48462334D01*
X213047454Y-48577543D01*
X213047457Y-48577546D01*
X213162666Y-48663792D01*
X213162673Y-48663796D01*
X213297519Y-48714090D01*
X213297518Y-48714090D01*
X213304446Y-48714834D01*
X213357129Y-48720499D01*
X215252874Y-48720498D01*
X215312485Y-48714090D01*
X215447333Y-48663795D01*
X215562548Y-48577545D01*
X215648798Y-48462330D01*
X215677456Y-48385492D01*
X215719328Y-48329558D01*
X215784792Y-48305140D01*
X215853065Y-48319991D01*
X215884868Y-48344842D01*
X215892304Y-48352919D01*
X215893217Y-48353911D01*
X215893224Y-48353917D01*
X216076367Y-48496463D01*
X216076373Y-48496467D01*
X216076376Y-48496469D01*
X216280499Y-48606935D01*
X216394489Y-48646067D01*
X216500017Y-48682296D01*
X216500019Y-48682296D01*
X216500021Y-48682297D01*
X216728953Y-48720499D01*
X216728954Y-48720499D01*
X216961050Y-48720499D01*
X216961051Y-48720499D01*
X217189983Y-48682297D01*
X217409505Y-48606935D01*
X217613628Y-48496469D01*
X217644338Y-48472567D01*
X217675131Y-48448599D01*
X217796786Y-48353912D01*
X217953981Y-48183152D01*
X218080926Y-47988848D01*
X218174159Y-47776299D01*
X218231136Y-47551304D01*
X218248479Y-47342000D01*
X218250302Y-47320005D01*
X218250302Y-47319992D01*
X218231137Y-47088701D01*
X218231135Y-47088690D01*
X218174159Y-46863698D01*
X218080926Y-46651150D01*
X217953985Y-46456851D01*
X217953982Y-46456848D01*
X217953981Y-46456846D01*
X217796786Y-46286086D01*
X217796781Y-46286082D01*
X217796779Y-46286080D01*
X217613636Y-46143534D01*
X217613630Y-46143530D01*
X217409506Y-46033063D01*
X217409497Y-46033060D01*
X217189986Y-45957701D01*
X216999452Y-45925907D01*
X216961051Y-45919499D01*
X216728953Y-45919499D01*
X216690552Y-45925907D01*
X216500017Y-45957701D01*
X216280506Y-46033060D01*
X216280497Y-46033063D01*
X216076373Y-46143530D01*
X216076367Y-46143534D01*
X215893224Y-46286080D01*
X215893220Y-46286084D01*
X215884868Y-46295157D01*
X215824981Y-46331147D01*
X215755143Y-46329046D01*
X215697527Y-46289521D01*
X215677457Y-46254506D01*
X215648799Y-46177670D01*
X215648795Y-46177663D01*
X215562549Y-46062454D01*
X215562546Y-46062451D01*
X215447337Y-45976205D01*
X215447330Y-45976201D01*
X215312484Y-45925907D01*
X215312485Y-45925907D01*
X215252885Y-45919500D01*
X215252883Y-45919499D01*
X215252875Y-45919499D01*
X215252866Y-45919499D01*
X213357131Y-45919499D01*
X213357125Y-45919500D01*
X213297518Y-45925907D01*
X213162673Y-45976201D01*
X213162666Y-45976205D01*
X213047457Y-46062451D01*
X213047454Y-46062454D01*
X212961208Y-46177663D01*
X212961204Y-46177670D01*
X212910910Y-46312516D01*
X212904503Y-46372115D01*
X212904502Y-46372134D01*
X212904502Y-46592500D01*
X212884817Y-46659539D01*
X212832013Y-46705294D01*
X212780502Y-46716500D01*
X212034188Y-46716500D01*
X211967149Y-46696815D01*
X211932613Y-46663623D01*
X211820045Y-46502858D01*
X211659141Y-46341954D01*
X211472734Y-46211432D01*
X211472732Y-46211431D01*
X211266497Y-46115261D01*
X211266488Y-46115258D01*
X211046697Y-46056366D01*
X211046693Y-46056365D01*
X211046692Y-46056365D01*
X211046691Y-46056364D01*
X211046686Y-46056364D01*
X210820002Y-46036532D01*
X210819998Y-46036532D01*
X210593313Y-46056364D01*
X210593302Y-46056366D01*
X210373511Y-46115258D01*
X210373502Y-46115261D01*
X210167267Y-46211431D01*
X210167265Y-46211432D01*
X209980858Y-46341954D01*
X209819954Y-46502858D01*
X209689432Y-46689265D01*
X209689431Y-46689267D01*
X209593261Y-46895502D01*
X209593258Y-46895511D01*
X209534366Y-47115302D01*
X209534364Y-47115313D01*
X209514532Y-47341998D01*
X209514532Y-47342001D01*
X209534364Y-47568686D01*
X209534366Y-47568697D01*
X209593258Y-47788488D01*
X209593261Y-47788497D01*
X209689431Y-47994732D01*
X209689432Y-47994734D01*
X209819954Y-48181141D01*
X209980858Y-48342045D01*
X209997805Y-48353911D01*
X210167266Y-48472568D01*
X210225275Y-48499618D01*
X210277714Y-48545791D01*
X210296866Y-48612984D01*
X210276650Y-48679865D01*
X210225275Y-48724382D01*
X210167267Y-48751431D01*
X210167265Y-48751432D01*
X209980858Y-48881954D01*
X209819954Y-49042858D01*
X209707387Y-49203623D01*
X209652811Y-49247248D01*
X209605812Y-49256500D01*
X192031688Y-49256500D01*
X191964649Y-49236815D01*
X191930113Y-49203623D01*
X191817545Y-49042858D01*
X191656641Y-48881954D01*
X191470234Y-48751432D01*
X191470228Y-48751429D01*
X191412225Y-48724382D01*
X191359785Y-48678210D01*
X191340633Y-48611017D01*
X191360848Y-48544135D01*
X191412225Y-48499618D01*
X191470234Y-48472568D01*
X191656639Y-48342047D01*
X191817547Y-48181139D01*
X191945517Y-47998376D01*
X192000094Y-47954751D01*
X192047093Y-47945499D01*
X192780503Y-47945499D01*
X192847542Y-47965184D01*
X192893297Y-48017988D01*
X192904503Y-48069499D01*
X192904503Y-48267875D01*
X192910910Y-48327482D01*
X192961204Y-48462327D01*
X192961208Y-48462334D01*
X193047454Y-48577543D01*
X193047457Y-48577546D01*
X193162666Y-48663792D01*
X193162673Y-48663796D01*
X193297519Y-48714090D01*
X193297518Y-48714090D01*
X193304446Y-48714834D01*
X193357129Y-48720499D01*
X195252874Y-48720498D01*
X195312485Y-48714090D01*
X195447333Y-48663795D01*
X195562548Y-48577545D01*
X195648798Y-48462330D01*
X195677456Y-48385492D01*
X195719328Y-48329558D01*
X195784792Y-48305140D01*
X195853065Y-48319991D01*
X195884868Y-48344842D01*
X195892304Y-48352919D01*
X195893217Y-48353911D01*
X195893224Y-48353917D01*
X196076367Y-48496463D01*
X196076373Y-48496467D01*
X196076376Y-48496469D01*
X196280499Y-48606935D01*
X196394489Y-48646067D01*
X196500017Y-48682296D01*
X196500019Y-48682296D01*
X196500021Y-48682297D01*
X196728953Y-48720499D01*
X196728954Y-48720499D01*
X196961050Y-48720499D01*
X196961051Y-48720499D01*
X197189983Y-48682297D01*
X197409505Y-48606935D01*
X197613628Y-48496469D01*
X197644338Y-48472567D01*
X197675131Y-48448599D01*
X197796786Y-48353912D01*
X197953981Y-48183152D01*
X198080926Y-47988848D01*
X198174159Y-47776299D01*
X198231136Y-47551304D01*
X198248479Y-47342000D01*
X198250302Y-47320005D01*
X198250302Y-47319992D01*
X198231137Y-47088701D01*
X198231135Y-47088690D01*
X198174159Y-46863698D01*
X198080926Y-46651150D01*
X197953985Y-46456851D01*
X197953982Y-46456848D01*
X197953981Y-46456846D01*
X197796786Y-46286086D01*
X197796781Y-46286082D01*
X197796779Y-46286080D01*
X197613636Y-46143534D01*
X197613630Y-46143530D01*
X197409506Y-46033063D01*
X197409497Y-46033060D01*
X197189986Y-45957701D01*
X196999452Y-45925907D01*
X196961051Y-45919499D01*
X196728953Y-45919499D01*
X196690552Y-45925907D01*
X196500017Y-45957701D01*
X196280506Y-46033060D01*
X196280497Y-46033063D01*
X196076373Y-46143530D01*
X196076367Y-46143534D01*
X195893224Y-46286080D01*
X195893220Y-46286084D01*
X195884868Y-46295157D01*
X195824981Y-46331147D01*
X195755143Y-46329046D01*
X195697527Y-46289521D01*
X195677457Y-46254506D01*
X195648799Y-46177670D01*
X195648795Y-46177663D01*
X195562549Y-46062454D01*
X195562546Y-46062451D01*
X195447337Y-45976205D01*
X195447330Y-45976201D01*
X195312484Y-45925907D01*
X195312485Y-45925907D01*
X195252885Y-45919500D01*
X195252883Y-45919499D01*
X195252875Y-45919499D01*
X195252866Y-45919499D01*
X193357131Y-45919499D01*
X193357125Y-45919500D01*
X193297518Y-45925907D01*
X193162673Y-45976201D01*
X193162666Y-45976205D01*
X193047457Y-46062451D01*
X193047454Y-46062454D01*
X192961208Y-46177663D01*
X192961204Y-46177670D01*
X192910910Y-46312516D01*
X192904503Y-46372115D01*
X192904502Y-46372134D01*
X192904502Y-46570499D01*
X192884817Y-46637538D01*
X192832013Y-46683293D01*
X192780502Y-46694499D01*
X192016283Y-46694499D01*
X191949244Y-46674814D01*
X191914708Y-46641622D01*
X191817545Y-46502858D01*
X191656641Y-46341954D01*
X191470234Y-46211432D01*
X191470232Y-46211431D01*
X191263997Y-46115261D01*
X191263988Y-46115258D01*
X191044197Y-46056366D01*
X191044193Y-46056365D01*
X191044192Y-46056365D01*
X191044191Y-46056364D01*
X191044186Y-46056364D01*
X190817502Y-46036532D01*
X190817498Y-46036532D01*
X190590813Y-46056364D01*
X190590802Y-46056366D01*
X190371011Y-46115258D01*
X190371002Y-46115261D01*
X190164767Y-46211431D01*
X190164765Y-46211432D01*
X189978358Y-46341954D01*
X189817454Y-46502858D01*
X189686932Y-46689265D01*
X189686931Y-46689267D01*
X189590761Y-46895502D01*
X189590758Y-46895511D01*
X189531866Y-47115302D01*
X189531864Y-47115313D01*
X189512032Y-47341998D01*
X189512032Y-47342001D01*
X189531864Y-47568686D01*
X189531866Y-47568697D01*
X189590758Y-47788488D01*
X189590761Y-47788497D01*
X189686931Y-47994732D01*
X189686932Y-47994734D01*
X189817454Y-48181141D01*
X189978358Y-48342045D01*
X189995305Y-48353911D01*
X190164766Y-48472568D01*
X190222775Y-48499618D01*
X190275214Y-48545791D01*
X190294366Y-48612984D01*
X190274150Y-48679865D01*
X190222775Y-48724382D01*
X190164767Y-48751431D01*
X190164765Y-48751432D01*
X189978358Y-48881954D01*
X189817454Y-49042858D01*
X189704887Y-49203623D01*
X189650311Y-49247248D01*
X189603312Y-49256500D01*
X172029188Y-49256500D01*
X171962149Y-49236815D01*
X171927613Y-49203623D01*
X171815045Y-49042858D01*
X171654141Y-48881954D01*
X171467734Y-48751432D01*
X171467728Y-48751429D01*
X171409725Y-48724382D01*
X171357285Y-48678210D01*
X171338133Y-48611017D01*
X171358348Y-48544135D01*
X171409725Y-48499618D01*
X171467734Y-48472568D01*
X171654139Y-48342047D01*
X171815047Y-48181139D01*
X171943017Y-47998376D01*
X171997594Y-47954751D01*
X172044593Y-47945499D01*
X172780503Y-47945499D01*
X172847542Y-47965184D01*
X172893297Y-48017988D01*
X172904503Y-48069499D01*
X172904503Y-48267875D01*
X172910910Y-48327482D01*
X172961204Y-48462327D01*
X172961208Y-48462334D01*
X173047454Y-48577543D01*
X173047457Y-48577546D01*
X173162666Y-48663792D01*
X173162673Y-48663796D01*
X173297519Y-48714090D01*
X173297518Y-48714090D01*
X173304446Y-48714834D01*
X173357129Y-48720499D01*
X175252874Y-48720498D01*
X175312485Y-48714090D01*
X175447333Y-48663795D01*
X175562548Y-48577545D01*
X175648798Y-48462330D01*
X175677456Y-48385492D01*
X175719328Y-48329558D01*
X175784792Y-48305140D01*
X175853065Y-48319991D01*
X175884868Y-48344842D01*
X175892304Y-48352919D01*
X175893217Y-48353911D01*
X175893224Y-48353917D01*
X176076367Y-48496463D01*
X176076373Y-48496467D01*
X176076376Y-48496469D01*
X176280499Y-48606935D01*
X176394489Y-48646067D01*
X176500017Y-48682296D01*
X176500019Y-48682296D01*
X176500021Y-48682297D01*
X176728953Y-48720499D01*
X176728954Y-48720499D01*
X176961050Y-48720499D01*
X176961051Y-48720499D01*
X177189983Y-48682297D01*
X177409505Y-48606935D01*
X177613628Y-48496469D01*
X177644338Y-48472567D01*
X177675131Y-48448599D01*
X177796786Y-48353912D01*
X177953981Y-48183152D01*
X178080926Y-47988848D01*
X178174159Y-47776299D01*
X178231136Y-47551304D01*
X178248479Y-47342000D01*
X178250302Y-47320005D01*
X178250302Y-47319992D01*
X178231137Y-47088701D01*
X178231135Y-47088690D01*
X178174159Y-46863698D01*
X178080926Y-46651150D01*
X177953985Y-46456851D01*
X177953982Y-46456848D01*
X177953981Y-46456846D01*
X177796786Y-46286086D01*
X177796781Y-46286082D01*
X177796779Y-46286080D01*
X177613636Y-46143534D01*
X177613630Y-46143530D01*
X177409506Y-46033063D01*
X177409497Y-46033060D01*
X177189986Y-45957701D01*
X176999452Y-45925907D01*
X176961051Y-45919499D01*
X176728953Y-45919499D01*
X176690552Y-45925907D01*
X176500017Y-45957701D01*
X176280506Y-46033060D01*
X176280497Y-46033063D01*
X176076373Y-46143530D01*
X176076367Y-46143534D01*
X175893224Y-46286080D01*
X175893220Y-46286084D01*
X175884868Y-46295157D01*
X175824981Y-46331147D01*
X175755143Y-46329046D01*
X175697527Y-46289521D01*
X175677457Y-46254506D01*
X175648799Y-46177670D01*
X175648795Y-46177663D01*
X175562549Y-46062454D01*
X175562546Y-46062451D01*
X175447337Y-45976205D01*
X175447330Y-45976201D01*
X175312484Y-45925907D01*
X175312485Y-45925907D01*
X175252885Y-45919500D01*
X175252883Y-45919499D01*
X175252875Y-45919499D01*
X175252866Y-45919499D01*
X173357131Y-45919499D01*
X173357125Y-45919500D01*
X173297518Y-45925907D01*
X173162673Y-45976201D01*
X173162666Y-45976205D01*
X173047457Y-46062451D01*
X173047454Y-46062454D01*
X172961208Y-46177663D01*
X172961204Y-46177670D01*
X172910910Y-46312516D01*
X172904503Y-46372115D01*
X172904502Y-46372134D01*
X172904502Y-46570499D01*
X172884817Y-46637538D01*
X172832013Y-46683293D01*
X172780502Y-46694499D01*
X172013783Y-46694499D01*
X171946744Y-46674814D01*
X171912208Y-46641622D01*
X171815045Y-46502858D01*
X171654141Y-46341954D01*
X171467734Y-46211432D01*
X171467732Y-46211431D01*
X171261497Y-46115261D01*
X171261488Y-46115258D01*
X171041697Y-46056366D01*
X171041693Y-46056365D01*
X171041692Y-46056365D01*
X171041691Y-46056364D01*
X171041686Y-46056364D01*
X170815002Y-46036532D01*
X170814998Y-46036532D01*
X170588313Y-46056364D01*
X170588302Y-46056366D01*
X170368511Y-46115258D01*
X170368502Y-46115261D01*
X170162267Y-46211431D01*
X170162265Y-46211432D01*
X169975858Y-46341954D01*
X169814954Y-46502858D01*
X169684432Y-46689265D01*
X169684431Y-46689267D01*
X169588261Y-46895502D01*
X169588258Y-46895511D01*
X169529366Y-47115302D01*
X169529364Y-47115313D01*
X169509532Y-47341998D01*
X169509532Y-47342001D01*
X169529364Y-47568686D01*
X169529366Y-47568697D01*
X169588258Y-47788488D01*
X169588261Y-47788497D01*
X169684431Y-47994732D01*
X169684432Y-47994734D01*
X169814954Y-48181141D01*
X169975858Y-48342045D01*
X169979856Y-48344844D01*
X170162266Y-48472568D01*
X170220278Y-48499619D01*
X170272713Y-48545788D01*
X170291866Y-48612982D01*
X170271651Y-48679863D01*
X170220277Y-48724380D01*
X170162268Y-48751430D01*
X170162265Y-48751432D01*
X169975858Y-48881954D01*
X169814954Y-49042858D01*
X169702387Y-49203623D01*
X169647811Y-49247248D01*
X169600812Y-49256500D01*
X152026688Y-49256500D01*
X151959649Y-49236815D01*
X151925113Y-49203623D01*
X151812545Y-49042858D01*
X151651641Y-48881954D01*
X151465234Y-48751432D01*
X151465228Y-48751429D01*
X151407225Y-48724382D01*
X151354785Y-48678210D01*
X151335633Y-48611017D01*
X151355848Y-48544135D01*
X151407225Y-48499618D01*
X151465234Y-48472568D01*
X151651639Y-48342047D01*
X151812547Y-48181139D01*
X151940517Y-47998376D01*
X151995094Y-47954751D01*
X152042093Y-47945499D01*
X152780503Y-47945499D01*
X152847542Y-47965184D01*
X152893297Y-48017988D01*
X152904503Y-48069499D01*
X152904503Y-48267875D01*
X152910910Y-48327482D01*
X152961204Y-48462327D01*
X152961208Y-48462334D01*
X153047454Y-48577543D01*
X153047457Y-48577546D01*
X153162666Y-48663792D01*
X153162673Y-48663796D01*
X153297519Y-48714090D01*
X153297518Y-48714090D01*
X153304446Y-48714834D01*
X153357129Y-48720499D01*
X155252874Y-48720498D01*
X155312485Y-48714090D01*
X155447333Y-48663795D01*
X155562548Y-48577545D01*
X155648798Y-48462330D01*
X155677456Y-48385492D01*
X155719328Y-48329558D01*
X155784792Y-48305140D01*
X155853065Y-48319991D01*
X155884868Y-48344842D01*
X155892304Y-48352919D01*
X155893217Y-48353911D01*
X155893224Y-48353917D01*
X156076367Y-48496463D01*
X156076373Y-48496467D01*
X156076376Y-48496469D01*
X156280499Y-48606935D01*
X156394489Y-48646067D01*
X156500017Y-48682296D01*
X156500019Y-48682296D01*
X156500021Y-48682297D01*
X156728953Y-48720499D01*
X156728954Y-48720499D01*
X156961050Y-48720499D01*
X156961051Y-48720499D01*
X157189983Y-48682297D01*
X157409505Y-48606935D01*
X157613628Y-48496469D01*
X157644338Y-48472567D01*
X157675131Y-48448599D01*
X157796786Y-48353912D01*
X157953981Y-48183152D01*
X158080926Y-47988848D01*
X158174159Y-47776299D01*
X158231136Y-47551304D01*
X158248479Y-47342000D01*
X158250302Y-47320005D01*
X158250302Y-47319992D01*
X158231137Y-47088701D01*
X158231135Y-47088690D01*
X158174159Y-46863698D01*
X158080926Y-46651150D01*
X157953985Y-46456851D01*
X157953982Y-46456848D01*
X157953981Y-46456846D01*
X157796786Y-46286086D01*
X157796781Y-46286082D01*
X157796779Y-46286080D01*
X157613636Y-46143534D01*
X157613630Y-46143530D01*
X157409506Y-46033063D01*
X157409497Y-46033060D01*
X157189986Y-45957701D01*
X156999452Y-45925907D01*
X156961051Y-45919499D01*
X156728953Y-45919499D01*
X156690552Y-45925907D01*
X156500017Y-45957701D01*
X156280506Y-46033060D01*
X156280497Y-46033063D01*
X156076373Y-46143530D01*
X156076367Y-46143534D01*
X155893224Y-46286080D01*
X155893220Y-46286084D01*
X155884868Y-46295157D01*
X155824981Y-46331147D01*
X155755143Y-46329046D01*
X155697527Y-46289521D01*
X155677457Y-46254506D01*
X155648799Y-46177670D01*
X155648795Y-46177663D01*
X155562549Y-46062454D01*
X155562546Y-46062451D01*
X155447337Y-45976205D01*
X155447330Y-45976201D01*
X155312484Y-45925907D01*
X155312485Y-45925907D01*
X155252885Y-45919500D01*
X155252883Y-45919499D01*
X155252875Y-45919499D01*
X155252866Y-45919499D01*
X153357131Y-45919499D01*
X153357125Y-45919500D01*
X153297518Y-45925907D01*
X153162673Y-45976201D01*
X153162666Y-45976205D01*
X153047457Y-46062451D01*
X153047454Y-46062454D01*
X152961208Y-46177663D01*
X152961204Y-46177670D01*
X152910910Y-46312516D01*
X152904503Y-46372115D01*
X152904502Y-46372134D01*
X152904502Y-46570499D01*
X152884817Y-46637538D01*
X152832013Y-46683293D01*
X152780502Y-46694499D01*
X152011283Y-46694499D01*
X151944244Y-46674814D01*
X151909708Y-46641622D01*
X151812545Y-46502858D01*
X151651641Y-46341954D01*
X151465234Y-46211432D01*
X151465232Y-46211431D01*
X151258997Y-46115261D01*
X151258988Y-46115258D01*
X151039197Y-46056366D01*
X151039193Y-46056365D01*
X151039192Y-46056365D01*
X151039191Y-46056364D01*
X151039186Y-46056364D01*
X150812502Y-46036532D01*
X150812498Y-46036532D01*
X150585813Y-46056364D01*
X150585802Y-46056366D01*
X150366011Y-46115258D01*
X150366002Y-46115261D01*
X150159767Y-46211431D01*
X150159765Y-46211432D01*
X149973358Y-46341954D01*
X149812454Y-46502858D01*
X149681932Y-46689265D01*
X149681931Y-46689267D01*
X149585761Y-46895502D01*
X149585758Y-46895511D01*
X149526866Y-47115302D01*
X149526864Y-47115313D01*
X149507032Y-47341998D01*
X149507032Y-47342001D01*
X149526864Y-47568686D01*
X149526866Y-47568697D01*
X149585758Y-47788488D01*
X149585761Y-47788497D01*
X149681931Y-47994732D01*
X149681932Y-47994734D01*
X149812454Y-48181141D01*
X149973358Y-48342045D01*
X149990305Y-48353911D01*
X150159766Y-48472568D01*
X150217775Y-48499618D01*
X150270214Y-48545791D01*
X150289366Y-48612984D01*
X150269150Y-48679865D01*
X150217775Y-48724382D01*
X150159767Y-48751431D01*
X150159765Y-48751432D01*
X149973358Y-48881954D01*
X149812454Y-49042858D01*
X149699887Y-49203623D01*
X149645311Y-49247248D01*
X149598312Y-49256500D01*
X132024188Y-49256500D01*
X131957149Y-49236815D01*
X131922613Y-49203623D01*
X131810045Y-49042858D01*
X131649141Y-48881954D01*
X131462734Y-48751432D01*
X131462728Y-48751429D01*
X131404725Y-48724382D01*
X131352285Y-48678210D01*
X131333133Y-48611017D01*
X131353348Y-48544135D01*
X131404725Y-48499618D01*
X131462734Y-48472568D01*
X131649139Y-48342047D01*
X131810047Y-48181139D01*
X131888681Y-48068836D01*
X131922613Y-48020377D01*
X131977189Y-47976752D01*
X132024188Y-47967500D01*
X132780503Y-47967500D01*
X132847542Y-47987185D01*
X132893297Y-48039989D01*
X132904503Y-48091500D01*
X132904503Y-48267875D01*
X132910910Y-48327482D01*
X132961204Y-48462327D01*
X132961208Y-48462334D01*
X133047454Y-48577543D01*
X133047457Y-48577546D01*
X133162666Y-48663792D01*
X133162673Y-48663796D01*
X133297519Y-48714090D01*
X133297518Y-48714090D01*
X133304446Y-48714834D01*
X133357129Y-48720499D01*
X135252874Y-48720498D01*
X135312485Y-48714090D01*
X135447333Y-48663795D01*
X135562548Y-48577545D01*
X135648798Y-48462330D01*
X135677456Y-48385492D01*
X135719328Y-48329558D01*
X135784792Y-48305140D01*
X135853065Y-48319991D01*
X135884868Y-48344842D01*
X135892304Y-48352919D01*
X135893217Y-48353911D01*
X135893224Y-48353917D01*
X136076367Y-48496463D01*
X136076373Y-48496467D01*
X136076376Y-48496469D01*
X136280499Y-48606935D01*
X136394489Y-48646067D01*
X136500017Y-48682296D01*
X136500019Y-48682296D01*
X136500021Y-48682297D01*
X136728953Y-48720499D01*
X136728954Y-48720499D01*
X136961050Y-48720499D01*
X136961051Y-48720499D01*
X137189983Y-48682297D01*
X137409505Y-48606935D01*
X137613628Y-48496469D01*
X137644338Y-48472567D01*
X137675131Y-48448599D01*
X137796786Y-48353912D01*
X137953981Y-48183152D01*
X138080926Y-47988848D01*
X138174159Y-47776299D01*
X138231136Y-47551304D01*
X138248479Y-47342000D01*
X138250302Y-47320005D01*
X138250302Y-47319992D01*
X138231137Y-47088701D01*
X138231135Y-47088690D01*
X138174159Y-46863698D01*
X138080926Y-46651150D01*
X137953985Y-46456851D01*
X137953982Y-46456848D01*
X137953981Y-46456846D01*
X137796786Y-46286086D01*
X137796781Y-46286082D01*
X137796779Y-46286080D01*
X137613636Y-46143534D01*
X137613630Y-46143530D01*
X137409506Y-46033063D01*
X137409497Y-46033060D01*
X137189986Y-45957701D01*
X136999452Y-45925907D01*
X136961051Y-45919499D01*
X136728953Y-45919499D01*
X136690552Y-45925907D01*
X136500017Y-45957701D01*
X136280506Y-46033060D01*
X136280497Y-46033063D01*
X136076373Y-46143530D01*
X136076367Y-46143534D01*
X135893224Y-46286080D01*
X135893220Y-46286084D01*
X135884868Y-46295157D01*
X135824981Y-46331147D01*
X135755143Y-46329046D01*
X135697527Y-46289521D01*
X135677457Y-46254506D01*
X135648799Y-46177670D01*
X135648795Y-46177663D01*
X135562549Y-46062454D01*
X135562546Y-46062451D01*
X135447337Y-45976205D01*
X135447330Y-45976201D01*
X135312484Y-45925907D01*
X135312485Y-45925907D01*
X135252885Y-45919500D01*
X135252883Y-45919499D01*
X135252875Y-45919499D01*
X135252866Y-45919499D01*
X133357131Y-45919499D01*
X133357125Y-45919500D01*
X133297518Y-45925907D01*
X133162673Y-45976201D01*
X133162666Y-45976205D01*
X133047457Y-46062451D01*
X133047454Y-46062454D01*
X132961208Y-46177663D01*
X132961204Y-46177670D01*
X132910910Y-46312516D01*
X132904503Y-46372115D01*
X132904502Y-46372134D01*
X132904502Y-46592500D01*
X132884817Y-46659539D01*
X132832013Y-46705294D01*
X132780502Y-46716500D01*
X132024188Y-46716500D01*
X131957149Y-46696815D01*
X131922613Y-46663623D01*
X131810045Y-46502858D01*
X131649141Y-46341954D01*
X131462734Y-46211432D01*
X131462732Y-46211431D01*
X131256497Y-46115261D01*
X131256488Y-46115258D01*
X131036697Y-46056366D01*
X131036693Y-46056365D01*
X131036692Y-46056365D01*
X131036691Y-46056364D01*
X131036686Y-46056364D01*
X130810002Y-46036532D01*
X130809998Y-46036532D01*
X130583313Y-46056364D01*
X130583302Y-46056366D01*
X130363511Y-46115258D01*
X130363502Y-46115261D01*
X130157267Y-46211431D01*
X130157265Y-46211432D01*
X129970858Y-46341954D01*
X129809954Y-46502858D01*
X129679432Y-46689265D01*
X129679431Y-46689267D01*
X129583261Y-46895502D01*
X129583258Y-46895511D01*
X129524366Y-47115302D01*
X129524364Y-47115313D01*
X129504532Y-47341998D01*
X129504532Y-47342001D01*
X129524364Y-47568686D01*
X129524366Y-47568697D01*
X129583258Y-47788488D01*
X129583261Y-47788497D01*
X129679431Y-47994732D01*
X129679432Y-47994734D01*
X129809954Y-48181141D01*
X129970858Y-48342045D01*
X129987805Y-48353911D01*
X130157266Y-48472568D01*
X130215275Y-48499618D01*
X130267714Y-48545791D01*
X130286866Y-48612984D01*
X130266650Y-48679865D01*
X130215275Y-48724382D01*
X130157267Y-48751431D01*
X130157265Y-48751432D01*
X129970858Y-48881954D01*
X129809954Y-49042858D01*
X129679432Y-49229265D01*
X129679431Y-49229267D01*
X129583261Y-49435502D01*
X129583258Y-49435511D01*
X129524366Y-49655302D01*
X129524364Y-49655313D01*
X129504532Y-49881998D01*
X129504532Y-49882001D01*
X129524364Y-50108686D01*
X129524366Y-50108697D01*
X129583258Y-50328488D01*
X129583261Y-50328497D01*
X129679431Y-50534732D01*
X129679432Y-50534734D01*
X129809954Y-50721141D01*
X129970858Y-50882045D01*
X129970861Y-50882047D01*
X130157266Y-51012568D01*
X130363504Y-51108739D01*
X130583308Y-51167635D01*
X130745230Y-51181801D01*
X130809998Y-51187468D01*
X130810000Y-51187468D01*
X130810002Y-51187468D01*
X130866672Y-51182509D01*
X131036692Y-51167635D01*
X131256496Y-51108739D01*
X131462734Y-51012568D01*
X131649139Y-50882047D01*
X131810047Y-50721139D01*
X131922612Y-50560377D01*
X131977189Y-50516752D01*
X132024188Y-50507500D01*
X149598312Y-50507500D01*
X149665351Y-50527185D01*
X149699887Y-50560377D01*
X149812454Y-50721141D01*
X149973358Y-50882045D01*
X149973361Y-50882047D01*
X150159766Y-51012568D01*
X150366004Y-51108739D01*
X150585808Y-51167635D01*
X150747730Y-51181801D01*
X150812498Y-51187468D01*
X150812500Y-51187468D01*
X150812502Y-51187468D01*
X150869172Y-51182509D01*
X151039192Y-51167635D01*
X151258996Y-51108739D01*
X151465234Y-51012568D01*
X151651639Y-50882047D01*
X151812547Y-50721139D01*
X151925112Y-50560377D01*
X151979689Y-50516752D01*
X152026688Y-50507500D01*
X169600812Y-50507500D01*
X169667851Y-50527185D01*
X169702387Y-50560377D01*
X169814954Y-50721141D01*
X169975858Y-50882045D01*
X169975861Y-50882047D01*
X170162266Y-51012568D01*
X170368504Y-51108739D01*
X170588308Y-51167635D01*
X170750230Y-51181801D01*
X170814998Y-51187468D01*
X170815000Y-51187468D01*
X170815002Y-51187468D01*
X170871673Y-51182509D01*
X171041692Y-51167635D01*
X171261496Y-51108739D01*
X171467734Y-51012568D01*
X171654139Y-50882047D01*
X171815047Y-50721139D01*
X171927612Y-50560377D01*
X171982189Y-50516752D01*
X172029188Y-50507500D01*
X189603312Y-50507500D01*
X189670351Y-50527185D01*
X189704887Y-50560377D01*
X189817454Y-50721141D01*
X189978358Y-50882045D01*
X189978361Y-50882047D01*
X190164766Y-51012568D01*
X190371004Y-51108739D01*
X190590808Y-51167635D01*
X190752730Y-51181801D01*
X190817498Y-51187468D01*
X190817500Y-51187468D01*
X190817502Y-51187468D01*
X190874172Y-51182509D01*
X191044192Y-51167635D01*
X191263996Y-51108739D01*
X191470234Y-51012568D01*
X191656639Y-50882047D01*
X191817547Y-50721139D01*
X191930112Y-50560377D01*
X191984689Y-50516752D01*
X192031688Y-50507500D01*
X209605812Y-50507500D01*
X209672851Y-50527185D01*
X209707387Y-50560377D01*
X209819954Y-50721141D01*
X209980858Y-50882045D01*
X209980861Y-50882047D01*
X210167266Y-51012568D01*
X210373504Y-51108739D01*
X210593308Y-51167635D01*
X210755230Y-51181801D01*
X210819998Y-51187468D01*
X210820000Y-51187468D01*
X210820002Y-51187468D01*
X210876673Y-51182509D01*
X211046692Y-51167635D01*
X211266496Y-51108739D01*
X211472734Y-51012568D01*
X211659139Y-50882047D01*
X211820047Y-50721139D01*
X211932612Y-50560377D01*
X211987189Y-50516752D01*
X212034188Y-50507500D01*
X217465548Y-50507500D01*
X217532587Y-50527185D01*
X217553229Y-50543819D01*
X220442586Y-53433177D01*
X220476071Y-53494500D01*
X220474680Y-53552949D01*
X220456367Y-53621296D01*
X220456364Y-53621313D01*
X220436532Y-53847999D01*
X220436532Y-53848001D01*
X220456364Y-54074686D01*
X220456366Y-54074697D01*
X220515258Y-54294488D01*
X220515261Y-54294497D01*
X220611431Y-54500732D01*
X220611432Y-54500734D01*
X220741954Y-54687141D01*
X220902858Y-54848045D01*
X221063623Y-54960613D01*
X221107248Y-55015189D01*
X221116500Y-55062188D01*
X221116500Y-72636311D01*
X221096815Y-72703350D01*
X221063623Y-72737886D01*
X220902859Y-72850453D01*
X220741954Y-73011358D01*
X220611432Y-73197765D01*
X220611431Y-73197767D01*
X220515261Y-73404002D01*
X220515258Y-73404011D01*
X220456366Y-73623802D01*
X220456364Y-73623813D01*
X220436532Y-73850498D01*
X220436532Y-73850501D01*
X220456364Y-74077186D01*
X220456366Y-74077197D01*
X220515258Y-74296988D01*
X220515261Y-74296997D01*
X220611431Y-74503232D01*
X220611432Y-74503234D01*
X220741954Y-74689641D01*
X220902858Y-74850545D01*
X221063623Y-74963113D01*
X221107248Y-75017689D01*
X221116500Y-75064688D01*
X221116500Y-92638811D01*
X221096815Y-92705850D01*
X221063623Y-92740386D01*
X220902859Y-92852953D01*
X220741954Y-93013858D01*
X220611432Y-93200265D01*
X220611431Y-93200267D01*
X220515261Y-93406502D01*
X220515258Y-93406511D01*
X220456366Y-93626302D01*
X220456364Y-93626313D01*
X220436532Y-93852998D01*
X220436532Y-93853001D01*
X220456364Y-94079686D01*
X220456366Y-94079697D01*
X220515258Y-94299488D01*
X220515261Y-94299497D01*
X220611431Y-94505732D01*
X220611432Y-94505734D01*
X220741954Y-94692141D01*
X220902858Y-94853045D01*
X221063623Y-94965613D01*
X221107248Y-95020189D01*
X221116500Y-95067188D01*
X221116500Y-112641311D01*
X221096815Y-112708350D01*
X221063623Y-112742886D01*
X220902859Y-112855453D01*
X220741954Y-113016358D01*
X220611432Y-113202765D01*
X220611431Y-113202767D01*
X220515261Y-113409002D01*
X220515258Y-113409011D01*
X220456366Y-113628802D01*
X220456364Y-113628813D01*
X220436532Y-113855498D01*
X220436532Y-113855501D01*
X220456364Y-114082186D01*
X220456366Y-114082197D01*
X220515258Y-114301988D01*
X220515261Y-114301997D01*
X220611431Y-114508232D01*
X220611432Y-114508234D01*
X220741954Y-114694641D01*
X220902858Y-114855545D01*
X221063623Y-114968113D01*
X221107248Y-115022689D01*
X221116500Y-115069688D01*
X221116500Y-132643811D01*
X221096815Y-132710850D01*
X221063623Y-132745386D01*
X220902859Y-132857953D01*
X220741954Y-133018858D01*
X220611432Y-133205265D01*
X220611431Y-133205267D01*
X220515261Y-133411502D01*
X220515258Y-133411511D01*
X220456366Y-133631302D01*
X220456364Y-133631313D01*
X220436532Y-133857998D01*
X220436532Y-133858001D01*
X220456364Y-134084686D01*
X220456366Y-134084697D01*
X220515258Y-134304488D01*
X220515261Y-134304497D01*
X220611431Y-134510732D01*
X220611432Y-134510734D01*
X220741954Y-134697141D01*
X220902858Y-134858045D01*
X221063623Y-134970613D01*
X221107248Y-135025189D01*
X221116500Y-135072188D01*
X221116500Y-140532546D01*
X221096815Y-140599585D01*
X221080181Y-140620227D01*
X218219821Y-143480586D01*
X218158498Y-143514071D01*
X218100048Y-143512680D01*
X218031697Y-143494366D01*
X218031693Y-143494365D01*
X218031692Y-143494365D01*
X217918346Y-143484448D01*
X217805001Y-143474532D01*
X217804998Y-143474532D01*
X217578313Y-143494364D01*
X217578302Y-143494366D01*
X217358511Y-143553258D01*
X217358502Y-143553261D01*
X217152267Y-143649431D01*
X217152265Y-143649432D01*
X216965858Y-143779954D01*
X216804954Y-143940858D01*
X216692387Y-144101623D01*
X216637811Y-144145248D01*
X216590812Y-144154500D01*
X199016688Y-144154500D01*
X198949649Y-144134815D01*
X198915113Y-144101623D01*
X198802545Y-143940858D01*
X198641641Y-143779954D01*
X198455234Y-143649432D01*
X198455232Y-143649431D01*
X198248997Y-143553261D01*
X198248988Y-143553258D01*
X198029197Y-143494366D01*
X198029193Y-143494365D01*
X198029192Y-143494365D01*
X198029191Y-143494364D01*
X198029186Y-143494364D01*
X197802502Y-143474532D01*
X197802498Y-143474532D01*
X197575813Y-143494364D01*
X197575802Y-143494366D01*
X197356011Y-143553258D01*
X197356002Y-143553261D01*
X197149767Y-143649431D01*
X197149765Y-143649432D01*
X196963358Y-143779954D01*
X196802454Y-143940858D01*
X196689887Y-144101623D01*
X196635311Y-144145248D01*
X196588312Y-144154500D01*
X179014188Y-144154500D01*
X178947149Y-144134815D01*
X178912613Y-144101623D01*
X178800045Y-143940858D01*
X178639141Y-143779954D01*
X178452734Y-143649432D01*
X178452732Y-143649431D01*
X178246497Y-143553261D01*
X178246488Y-143553258D01*
X178026697Y-143494366D01*
X178026693Y-143494365D01*
X178026692Y-143494365D01*
X178026691Y-143494364D01*
X178026686Y-143494364D01*
X177800002Y-143474532D01*
X177799998Y-143474532D01*
X177573313Y-143494364D01*
X177573302Y-143494366D01*
X177353511Y-143553258D01*
X177353502Y-143553261D01*
X177147267Y-143649431D01*
X177147265Y-143649432D01*
X176960858Y-143779954D01*
X176799954Y-143940858D01*
X176687387Y-144101623D01*
X176632811Y-144145248D01*
X176585812Y-144154500D01*
X159011688Y-144154500D01*
X158944649Y-144134815D01*
X158910113Y-144101623D01*
X158797545Y-143940858D01*
X158636641Y-143779954D01*
X158450234Y-143649432D01*
X158450232Y-143649431D01*
X158243997Y-143553261D01*
X158243988Y-143553258D01*
X158024197Y-143494366D01*
X158024193Y-143494365D01*
X158024192Y-143494365D01*
X158024191Y-143494364D01*
X158024186Y-143494364D01*
X157797502Y-143474532D01*
X157797498Y-143474532D01*
X157570813Y-143494364D01*
X157570802Y-143494366D01*
X157351011Y-143553258D01*
X157351002Y-143553261D01*
X157144767Y-143649431D01*
X157144765Y-143649432D01*
X156958358Y-143779954D01*
X156797454Y-143940858D01*
X156684887Y-144101623D01*
X156630311Y-144145248D01*
X156583312Y-144154500D01*
X139009188Y-144154500D01*
X138942149Y-144134815D01*
X138907613Y-144101623D01*
X138795045Y-143940858D01*
X138634141Y-143779954D01*
X138447734Y-143649432D01*
X138447732Y-143649431D01*
X138241497Y-143553261D01*
X138241488Y-143553258D01*
X138021697Y-143494366D01*
X138021693Y-143494365D01*
X138021692Y-143494365D01*
X138021691Y-143494364D01*
X138021686Y-143494364D01*
X137795002Y-143474532D01*
X137794998Y-143474532D01*
X137568313Y-143494364D01*
X137568302Y-143494366D01*
X137348511Y-143553258D01*
X137348502Y-143553261D01*
X137142267Y-143649431D01*
X137142265Y-143649432D01*
X136955858Y-143779954D01*
X136794954Y-143940858D01*
X136682387Y-144101623D01*
X136627811Y-144145248D01*
X136580812Y-144154500D01*
X131145852Y-144154500D01*
X131078813Y-144134815D01*
X131058171Y-144118181D01*
X128172413Y-141232422D01*
X128138928Y-141171099D01*
X128140319Y-141112648D01*
X128155579Y-141055696D01*
X128158635Y-141044292D01*
X128178468Y-140817600D01*
X128158635Y-140590908D01*
X128099739Y-140371104D01*
X128003568Y-140164866D01*
X127873047Y-139978461D01*
X127873045Y-139978458D01*
X127712140Y-139817553D01*
X127551377Y-139704986D01*
X127507752Y-139650409D01*
X127498500Y-139603411D01*
X127498500Y-133320004D01*
X135900256Y-133320004D01*
X135919216Y-133621382D01*
X135919217Y-133621389D01*
X135975806Y-133918039D01*
X136069126Y-134205246D01*
X136069128Y-134205251D01*
X136197705Y-134478490D01*
X136197708Y-134478496D01*
X136359514Y-134733463D01*
X136440313Y-134831132D01*
X137369212Y-133902234D01*
X137469895Y-134043623D01*
X137621933Y-134188591D01*
X137724223Y-134254328D01*
X136791565Y-135186985D01*
X137016475Y-135350392D01*
X137016486Y-135350399D01*
X137281110Y-135495877D01*
X137281118Y-135495881D01*
X137561890Y-135607046D01*
X137561893Y-135607047D01*
X137854400Y-135682149D01*
X138153996Y-135719998D01*
X138154008Y-135719999D01*
X138455994Y-135719999D01*
X138456005Y-135719998D01*
X138755601Y-135682149D01*
X139048108Y-135607047D01*
X139048111Y-135607046D01*
X139328883Y-135495881D01*
X139328891Y-135495877D01*
X139593515Y-135350399D01*
X139593526Y-135350392D01*
X139818434Y-135186985D01*
X139818435Y-135186985D01*
X138888307Y-134256858D01*
X138902411Y-134249588D01*
X139067541Y-134119728D01*
X139205111Y-133960964D01*
X139239666Y-133901111D01*
X140169687Y-134831132D01*
X140250484Y-134733468D01*
X140412293Y-134478496D01*
X140412296Y-134478490D01*
X140540873Y-134205251D01*
X140540875Y-134205246D01*
X140634195Y-133918039D01*
X140690784Y-133621389D01*
X140690785Y-133621382D01*
X140709746Y-133320004D01*
X140709746Y-133319993D01*
X140690785Y-133018615D01*
X140690784Y-133018608D01*
X140634195Y-132721958D01*
X140540875Y-132434751D01*
X140540873Y-132434746D01*
X140412296Y-132161507D01*
X140412293Y-132161501D01*
X140250487Y-131906534D01*
X140169686Y-131808863D01*
X139240788Y-132737762D01*
X139140107Y-132596375D01*
X138988069Y-132451407D01*
X138885778Y-132385668D01*
X139818435Y-131453011D01*
X139593531Y-131289608D01*
X139593521Y-131289601D01*
X139328891Y-131144120D01*
X139328883Y-131144116D01*
X139048111Y-131032951D01*
X139048108Y-131032950D01*
X138755601Y-130957848D01*
X138456005Y-130919999D01*
X138153996Y-130919999D01*
X137854400Y-130957848D01*
X137561893Y-131032950D01*
X137561890Y-131032951D01*
X137281118Y-131144116D01*
X137281110Y-131144120D01*
X137016480Y-131289601D01*
X137016462Y-131289613D01*
X136791566Y-131453009D01*
X136791565Y-131453011D01*
X137721694Y-132383139D01*
X137707591Y-132390410D01*
X137542461Y-132520270D01*
X137404891Y-132679034D01*
X137370335Y-132738885D01*
X136440313Y-131808863D01*
X136359517Y-131906529D01*
X136197708Y-132161501D01*
X136197705Y-132161507D01*
X136069128Y-132434746D01*
X136069126Y-132434751D01*
X135975806Y-132721958D01*
X135919217Y-133018608D01*
X135919216Y-133018615D01*
X135900256Y-133319993D01*
X135900256Y-133320004D01*
X127498500Y-133320004D01*
X127498500Y-124295773D01*
X134304420Y-124295773D01*
X134304458Y-124319998D01*
X134304577Y-124320283D01*
X134304617Y-124320381D01*
X134315880Y-124331586D01*
X140904294Y-130919999D01*
X147287197Y-137302902D01*
X147287431Y-137303251D01*
X147304619Y-137320383D01*
X147304901Y-137320499D01*
X147305000Y-137320540D01*
X147305001Y-137320540D01*
X147329555Y-137320540D01*
X147329761Y-137320499D01*
X201280146Y-137320499D01*
X201280335Y-137320537D01*
X201304998Y-137320539D01*
X201305001Y-137320541D01*
X201305285Y-137320423D01*
X201305428Y-137320364D01*
X201307654Y-137319464D01*
X201313832Y-137311933D01*
X201323148Y-137302617D01*
X201323261Y-137302445D01*
X205305702Y-133320004D01*
X207900256Y-133320004D01*
X207919216Y-133621382D01*
X207919217Y-133621389D01*
X207975806Y-133918039D01*
X208069126Y-134205246D01*
X208069128Y-134205251D01*
X208197705Y-134478490D01*
X208197708Y-134478496D01*
X208359514Y-134733463D01*
X208440313Y-134831132D01*
X209369212Y-133902234D01*
X209469895Y-134043623D01*
X209621933Y-134188591D01*
X209724223Y-134254328D01*
X208791565Y-135186985D01*
X209016475Y-135350392D01*
X209016486Y-135350399D01*
X209281110Y-135495877D01*
X209281118Y-135495881D01*
X209561890Y-135607046D01*
X209561893Y-135607047D01*
X209854400Y-135682149D01*
X210153996Y-135719998D01*
X210154008Y-135719999D01*
X210455994Y-135719999D01*
X210456005Y-135719998D01*
X210755601Y-135682149D01*
X211048108Y-135607047D01*
X211048111Y-135607046D01*
X211328883Y-135495881D01*
X211328891Y-135495877D01*
X211593515Y-135350399D01*
X211593526Y-135350392D01*
X211818434Y-135186985D01*
X211818435Y-135186985D01*
X210888307Y-134256858D01*
X210902411Y-134249588D01*
X211067541Y-134119728D01*
X211205111Y-133960964D01*
X211239666Y-133901112D01*
X212169687Y-134831132D01*
X212250484Y-134733468D01*
X212412293Y-134478496D01*
X212412296Y-134478490D01*
X212540873Y-134205251D01*
X212540875Y-134205246D01*
X212634195Y-133918039D01*
X212690784Y-133621389D01*
X212690785Y-133621382D01*
X212709746Y-133320004D01*
X212709746Y-133319993D01*
X212690785Y-133018615D01*
X212690784Y-133018608D01*
X212634195Y-132721958D01*
X212540875Y-132434751D01*
X212540873Y-132434746D01*
X212412296Y-132161507D01*
X212412293Y-132161501D01*
X212250487Y-131906534D01*
X212169686Y-131808863D01*
X211240788Y-132737761D01*
X211140107Y-132596375D01*
X210988069Y-132451407D01*
X210885778Y-132385668D01*
X211818435Y-131453011D01*
X211593531Y-131289608D01*
X211593521Y-131289601D01*
X211328891Y-131144120D01*
X211328883Y-131144116D01*
X211048111Y-131032951D01*
X211048108Y-131032950D01*
X210755601Y-130957848D01*
X210456005Y-130919999D01*
X210153996Y-130919999D01*
X209854400Y-130957848D01*
X209561893Y-131032950D01*
X209561890Y-131032951D01*
X209281118Y-131144116D01*
X209281110Y-131144120D01*
X209016480Y-131289601D01*
X209016462Y-131289613D01*
X208791566Y-131453009D01*
X208791565Y-131453011D01*
X209721694Y-132383139D01*
X209707591Y-132390410D01*
X209542461Y-132520270D01*
X209404891Y-132679034D01*
X209370335Y-132738885D01*
X208440313Y-131808863D01*
X208359517Y-131906529D01*
X208197708Y-132161501D01*
X208197705Y-132161507D01*
X208069128Y-132434746D01*
X208069126Y-132434751D01*
X207975806Y-132721958D01*
X207919217Y-133018608D01*
X207919216Y-133018615D01*
X207900256Y-133319993D01*
X207900256Y-133320004D01*
X205305702Y-133320004D01*
X214293802Y-124331903D01*
X214305382Y-124320383D01*
X214305382Y-124320382D01*
X214305384Y-124320382D01*
X214305501Y-124320098D01*
X214305501Y-124320097D01*
X214305542Y-124319999D01*
X214305540Y-124319996D01*
X214305585Y-124295663D01*
X214305501Y-124295239D01*
X214305501Y-70342661D01*
X214305540Y-70320001D01*
X214305542Y-70319999D01*
X214305540Y-70319994D01*
X214305501Y-70319898D01*
X214305385Y-70319618D01*
X214305384Y-70319617D01*
X214305384Y-70319616D01*
X214305382Y-70319615D01*
X214288253Y-70302429D01*
X214287904Y-70302195D01*
X205305714Y-61320004D01*
X207900256Y-61320004D01*
X207919216Y-61621382D01*
X207919217Y-61621389D01*
X207975806Y-61918039D01*
X208069126Y-62205246D01*
X208069128Y-62205251D01*
X208197705Y-62478490D01*
X208197708Y-62478496D01*
X208359514Y-62733463D01*
X208440313Y-62831132D01*
X209369212Y-61902234D01*
X209469895Y-62043623D01*
X209621933Y-62188591D01*
X209724223Y-62254328D01*
X208791565Y-63186985D01*
X209016475Y-63350392D01*
X209016486Y-63350399D01*
X209281110Y-63495877D01*
X209281118Y-63495881D01*
X209561890Y-63607046D01*
X209561893Y-63607047D01*
X209854400Y-63682149D01*
X210153996Y-63719998D01*
X210154008Y-63719999D01*
X210455994Y-63719999D01*
X210456005Y-63719998D01*
X210755601Y-63682149D01*
X211048108Y-63607047D01*
X211048111Y-63607046D01*
X211328883Y-63495881D01*
X211328891Y-63495877D01*
X211593515Y-63350399D01*
X211593526Y-63350392D01*
X211818434Y-63186985D01*
X211818435Y-63186985D01*
X210888307Y-62256858D01*
X210902411Y-62249588D01*
X211067541Y-62119728D01*
X211205111Y-61960964D01*
X211239666Y-61901111D01*
X212169687Y-62831132D01*
X212250484Y-62733468D01*
X212412293Y-62478496D01*
X212412296Y-62478490D01*
X212540873Y-62205251D01*
X212540875Y-62205246D01*
X212634195Y-61918039D01*
X212690784Y-61621389D01*
X212690785Y-61621382D01*
X212709746Y-61320004D01*
X212709746Y-61319993D01*
X212690785Y-61018615D01*
X212690784Y-61018608D01*
X212634195Y-60721958D01*
X212540875Y-60434751D01*
X212540873Y-60434746D01*
X212412296Y-60161507D01*
X212412293Y-60161501D01*
X212250487Y-59906534D01*
X212169686Y-59808863D01*
X211240788Y-60737761D01*
X211140107Y-60596375D01*
X210988069Y-60451407D01*
X210885778Y-60385668D01*
X211818435Y-59453011D01*
X211593531Y-59289608D01*
X211593521Y-59289601D01*
X211328891Y-59144120D01*
X211328883Y-59144116D01*
X211048111Y-59032951D01*
X211048108Y-59032950D01*
X210755601Y-58957848D01*
X210456005Y-58919999D01*
X210153996Y-58919999D01*
X209854400Y-58957848D01*
X209561893Y-59032950D01*
X209561890Y-59032951D01*
X209281118Y-59144116D01*
X209281110Y-59144120D01*
X209016480Y-59289601D01*
X209016462Y-59289613D01*
X208791566Y-59453009D01*
X208791565Y-59453011D01*
X209721694Y-60383139D01*
X209707591Y-60390410D01*
X209542461Y-60520270D01*
X209404891Y-60679034D01*
X209370335Y-60738885D01*
X208440313Y-59808863D01*
X208359517Y-59906529D01*
X208197708Y-60161501D01*
X208197705Y-60161507D01*
X208069128Y-60434746D01*
X208069126Y-60434751D01*
X207975806Y-60721958D01*
X207919217Y-61018608D01*
X207919216Y-61018615D01*
X207900256Y-61319993D01*
X207900256Y-61320004D01*
X205305714Y-61320004D01*
X201316585Y-57330875D01*
X201305384Y-57319617D01*
X201305384Y-57319616D01*
X201305382Y-57319615D01*
X201305381Y-57319614D01*
X201305285Y-57319574D01*
X201305003Y-57319456D01*
X201280335Y-57319460D01*
X201280146Y-57319499D01*
X147329761Y-57319499D01*
X147329555Y-57319458D01*
X147305001Y-57319458D01*
X147304902Y-57319499D01*
X147304618Y-57319615D01*
X147287714Y-57336404D01*
X147287359Y-57336932D01*
X134321996Y-70302294D01*
X134321820Y-70302412D01*
X134304617Y-70319615D01*
X134304458Y-70319994D01*
X134304462Y-70344664D01*
X134304501Y-70344854D01*
X134304501Y-124295367D01*
X134304420Y-124295773D01*
X127498500Y-124295773D01*
X127498500Y-122029288D01*
X127518185Y-121962249D01*
X127551377Y-121927713D01*
X127599836Y-121893781D01*
X127712139Y-121815147D01*
X127873047Y-121654239D01*
X128003568Y-121467834D01*
X128099739Y-121261596D01*
X128158635Y-121041792D01*
X128178468Y-120815100D01*
X128158635Y-120588408D01*
X128099739Y-120368604D01*
X128003568Y-120162366D01*
X127873047Y-119975961D01*
X127873045Y-119975958D01*
X127712140Y-119815053D01*
X127551377Y-119702486D01*
X127507752Y-119647909D01*
X127498500Y-119600911D01*
X127498500Y-102026788D01*
X127518185Y-101959749D01*
X127551377Y-101925213D01*
X127599836Y-101891281D01*
X127712139Y-101812647D01*
X127873047Y-101651739D01*
X128003568Y-101465334D01*
X128099739Y-101259096D01*
X128158635Y-101039292D01*
X128178468Y-100812600D01*
X128158635Y-100585908D01*
X128099739Y-100366104D01*
X128003568Y-100159866D01*
X127873047Y-99973461D01*
X127873045Y-99973458D01*
X127712140Y-99812553D01*
X127551377Y-99699986D01*
X127507752Y-99645409D01*
X127498500Y-99598411D01*
X127498500Y-96663985D01*
X129713161Y-96663985D01*
X129723160Y-96873911D01*
X129772711Y-97078162D01*
X129772713Y-97078166D01*
X129860013Y-97269327D01*
X129860016Y-97269332D01*
X129860017Y-97269334D01*
X129860019Y-97269337D01*
X129923042Y-97357840D01*
X129981930Y-97440537D01*
X129981935Y-97440543D01*
X130134034Y-97585568D01*
X130175801Y-97612410D01*
X130221556Y-97665214D01*
X130231500Y-97734373D01*
X130202475Y-97797929D01*
X130185414Y-97814196D01*
X130054877Y-97916852D01*
X130054874Y-97916855D01*
X129917309Y-98075614D01*
X129917300Y-98075625D01*
X129812270Y-98257544D01*
X129812267Y-98257551D01*
X129743559Y-98456066D01*
X129743559Y-98456068D01*
X129742047Y-98466584D01*
X130812855Y-98466584D01*
X130774137Y-98508643D01*
X130723864Y-98623254D01*
X130713529Y-98747979D01*
X130744252Y-98869303D01*
X130807809Y-98966584D01*
X129746157Y-98966584D01*
X129773185Y-99077993D01*
X129860455Y-99269091D01*
X129982304Y-99440203D01*
X129982310Y-99440209D01*
X130134347Y-99585176D01*
X130311072Y-99698750D01*
X130506100Y-99776828D01*
X130712377Y-99816584D01*
X130842415Y-99816584D01*
X130842415Y-98997201D01*
X130911467Y-99050947D01*
X131029839Y-99091584D01*
X131123488Y-99091584D01*
X131215861Y-99076170D01*
X131325929Y-99016603D01*
X131342414Y-98998694D01*
X131342415Y-99816584D01*
X131419813Y-99816584D01*
X131576537Y-99801618D01*
X131576541Y-99801617D01*
X131778101Y-99742434D01*
X131964829Y-99646170D01*
X132129952Y-99516315D01*
X132129955Y-99516312D01*
X132267520Y-99357553D01*
X132267529Y-99357542D01*
X132372559Y-99175623D01*
X132372562Y-99175616D01*
X132441270Y-98977101D01*
X132441270Y-98977099D01*
X132442783Y-98966584D01*
X131371975Y-98966584D01*
X131410693Y-98924525D01*
X131460966Y-98809914D01*
X131471301Y-98685189D01*
X131440578Y-98563865D01*
X131377021Y-98466584D01*
X132438672Y-98466584D01*
X132411644Y-98355174D01*
X132324374Y-98164076D01*
X132202525Y-97992964D01*
X132202519Y-97992958D01*
X132050482Y-97847992D01*
X132009056Y-97821368D01*
X131963302Y-97768563D01*
X131953359Y-97699405D01*
X131982385Y-97635849D01*
X131999445Y-97619583D01*
X132130298Y-97516678D01*
X132130301Y-97516676D01*
X132267934Y-97357840D01*
X132373019Y-97175828D01*
X132441759Y-96977217D01*
X132471669Y-96769186D01*
X132461669Y-96559254D01*
X132412119Y-96355008D01*
X132392714Y-96312517D01*
X132324816Y-96163840D01*
X132324813Y-96163835D01*
X132324812Y-96163834D01*
X132324811Y-96163831D01*
X132202901Y-95992632D01*
X132123042Y-95916487D01*
X132100332Y-95894833D01*
X132065397Y-95834324D01*
X132068722Y-95764534D01*
X132109250Y-95707620D01*
X132120799Y-95699555D01*
X132186071Y-95659296D01*
X132310127Y-95535240D01*
X132402229Y-95385918D01*
X132457414Y-95219381D01*
X132467915Y-95116593D01*
X132467914Y-94316576D01*
X132466169Y-94299497D01*
X132457414Y-94213787D01*
X132457413Y-94213784D01*
X132402229Y-94047250D01*
X132310127Y-93897928D01*
X132186071Y-93773872D01*
X132036749Y-93681770D01*
X131870212Y-93626585D01*
X131870210Y-93626584D01*
X131767425Y-93616084D01*
X130417413Y-93616084D01*
X130417396Y-93616085D01*
X130314618Y-93626584D01*
X130314615Y-93626585D01*
X130148083Y-93681769D01*
X130148078Y-93681771D01*
X129998757Y-93773873D01*
X129874704Y-93897926D01*
X129782602Y-94047247D01*
X129782600Y-94047250D01*
X129782601Y-94047250D01*
X129727416Y-94213787D01*
X129727416Y-94213788D01*
X129727415Y-94213788D01*
X129716915Y-94316567D01*
X129716915Y-95116585D01*
X129716916Y-95116603D01*
X129727415Y-95219380D01*
X129727416Y-95219383D01*
X129782600Y-95385915D01*
X129782602Y-95385920D01*
X129874704Y-95535241D01*
X129998759Y-95659296D01*
X130062154Y-95698398D01*
X130108879Y-95750346D01*
X130120102Y-95819308D01*
X130092259Y-95883390D01*
X130073711Y-95901406D01*
X130054533Y-95916487D01*
X130054527Y-95916493D01*
X129916893Y-96075330D01*
X129811813Y-96257334D01*
X129743071Y-96455949D01*
X129743071Y-96455951D01*
X129728219Y-96559254D01*
X129713161Y-96663985D01*
X127498500Y-96663985D01*
X127498500Y-82024288D01*
X127518185Y-81957249D01*
X127551377Y-81922713D01*
X127599836Y-81888781D01*
X127712139Y-81810147D01*
X127873047Y-81649239D01*
X128003568Y-81462834D01*
X128099739Y-81256596D01*
X128158635Y-81036792D01*
X128178468Y-80810100D01*
X128158635Y-80583408D01*
X128099739Y-80363604D01*
X128003568Y-80157366D01*
X127873047Y-79970961D01*
X127873045Y-79970958D01*
X127712140Y-79810053D01*
X127551377Y-79697486D01*
X127507752Y-79642909D01*
X127498500Y-79595911D01*
X127498500Y-62021788D01*
X127518185Y-61954749D01*
X127551377Y-61920213D01*
X127619517Y-61872501D01*
X127712139Y-61807647D01*
X127873047Y-61646739D01*
X127985118Y-61486682D01*
X128039694Y-61443058D01*
X128082797Y-61433867D01*
X128107214Y-61433100D01*
X128136750Y-61433100D01*
X128143628Y-61432230D01*
X128149441Y-61431772D01*
X128196027Y-61430309D01*
X128215269Y-61424717D01*
X128234312Y-61420774D01*
X128254192Y-61418264D01*
X128297522Y-61401107D01*
X128303046Y-61399217D01*
X128306796Y-61398127D01*
X128347790Y-61386218D01*
X128365029Y-61376022D01*
X128382503Y-61367462D01*
X128401127Y-61360088D01*
X128401127Y-61360087D01*
X128401132Y-61360086D01*
X128438849Y-61332682D01*
X128443705Y-61329492D01*
X128459750Y-61320004D01*
X135900256Y-61320004D01*
X135919216Y-61621382D01*
X135919217Y-61621389D01*
X135975806Y-61918039D01*
X136069126Y-62205246D01*
X136069128Y-62205251D01*
X136197705Y-62478490D01*
X136197708Y-62478496D01*
X136359514Y-62733463D01*
X136440313Y-62831132D01*
X137369212Y-61902234D01*
X137469895Y-62043623D01*
X137621933Y-62188591D01*
X137724223Y-62254328D01*
X136791565Y-63186985D01*
X137016475Y-63350392D01*
X137016486Y-63350399D01*
X137281110Y-63495877D01*
X137281118Y-63495881D01*
X137561890Y-63607046D01*
X137561893Y-63607047D01*
X137854400Y-63682149D01*
X138153996Y-63719998D01*
X138154008Y-63719999D01*
X138455994Y-63719999D01*
X138456005Y-63719998D01*
X138755601Y-63682149D01*
X139048108Y-63607047D01*
X139048111Y-63607046D01*
X139328883Y-63495881D01*
X139328891Y-63495877D01*
X139593515Y-63350399D01*
X139593526Y-63350392D01*
X139818434Y-63186985D01*
X139818435Y-63186985D01*
X138888307Y-62256858D01*
X138902411Y-62249588D01*
X139067541Y-62119728D01*
X139205111Y-61960964D01*
X139239666Y-61901111D01*
X140169687Y-62831132D01*
X140250484Y-62733468D01*
X140412293Y-62478496D01*
X140412296Y-62478490D01*
X140540873Y-62205251D01*
X140540875Y-62205246D01*
X140634195Y-61918039D01*
X140690784Y-61621389D01*
X140690785Y-61621382D01*
X140709746Y-61320004D01*
X140709746Y-61319993D01*
X140690785Y-61018615D01*
X140690784Y-61018608D01*
X140634195Y-60721958D01*
X140540875Y-60434751D01*
X140540873Y-60434746D01*
X140412296Y-60161507D01*
X140412293Y-60161501D01*
X140250487Y-59906534D01*
X140169686Y-59808863D01*
X139240788Y-60737762D01*
X139140107Y-60596375D01*
X138988069Y-60451407D01*
X138885778Y-60385668D01*
X139818435Y-59453011D01*
X139593531Y-59289608D01*
X139593521Y-59289601D01*
X139328891Y-59144120D01*
X139328883Y-59144116D01*
X139048111Y-59032951D01*
X139048108Y-59032950D01*
X138755601Y-58957848D01*
X138456005Y-58919999D01*
X138153996Y-58919999D01*
X137854400Y-58957848D01*
X137561893Y-59032950D01*
X137561890Y-59032951D01*
X137281118Y-59144116D01*
X137281110Y-59144120D01*
X137016480Y-59289601D01*
X137016462Y-59289613D01*
X136791566Y-59453009D01*
X136791565Y-59453011D01*
X137721694Y-60383139D01*
X137707591Y-60390410D01*
X137542461Y-60520270D01*
X137404891Y-60679034D01*
X137370335Y-60738885D01*
X136440313Y-59808863D01*
X136359517Y-59906529D01*
X136197708Y-60161501D01*
X136197705Y-60161507D01*
X136069128Y-60434746D01*
X136069126Y-60434751D01*
X135975806Y-60721958D01*
X135919217Y-61018608D01*
X135919216Y-61018615D01*
X135900256Y-61319993D01*
X135900256Y-61320004D01*
X128459750Y-61320004D01*
X128483820Y-61305770D01*
X128497989Y-61291599D01*
X128512779Y-61278968D01*
X128528987Y-61267194D01*
X128558690Y-61231287D01*
X128562612Y-61226976D01*
X130045227Y-59744361D01*
X130106546Y-59710879D01*
X130176238Y-59715863D01*
X130232171Y-59757735D01*
X130255213Y-59811635D01*
X130294620Y-60047793D01*
X130372778Y-60275454D01*
X130372784Y-60275468D01*
X130487344Y-60487159D01*
X130487350Y-60487168D01*
X130635193Y-60677116D01*
X130635202Y-60677126D01*
X130812289Y-60840148D01*
X130812300Y-60840156D01*
X131013815Y-60971813D01*
X131234260Y-61068508D01*
X131234259Y-61068508D01*
X131467604Y-61127599D01*
X131504999Y-61130697D01*
X131504999Y-60181683D01*
X131533819Y-60199209D01*
X131679404Y-60240000D01*
X131792622Y-60240000D01*
X131904783Y-60224584D01*
X132004999Y-60181053D01*
X132004999Y-61130696D01*
X132042394Y-61127599D01*
X132042395Y-61127599D01*
X132275740Y-61068508D01*
X132496184Y-60971813D01*
X132697699Y-60840156D01*
X132697710Y-60840148D01*
X132874797Y-60677126D01*
X132874806Y-60677116D01*
X133022649Y-60487168D01*
X133022655Y-60487159D01*
X133137215Y-60275468D01*
X133137221Y-60275454D01*
X133215380Y-60047791D01*
X133233367Y-59940000D01*
X132249852Y-59940000D01*
X132298559Y-59802953D01*
X132308877Y-59652114D01*
X132278116Y-59504085D01*
X132244910Y-59440000D01*
X133233366Y-59440000D01*
X133233366Y-59439999D01*
X133215380Y-59332208D01*
X133137221Y-59104545D01*
X133137215Y-59104531D01*
X133022655Y-58892840D01*
X133022649Y-58892831D01*
X132874806Y-58702883D01*
X132874797Y-58702873D01*
X132697710Y-58539851D01*
X132697704Y-58539847D01*
X132673611Y-58524106D01*
X132628255Y-58470959D01*
X132618832Y-58401728D01*
X132648335Y-58338392D01*
X132673608Y-58316493D01*
X132698010Y-58300551D01*
X132875171Y-58137463D01*
X133023072Y-57947439D01*
X133137679Y-57735664D01*
X133215866Y-57507913D01*
X133255500Y-57270399D01*
X133255500Y-57029601D01*
X133215866Y-56792087D01*
X133206510Y-56764835D01*
X133137681Y-56564343D01*
X133137678Y-56564334D01*
X133062018Y-56424527D01*
X133023072Y-56352561D01*
X133023070Y-56352559D01*
X133023070Y-56352558D01*
X133023066Y-56352552D01*
X132912167Y-56210069D01*
X132886524Y-56145075D01*
X132900090Y-56076535D01*
X132948559Y-56026211D01*
X132966681Y-56017727D01*
X132997331Y-56006296D01*
X133112546Y-55920046D01*
X133198796Y-55804831D01*
X133249091Y-55669983D01*
X133255500Y-55610373D01*
X133255500Y-54610001D01*
X134203532Y-54610001D01*
X134223364Y-54836686D01*
X134223366Y-54836697D01*
X134282258Y-55056488D01*
X134282261Y-55056497D01*
X134378431Y-55262732D01*
X134378432Y-55262734D01*
X134508954Y-55449141D01*
X134669858Y-55610045D01*
X134670331Y-55610376D01*
X134856266Y-55740568D01*
X134914865Y-55767893D01*
X134967305Y-55814065D01*
X134986457Y-55881258D01*
X134966242Y-55948139D01*
X134914867Y-55992657D01*
X134856511Y-56019869D01*
X134783527Y-56070972D01*
X134783526Y-56070973D01*
X135464600Y-56752046D01*
X135383852Y-56764835D01*
X135270955Y-56822359D01*
X135181359Y-56911955D01*
X135123835Y-57024852D01*
X135111046Y-57105599D01*
X134429973Y-56424526D01*
X134429972Y-56424527D01*
X134378868Y-56497513D01*
X134282734Y-56703673D01*
X134282730Y-56703682D01*
X134223860Y-56923389D01*
X134223858Y-56923400D01*
X134204034Y-57149997D01*
X134204034Y-57150002D01*
X134223858Y-57376599D01*
X134223860Y-57376610D01*
X134282730Y-57596317D01*
X134282734Y-57596326D01*
X134378865Y-57802481D01*
X134378866Y-57802483D01*
X134429973Y-57875471D01*
X134429974Y-57875472D01*
X135111046Y-57194399D01*
X135123835Y-57275148D01*
X135181359Y-57388045D01*
X135270955Y-57477641D01*
X135383852Y-57535165D01*
X135464599Y-57547953D01*
X134783526Y-58229025D01*
X134783526Y-58229026D01*
X134856512Y-58280131D01*
X134856516Y-58280133D01*
X135062673Y-58376265D01*
X135062682Y-58376269D01*
X135282389Y-58435139D01*
X135282400Y-58435141D01*
X135508998Y-58454966D01*
X135509002Y-58454966D01*
X135735599Y-58435141D01*
X135735610Y-58435139D01*
X135955317Y-58376269D01*
X135955331Y-58376264D01*
X136161478Y-58280136D01*
X136234472Y-58229025D01*
X135553401Y-57547953D01*
X135634148Y-57535165D01*
X135747045Y-57477641D01*
X135836641Y-57388045D01*
X135894165Y-57275148D01*
X135906953Y-57194399D01*
X136588025Y-57875472D01*
X136639136Y-57802478D01*
X136735264Y-57596331D01*
X136735269Y-57596317D01*
X136794139Y-57376610D01*
X136794141Y-57376599D01*
X136813966Y-57150002D01*
X136813966Y-57149997D01*
X136794141Y-56923400D01*
X136794139Y-56923389D01*
X136735269Y-56703682D01*
X136735265Y-56703673D01*
X136639133Y-56497516D01*
X136639131Y-56497512D01*
X136588026Y-56424526D01*
X136588025Y-56424526D01*
X135906953Y-57105597D01*
X135894165Y-57024852D01*
X135836641Y-56911955D01*
X135747045Y-56822359D01*
X135634148Y-56764835D01*
X135553400Y-56752046D01*
X136234472Y-56070974D01*
X136234471Y-56070973D01*
X136161483Y-56019866D01*
X136161481Y-56019865D01*
X136103133Y-55992657D01*
X136050694Y-55946484D01*
X136031542Y-55879291D01*
X136051758Y-55812410D01*
X136103129Y-55767895D01*
X136161734Y-55740568D01*
X136348139Y-55610047D01*
X136509047Y-55449139D01*
X136639568Y-55262734D01*
X136735739Y-55056496D01*
X136794635Y-54836692D01*
X136814468Y-54610000D01*
X136794635Y-54383308D01*
X136735739Y-54163504D01*
X136639568Y-53957266D01*
X136509047Y-53770861D01*
X136509045Y-53770858D01*
X136348141Y-53609954D01*
X136161734Y-53479432D01*
X136161732Y-53479431D01*
X135955497Y-53383261D01*
X135955488Y-53383258D01*
X135735697Y-53324366D01*
X135735693Y-53324365D01*
X135735692Y-53324365D01*
X135735691Y-53324364D01*
X135735686Y-53324364D01*
X135509002Y-53304532D01*
X135508998Y-53304532D01*
X135282313Y-53324364D01*
X135282302Y-53324366D01*
X135062511Y-53383258D01*
X135062502Y-53383261D01*
X134856267Y-53479431D01*
X134856265Y-53479432D01*
X134669858Y-53609954D01*
X134508954Y-53770858D01*
X134378432Y-53957265D01*
X134378431Y-53957267D01*
X134282261Y-54163502D01*
X134282258Y-54163511D01*
X134223366Y-54383302D01*
X134223364Y-54383313D01*
X134203532Y-54609998D01*
X134203532Y-54610001D01*
X133255500Y-54610001D01*
X133255499Y-53609628D01*
X133249091Y-53550017D01*
X133227847Y-53493060D01*
X133198797Y-53415171D01*
X133198793Y-53415164D01*
X133112547Y-53299955D01*
X133112544Y-53299952D01*
X132997335Y-53213706D01*
X132997328Y-53213702D01*
X132862482Y-53163408D01*
X132862483Y-53163408D01*
X132802883Y-53157001D01*
X132802881Y-53157000D01*
X132802873Y-53157000D01*
X132802864Y-53157000D01*
X130707129Y-53157000D01*
X130707123Y-53157001D01*
X130647516Y-53163408D01*
X130512671Y-53213702D01*
X130512664Y-53213706D01*
X130397455Y-53299952D01*
X130397452Y-53299955D01*
X130311206Y-53415164D01*
X130311202Y-53415171D01*
X130260908Y-53550017D01*
X130255155Y-53603534D01*
X130254501Y-53609623D01*
X130254500Y-53609635D01*
X130254500Y-55610370D01*
X130254501Y-55610376D01*
X130260908Y-55669983D01*
X130311202Y-55804828D01*
X130311206Y-55804835D01*
X130397452Y-55920044D01*
X130397455Y-55920047D01*
X130512664Y-56006293D01*
X130512673Y-56006298D01*
X130543311Y-56017725D01*
X130599245Y-56059595D01*
X130623663Y-56125059D01*
X130608812Y-56193332D01*
X130597833Y-56210069D01*
X130486929Y-56352559D01*
X130372321Y-56564334D01*
X130372318Y-56564343D01*
X130294134Y-56792083D01*
X130272222Y-56923400D01*
X130254500Y-57029601D01*
X130254500Y-57270399D01*
X130262687Y-57319460D01*
X130294133Y-57507912D01*
X130324806Y-57597259D01*
X130327955Y-57667058D01*
X130295205Y-57725202D01*
X128050178Y-59970229D01*
X127988855Y-60003714D01*
X127919163Y-59998730D01*
X127874816Y-59970229D01*
X127712141Y-59807554D01*
X127525734Y-59677032D01*
X127525732Y-59677031D01*
X127319497Y-59580861D01*
X127319488Y-59580858D01*
X127099697Y-59521966D01*
X127099693Y-59521965D01*
X127099692Y-59521965D01*
X127099691Y-59521964D01*
X127099686Y-59521964D01*
X126873002Y-59502132D01*
X126872998Y-59502132D01*
X126646313Y-59521964D01*
X126646302Y-59521966D01*
X126426511Y-59580858D01*
X126426502Y-59580861D01*
X126220267Y-59677031D01*
X126220265Y-59677032D01*
X126033858Y-59807554D01*
X125872954Y-59968458D01*
X125742432Y-60154865D01*
X125742430Y-60154868D01*
X125715380Y-60212877D01*
X125669207Y-60265315D01*
X125602013Y-60284466D01*
X125535132Y-60264249D01*
X125490619Y-60212877D01*
X125463568Y-60154866D01*
X125333047Y-59968461D01*
X125333045Y-59968458D01*
X125172140Y-59807553D01*
X125011377Y-59694986D01*
X124967752Y-59640409D01*
X124958500Y-59593411D01*
X124958500Y-58844498D01*
X124978185Y-58777459D01*
X125030989Y-58731704D01*
X125082500Y-58720498D01*
X125252871Y-58720498D01*
X125252872Y-58720498D01*
X125312483Y-58714090D01*
X125447331Y-58663795D01*
X125562546Y-58577545D01*
X125648796Y-58462330D01*
X125699091Y-58327482D01*
X125705500Y-58267872D01*
X125705499Y-56372127D01*
X125699091Y-56312516D01*
X125654638Y-56193332D01*
X125648797Y-56177670D01*
X125648793Y-56177663D01*
X125562547Y-56062454D01*
X125562544Y-56062451D01*
X125447335Y-55976205D01*
X125447328Y-55976201D01*
X125367094Y-55946276D01*
X125311160Y-55904405D01*
X125286743Y-55838940D01*
X125301595Y-55770667D01*
X125319190Y-55746120D01*
X125413979Y-55643152D01*
X125540924Y-55448848D01*
X125634157Y-55236299D01*
X125691134Y-55011304D01*
X125692473Y-54995149D01*
X125710300Y-54780005D01*
X125710300Y-54779992D01*
X125691135Y-54548701D01*
X125691133Y-54548690D01*
X125634157Y-54323698D01*
X125540924Y-54111150D01*
X125413983Y-53916851D01*
X125413980Y-53916848D01*
X125413979Y-53916846D01*
X125256784Y-53746086D01*
X125256779Y-53746082D01*
X125256777Y-53746080D01*
X125073634Y-53603534D01*
X125073628Y-53603530D01*
X124869504Y-53493063D01*
X124869495Y-53493060D01*
X124649984Y-53417701D01*
X124443575Y-53383258D01*
X124421049Y-53379499D01*
X124188951Y-53379499D01*
X124166425Y-53383258D01*
X123960015Y-53417701D01*
X123740504Y-53493060D01*
X123740495Y-53493063D01*
X123536371Y-53603530D01*
X123536365Y-53603534D01*
X123353222Y-53746080D01*
X123353219Y-53746083D01*
X123196016Y-53916851D01*
X123069075Y-54111150D01*
X122975842Y-54323698D01*
X122918866Y-54548690D01*
X122918864Y-54548701D01*
X122899700Y-54779992D01*
X122899700Y-54780005D01*
X122918864Y-55011296D01*
X122918866Y-55011307D01*
X122975842Y-55236299D01*
X123069075Y-55448847D01*
X123196016Y-55643146D01*
X123196019Y-55643150D01*
X123196021Y-55643152D01*
X123290803Y-55746113D01*
X123321724Y-55808766D01*
X123313864Y-55878192D01*
X123269716Y-55932347D01*
X123242906Y-55946276D01*
X123162669Y-55976202D01*
X123162664Y-55976205D01*
X123047455Y-56062451D01*
X123047452Y-56062454D01*
X122961206Y-56177663D01*
X122961202Y-56177670D01*
X122910908Y-56312516D01*
X122904501Y-56372115D01*
X122904501Y-56372123D01*
X122904500Y-56372134D01*
X122904500Y-58267869D01*
X122904501Y-58267875D01*
X122910908Y-58327482D01*
X122961202Y-58462327D01*
X122961206Y-58462334D01*
X123047452Y-58577543D01*
X123047455Y-58577546D01*
X123162664Y-58663792D01*
X123162671Y-58663796D01*
X123207618Y-58680560D01*
X123297517Y-58714090D01*
X123357127Y-58720499D01*
X123583500Y-58720498D01*
X123650539Y-58740182D01*
X123696294Y-58792986D01*
X123707500Y-58844498D01*
X123707500Y-59593411D01*
X123687815Y-59660450D01*
X123654623Y-59694986D01*
X123493859Y-59807553D01*
X123332954Y-59968458D01*
X123202432Y-60154865D01*
X123202431Y-60154867D01*
X123106261Y-60361102D01*
X123106258Y-60361111D01*
X123047366Y-60580902D01*
X123047364Y-60580913D01*
X123027532Y-60807598D01*
X123027532Y-60807601D01*
X123047364Y-61034286D01*
X123047366Y-61034297D01*
X123106258Y-61254088D01*
X123106261Y-61254097D01*
X123202431Y-61460332D01*
X123202432Y-61460334D01*
X123332954Y-61646741D01*
X123493858Y-61807645D01*
X123493861Y-61807647D01*
X123680266Y-61938168D01*
X123886504Y-62034339D01*
X123886509Y-62034340D01*
X123886511Y-62034341D01*
X123939415Y-62048516D01*
X124106308Y-62093235D01*
X124268230Y-62107401D01*
X124332998Y-62113068D01*
X124333000Y-62113068D01*
X124333002Y-62113068D01*
X124389672Y-62108109D01*
X124559692Y-62093235D01*
X124779496Y-62034339D01*
X124985734Y-61938168D01*
X125172139Y-61807647D01*
X125333047Y-61646739D01*
X125463568Y-61460334D01*
X125490619Y-61402321D01*
X125536788Y-61349886D01*
X125603981Y-61330733D01*
X125670862Y-61350948D01*
X125715380Y-61402322D01*
X125742432Y-61460334D01*
X125742433Y-61460335D01*
X125872954Y-61646741D01*
X126033858Y-61807645D01*
X126194623Y-61920213D01*
X126238248Y-61974789D01*
X126247500Y-62021788D01*
X126247500Y-79595911D01*
X126227815Y-79662950D01*
X126194623Y-79697486D01*
X126033859Y-79810053D01*
X125872954Y-79970958D01*
X125742432Y-80157365D01*
X125742430Y-80157368D01*
X125715380Y-80215377D01*
X125669207Y-80267815D01*
X125602013Y-80286966D01*
X125535132Y-80266749D01*
X125490619Y-80215377D01*
X125463568Y-80157366D01*
X125417307Y-80091297D01*
X125333045Y-79970958D01*
X125172141Y-79810054D01*
X124983376Y-79677881D01*
X124939751Y-79623305D01*
X124930500Y-79576311D01*
X124930500Y-78844498D01*
X124950185Y-78777458D01*
X125002989Y-78731704D01*
X125054500Y-78720498D01*
X125252871Y-78720498D01*
X125252872Y-78720498D01*
X125312483Y-78714090D01*
X125447331Y-78663795D01*
X125562546Y-78577545D01*
X125648796Y-78462330D01*
X125699091Y-78327482D01*
X125705500Y-78267872D01*
X125705499Y-76372127D01*
X125699091Y-76312516D01*
X125648796Y-76177668D01*
X125648795Y-76177667D01*
X125648793Y-76177663D01*
X125562547Y-76062454D01*
X125562544Y-76062451D01*
X125447335Y-75976205D01*
X125447328Y-75976201D01*
X125367094Y-75946276D01*
X125311160Y-75904405D01*
X125286743Y-75838940D01*
X125301595Y-75770667D01*
X125319190Y-75746120D01*
X125413979Y-75643152D01*
X125540924Y-75448848D01*
X125634157Y-75236299D01*
X125691134Y-75011304D01*
X125691135Y-75011296D01*
X125710300Y-74780005D01*
X125710300Y-74779992D01*
X125691135Y-74548701D01*
X125691133Y-74548690D01*
X125634157Y-74323698D01*
X125540924Y-74111150D01*
X125413983Y-73916851D01*
X125413980Y-73916848D01*
X125413979Y-73916846D01*
X125256784Y-73746086D01*
X125256779Y-73746082D01*
X125256777Y-73746080D01*
X125073634Y-73603534D01*
X125073628Y-73603530D01*
X124869504Y-73493063D01*
X124869495Y-73493060D01*
X124649984Y-73417701D01*
X124478282Y-73389049D01*
X124421049Y-73379499D01*
X124188951Y-73379499D01*
X124143164Y-73387139D01*
X123960015Y-73417701D01*
X123740504Y-73493060D01*
X123740495Y-73493063D01*
X123536371Y-73603530D01*
X123536365Y-73603534D01*
X123353222Y-73746080D01*
X123353219Y-73746083D01*
X123196016Y-73916851D01*
X123069075Y-74111150D01*
X122975842Y-74323698D01*
X122918866Y-74548690D01*
X122918864Y-74548701D01*
X122899700Y-74779992D01*
X122899700Y-74780005D01*
X122918864Y-75011296D01*
X122918866Y-75011307D01*
X122975842Y-75236299D01*
X123069075Y-75448847D01*
X123196016Y-75643146D01*
X123196019Y-75643150D01*
X123196021Y-75643152D01*
X123290803Y-75746113D01*
X123321724Y-75808766D01*
X123313864Y-75878192D01*
X123269716Y-75932347D01*
X123242906Y-75946276D01*
X123162669Y-75976202D01*
X123162664Y-75976205D01*
X123047455Y-76062451D01*
X123047452Y-76062454D01*
X122961206Y-76177663D01*
X122961202Y-76177670D01*
X122910908Y-76312516D01*
X122904501Y-76372115D01*
X122904501Y-76372123D01*
X122904500Y-76372134D01*
X122904500Y-78267869D01*
X122904501Y-78267875D01*
X122910908Y-78327482D01*
X122961202Y-78462327D01*
X122961206Y-78462334D01*
X123047452Y-78577543D01*
X123047455Y-78577546D01*
X123162664Y-78663792D01*
X123162671Y-78663796D01*
X123207618Y-78680560D01*
X123297517Y-78714090D01*
X123357127Y-78720499D01*
X123555499Y-78720498D01*
X123622538Y-78740182D01*
X123668293Y-78792986D01*
X123679499Y-78844498D01*
X123679499Y-79615517D01*
X123659814Y-79682556D01*
X123626623Y-79717092D01*
X123493863Y-79810051D01*
X123332951Y-79970962D01*
X123202432Y-80157365D01*
X123202431Y-80157367D01*
X123106261Y-80363602D01*
X123106258Y-80363611D01*
X123047366Y-80583402D01*
X123047364Y-80583413D01*
X123027532Y-80810098D01*
X123027532Y-80810101D01*
X123047364Y-81036786D01*
X123047366Y-81036797D01*
X123106258Y-81256588D01*
X123106261Y-81256597D01*
X123202431Y-81462832D01*
X123202432Y-81462834D01*
X123332954Y-81649241D01*
X123493858Y-81810145D01*
X123493861Y-81810147D01*
X123680266Y-81940668D01*
X123886504Y-82036839D01*
X124106308Y-82095735D01*
X124268230Y-82109901D01*
X124332998Y-82115568D01*
X124333000Y-82115568D01*
X124333002Y-82115568D01*
X124389672Y-82110609D01*
X124559692Y-82095735D01*
X124779496Y-82036839D01*
X124985734Y-81940668D01*
X125172139Y-81810147D01*
X125333047Y-81649239D01*
X125463568Y-81462834D01*
X125490618Y-81404824D01*
X125536790Y-81352385D01*
X125603983Y-81333233D01*
X125670865Y-81353448D01*
X125715382Y-81404825D01*
X125742429Y-81462828D01*
X125742432Y-81462834D01*
X125872954Y-81649241D01*
X126033858Y-81810145D01*
X126194623Y-81922713D01*
X126238248Y-81977289D01*
X126247500Y-82024288D01*
X126247500Y-99598411D01*
X126227815Y-99665450D01*
X126194623Y-99699986D01*
X126033859Y-99812553D01*
X125872954Y-99973458D01*
X125742432Y-100159865D01*
X125742431Y-100159867D01*
X125715382Y-100217875D01*
X125669209Y-100270314D01*
X125602016Y-100289466D01*
X125535135Y-100269250D01*
X125490618Y-100217875D01*
X125463568Y-100159867D01*
X125463567Y-100159865D01*
X125415563Y-100091308D01*
X125333047Y-99973461D01*
X125333045Y-99973458D01*
X125172140Y-99812553D01*
X125011377Y-99699986D01*
X124967752Y-99645409D01*
X124958500Y-99598411D01*
X124958500Y-98844498D01*
X124978185Y-98777459D01*
X125030989Y-98731704D01*
X125082500Y-98720498D01*
X125252871Y-98720498D01*
X125252872Y-98720498D01*
X125312483Y-98714090D01*
X125447331Y-98663795D01*
X125562546Y-98577545D01*
X125648796Y-98462330D01*
X125699091Y-98327482D01*
X125705500Y-98267872D01*
X125705499Y-96372127D01*
X125699091Y-96312516D01*
X125678509Y-96257334D01*
X125648797Y-96177670D01*
X125648793Y-96177663D01*
X125562547Y-96062454D01*
X125562544Y-96062451D01*
X125447335Y-95976205D01*
X125447328Y-95976201D01*
X125367094Y-95946276D01*
X125311160Y-95904405D01*
X125286743Y-95838940D01*
X125301595Y-95770667D01*
X125319190Y-95746120D01*
X125413979Y-95643152D01*
X125540924Y-95448848D01*
X125634157Y-95236299D01*
X125691134Y-95011304D01*
X125691135Y-95011296D01*
X125710300Y-94780005D01*
X125710300Y-94779992D01*
X125691135Y-94548701D01*
X125691133Y-94548690D01*
X125634157Y-94323698D01*
X125540924Y-94111150D01*
X125413983Y-93916851D01*
X125413980Y-93916848D01*
X125413979Y-93916846D01*
X125256784Y-93746086D01*
X125256779Y-93746082D01*
X125256777Y-93746080D01*
X125073634Y-93603534D01*
X125073628Y-93603530D01*
X124869504Y-93493063D01*
X124869495Y-93493060D01*
X124649984Y-93417701D01*
X124478282Y-93389049D01*
X124421049Y-93379499D01*
X124188951Y-93379499D01*
X124143164Y-93387139D01*
X123960015Y-93417701D01*
X123740504Y-93493060D01*
X123740495Y-93493063D01*
X123536371Y-93603530D01*
X123536365Y-93603534D01*
X123353222Y-93746080D01*
X123353219Y-93746083D01*
X123353216Y-93746085D01*
X123353216Y-93746086D01*
X123294267Y-93810120D01*
X123196016Y-93916851D01*
X123069075Y-94111150D01*
X122975842Y-94323698D01*
X122918866Y-94548690D01*
X122918864Y-94548701D01*
X122899700Y-94779992D01*
X122899700Y-94780005D01*
X122918864Y-95011296D01*
X122918866Y-95011307D01*
X122975842Y-95236299D01*
X123069075Y-95448847D01*
X123196016Y-95643146D01*
X123196019Y-95643150D01*
X123196021Y-95643152D01*
X123290803Y-95746113D01*
X123321724Y-95808766D01*
X123313864Y-95878192D01*
X123269716Y-95932347D01*
X123242906Y-95946276D01*
X123162669Y-95976202D01*
X123162664Y-95976205D01*
X123047455Y-96062451D01*
X123047452Y-96062454D01*
X122961206Y-96177663D01*
X122961202Y-96177670D01*
X122910908Y-96312516D01*
X122906340Y-96355008D01*
X122904501Y-96372123D01*
X122904500Y-96372134D01*
X122904500Y-98267869D01*
X122904501Y-98267875D01*
X122910908Y-98327482D01*
X122961202Y-98462327D01*
X122961206Y-98462334D01*
X123047452Y-98577543D01*
X123047455Y-98577546D01*
X123162664Y-98663792D01*
X123162671Y-98663796D01*
X123207618Y-98680560D01*
X123297517Y-98714090D01*
X123357127Y-98720499D01*
X123583499Y-98720498D01*
X123650538Y-98740182D01*
X123696293Y-98792986D01*
X123707499Y-98844498D01*
X123707500Y-99598411D01*
X123687816Y-99665450D01*
X123654623Y-99699986D01*
X123493859Y-99812553D01*
X123332954Y-99973458D01*
X123202432Y-100159865D01*
X123202431Y-100159867D01*
X123106261Y-100366102D01*
X123106258Y-100366111D01*
X123047366Y-100585902D01*
X123047364Y-100585913D01*
X123027532Y-100812598D01*
X123027532Y-100812601D01*
X123047364Y-101039286D01*
X123047366Y-101039297D01*
X123106258Y-101259088D01*
X123106261Y-101259097D01*
X123202431Y-101465332D01*
X123202432Y-101465334D01*
X123332954Y-101651741D01*
X123493858Y-101812645D01*
X123493861Y-101812647D01*
X123680266Y-101943168D01*
X123886504Y-102039339D01*
X124106308Y-102098235D01*
X124268230Y-102112401D01*
X124332998Y-102118068D01*
X124333000Y-102118068D01*
X124333002Y-102118068D01*
X124389672Y-102113109D01*
X124559692Y-102098235D01*
X124779496Y-102039339D01*
X124985734Y-101943168D01*
X125172139Y-101812647D01*
X125333047Y-101651739D01*
X125463568Y-101465334D01*
X125490618Y-101407324D01*
X125536790Y-101354885D01*
X125603983Y-101335733D01*
X125670865Y-101355948D01*
X125715382Y-101407325D01*
X125742429Y-101465328D01*
X125742432Y-101465334D01*
X125872954Y-101651741D01*
X126033858Y-101812645D01*
X126194623Y-101925213D01*
X126238248Y-101979789D01*
X126247500Y-102026788D01*
X126247500Y-119600911D01*
X126227815Y-119667950D01*
X126194623Y-119702486D01*
X126033859Y-119815053D01*
X125872954Y-119975958D01*
X125742432Y-120162365D01*
X125742430Y-120162368D01*
X125715380Y-120220377D01*
X125669207Y-120272815D01*
X125602013Y-120291966D01*
X125535132Y-120271749D01*
X125490619Y-120220377D01*
X125463568Y-120162366D01*
X125413806Y-120091297D01*
X125333045Y-119975958D01*
X125172141Y-119815054D01*
X125011376Y-119702486D01*
X124967751Y-119647909D01*
X124958499Y-119600915D01*
X124958499Y-118844497D01*
X124978184Y-118777459D01*
X125030988Y-118731704D01*
X125082499Y-118720498D01*
X125252871Y-118720498D01*
X125252872Y-118720498D01*
X125312483Y-118714090D01*
X125447331Y-118663795D01*
X125562546Y-118577545D01*
X125648796Y-118462330D01*
X125699091Y-118327482D01*
X125705500Y-118267872D01*
X125705499Y-116372127D01*
X125699091Y-116312516D01*
X125648796Y-116177668D01*
X125648795Y-116177667D01*
X125648793Y-116177663D01*
X125562547Y-116062454D01*
X125562544Y-116062451D01*
X125447335Y-115976205D01*
X125447328Y-115976201D01*
X125367094Y-115946276D01*
X125311160Y-115904405D01*
X125286743Y-115838940D01*
X125301595Y-115770667D01*
X125319190Y-115746120D01*
X125413979Y-115643152D01*
X125540924Y-115448848D01*
X125634157Y-115236299D01*
X125691134Y-115011304D01*
X125693225Y-114986068D01*
X125710300Y-114780005D01*
X125710300Y-114779992D01*
X125691135Y-114548701D01*
X125691133Y-114548690D01*
X125634157Y-114323698D01*
X125540924Y-114111150D01*
X125413983Y-113916851D01*
X125413980Y-113916848D01*
X125413979Y-113916846D01*
X125256784Y-113746086D01*
X125256779Y-113746082D01*
X125256777Y-113746080D01*
X125073634Y-113603534D01*
X125073628Y-113603530D01*
X124869504Y-113493063D01*
X124869495Y-113493060D01*
X124649984Y-113417701D01*
X124478282Y-113389049D01*
X124421049Y-113379499D01*
X124188951Y-113379499D01*
X124143164Y-113387139D01*
X123960015Y-113417701D01*
X123740504Y-113493060D01*
X123740495Y-113493063D01*
X123536371Y-113603530D01*
X123536365Y-113603534D01*
X123353222Y-113746080D01*
X123353219Y-113746083D01*
X123196016Y-113916851D01*
X123069075Y-114111150D01*
X122975842Y-114323698D01*
X122918866Y-114548690D01*
X122918864Y-114548701D01*
X122899700Y-114779992D01*
X122899700Y-114780005D01*
X122918864Y-115011296D01*
X122918866Y-115011307D01*
X122975842Y-115236299D01*
X123069075Y-115448847D01*
X123196016Y-115643146D01*
X123196019Y-115643150D01*
X123196021Y-115643152D01*
X123290803Y-115746113D01*
X123321724Y-115808766D01*
X123313864Y-115878192D01*
X123269716Y-115932347D01*
X123242906Y-115946276D01*
X123162669Y-115976202D01*
X123162664Y-115976205D01*
X123047455Y-116062451D01*
X123047452Y-116062454D01*
X122961206Y-116177663D01*
X122961202Y-116177670D01*
X122910908Y-116312516D01*
X122904501Y-116372115D01*
X122904501Y-116372123D01*
X122904500Y-116372134D01*
X122904500Y-118267869D01*
X122904501Y-118267875D01*
X122910908Y-118327482D01*
X122961202Y-118462327D01*
X122961206Y-118462334D01*
X123047452Y-118577543D01*
X123047455Y-118577546D01*
X123162664Y-118663792D01*
X123162671Y-118663796D01*
X123207618Y-118680560D01*
X123297517Y-118714090D01*
X123357127Y-118720499D01*
X123583500Y-118720498D01*
X123650539Y-118740182D01*
X123696294Y-118792986D01*
X123707500Y-118844498D01*
X123707499Y-119600911D01*
X123687814Y-119667951D01*
X123654623Y-119702486D01*
X123493856Y-119815056D01*
X123332954Y-119975958D01*
X123202432Y-120162365D01*
X123202431Y-120162367D01*
X123106261Y-120368602D01*
X123106258Y-120368611D01*
X123047366Y-120588402D01*
X123047364Y-120588413D01*
X123027532Y-120815098D01*
X123027532Y-120815101D01*
X123047364Y-121041786D01*
X123047366Y-121041797D01*
X123106258Y-121261588D01*
X123106261Y-121261597D01*
X123202431Y-121467832D01*
X123202432Y-121467834D01*
X123332954Y-121654241D01*
X123493858Y-121815145D01*
X123493861Y-121815147D01*
X123680266Y-121945668D01*
X123886504Y-122041839D01*
X124106308Y-122100735D01*
X124268230Y-122114901D01*
X124332998Y-122120568D01*
X124333000Y-122120568D01*
X124333002Y-122120568D01*
X124389672Y-122115609D01*
X124559692Y-122100735D01*
X124779496Y-122041839D01*
X124985734Y-121945668D01*
X125172139Y-121815147D01*
X125333047Y-121654239D01*
X125463568Y-121467834D01*
X125490619Y-121409821D01*
X125536788Y-121357386D01*
X125603981Y-121338233D01*
X125670862Y-121358448D01*
X125715380Y-121409822D01*
X125742432Y-121467834D01*
X125742433Y-121467835D01*
X125872954Y-121654241D01*
X126033858Y-121815145D01*
X126194623Y-121927713D01*
X126238248Y-121982289D01*
X126247500Y-122029288D01*
X126247500Y-139603411D01*
X126227815Y-139670450D01*
X126194623Y-139704986D01*
X126033859Y-139817553D01*
X125872954Y-139978458D01*
X125742432Y-140164865D01*
X125742430Y-140164868D01*
X125715380Y-140222877D01*
X125669207Y-140275315D01*
X125602013Y-140294466D01*
X125535132Y-140274249D01*
X125490619Y-140222877D01*
X125463568Y-140164866D01*
X125333047Y-139978461D01*
X125333045Y-139978458D01*
X125172141Y-139817554D01*
X125011376Y-139704986D01*
X124967751Y-139650409D01*
X124958499Y-139603411D01*
X124958500Y-138844498D01*
X124978185Y-138777458D01*
X125030989Y-138731704D01*
X125082500Y-138720498D01*
X125252871Y-138720498D01*
X125252872Y-138720498D01*
X125312483Y-138714090D01*
X125447331Y-138663795D01*
X125562546Y-138577545D01*
X125648796Y-138462330D01*
X125699091Y-138327482D01*
X125705500Y-138267872D01*
X125705499Y-136372127D01*
X125699091Y-136312516D01*
X125648796Y-136177668D01*
X125648795Y-136177667D01*
X125648793Y-136177663D01*
X125562547Y-136062454D01*
X125562544Y-136062451D01*
X125447335Y-135976205D01*
X125447328Y-135976201D01*
X125367094Y-135946276D01*
X125311160Y-135904405D01*
X125286743Y-135838940D01*
X125301595Y-135770667D01*
X125319190Y-135746120D01*
X125413979Y-135643152D01*
X125540924Y-135448848D01*
X125634157Y-135236299D01*
X125691134Y-135011304D01*
X125691966Y-135001267D01*
X125710300Y-134780005D01*
X125710300Y-134779992D01*
X125691135Y-134548701D01*
X125691133Y-134548690D01*
X125634157Y-134323698D01*
X125540924Y-134111150D01*
X125413983Y-133916851D01*
X125413980Y-133916848D01*
X125413979Y-133916846D01*
X125256784Y-133746086D01*
X125256779Y-133746082D01*
X125256777Y-133746080D01*
X125073634Y-133603534D01*
X125073628Y-133603530D01*
X124869504Y-133493063D01*
X124869495Y-133493060D01*
X124649984Y-133417701D01*
X124478282Y-133389049D01*
X124421049Y-133379499D01*
X124188951Y-133379499D01*
X124143164Y-133387139D01*
X123960015Y-133417701D01*
X123740504Y-133493060D01*
X123740495Y-133493063D01*
X123536371Y-133603530D01*
X123536365Y-133603534D01*
X123353222Y-133746080D01*
X123353219Y-133746083D01*
X123196016Y-133916851D01*
X123069075Y-134111150D01*
X122975842Y-134323698D01*
X122918866Y-134548690D01*
X122918864Y-134548701D01*
X122899700Y-134779992D01*
X122899700Y-134780005D01*
X119380000Y-134780005D01*
X119380000Y-52297068D01*
X119399685Y-52230029D01*
X119416314Y-52209392D01*
X129268889Y-42356818D01*
X129330212Y-42323333D01*
X129356570Y-42320499D01*
X219253431Y-42320499D01*
X219320470Y-42340184D01*
G37*
%TD.AperFunction*%
%TD*%
M02*
